<?xml version="1.0" encoding="utf-8"?>
<!-- Generator: Adobe Illustrator 25.2.1, SVG Export Plug-In . SVG Version: 6.00 Build 0)  -->
<!DOCTYPE svg PUBLIC "-//W3C//DTD SVG 1.1//EN" "http://www.w3.org/Graphics/SVG/1.1/DTD/svg11.dtd" [
	<!ENTITY ns_extend "http://ns.adobe.com/Extensibility/1.0/">
	<!ENTITY ns_ai "http://ns.adobe.com/AdobeIllustrator/10.0/">
	<!ENTITY ns_graphs "http://ns.adobe.com/Graphs/1.0/">
	<!ENTITY ns_vars "http://ns.adobe.com/Variables/1.0/">
	<!ENTITY ns_imrep "http://ns.adobe.com/ImageReplacement/1.0/">
	<!ENTITY ns_sfw "http://ns.adobe.com/SaveForWeb/1.0/">
	<!ENTITY ns_custom "http://ns.adobe.com/GenericCustomNamespace/1.0/">
	<!ENTITY ns_adobe_xpath "http://ns.adobe.com/XPath/1.0/">
]>
<svg version="1.1" id="Capa_1" xmlns:x="&ns_extend;" xmlns:i="&ns_ai;" xmlns:graph="&ns_graphs;"
	 xmlns="http://www.w3.org/2000/svg" xmlns:xlink="http://www.w3.org/1999/xlink" x="0px" y="0px" viewBox="0 0 159 125"
	 style="enable-background:new 0 0 159 125;" xml:space="preserve">
<style type="text/css">
	.st0{fill:#00913E;}
	.st1{fill:#486769;}
	.st2{fill:#0C9038;}
	.st3{fill:#9B9A9B;}
</style>
<metadata>
	<sfw  xmlns="&ns_sfw;">
		<slices></slices>
		<sliceSourceBounds  bottomLeftOrigin="true" height="104" width="158" x="0.5" y="10.5"></sliceSourceBounds>
	</sfw>
</metadata>
<g>
	<g>
		<path class="st0" d="M150.2,35.9c0,0,14.9,41.2-62.5,67c0,0,47.9-2.9,64.5-27.3C167.5,52.9,150.2,35.9,150.2,35.9"/>
		<path class="st0" d="M91.5,10.7c0,0-70.5,3-89.3,54.1c0,0-9.7-18.2,17.2-38S91.5,10.7,91.5,10.7"/>
		<path class="st1" d="M120.5,25.3v27.2l-6.2-9.6c0,0,5.6-0.2,5.6-7.6s-4.2-9.9-12.1-9.9h-13v11.8H78.3v7.2h4.5c0,0,0.5,2.3-3.7,2.3
			s-5-4.2-5-6.7c0-2.5,1-6.5,4.9-6.5c3.9,0,4.4,2.3,4.4,2.3l9.2-3.5c0,0-3.6-7.9-13.3-7.9c-9.1,0-15.2,7.3-16,14.3l-4.6-13h-12
			l-9.5,26.9c0,0,4.6-4.1,6.5-1.5c0,0,1.6-0.9,3.3-0.8c0,0,1.1-1.9,2.8-1.7c0,0,0.6-0.3,0.9,0l0.7,0.2h0.6c0,0,0.8-0.5,1.4,0
			c0,0,1.9,1.6,2.2,3l0.9,0.1l0.7,3.7h11.6l-1.1-3.7c2.6,2.4,6.4,4.1,11.5,4.1c11.3,0,15.3-9.5,15.3-12.7v12.2h10.8v-9.7l5.2,9.7
			h21.1V25.3H120.5z M50.5,44.2l2-9l2,9H50.5z M106.7,38.8h-1.5v-5.8h1.5c0,0,3.2-0.2,3.2,3C109.9,39,106.7,38.8,106.7,38.8"/>
		<path class="st0" d="M73,59.6h5.4v2.2c1.1-1.7,3.1-2.8,5.1-2.8c2.2,0,4.3,1.9,4.3,4.4v16.6h-5.7V66.3c0-0.7,0.1-2.4-1.5-2.4
			c-1.2,0-1.5,1.7-1.5,2.2v14.1h-6V59.6z"/>
		<path class="st0" d="M92.4,63.9h-2.2v-4.2h2.2v-5.8H98v5.8h2.9V64H98v10.2c0,0.5,0.2,2.2,1.4,2.2h1.4v4.1l-3.5,0.1
			c-2.5,0-4.9-0.8-4.9-4L92.4,63.9z M100.9,80.4c0,0-1.9,0.3-3.6,0.3c-1.6,0-4.7-0.5-4.7-3.7"/>
		<path class="st0" d="M103.3,64.9c0-2.4,1.4-5.8,7.3-5.8c5.9,0,7.2,3.5,7.2,5.9V71h-9.1v3.6c0,1.4,0.9,2.1,1.5,2.1
			c0.3,0,0.8,0,0.9,0c1-0.1,1.3-1.2,1.3-1.7V73h5.3v1.7c0,2.4-1.3,5.9-7.2,5.9c-5.9,0-7.3-3.6-7.3-6V64.9z M108.9,67.1h3.8v-2
			c0-0.7-0.5-1.8-1.7-1.8c-0.1,0-0.3,0-0.3,0c-0.9,0-1.7,0.8-1.7,1.5V67.1z"/>
		<path class="st0" d="M55,64.9c0-2.4,1.4-5.8,7.3-5.8s7.2,3.5,7.2,5.9V71h-9.1v3.6c0,1.4,0.9,2.1,1.5,2.1c0.3,0,0.8,0,0.9,0
			c1-0.1,1.3-1.2,1.3-1.7V73h5.3v1.7c0,2.4-1.3,5.9-7.2,5.9s-7.3-3.6-7.3-6C55,74.6,55,64.9,55,64.9z M60.7,67.1h3.8v-2
			c0-0.7-0.5-1.8-1.7-1.8c-0.1,0-0.3,0-0.3,0c-0.9,0-1.7,0.8-1.7,1.5C60.7,64.7,60.7,67.1,60.7,67.1z"/>
		<path class="st0" d="M121.2,59.6h5.4v2.8c1.1-2,2.5-2.8,4.7-3.2V66h-1.4c-2,0-2.6,1.2-2.6,2.6v11.7h-6
			C121.2,80.3,121.2,59.6,121.2,59.6z"/>
		<path class="st0" d="M53.9,51.4L53.9,51.4c-0.1-0.1-0.1-0.2-0.1-0.3L53.7,51l-0.1-0.1l-0.1-0.1l0,0l0,0l0,0h-0.5
			c-0.1-0.2-0.3-0.5-0.4-0.7c-0.1-0.1-0.2-0.2-0.4-0.2C52,49.9,52,50,51.9,50c-0.1,0-0.1,0-0.2,0.1c-0.3,0.1-0.5,0.1-0.8,0.1
			c-0.1,0-0.2-0.1-0.4-0.2l-0.3-0.2c-0.1,0.2-0.3,0.2-0.5,0.3s-0.3,0.2-0.5,0.3s-0.3,0.3-0.4,0.4l0,0l0,0l0,0l0.1,0.1c0,0,0,0,0,0.1
			v0.1v0.1c0,0.2-0.2,0.3-0.4,0.4c-0.2,0.1-0.3,0.2-0.5,0.3l-0.1-0.1l-0.1-0.1c0,0-0.1,0-0.2,0l-0.1,0.1c-0.1,0.2-0.2,0.3-0.3,0.5
			c-0.3,0.2-0.7,0.1-0.9-0.1c0,0,0,0-0.1,0H46h-0.1c-0.1,0-0.2,0-0.3,0.1c-0.2,0.1-0.3,0.1-0.5,0.2c-0.6,0.3-1.2,0.6-1.8,1
			c-0.2,0.1-0.3,0.2-0.5,0.3c0,0-0.1,0-0.1,0.1c-0.1,0.1-0.3,0.2-0.4,0.3c-1.1,0.7-2,1.4-2.3,1.6c0,0.3-0.3,0.3-0.3,0.3
			c-0.2-0.3,0.3-0.5,0.3-0.5c0.3-0.5,1-1.6,1-1.6c1.6-1.1,0.8-2,0.8-2c-5.1,2.4-10.8,8.5-13.5,11.5c-0.3,0.3-0.6,0.7-0.9,1.1
			c-0.1,0.1-0.2,0.3-0.3,0.4c-0.1,0.1-0.1,0.2-0.2,0.2l-0.1,0.1l-0.1,0.1c-0.1,0.2-0.1,0.3-0.2,0.5c0,0.1-0.1,0.2-0.1,0.3v0.1l0,0
			c-0.1,0.1-0.2,0.3-0.3,0.4c-0.2,0.3-0.3,0.5-0.5,0.8c0,0.1-0.1,0.1-0.1,0.2c0,0,0,0,0,0.1c-0.2,0.4-0.4,0.7-0.6,1l0,0l0.1-0.1
			c-0.1,0.2-0.2,0.4-0.3,0.6c-0.5,1-0.9,1.8-1.2,2.6c0,0,0,0,0-0.1c-0.1,0.3-0.2,0.6-0.3,0.7c0.1-0.2,0.2-0.4,0.3-0.7
			c-0.3,0.6-0.5,1.1-0.6,1.5c-0.1,0.2-0.1,0.3-0.1,0.3c0,0.1-0.1,0.5,0.1-0.1v-0.1c0.1-0.2,0.1-0.2,0.1-0.2c0.3-0.8,0.4-0.9,0.6-1.4
			c0.2-0.3,0.3-0.5,0.3-0.6c0,0.1-0.2,0.3-0.2,0.5l0,0l0,0c0-0.1,0.1-0.2,0.1-0.3c1.2-2.3,3.2-5.2,3.2-5.2s0.3-0.2,0.6-0.3
			c0.3-0.1,0,0.5,0,0.5s0,0.2-0.2,0.5c0,0,0,0,0,0.1c0,0.1-0.1,0.2-0.1,0.3c-0.1,0.2-0.2,0.3-0.3,0.5c-0.1,0.1-0.1,0.2-0.2,0.3
			l0.3,0.1L26.6,69h0.1l0,0c0.1,0,0.1,0,0.1,0c0.1,0.1-0.3,0.5-0.3,0.2l0,0c0,0,0,0-0.1,0.1c0,0.3,0.2,0.5-0.2,1.2
			c-0.5,1-0.7,1.3-1,1.7c-0.3,0.4-0.2-0.4-0.2-0.4l-0.2-0.3c-0.5,0.4,0,0.9,0,0.9c0.2-0.1,0.3,0.4,0.3,0.4c-0.1,0.1-0.3,0.3-0.4,0.6
			c0,0.1,0,0.2,0,0.3c0,0.2,0,0.3,0,0.3l-0.1,0.1V74c-0.4,0.8-0.7,1.8-0.7,1.8c0,0.4-0.1,2.4-0.1,2.4v1.6v-0.1v-0.1
			c0-0.1,0-0.2,0-0.2c0-0.2,0-0.3,0-0.5c0-0.7,0.1-1.3,0.1-1.6c0-0.3,0-0.4,0-0.2c0-0.3,0-0.5,0-0.8V76v-0.1v-0.1l0.1-0.2
			c0.2-0.5,0.4-1,0.6-1.5c0,0,0-0.1,0.1-0.1l0,0c-0.2,0.4-0.4,0.8-0.5,1.2c-0.1,0.2-0.2,0.5-0.2,0.7c0,0.3,0,0.5,0,0.7
			c0,0.5,0,1-0.1,1.5c0,0.5,0,1,0,1.5c0,0.1,0,0.2,0,0.4l0.1,0.3c0.1,0.2,0.2,0.5,0.3,0.7c0.2,0.4,0.5,0.9,0.8,1.2
			c0.7,0.9,1.8,1.8,3.1,2.5c1.2,0.7,2.6,1.1,4,1.4l0,0c0.1,0,0.2,0,0.4,0.1c0.1,0,0.1,0,0.2,0c0.1,0,0.1,0,0.2,0
			c0.3,0,0.6,0,0.9-0.1l0,0c0,0,0,0,0.1,0c0.6,0,1.2-0.1,1.7-0.2l0.3-0.1c0.1,0,0.2,0,0.3-0.1h0.3l0.5-0.1l0.5-0.1l0.3-0.1
			c0.1,0,0.2,0,0.2-0.1l0.5-0.1c0.3-0.1,0.7-0.2,1-0.3l1-0.4c0.3-0.1,0.6-0.3,1-0.4l0.5-0.2l0.2-0.1l0.2-0.1
			c0.6-0.3,1.3-0.7,1.8-1.1c1.2-0.7,2.3-1.6,3.5-2.6l0.4-0.4l0.4-0.4l0.4-0.4l0.4-0.4c0.5-0.5,0.9-1.1,1.3-1.7l0,0
			c-0.2,0.2-0.4,0.3-0.7,0.4c-0.2,0.1-0.5,0.2-0.7,0.3c-0.5,0.2-1,0.3-1.5,0.4h-0.2h-0.1h-0.1L47.1,78c-0.2,0.1-0.5,0.2-0.7,0.4
			c-0.5,0.2-0.9,0.5-1.3,0.7c-0.9,0.5-1.7,1-2.6,1.5l-0.2-0.2l0.3-0.2l0.6-0.4c0.4-0.3,0.8-0.5,1.2-0.8c0.4-0.3,0.8-0.5,1.2-0.8
			l1.5-1l0.1-0.1h-0.1c-0.7,0.4-1.5,0.8-2.2,1.2l-0.5,0.3l-0.2,0.1l-0.1,0.1l0,0v-0.1v-0.1l0,0l0,0H44l-0.2,0.1L43.3,79
			c-0.3,0.2-0.6,0.3-1,0.5c-0.2,0.1-0.3,0.2-0.5,0.3c-0.1,0.1-0.3,0.1-0.5,0.1h-0.1c0,0,0,0-0.1,0L40.9,80l-0.2,0.1l-0.5,0.3
			c-0.3,0.2-0.7,0.3-1,0.5c0,0,0,0,0.1-0.1c-1,0.5-1.9,0.9-2.9,1.4c-0.9,0.4-1.8,1-2.9,1.2l0,0c-0.6,0.2-1.2,0.2-1.9,0.1
			c-0.3-0.1-0.6-0.2-0.9-0.3c-0.1-0.1-0.3-0.2-0.4-0.3l-0.1-0.1c0,0-0.1,0-0.1-0.1c-0.1,0-0.1-0.1-0.2-0.1c-0.5-0.4-0.8-1-1-1.6
			c-0.2-0.6-0.3-1.3-0.3-1.9c-0.1-1.3,0.1-2.6,0.4-3.9c0.3-1.2,0.7-2.4,1.2-3.6c1.2-2.8,3.1-5.4,5.3-7.7c2.1-2.4,4.5-4.8,7.1-6.5
			l0,0c0.6-0.4,1.2-0.7,1.8-1l0.5-0.2c0.2,0,0.3-0.1,0.5-0.2c0.3-0.1,0.7-0.2,1-0.1c0.1-0.2,0.3-0.4,0.6-0.5c0.1,0,0.3,0,0.4,0
			c0.1,0,0.2,0.2,0.2,0.3c0,0.3-0.1,0.5-0.2,0.7l-0.1,0.2v0.1v0.1l0.1,0.4c0.1-0.1,0.3-0.2,0.4-0.3c0.1,0,0.1-0.1,0.2-0.1h0.1
			c0,0,0,0.1,0.1,0.1c0.1,0.3,0.1,0.6,0.1,0.9c0,0.3,0,0.6,0,0.9v0.5v0.1l0,0c0,0,0.1,0,0.1,0.1c0.1,0,0.1,0.1,0.2,0.1
			c0.1,0.1,0.2,0.2,0.3,0.4c0.1,0.1,0.2,0.3,0.3,0.4c0.2,0.2,0.4,0.5,0.7,0.7c0.4,0.5,0.9,0.9,1.4,1.4c0.3,0.2,0.2,0.5,0.2,0.8
			s-0.1,0.6-0.1,0.9c-0.1,0.6-0.3,1.2-0.4,1.8l0,0l0,0l0,0v0.1l0,0l0,0l0,0l0,0c0.6-0.8,1.1-1.6,1.5-2.5c0.3-0.5,0.5-1.1,0.7-1.6
			v-0.1c0.1-0.1,0.1-0.3,0.2-0.4c0.1-0.2,0.1-0.4,0.2-0.5v-0.1l0,0c0.1-0.2,0.1-0.4,0.1-0.6v-0.1c0.1-0.3,0.1-0.5,0.2-0.8
			c0.1-0.5,0.2-1,0.3-1.5s0.2-0.9,0.3-1.4c0-0.1,0-0.2,0-0.2c0.1-0.4,0.2-0.9,0.3-1.3c0-0.1,0-0.2,0-0.2c0-0.1,0.1-0.1,0.2-0.1
			c0.1,0.1,0.3,0.2,0.3,0.4c0.1,0.3,0.1,0.7,0,1c0,0.3-0.1,0.7-0.1,1c0,0.1,0,0.2,0,0.3v0.3c0,0.2,0,0.4,0,0.6c0-0.1,0-0.1,0-0.2
			C55.5,55.3,54.5,52.7,53.9,51.4 M23.6,79.9L23.6,79.9L23.6,79.9L23.6,79.9z M23.8,80.4C23.8,80.3,23.8,80.3,23.8,80.4
			c0,0,0,0.1,0.1,0.2C23.8,80.5,23.8,80.4,23.8,80.4 M24,80.8C24,80.7,23.9,80.7,24,80.8C23.9,80.7,23.9,80.7,24,80.8
			c0-0.1-0.1-0.1-0.1-0.2S23.9,80.6,24,80.8c0-0.1,0-0.1-0.1-0.2c0,0.1,0.1,0.2,0.1,0.3C24,80.8,24,80.8,24,80.8 M24.2,81.3
			c0,0-0.1-0.1-0.1-0.2C24.1,81.1,24.2,81.3,24.2,81.3L24.2,81.3 M24.3,76.4c0,0.2,0,0.2,0,0.2L24,76.8v-0.4c0-0.3,0.3-0.3,0.3-0.3
			S24.4,76.2,24.3,76.4 M24.6,78.7c-0.1,0-0.1-0.2-0.1-0.5c0-0.3,0.2-0.4,0.2-0.4c0,0.2,0.1,0.9,0.1,0.9S24.7,78.8,24.6,78.7
			 M24.9,77.3c0,0-0.1,0-0.3-0.2c-0.2-0.2,0-0.2,0-0.2v-0.3c0,0-0.1-0.1,0-0.4c0.1-0.3,0.3-0.4,0.3-0.4s0,0.1-0.1,0.6
			C24.7,76.9,24.9,77.3,24.9,77.3 M25.1,75.3H25c0,0.1,0,0,0,0l0,0v-0.1c-0.1-0.4,0.1-0.4,0.1-0.4V75.3z M44.4,79.5L44.4,79.5
			c-0.2,0.1-0.4,0.2-0.5,0.3C44,79.7,44.2,79.6,44.4,79.5 M44.9,78.5c0.1,0,0.1-0.1,0.2-0.1l0,0L44.9,78.5z M46.3,77.5l0.2-0.1
			c-0.5,0.3-1.2,0.7-1.9,1C45.2,78,45.8,77.7,46.3,77.5 M41.8,80.5L41.8,80.5l0.1,0.1l0.1,0.2L41.8,80.5
			C41.7,80.5,41.8,80.5,41.8,80.5 M41.3,79.8C41.2,79.8,41.2,79.8,41.3,79.8c-0.1,0.1-0.2,0.1-0.3,0.2
			C41.1,79.9,41.2,79.8,41.3,79.8 M38.8,80.8c-1,0.5-2.3,1.2-3.8,1.8C36.4,82.1,37.5,81.6,38.8,80.8 M25.4,74
			c-0.1-0.2,0.1-0.3,0.1-0.3C25.6,73.8,25.5,74.2,25.4,74 M25.6,73.3c0-0.2,0.2-0.3,0.2-0.3C25.8,73.1,25.6,73.5,25.6,73.3
			 M25.8,72.6c0-0.2,0.3-0.2,0.3-0.2C26.1,72.5,25.8,72.8,25.8,72.6 M26.2,83.7L26.2,83.7L26.2,83.7L26.2,83.7 M26.1,72.1
			c-0.2-0.3,0.3-0.5,0.3-0.5C26.7,72.1,26.1,72.1,26.1,72.1 M28.3,67.8h-0.1c0,0,0,0.1-0.1,0.2c-0.1,0.1,0,0.1-0.1,0.2
			c-0.1,0.2-0.2,0.3-0.2,0.3c-0.1,0.1-0.2,0.3-0.2,0.6c-0.1,0.2-0.4,0.5-0.4,0.6c-0.1,0.1-0.2,0.3-0.3,0.5c-0.1,0.2,0,0.4-0.2,0.3
			c-0.2-0.1,0.1-0.3,0.1-0.3l0.1-0.1c0,0,0.1-0.1,0.2-0.5s0.2-0.4,0.3-0.5c0.1-0.1,0.3-0.3,0.3-0.3s0.1-0.1,0.1-0.2
			c0-0.1,0.3-0.3,0.4-0.4c0.1-0.1,0.1-0.1,0.1-0.3c0.1-0.2,0.2-0.1,0.2-0.1C28.5,67.6,28.4,67.8,28.3,67.8 M28.8,67.2
			c0,0.1-0.1,0-0.2-0.1c-0.1-0.1,0.1-0.2,0.1-0.2C28.8,66.9,28.8,67.1,28.8,67.2 M30.1,65l-0.9,1.1c0,0-0.1,0.2,0.1-0.5
			c0.2-0.7,0.9-1,0.9-1L30.1,65z M39.2,56.3c0-0.2,0.3-0.2,0.3-0.2C39.6,56.2,39.2,56.5,39.2,56.3 M39,56.5c0-0.2,0.3-0.2,0.3-0.2
			C39.3,56.4,39,56.7,39,56.5"/>
		<path class="st2" d="M26.4,70c0,0.2-0.1,0.3-0.2,0.5l0,0C26.3,70.4,26.4,70.2,26.4,70"/>
	</g>
	<g>
		<path class="st3" d="M26.9,111.9h-2.5l-0.4,1h-0.8l2-5.1H26l2,5.1h-0.8L26.9,111.9z M24.5,111.3h2l-1-2.8L24.5,111.3z"/>
		<path class="st3" d="M31.1,110.7c0-0.6-0.3-0.8-0.8-0.8c-0.4,0-0.8,0.3-1,0.5v2.6h-0.7v-3.7h0.7v0.5c0.2-0.3,0.7-0.6,1.3-0.6
			c0.8,0,1.2,0.4,1.2,1.2v2.5h-0.7V110.7z"/>
		<path class="st3" d="M38.2,111.9h-2.5l-0.4,1h-0.8l2-5.1h0.9l2,5.1h-0.8L38.2,111.9z M35.9,111.3h2l-1-2.8L35.9,111.3z"/>
		<path class="st3" d="M44.5,110.6c0-0.4-0.2-0.7-0.6-0.7c-0.4,0-0.7,0.3-0.9,0.5v2.6h-0.7v-2.4c0-0.4-0.2-0.7-0.6-0.7
			c-0.4,0-0.7,0.3-0.9,0.5v2.6H40v-3.7h0.7v0.5c0.2-0.2,0.6-0.6,1.2-0.6c0.5,0,0.9,0.3,1,0.7c0.2-0.3,0.7-0.7,1.2-0.7
			c0.7,0,1,0.4,1,1.1v2.6h-0.7V110.6z"/>
		<path class="st3" d="M48,109.3c1.1,0,1.8,0.8,1.8,2v0.2h-3c0.1,0.6,0.5,1.1,1.2,1.1c0.4,0,0.8-0.2,1.1-0.4l0.3,0.4
			c-0.4,0.4-0.9,0.5-1.5,0.5c-1.1,0-1.9-0.8-1.9-1.9C46.1,110.1,46.8,109.3,48,109.3z M46.8,110.9h2.2c0-0.5-0.3-1.1-1.1-1.1
			C47.2,109.8,46.8,110.4,46.8,110.9z"/>
		<path class="st3" d="M50.6,109.3h0.7v0.6c0.3-0.4,0.7-0.6,1.2-0.6v0.7c-0.1,0-0.1,0-0.2,0c-0.3,0-0.8,0.3-1,0.5v2.5h-0.7V109.3z"
			/>
		<path class="st3" d="M53,108.3c0-0.2,0.2-0.4,0.4-0.4s0.4,0.2,0.4,0.4c0,0.2-0.2,0.4-0.4,0.4S53,108.5,53,108.3z M53.1,109.3h0.7
			v3.7h-0.7V109.3z"/>
		<path class="st3" d="M56.6,109.3c0.7,0,1.1,0.3,1.4,0.6l-0.5,0.4c-0.2-0.3-0.5-0.5-0.9-0.5c-0.7,0-1.2,0.5-1.2,1.3
			s0.5,1.3,1.2,1.3c0.4,0,0.7-0.2,0.9-0.5l0.5,0.4c-0.3,0.4-0.7,0.6-1.4,0.6c-1.1,0-1.8-0.8-1.8-1.9
			C54.8,110.1,55.5,109.3,56.6,109.3z"/>
		<path class="st3" d="M61.1,112.6c-0.3,0.3-0.7,0.5-1.2,0.5c-0.6,0-1.3-0.4-1.3-1.2c0-0.8,0.7-1.2,1.3-1.2c0.5,0,0.9,0.2,1.2,0.5
			v-0.6c0-0.5-0.4-0.7-0.9-0.7c-0.4,0-0.8,0.2-1.1,0.5l-0.3-0.5c0.4-0.4,0.9-0.6,1.5-0.6c0.8,0,1.5,0.3,1.5,1.3v2.4h-0.7V112.6z
			 M61.1,111.6c-0.2-0.3-0.6-0.4-0.9-0.4c-0.5,0-0.8,0.3-0.8,0.7c0,0.4,0.3,0.7,0.8,0.7c0.4,0,0.7-0.1,0.9-0.4V111.6z"/>
		<path class="st3" d="M65.4,110.7c0-0.6-0.3-0.8-0.8-0.8c-0.4,0-0.8,0.3-1,0.5v2.6h-0.7v-3.7h0.7v0.5c0.2-0.3,0.7-0.6,1.3-0.6
			c0.8,0,1.2,0.4,1.2,1.2v2.5h-0.7V110.7z"/>
		<path class="st3" d="M68.6,107.9h0.9l1.6,4.3l1.6-4.3h0.9l-2,5.1h-0.9L68.6,107.9z"/>
		<path class="st3" d="M76,112.6c-0.3,0.3-0.7,0.5-1.2,0.5c-0.6,0-1.3-0.4-1.3-1.2c0-0.8,0.7-1.2,1.3-1.2c0.5,0,0.9,0.2,1.2,0.5
			v-0.6c0-0.5-0.4-0.7-0.9-0.7c-0.4,0-0.8,0.2-1.1,0.5l-0.3-0.5c0.4-0.4,0.9-0.6,1.5-0.6c0.8,0,1.5,0.3,1.5,1.3v2.4H76V112.6z
			 M76,111.6c-0.2-0.3-0.6-0.4-0.9-0.4c-0.5,0-0.8,0.3-0.8,0.7c0,0.4,0.3,0.7,0.8,0.7c0.4,0,0.7-0.1,0.9-0.4V111.6z"/>
		<path class="st3" d="M80.3,110.7c0-0.6-0.3-0.8-0.8-0.8c-0.4,0-0.8,0.3-1,0.5v2.6h-0.7v-3.7h0.7v0.5c0.2-0.3,0.7-0.6,1.3-0.6
			c0.8,0,1.2,0.4,1.2,1.2v2.5h-0.7V110.7z"/>
		<path class="st3" d="M82.4,113.5c0.3,0.3,0.7,0.5,1.2,0.5c0.6,0,1.1-0.3,1.1-1v-0.5c-0.3,0.4-0.7,0.6-1.2,0.6
			c-0.9,0-1.6-0.7-1.6-1.9c0-1.2,0.7-1.9,1.6-1.9c0.5,0,0.9,0.2,1.2,0.6v-0.5h0.7v3.6c0,1.2-0.9,1.6-1.8,1.6c-0.6,0-1.1-0.1-1.5-0.5
			L82.4,113.5z M84.7,110.4c-0.2-0.3-0.6-0.5-1-0.5c-0.7,0-1.1,0.5-1.1,1.3s0.4,1.3,1.1,1.3c0.4,0,0.8-0.2,1-0.5V110.4z"/>
		<path class="st3" d="M89,112.5c-0.3,0.3-0.7,0.6-1.3,0.6c-0.8,0-1.2-0.4-1.2-1.2v-2.6h0.7v2.3c0,0.6,0.3,0.8,0.8,0.8
			c0.4,0,0.8-0.2,1-0.5v-2.6h0.7v3.7H89V112.5z"/>
		<path class="st3" d="M93.1,112.6c-0.3,0.3-0.7,0.5-1.2,0.5c-0.6,0-1.3-0.4-1.3-1.2c0-0.8,0.7-1.2,1.3-1.2c0.5,0,0.9,0.2,1.2,0.5
			v-0.6c0-0.5-0.4-0.7-0.9-0.7c-0.4,0-0.8,0.2-1.1,0.5l-0.3-0.5c0.4-0.4,0.9-0.6,1.5-0.6c0.8,0,1.5,0.3,1.5,1.3v2.4h-0.7V112.6z
			 M93.1,111.6c-0.2-0.3-0.6-0.4-0.9-0.4c-0.5,0-0.8,0.3-0.8,0.7c0,0.4,0.3,0.7,0.8,0.7c0.4,0,0.7-0.1,0.9-0.4V111.6z"/>
		<path class="st3" d="M94.8,109.3h0.7v0.6c0.3-0.4,0.7-0.6,1.2-0.6v0.7c-0.1,0-0.1,0-0.2,0c-0.3,0-0.8,0.3-1,0.5v2.5h-0.7V109.3z"
			/>
		<path class="st3" d="M100.1,112.5c-0.3,0.4-0.7,0.6-1.2,0.6c-0.9,0-1.6-0.7-1.6-1.9c0-1.2,0.7-1.9,1.6-1.9c0.5,0,0.9,0.2,1.2,0.6
			v-1.9h0.7v5.1h-0.7V112.5z M100.1,110.4c-0.2-0.3-0.6-0.5-1-0.5c-0.7,0-1.1,0.5-1.1,1.3s0.4,1.3,1.1,1.3c0.4,0,0.8-0.2,1-0.5
			V110.4z"/>
		<path class="st3" d="M103.7,110.5c0-1.5,1.1-2.6,2.6-2.6c1,0,1.6,0.5,2,1.1l-0.6,0.3c-0.3-0.4-0.8-0.7-1.4-0.7
			c-1,0-1.8,0.8-1.8,1.9s0.8,1.9,1.8,1.9c0.6,0,1.1-0.3,1.4-0.7l0.6,0.3c-0.4,0.6-1,1.1-2,1.1C104.8,113.1,103.7,112,103.7,110.5z"
			/>
		<path class="st3" d="M108.8,111.2c0-1,0.7-1.9,1.8-1.9s1.8,0.9,1.8,1.9c0,1.1-0.7,1.9-1.8,1.9
			C109.5,113.1,108.8,112.2,108.8,111.2z M111.8,111.2c0-0.7-0.4-1.3-1.1-1.3s-1.1,0.6-1.1,1.3s0.4,1.3,1.1,1.3
			C111.4,112.5,111.8,111.8,111.8,111.2z"/>
		<path class="st3" d="M118,110.6c0-0.4-0.2-0.7-0.6-0.7s-0.7,0.3-0.9,0.5v2.6h-0.7v-2.4c0-0.4-0.2-0.7-0.6-0.7s-0.7,0.3-0.9,0.5
			v2.6h-0.7v-3.7h0.7v0.5c0.2-0.2,0.6-0.6,1.2-0.6c0.5,0,0.9,0.3,1,0.7c0.2-0.3,0.7-0.7,1.2-0.7c0.7,0,1,0.4,1,1.1v2.6H118V110.6z"
			/>
		<path class="st3" d="M119.7,114.5v-5.1h0.7v0.5c0.3-0.4,0.7-0.6,1.2-0.6c0.9,0,1.6,0.7,1.6,1.9s-0.7,1.9-1.6,1.9
			c-0.5,0-0.9-0.2-1.2-0.6v1.9C120.4,114.5,119.7,114.5,119.7,114.5z M121.4,109.9c-0.4,0-0.8,0.2-1,0.5v1.5c0.2,0.3,0.6,0.5,1,0.5
			c0.7,0,1.1-0.5,1.1-1.3C122.5,110.4,122.1,109.9,121.4,109.9z"/>
		<path class="st3" d="M126.4,112.6c-0.3,0.3-0.7,0.5-1.2,0.5c-0.6,0-1.3-0.4-1.3-1.2c0-0.8,0.7-1.2,1.3-1.2c0.5,0,0.9,0.2,1.2,0.5
			v-0.6c0-0.5-0.4-0.7-0.9-0.7c-0.4,0-0.8,0.2-1.1,0.5l-0.3-0.5c0.4-0.4,0.9-0.6,1.5-0.6c0.8,0,1.5,0.3,1.5,1.3v2.4h-0.7V112.6z
			 M126.4,111.6c-0.2-0.3-0.6-0.4-0.9-0.4c-0.5,0-0.8,0.3-0.8,0.7c0,0.4,0.3,0.7,0.8,0.7c0.4,0,0.7-0.1,0.9-0.4V111.6z"/>
		<path class="st3" d="M130.7,110.7c0-0.6-0.3-0.8-0.8-0.8c-0.4,0-0.8,0.3-1,0.5v2.6h-0.7v-3.7h0.7v0.5c0.2-0.3,0.7-0.6,1.3-0.6
			c0.8,0,1.2,0.4,1.2,1.2v2.5h-0.7V110.7z"/>
		<path class="st3" d="M132.7,113.9c0.2,0,0.4-0.1,0.5-0.4l0.2-0.5l-1.5-3.8h0.7l1.1,2.9l1.1-2.9h0.7l-1.8,4.4
			c-0.2,0.6-0.6,0.8-1.2,0.8c-0.1,0-0.3,0-0.4-0.1l0.1-0.6C132.5,113.9,132.6,113.9,132.7,113.9z"/>
	</g>
</g>
</svg>
