<?xml version="1.0" encoding="utf-8"?>
<!-- Generator: Adobe Illustrator 25.2.1, SVG Export Plug-In . SVG Version: 6.00 Build 0)  -->
<!DOCTYPE svg PUBLIC "-//W3C//DTD SVG 1.1//EN" "http://www.w3.org/Graphics/SVG/1.1/DTD/svg11.dtd" [
	<!ENTITY ns_extend "http://ns.adobe.com/Extensibility/1.0/">
	<!ENTITY ns_ai "http://ns.adobe.com/AdobeIllustrator/10.0/">
	<!ENTITY ns_graphs "http://ns.adobe.com/Graphs/1.0/">
	<!ENTITY ns_vars "http://ns.adobe.com/Variables/1.0/">
	<!ENTITY ns_imrep "http://ns.adobe.com/ImageReplacement/1.0/">
	<!ENTITY ns_sfw "http://ns.adobe.com/SaveForWeb/1.0/">
	<!ENTITY ns_custom "http://ns.adobe.com/GenericCustomNamespace/1.0/">
	<!ENTITY ns_adobe_xpath "http://ns.adobe.com/XPath/1.0/">
]>
<svg version="1.1" id="Capa_1" xmlns:x="&ns_extend;" xmlns:i="&ns_ai;" xmlns:graph="&ns_graphs;"
	 xmlns="http://www.w3.org/2000/svg" xmlns:xlink="http://www.w3.org/1999/xlink" x="0px" y="0px" viewBox="0 0 240.9 125"
	 style="enable-background:new 0 0 240.9 125;" xml:space="preserve">
<style type="text/css">
	.st0{fill:#E3BF2B;}
	.st1{fill:#CEA838;}
	.st2{fill:#010100;}
	.st3{fill:#010101;}
	.st4{fill:#82521E;}
	.st5{fill:#85571E;}
	.st6{fill:#80501E;}
	.st7{fill:#80501D;}
	.st8{fill:#7C4C1D;}
	.st9{fill:#7D4D1D;}
	.st10{fill:#7E4E1D;}
	.st11{fill:#7F4F1D;}
	.st12{fill:#895A1E;}
	.st13{fill:#80511D;}
	.st14{fill:#82531D;}
	.st15{fill:#7C4D1D;}
	.st16{fill:#86571E;}
	.st17{fill:#83531E;}
	.st18{fill:#885A1E;}
	.st19{fill:#9D7121;}
	.st20{fill:#CBA527;}
	.st21{fill:#423618;}
	.st22{fill:#272012;}
	.st23{fill:#E2BF2A;}
	.st24{fill:#C9AA26;}
	.st25{fill:#DCB729;}
	.st26{fill:#CBA537;}
	.st27{fill:#CAA537;}
	.st28{fill:#CBA637;}
</style>
<metadata>
	<sfw  xmlns="&ns_sfw;">
		<slices></slices>
		<sliceSourceBounds  bottomLeftOrigin="true" height="117.7" width="235" x="801.9" y="491.1"></sliceSourceBounds>
	</sfw>
</metadata>
<g id="agrotico">
	<path class="st0" d="M237.4,65.1c0,0.3,0,0.6,0,1c0,2.1,0,3.7,0,4.1c0,2.9,0.1,4.9,0,8.1c0,1.4-0.1,2.3-0.7,3.3
		c-0.6,1.2-1.7,2-2.1,2.3c-0.3,0.2-0.7,0.5-1.3,0.8c-0.9,0.4-1.8,0.6-2.5,0.7c-4.9,0.6-16.7,0-16.7,0c-0.2,0-2.7,0-7.9,0
		c-2,0-6.9,0-14.1,0c-3.7,0-7.5,0-14.6,0.1c-6.5,0-12.2,0.1-25.7,0.2c-8.3,0.1-12.8,0.1-18.4,0.1c-0.4,0-8.6,0.1-18,0.1
		c-5.3,0-7.9,0-8.1,0c-2.6-0.3-5.2,0.1-7.9-0.1c-0.1,0-0.4,0-0.8,0.1c-0.3,0.2-0.5,0.5-0.5,0.6c-0.8,1.4-18.2,17.7-30.3,31.2
		c-1.1,1.2-3.2,3.6-6.2,3.6c-1.9,0-3.8-1.2-6.3-3.6c-16.7-16.4-33.4-32.9-50-49.5c-3.9-3.9-4.1-6.9-0.2-10.8
		c17-17.2,34-34.2,51.2-51.2c0.6-0.6,2.4-2.5,4.7-2.5c2.1,0,3.6,1.6,5,3.1c2.8,2.9,5.8,5.5,8.5,8.5c3.8,4.3,6.9,7.3,10.4,10.6
		c2,1.9,4.3,4,8.6,8.2c1.2,1.1,2.5,2.4,3.7,3.6c0.7,0.7,1.1,1.1,1.8,1.9c0,0,0.6,0.6,1.1,1c0,0,0.3,0.3,0.3,0.3s0.7,0,1.1,0
		c0,0,0.7,0,1.4,0c1.4,0,2,0,4.7,0c6,0.1,26.5-0.1,26.5-0.1c16.9-0.1,18.2-0.1,22.2-0.1c9.1,0,10.4,0.2,14.9,0.2
		c55,0.1,60.4,0,60.4,0c0.7,0,2.3,0,3.6,1c2.2,1.7,1.9,5.2,1.8,11.3C237.2,55.9,237.2,60,237.4,65.1z"/>
	<path class="st1" d="M62.7,14.5c1,1,1.9,1.9,3.2,2.6c1.3,0.8,2.4,2.1,3.4,3.3c1.9,2.3,4.4,4.1,6.3,6.3c2.3,2.6,4.9,4.9,7.3,7.4
		c2.3,2.5,4.7,4.8,7.2,7.1c1.9,1.8,3.6,3.9,5.5,5.6c2.2,2,3.9,4.6,6.4,6.2c2.5,1.7,4.1,4.1,6.3,6c0.8,0.7,1.5,2,1.5,2.6
		c0.2,3.4-2.2,4.5-3.7,6.1c-2.4,2.8-5.1,5.2-7.7,7.8c-3,2.9-6,5.9-9,8.9c-1.5,1.5-3,3.1-4.4,4.7c-2.4,2.9-5.3,5.3-7.8,8.1
		c-2.6,2.8-5.5,5.1-7.9,8c-1.8,2-3.7,3.9-5.9,5.6c-1.2,1-3.9,0.7-5.3-0.5c-2.2-1.7-4-3.9-6-5.8c-3.8-3.7-7.4-7.5-11.2-11.2
		c-2.2-2.2-4.3-4.5-6.7-6.6c-1.8-1.5-3.5-3.2-5.2-4.8c-1.7-1.5-3-3.3-4.7-4.7c-2.9-2.6-5.3-5.7-8.3-8.2c-1.4-1.2-2.5-2.8-3.8-4.3
		c0-1.2,0-2.5,0-3.7c1.4-1.5,2.5-3.2,4.1-4.6c2.7-2.4,5.1-5.2,7.8-7.7c2.5-2.3,4.7-5.1,7.2-7.4c2.5-2.3,4.7-4.9,7.3-7.1
		c1.8-1.7,3.5-3.6,5.2-5.4c4.4-4.5,8.9-9,13.4-13.5C58.7,14.1,60.5,13.2,62.7,14.5z"/>
	<path d="M214.9,63.6c-1-0.8-1.7-1.6-2-2.1c-1.2-1.7-1.3-3.5-1.4-4.2c-0.1-0.6-0.1-1.3,0-2.2c0.1-0.6,0.5-3,2.4-4.6
		c0.5-0.4,1.1-0.8,1.7-1.1c0.7-0.4,1.3-0.7,1.7-0.9c0.7-0.2,1.5-0.4,2.6-0.4c1,0,1.9,0.1,2.5,0.2c0.6,0.1,1.3,0.3,2.2,0.7
		c0.7,0.3,1.2,0.7,1.6,1.1c0.3,0.4,0.7,0.8,1,1.2c0.3,0.4,0.6,0.8,0.9,1.2c0.2,0.3,0.4,0.9,0.5,1.6c0.1,0.4,0.1,0.8,0,1.1
		c0,0.9,0,2.4-0.6,4c-0.5,1.2-1.1,2.2-1.6,2.8c-0.1,0.3-0.3,0.6-0.6,0.9c-0.5,0.6-1.1,0.9-1.4,1c-0.4,0.2-0.8,0.4-1.4,0.5
		c-0.6,0.2-1.2,0.2-1.6,0.2c-0.5,0-1.1,0-1.6,0c-0.6,0-1.2-0.1-1.7-0.1c-0.4,0-0.8-0.1-1.2-0.2C215.9,64.1,215.3,63.8,214.9,63.6z"
		/>
	<path d="M132.6,53.1c0.3-0.6,0.9-1.7,2-2.7c1.2-0.9,2.3-1.2,3.4-1.4c1.8-0.3,3.7-0.3,5.5,0.2c1.9,0.5,3,1.4,3.9,3.3
		c-0.2,0.3-0.4,0.6-0.6,0.9c-1,0.4-2.2,0.5-3.2,1.1c-0.8,0.7-1.6,0.2-2.4,0c-1.1-0.3-2.2-0.2-2.9,0.8c-0.8,1.1-0.8,2.4-0.2,3.6
		c0.5,1.1,1.5,1.4,2.7,1.1c-0.1-0.7-1-0.6-1.1-1.3c-0.2-1.1-0.4-2.2,0.4-3.2c1-0.6,2-0.5,3.1-0.2c1.6,0.5,3.2,0.1,4.8,0.2
		c0.1,0.1,0.1,0.1,0.2,0.2c0.2,0.3,0.4,0.6,0.4,0.8c0,0.4,0.1,0.9-0.1,1.6c-0.1,0.3-0.2,0.6-0.3,0.8c-0.1,0.4-0.2,0.8-0.5,1.3
		c-0.1,0.3-0.3,0.6-0.5,0.9c-0.1,0.3-0.3,0.6-0.4,1c-0.2,0.3-0.3,0.5-0.5,0.7c-0.1,0.2-0.3,0.5-0.5,0.8c-0.1,0.1-0.3,0.3-0.6,0.5
		c-0.3,0.2-0.6,0.4-0.8,0.5c-0.4,0.1-6,2.1-10-1.2c-1.4-1.1-2.1-2.5-2.4-3.5c-0.1-0.3-0.2-0.7-0.3-1.1c-0.1-0.3-0.1-0.6-0.1-0.9
		c0-0.4,0-0.9,0-1.4C131.8,55.2,132.2,54,132.6,53.1z"/>
	<path class="st2" d="M158.6,49.2c1,0.2,1.9,0.5,2.7,1.3c1,0.9,1.4,2,1.5,2.7c0,0.8,0,1.6,0,2.4c-0.1,0.3-0.2,1.1-0.9,1.9
		c-0.8,0.8-1.7,1.1-2,1.2c1.4,2,2.5,4,4.2,5.7c-2,0.8-4.1,0.1-5.9,0.5c-1.6-1.1-1.8-2.9-3-4.2c-0.4,1.4,0.1,2.8-0.3,4.1
		c-1.8,0.4-3.7,0-5.5,0.3c-0.8-2.4-0.5-4.9-0.6-7.4c-0.1-2.7,0.2-5.5,0.2-8.5C150.4,48.9,155,48.4,158.6,49.2z"/>
	<path d="M132.3,65c-1.9,0-3.8,0-5.7,0c-0.6-0.3-0.2-1.1-0.8-1.6c-1.3,0-2.7,0-4,0c-0.6,0.4-0.3,1.1-0.9,1.6c-1.8,0.1-3.7,0.2-5.9,0
		c0.5-0.7,1.5-4.1,1.8-5c0.4-0.4,2.1-6.9,2.5-7.3c0.3-1.1,0.6-2.1,1-3.3c2.1,0,4.1,0,6.2,0c0.2,0.2,0.4,0.5,0.6,0.9
		c0.2,0.3,2.1,5.9,2.4,7C130,57.7,132.2,64.4,132.3,65z"/>
	<path class="st2" d="M201.6,63c-0.4-0.4-0.9-0.9-1.4-1.6c-0.7-1-1-2-1.1-2.7c-0.1-0.6-0.2-1.4-0.2-2.3c0-1.1,0.2-2,0.5-2.6
		c0.3-0.6,0.7-1.4,1.3-2.1c0.7-0.9,1.5-1.6,2.1-2c1.1-0.4,2.1-0.7,2.8-0.9c1.8-0.4,2.5-0.4,2.8-0.3c0.7,0.1,1.3,0.3,1.5,0.4
		c0.5,0.2,0.9,0.4,1.2,0.6c0,1.6,0.2,3.2-0.1,5c-0.3-0.2-1.6-1-3.3-0.8c-0.9,0.1-1.6,0.6-1.9,0.8c-0.2,0.3-0.6,0.9-0.7,1.7
		c-0.1,0.9,0.1,1.6,0.2,1.9c0.2,0.3,0.6,0.8,1.4,1.2c0.6,0.3,1.2,0.3,1.5,0.3c0.7,0,1.2-0.2,1.4-0.4c0.2-0.1,0.5-0.2,0.8-0.3
		c0.3,0,0.5,0,0.7,0c0.2,1.6,0.1,3.2,0,4.8c0,0.1-0.1,0.5-0.4,0.7c-0.4,0.2-0.7,0.2-0.8,0.2c-1.7,0.2-3.4,0.3-5.1,0
		c-0.4-0.1-0.9-0.3-1.5-0.5C202.5,63.7,202,63.3,201.6,63z"/>
	<path class="st3" d="M191.8,53.9c-0.5,0-0.9,0-1.4,0c-0.5,0-1,0-1.5,0c0,3.5,0,7,0,10.5c-2,0.3-3.9,0.3-5.9,0c0-3.5,0-6.9,0-10.6
		c-1,0-1.8,0-2.7,0l0,0c-0.1-1.6-0.1-3.2,0-5.1c3.8,0,7.6,0,11.4,0c0,0.8,0.1,1.6,0.1,2.5C191.9,52.3,191.9,53.1,191.8,53.9z"/>
	<path d="M198.3,64.6c-1.7,0-3.3,0-5,0c0-0.3-0.1-0.8-0.1-1.5c-0.1-1.5-0.3-5.8,0-12c0-0.5,0.1-1.2,0.1-2.1c1.7,0,3.4,0,5,0
		c-0.1,2.5-0.1,5.2-0.1,7.8C198.1,59.4,198.2,62.1,198.3,64.6z"/>
	<path class="st0" d="M158.6,49.2c-3,0-6.1,0-9,0c-0.3,0.2-0.4,0.5-0.4,0.8c0,4.7,0,9.3,0.1,14c0,0.3,0.1,0.7,0.2,1
		c-0.9-0.2-0.5-0.9-0.6-1.5c-0.2-1.2,0.4-2.4-0.3-3.6c-0.3-0.3-0.3-0.5-0.1-0.9c0.1-0.1,0.1-0.2,0.1-0.3c0.2-1,0.4-2,0-3
		c-2.7-0.3-5.4-0.1-8.1,0c-0.7,1.1-0.7,2.3,0,3.4c1-0.1,1.9-0.1,2.9-0.2c0,0.2-0.3,1.5-1.5,2.1c-1.2,0.6-2.8,0.1-3.7-1.2
		c-0.8-1.7-0.9-3.4,0-5.1c1.4-1.3,2.9-1.5,4.5-0.4c0.4,0.3,0.8,0.1,1.2,0.1c0,0.5,0.2,0.8,0.7,0.8c1.4,0,2.8,0,4.3,0
		c0-2.1,0-4.1,0-5.8c0.2-0.3,0.4-0.4,0.6-0.5c0.4-0.2,0.8-0.1,1-0.1c1.5,0.3,4.2-1.3,7-0.3C157.5,48.6,158,48.8,158.6,49.2z"/>
	<path class="st4" d="M159.4,76.1c-0.2-2.1,0.4-4,0.9-6.1c0.9-1.3,2.4,0,3.3-0.7c0.5,0.2,0.4,0.5,0.5,0.8c-0.5,1.5-0.4,3.1-0.9,4.5
		c-0.2,0.5-0.6,0.8-0.6,1.4c-0.1,0.5-0.2,1-0.6,1.4c-0.2,0.5-0.5,1-0.7,1.5c-0.8,0.3-1.6,0.2-2.4,0c-0.5-0.5-0.3-1-0.3-1.6
		c0.4-0.5,1-0.2,1.6-0.2C160.2,76.7,159.5,76.6,159.4,76.1z"/>
	<path class="st5" d="M148.3,73.6c0.3-0.7,1.1-0.8,1.7-1c0-0.9-0.8-0.5-1.1-1c-0.3-0.8,0-1.5,0.6-2.1c0.8-0.2,1.5-0.3,2.5,0.2
		c0.6,2.3-0.8,4.6-0.7,6.9c-0.2,0.3-0.5,0.6-0.8,0.8l-0.2,0l-0.2,0c-0.3-0.2-0.6-0.2-1,0c-0.9,0.2-1-0.8-1.6-1.1c0-0.4,0-0.9,0-1.4
		C147.8,74.5,147.9,73.9,148.3,73.6z"/>
	<path class="st6" d="M115.1,76.2c0,0.3-0.1,0.7-0.1,1c-0.2,0.3-0.5,0.3-0.8,0.3c-0.2,0-0.4-0.1-0.6-0.1c0,0,0.1-0.8,0.1-0.9
		c0-0.1,0.1-1.2,0.1-1.3c0.1-0.3,0.2-0.7,0.3-1c0.2-0.6,0.3-1.3,0.4-1.8c0.1-0.5,0.3-0.9,0.4-1.4c0.2-0.8,0.5-1.7,0.7-2.5
		c-0.2,0-0.4,0-0.7,0c-0.4,0-0.7-0.1-0.9-0.2c-0.2-0.3-0.3-0.8-0.1-1.1c0.2-0.3,0.9-0.2,1.6-0.2c0.7,0.1,1.6,0.1,2.8-0.1
		c0,0,0.5-0.1,0.8,0.1c0.2,0.2,0.1,0.8-0.5,1.2c-0.2,0-0.4,0-0.6,0c-0.3,0-0.6,0.2-0.8,0.2c-0.3,1-0.6,2-0.9,3
		c-0.2,0.8-0.5,1.7-0.6,2.4c-0.1,0.4-0.2,0.8-0.3,1.2C115.1,75.6,115.1,75.9,115.1,76.2z"/>
	<path class="st7" d="M140.7,74.5c0,0.9-0.3,1.8-0.7,2.7c-0.7,0.4-1.6,0.2-2.4,0.2c-0.3-0.2-0.5-0.5-0.6-0.7
		c-0.3-0.8-0.1-1.6,0.2-2.6c0.2-0.8,0.5-1.8,0.7-3.2c0.1-0.2,0.3-0.6,0.6-0.9c0.3-0.3,0.5-0.4,0.7-0.5c0.1,0,0.8-0.3,1.5,0.2
		c0.5,0.3,0.7,0.9,0.6,1.5c-0.1,0.7-0.2,1.4-0.4,2.1C140.9,73.6,140.8,74.1,140.7,74.5z"/>
	<path class="st8" d="M144.1,77.9c-0.2,0.4-0.4,0.8-0.6,1.1c-0.7,0.4-1.4,0.1-2.2,0.1c-0.3-0.5-0.8-1-0.3-1.5
		c0.1-0.1,0.3-0.2,0.6-0.2c0.6,0,0.9,0.6,0.9,0.6c0.1,0,0.3,0,0.5-0.1c0.5-0.3,0.5-0.9,0.5-0.9c-0.4-0.8-1.4-0.2-1.7-0.9
		c-0.4-0.5-0.3-1.1-0.4-1.7c-0.1-1.2,0.1-2.4,0.8-3.4c0-0.9,0.9-1,1.4-1.5c0.2,0,0.5,0,0.8,0c0.3,0,0.6,0,0.9,0.1
		c0.2,0,0.4,0,0.6,0.2c0.2,0.2,0.2,0.5,0.1,1.1c-0.1,0.4-0.2,0.8-0.3,1.2c-0.1,0.4-0.2,0.8-0.5,1.1c0,0.5-0.1,1.1-0.3,1.7
		c-0.1,0.5-0.3,1-0.4,1.3c-0.1,0.3-0.2,0.6-0.4,0.9C144.3,77.4,144.2,77.6,144.1,77.9z"/>
	<path class="st9" d="M186.1,75.2c0.2-0.9,0.2-1.3,0.4-2.3c0.2-0.9,0.4-1.8,0.6-2.7c0.2-0.2,0.8-0.7,1.7-0.9
		c0.9-0.1,1.6,0.3,1.8,0.4c0,0.3,0.1,0.6,0.1,0.9c-0.1,0.5-0.2,1-0.3,1.4c-0.1,0.5-0.2,1-0.3,1.5c0,0.3-0.1,0.7-0.2,1.1
		c-0.1,0.5-0.3,0.9-0.5,1.3c0,0.4-0.2,0.8-0.5,1.1c-0.1,0.1-0.2,0.4-0.4,0.4c-0.1,0-0.3,0-0.3,0c-0.2,0-0.6,0-1,0
		c-0.7,0.6,0.1,0.9-0.5,1.6c-0.3,0.1-0.5,0.1-0.9-0.1c0,0-0.3-0.2-0.3-0.3c-0.1-0.1,0-0.2,0.1-0.5c0.1-0.2,0.1-0.5,0.2-0.7
		c0.3-1.1,0.5-1.6,0.5-1.6c0,0-0.5,1.6-0.5,1.6C185.6,77.3,185.9,76.4,186.1,75.2z"/>
	<path class="st10" d="M127.9,71c-0.1,0.3-0.3,0.6-0.4,0.9c-0.1,0.4-0.2,0.7-0.3,1c-0.1,0.4-0.1,0.8-0.2,1.2
		c-0.1,0.4-0.1,0.8-0.2,1.2c-0.2,0.6-0.3,1-0.3,1.3c0,0.1,0,0.3-0.2,0.5c-0.1,0.2-0.4,0.2-0.6,0.2c-1-2.3-0.5-4.4,0.8-6.4
		c0.1-0.3,0.1-0.7,0.2-1.1c1.2-0.7,2.5-0.6,3.8-0.2c0.3,0.5,0.5,1,0.3,1.5c-0.3,0.6-0.7,1.1-0.6,1.8c-0.1,1.2-0.2,2.5-1,3.5
		c-0.1,0.2,0,0.6-0.3,0.7c-0.3,0.1-0.5,0.1-0.9-0.1c0-0.6-0.1-1.4,0.1-2.2c0.1-0.5,0.2-1,0.3-1.4c0-0.5,0.1-1.1,0.5-1.7
		c0.1-0.2,0.2-0.3,0.3-0.4c0-0.1,0-0.2,0-0.4C128.7,70.6,128.3,70.6,127.9,71z"/>
	<path class="st11" d="M131.2,70.2c1.7-1,1.7-1,3.5-0.2c-0.5,2.5,0.1,5.2-1.9,7.3c-1.1,0.5-1.8,0.2-2.4-0.7
		C129.6,74.3,130.3,72.2,131.2,70.2z"/>
	<path class="st12" d="M171.4,76.4c-0.1,0.1-0.2,0.3-0.3,0.5c-0.1,0.1-0.2,0.2-0.3,0.3c-0.2,0.1-0.5,0.2-0.8,0.2
		c-0.6-0.1-1.1-0.6-1.3-1.3c-0.1-0.9,0-2.1,0.3-3.4c0.3-1.3,0.7-2.3,1.1-3c0.1-0.1,1-0.7,2-0.4c0.3,0.1,0.5,0.3,0.7,0.4
		c0.3,0.6,0.5,1.2,0,1.8c-0.3,0.5-0.6,0.4-1.1,0.3c0-0.1,0.2-0.6-0.1-1c-0.1-0.2-0.2-0.3-0.3-0.4c-0.1,0-0.3,0.1-0.5,0.4
		c-0.2,0.2-0.2,0.5-0.2,0.6c0,0.2-0.1,0.5-0.1,0.8c-0.1,0.2-0.1,0.4-0.2,0.6c-0.2,0.4-0.3,0.9-0.4,1.5c0,0.5,0,0.9,0.1,1.2
		c0.3,0.4,0.5,0.5,0.6,0.5c0.6-0.1,0.7-1.8,0.8-2.1c0.2-0.2,0.4-0.3,0.7-0.2c0.3,0.1,0.3,0.4,0.3,0.4c-0.1,0.4-0.1,0.8-0.3,1.2
		C171.8,75.7,171.6,76.1,171.4,76.4z"/>
	<path class="st13" d="M155.6,71.4c-0.2-1.2,0.9-1.4,1.3-2c1-0.3,1.7,0,2.5,0.6c-0.5,2.1-1.3,4.3-1.4,6.5c-0.4,0.4-0.8,0.4-1.3,0.1
		c-0.5,0.1-0.3,1.1-1.2,0.7c-1.7-1.2-0.4-2.7-0.4-3.9c0.4-0.7,1-0.6,1.6-0.8c0.5-0.3,0.5-0.8,0.6-1.3
		C156.8,71.5,156.2,72,155.6,71.4z"/>
	<path class="st7" d="M121,74.9c0.2,1.2-1.1,1.5-1.1,2.4c-0.7,0.2-1.4,0.2-2.2,0c-0.5-2.5,0.2-4.9,0.8-7.3c0.9-0.5,1.9-0.3,2.9-0.2
		c0.8,1.2,0.8,2.5,0.1,3.7c-0.6,0.9-2,0.1-2.6,1.7c0.9-0.8,1.4-1.4,2.2-0.9C121.1,74.5,121.2,74.7,121,74.9z"/>
	<path class="st14" d="M124.5,76.6c-0.7,1.7-1.9,0.6-2.8,0.7c-0.4-0.9-0.2-1.7-0.2-2.4c0.4-1.3,0.3-2.7,1.2-3.9
		c0-0.4,0.1-0.8,0.6-1.1c0.7-0.3,1.4-0.2,2.1-0.1c0.6,0.3,0.7,0.7,0.7,1.2c-0.1,0.6-0.1,1.3-0.5,1.9c-0.9,0.2-1.5,0.1-1.4-1.1
		c0-0.1,0-0.1,0.1-0.2c-0.2,0-0.1,0.2-0.2,0.3c-0.3,0.5-0.4,1-0.4,1.5c0,0.6-0.1,1.1-0.3,1.7c0.4-0.3,0.5-0.8,1.2-0.7
		C125.5,75.1,125.5,75.8,124.5,76.6z"/>
	<path class="st15" d="M173.9,70.1c0.2-0.3,0.3-0.5,0.5-0.8c0.4-0.3,0.7-0.4,1.1-0.4c0.5,0,0.9,0.3,1.1,0.4c0.3,0.2,0.5,0.5,0.6,0.7
		c0.2,0.6,0.2,1.1,0.2,1.4c0,0.4,0,0.6,0,0.8c-0.1,0.5-0.2,0.8-0.3,0.9c-0.2,0.4-0.5,1.2-0.9,2.6c-0.2,0.3-0.3,0.6-0.5,0.8
		c-0.2,0.5-0.6,0.8-1.1,0.9c-0.6,0.1-1.1-0.2-1.4-0.7c-0.1-0.7-0.2-1.6-0.2-2.6c0-1.1,0.1-1.6,0.1-1.9c0.2-0.8,0.4-1.4,0.5-1.6
		C173.7,70.4,173.8,70.3,173.9,70.1z"/>
	<path class="st7" d="M136.8,67.2c0.2,0,0.4,0.1,0.6,0.1c0,0.6-0.1,1.3-0.1,2c-0.1,1.6-0.4,3.1-0.7,4.4c-0.1,0.7-0.3,1.4-0.6,2.1
		c-0.2,0.5-0.4,1.1-0.6,1.5c-0.3,0.2-0.6,0.2-0.9,0c0-0.1-0.1-0.2-0.1-0.4c-0.1-0.6,0.2-1.1,0.3-1.3c0.2-0.3,0.4-0.9,0.7-2.1
		c0.3-1.1,0.5-2,0.5-2.6c0.1-0.7,0.1-1.4,0.1-1.8c0.1-0.3,0.2-0.7,0.4-1.1C136.5,67.6,136.6,67.4,136.8,67.2z"/>
	<path class="st0" d="M124.5,76.6c0.1-0.7,0.8-1.4-0.1-2.1c-0.1,0.2-0.3,0.5-0.5,0.8c-0.2,0.5-0.2,0.8-0.4,0.8
		c-0.1,0.1-0.3,0-0.8-0.4c0-0.3,0.1-0.7,0.1-1c0.1-0.3,0.1-0.6,0.2-0.9c0-0.4,0.1-0.9,0.2-1.4c0.1-0.3,0.2-0.5,0.2-0.8
		c0.1-0.3,0.2-0.7,0.4-1c0.6-0.1,0.8-0.1,0.8,0c0.1,0.1-0.2,0.4-0.3,0.8c-0.1,0.3-0.1,0.7,0,0.9c0.3,0.3,0.5,0.3,0.8,0.2
		c0.1-0.2,0.2-0.5,0.3-0.8c0.1-0.3,0.1-0.6,0.2-0.9c-0.1-0.5-0.1-0.7,0-0.8c0.1,0,0.3,0.2,0.6,0.8c-0.2,1-0.3,2.1-0.5,3.1
		c-0.2,1-0.4,2-0.6,2.9c0,0.2,0,0.4,0,0.4C125.2,77.5,124.9,77.2,124.5,76.6z"/>
	<path class="st16" d="M146.8,70.9c0.1-0.3,0.3-1.4,0.9-1.5c0.1,0,0.3,0,0.6,0.3c-0.1,0.3-0.3,0.6-0.4,1.1c-0.1,0.4-0.1,0.7-0.1,1
		c-0.1,0.5-0.2,0.9-0.3,1.4c0,0.2-0.1,0.4-0.1,0.6c-0.1,0.3-0.1,0.5-0.2,0.8c-0.2,0.4-0.3,1-0.5,1.6c-0.1,0.4-0.1,0.8-0.1,1.1
		c-0.4,0.2-0.7,0.2-1,0c0.3-1.2,0.6-2.4,0.9-3.7c0.1-0.2,0.2-0.6,0.3-1.1C146.8,71.7,146.7,71.5,146.8,70.9z"/>
	<path class="st17" d="M164.5,71c0-0.2,0-0.7,0.2-1.1c0.1-0.2,0.2-0.3,0.3-0.4c0.3,0.2,0.6,0.3,0.8,0.3c0.6,0,0.8-0.4,1.3-0.3
		c0,0,0.2,0.1,0.4,0.3c0.1,0.1,0.1,0.1,0.1,0.2c0,0,0,0,0,0.1c-0.1,0.2-0.4,0.3-0.4,0.3c-0.3,0.1-0.6,0.2-0.9,0.3
		c-0.1,0-0.4,0-0.6,0.2c-0.3,0.3-0.3,0.7-0.3,0.7c-0.1,0.1-0.2,0.3-0.2,0.6c-0.1,0.3-0.1,0.5-0.1,0.6c-0.2,1.3-0.4,2.5-0.6,3.8
		c-0.4,0.4-0.8,0.4-1.2,0.2c-0.2-0.3-0.3-0.6-0.2-0.9c0.3-0.5,0.6-1.1,0.5-1.7C163.7,73,163.5,71.8,164.5,71z"/>
	<path class="st18" d="M167.8,70.5c0.1-0.3,0.1-0.6,0.1-0.9c0.1-0.1,0.4-0.2,0.7-0.1c0.3,0,0.5,0.1,0.6,0.2
		c-0.1,0.3-0.1,0.6-0.2,0.9c-0.1,0.4-0.2,0.8-0.4,1.2c-0.1,0.3-0.2,0.6-0.2,1c-0.1,0.3-0.1,0.6-0.2,0.9c-0.1,0.4-0.2,0.9-0.3,1.3
		c-0.1,0.6-0.3,1.1-0.4,1.6c-0.4,0.3-0.8,0.4-1.2,0c0-0.3,0.1-0.7,0.2-1.1c0.1-0.5,0.2-0.9,0.3-1.3c0.1-0.4,0.2-0.7,0.3-1.2
		c0.1-0.4,0.3-0.9,0.4-1.2C167.6,71.4,167.7,71,167.8,70.5z"/>
	<path class="st0" d="M163.4,76c0,0.2-0.1,0.4-0.1,0.5c0.3,0.3,0.2,0.6,0,0.9c-0.4,0-0.8,0-1.3,0c0-0.2,0-0.5,0-0.8
		c0-0.2,0-0.4,0.1-0.6c0.1-0.3,0.2-0.6,0.4-0.9c0.1-0.1,0.1-0.2,0.2-0.3c0.2-1.4,0.4-2.8,0.6-4.1c0.1-0.4,0.4-0.5,0.8-0.6
		c0.1,0.3,0,0.7,0.4,0.9c-0.1,0.5-0.2,1.1-0.3,1.7c-0.1,0.4-0.1,0.8-0.1,1.2c-0.1,0.4-0.3,0.8-0.4,1.2
		C163.6,75.4,163.5,75.7,163.4,76z"/>
	<path class="st0" d="M131.2,70.2c-0.2,2.2-0.8,4.2-0.8,6.4c-0.4,0-0.8,0-1.3,0c0-0.5,0-1.2,0.2-1.9c0.1-0.3,0.2-0.7,0.3-0.9
		c0-0.5,0.1-1,0.3-1.6c0.1-0.5,0.3-0.9,0.4-1.2c0-0.4,0-0.8,0-1.2C130.7,69.9,130.9,70,131.2,70.2z"/>
	<path class="st0" d="M147,69.7c0,0-0.4,1.6-0.7,2.9c0,0.1-0.1,0.2-0.2,0.3c0,0-0.1,0.1-0.1,0.1c-0.1,0.1-0.2,0.1-0.3,0.1
		c-0.1,0-0.1,0-0.2,0c-0.1,0-0.2,0-0.3,0c0.1-0.4,0.1-0.8,0.2-1.1c0-0.1-0.1-0.4,0-0.7c0-0.1,0.1-0.2,0.1-0.3c0.1-0.6,0.1-1.1,0-1.7
		C146.2,69.2,146.6,69.6,147,69.7z"/>
	<path class="st0" d="M142.3,71c-0.2,0.3-0.3,0.7-0.5,1.2c-0.2,0.6-0.2,1-0.2,1.4c-0.1,0.2-0.1,0.5-0.1,0.9c0,0.6,0.1,1.1,0.3,1.4
		c-0.4-0.1-0.8-0.2-1.2-0.2c0-0.1,0.1-0.3,0.1-0.5c0.2-1,0.2-1.3,0.4-2.1c0.2-1.3,0.3-1.3,0.4-1.8c0-0.6-0.1-1.1-0.1-1.4
		C141.6,70.3,142,70.7,142.3,71z"/>
	<path class="st0" d="M159.4,76.1c0.5,0.4,1.1-0.1,1.6,0.3c0.2,0.7,0.3,1.3-0.8,1.6c-0.4,0-0.8-0.9-1.6-0.6
		C158.4,76.7,159.3,76.6,159.4,76.1z"/>
	<path class="st0" d="M155.6,71.4c0.5,0,1.2,0.2,1.3-0.6c0.1-0.6,0.5-0.6,0.9-0.6c0.4,1.6,0.4,1.8-1,2.4
		C157.1,71.6,155.7,72.2,155.6,71.4z"/>
	<path class="st0" d="M148.9,71.5c0.5,0,0.7-0.2,0.8-0.3c0.1-0.1,0.2-0.2,0.3-0.5c0.1-0.6,0.5-0.6,0.9-0.6c0.4,1.6,0.4,1.8-1,2.4
		c0.1-0.3,0-0.5-0.1-0.5c-0.1-0.2-0.4-0.1-0.7-0.2C149,71.7,148.9,71.6,148.9,71.5z"/>
	<path class="st8" d="M147.7,68.4c0.1-1.4,0.2-1.5,2.2-1.5C149.2,67.5,148.8,68.4,147.7,68.4z"/>
	<path class="st9" d="M190.6,69.4c-1,0-2.5,0.8-3.5,0.8c0-0.3,0-0.6,0.4-0.8c0.3,0,0.7-0.1,1-0.1c0.4,0,0.8,0,1.2,0.1
		C190.1,69.6,190.6,69.1,190.6,69.4z"/>
	<path class="st19" d="M170.7,66.5c-1,0.2-0.9,1.7-1.9,1.8C168.4,67.2,168.7,66.9,170.7,66.5z"/>
	<path class="st15" d="M173.1,76.6c0.9,0,1.7,0,2.6,0C174.9,77.8,173.9,77.8,173.1,76.6z"/>
	<path class="st20" d="M209.3,74.8c0.1,0.6,0.2,1.3-0.8,1.3c-0.1-0.2-0.2-0.4-0.4-0.4c0-0.5-0.2-1,0.3-1.3
		C208.8,74.6,209,74.7,209.3,74.8z"/>
	<path class="st0" d="M174.1,69.8c-0.1,0.2-0.3,0.5-0.5,0.9c-0.2,0.5-0.4,1.1-0.5,1c-0.1,0-0.1-0.2-0.2-0.2c-0.1,0-0.1,0-0.1,0
		c0.1-0.2,0.2-0.5,0.2-1c0-0.3-0.1-0.6-0.2-0.8c0.1,0.1,0.3,0.3,0.6,0.3C173.7,70.1,174.1,69.8,174.1,69.8z"/>
	<path class="st0" d="M177.5,75.7c-0.1,0.3-0.2,0.9-0.6,1.1c-0.2,0.1-0.2,0.1-0.5,0.2c-0.5,0.2-0.7,0.7-0.7,0.7
		c-0.1,0,1.2-2.1,1.3-3.2c0,0,0.1-0.9,0.2-1.2c0,0,0.1-0.2,0.1-0.3c0-0.1,0-0.1,0-0.3c0,0,0.1-0.7,0.3-1.1c0.1-0.2,0.3-0.5,0.9-0.8
		c-0.1,0.2-0.2,0.7-0.3,1.2C178,72.8,177.8,74.2,177.5,75.7z"/>
	<path class="st0" d="M186.4,74.1c-0.1,0.4-0.2,0.8-0.3,1.4c0,0.2-0.1,0.5-0.2,0.9c-0.1,0.5-0.3,1-0.5,1.7c0-0.5,0-1.3,0.3-2.2
		C185.8,75.1,186.1,74.5,186.4,74.1z"/>
	<path class="st13" d="M156.8,76.6c0.4,0,0.9-0.1,1.3-0.1c0.1,0.4,0,0.8-0.6,0.9C157,77.4,156.9,77.1,156.8,76.6z"/>
	<path class="st17" d="M163.3,77.4c0-0.3,0-0.6,0-0.9c0.4,0,0.8,0,1.2,0C164.6,77.6,163.9,77.4,163.3,77.4z"/>
	<g>
		<path class="st17" d="M210.2,70.3c0-0.2,0-0.7,0.2-1.1c0.1-0.2,0.2-0.3,0.3-0.4c0.3,0.2,0.6,0.3,0.8,0.3c0.6,0,0.8-0.4,1.3-0.3
			c0,0,0.2,0.1,0.4,0.3c0.1,0.1,0.1,0.1,0.1,0.2c0,0,0,0,0,0.1c-0.1,0.2-0.4,0.3-0.4,0.3c-0.3,0.1-0.6,0.2-0.9,0.3
			c-0.1,0-0.4,0-0.6,0.2c-0.3,0.3-0.3,0.7-0.3,0.7c-0.1,0.1-0.2,0.3-0.2,0.6c-0.1,0.3-0.1,0.5-0.1,0.6c-0.2,1.3-0.4,2.5-0.6,3.8
			c-0.4,0.4-0.8,0.4-1.2,0.2c-0.2-0.3-0.3-0.6-0.2-0.9c0.3-0.5,0.6-1.1,0.5-1.7C209.4,72.3,209.2,71.1,210.2,70.3z"/>
		<path class="st0" d="M209.1,75.3c0,0.2-0.1,0.4-0.1,0.5c0.3,0.3,0.2,0.6,0,0.9c-0.4,0-0.8,0-1.3,0c0-0.2,0-0.5,0-0.8
			c0-0.2,0-0.4,0.1-0.6c0.1-0.3,0.2-0.6,0.4-0.9c0.1-0.1,0.1-0.2,0.2-0.3c0.2-1.4,0.4-2.8,0.6-4.1c0.1-0.4,0.4-0.5,0.8-0.6
			c0.1,0.3,0,0.7,0.4,0.9c-0.1,0.5-0.2,1.1-0.3,1.7c-0.1,0.4-0.1,0.8-0.1,1.2c-0.1,0.4-0.3,0.8-0.4,1.2
			C209.3,74.7,209.2,75,209.1,75.3z"/>
		<path class="st17" d="M209,76.7c0-0.3,0-0.6,0-0.9c0.4,0,0.8,0,1.2,0C210.4,76.9,209.6,76.7,209,76.7z"/>
	</g>
	<path class="st17" d="M195.8,70.7c0-0.2,0-0.7,0.2-1.1c0.1-0.2,0.2-0.3,0.3-0.4c0.3,0.2,0.6,0.3,0.8,0.3c0.6,0,0.8-0.4,1.3-0.3
		c0,0,0.2,0.1,0.4,0.3c0.1,0.1,0.1,0.1,0.1,0.2c0,0,0,0,0,0.1c-0.1,0.2-0.4,0.3-0.4,0.3c-0.3,0.1-0.6,0.2-0.9,0.3
		c-0.1,0-0.4,0-0.6,0.2c-0.3,0.3-0.3,0.7-0.3,0.7c-0.1,0.1-0.2,0.3-0.2,0.6c-0.1,0.3-0.1,0.5-0.1,0.6c-0.2,1.3-0.4,2.5-0.6,3.8
		c-0.4,0.4-0.8,0.4-1.2,0.2c-0.2-0.3-0.3-0.6-0.2-0.9c0.3-0.5,0.6-1.1,0.5-1.7C195,72.7,194.8,71.5,195.8,70.7z"/>
	<path class="st0" d="M194.7,75.7c0,0.2-0.1,0.4-0.1,0.5c0.3,0.3,0.2,0.6,0,0.9c-0.4,0-0.8,0-1.3,0c0-0.2,0-0.5,0-0.8
		c0-0.2,0-0.4,0.1-0.6c0.1-0.3,0.2-0.6,0.4-0.9c0.1-0.1,0.1-0.2,0.2-0.3c0.2-1.4,0.4-2.8,0.6-4.1c0.1-0.4,0.4-0.5,0.8-0.6
		c0.1,0.3,0,0.7,0.4,0.9c-0.1,0.5-0.2,1.1-0.3,1.7c-0.1,0.4-0.1,0.8-0.1,1.2c-0.1,0.4-0.3,0.8-0.4,1.2
		C194.9,75.1,194.8,75.4,194.7,75.7z"/>
	<path class="st17" d="M194.6,77.1c0-0.3,0-0.6,0-0.9c0.4,0,0.8,0,1.2,0C195.9,77.3,195.2,77.1,194.6,77.1z"/>
	<path class="st18" d="M166.3,76.6c0.4,0,0.8,0,1.2,0c0,0.4,0,0.8-0.6,0.8C166.3,77.4,166.3,77,166.3,76.6z"/>
	<path class="st0" d="M187,77.4c0.4,0,0.9,0,1.3-0.1c0,0.4-0.1,0.8-0.6,0.8C187.2,78.2,187.1,77.8,187,77.4z"/>
	<path class="st5" d="M150.4,77.4c0-0.6,0.3-0.8,0.8-0.8C151.4,77.2,151.1,77.5,150.4,77.4z"/>
	<path d="M71.9,85.9c-0.7,1.3,0.4,2.7-0.3,3.9c0.2,0.8,1,0.8,1.4,1.5c0.1,0.8,0.6,1.8-0.2,2.8c-0.9,0.6-1.8,0.5-2.7,0
		c-0.5-0.2-1-0.4-1.5-0.7c-0.6-0.9-0.1-2.1-0.9-2.9c-0.5-0.2-0.5-0.9-0.9-1.2c-0.2-0.3-0.4-0.6-0.5-0.9c-0.2-4.5-2.2-8.8-1.6-13.4
		c-1.5-1.1-1.4-3.1-2.9-4c-0.1-2-0.5-3.9-2.2-5.2c-0.5,0.6-1.5,1.1-1.5,2.2c-0.4,0.4-0.4,1-0.8,1.3c-0.2,2.2-1.6,3.7-2.6,5.5
		c-0.7,0.9-0.3,1.9-0.4,2.9c-0.1,1.2,0.3,2.4-0.4,3.5c-0.6,2.4-0.6,4.9-1,7.4c-1.1,0.5-0.8,2.2-2.2,2.4c-0.1,0.9-0.2,1.7-0.3,2.4
		c-0.5,0.7-1.4,0.8-1.7,1.5c-1,0.1-1.8,0.2-2.6-0.2c-0.5-0.7-0.4-1.5-0.3-2.3c0.5-0.7,1.2-1.5,1.6-2.5c-0.7-4.8-0.9-9.7,1.9-14.2
		c0.7-0.7,0.1-1.9,0.8-2.6c0-1.5-0.1-3,0.6-4.4c0.5-1.1,0.4-2.3,0.2-3.3c-0.3-1.8,0-3.5,0.1-5.3c-1.6-0.3-3.1-0.3-4.5,0.3
		c-0.3,0.1-0.8,0.1-1.3-0.1c-0.3-0.1-0.4-0.3-0.6-0.5c-0.4-0.4-0.8-0.3-2.7-0.3c-1.4,0-2,0-2.6,0.3c-0.4,0.2-0.8,0.5-0.8,0.5
		c-0.2,0.2-0.4,0.4-0.5,0.5c-0.5,0.9-0.2,1.9-1,2.7c-2.8,0.4-4.9,0-6-0.3c-1.6-0.4-2.3-0.9-2.8-1.3c-0.9-0.7-1.5-1.6-1.7-2.1
		c-0.1-0.2-0.2-0.6-0.2-1c0-0.2,0.1-0.5,0.7-1.2c0.2-0.3,0.6-0.8,1-1.2c0.3-0.3,0.8-0.7,1.5-0.9c0.5-0.2,1-0.3,1.3-0.3
		c0.6-0.6,1.6-0.1,2.2-0.7c1.3,0,2.7,0,4,0c0.3,0.9,0.7,1.6,0.7,2.5c0.2,0.2,0.4,0.4,0.6,0.6c0.4,0.3,0.7,0.5,1,0.7
		c1.8,0,3.6,0,5.4,0c0.6-1.9,0.6-3.7,0.6-5.6c0-1.8-0.2-3.7,0.5-5.5c0.4-0.4,0.4-0.9,0-1.3c-0.2-0.6-0.1-1.1,0-1.7
		c0.5-0.4,0.4-1,0.4-1.5c0-0.4,0.1-0.8,0.4-1.1c0.3-0.6,0.6-1.1,0.6-1.5c2.3-2.4,5-3.4,7.9-4c0.4-0.4,1-0.4,1.3-0.9
		c0.8-1.3,0.5-2.5,0-3.8c-0.6-0.4-0.3-1.3-0.8-1.7c-0.1-0.9-0.9-1.4-1.5-2c-0.1-0.7-0.3-1.3-0.1-2c0.3-0.3,0.6-0.2,0.9-0.2
		c0.5,0.5,0.3,1.9,1.6,1.4c0.7-1.4,0.2-3.4,1.9-4.5c0.9,0,1.8,0,2.7,0c0.3,1.4,0.6,2.8,0.9,4.1c1.5,0.6,1.1-1.3,2.1-1.5
		c1.3,0.8,0.1,2,0.3,2.9c-0.5,0.4-1.1,0.5-1.5,1.3c0.2,1.7-1.8,3.1-0.8,5.3c1.3,1,2.9,1.8,4.7,2c1.4,0.2,2.2,1.7,3.7,1.7
		c1.1,1.9,2.5,3.6,2.6,5.9c0.4,0.6,0.4,1.2-0.1,1.7c0,0.6,0,1.1,0,1.7c0.5,0.5,0.3,1.3,0.7,1.8c0,1.9,0,3.8,0.1,5.7
		c0,1,0.1,2.1,0.8,3.2c1.1,0,2.3,0,3.5,0c0.6-0.6,1.6-0.1,2.2-0.8c0.3-0.2,0.6-0.3,0.9-0.5c0.6-0.4,1.1-0.4,1.4,0.3
		c0.1,0.9,0,1.9-0.3,2.8c-0.3,0.5-0.7,0.6-1.2,0.3c-0.3-0.2-0.5-0.3-0.8-0.5c-0.6-0.7-1.6-0.2-2.3-0.8c-0.6,0.1-1,0.1-1.3,0
		c-0.8,0-1.2-0.2-1.5,0.1c-0.2,0.2-0.1,0.3-0.2,0.5c-0.1,0.3-0.7,0.7-2.6,0.6c-0.5-0.2-1.3-0.5-2.2-0.6c-0.8,0-1.6,0-2.5,0.1
		c0.8,3.4-0.9,7,1.3,10.5c0.1,1.8,0,4,1,6.1c0.4,0.4,0.4,1,0.8,1.3c0.7,1.6,0.5,3.4,0.9,5.1c0.3,0.4,0.4,0.9,0.4,1.3
		C72.3,84.9,72.4,85.5,71.9,85.9z"/>
	<path d="M86,55.8c0.4,0,0.8,0,1.2,0c0.4,0.3,0.1,0.9,0.4,1.2c0,0.1,0.1,0.3,0.1,0.4c0.5,0.9,0.5,1.7,0,2.6c-0.2,0.5,0,1.1-0.5,1.6
		c-0.8,0.2-1.4,0.1-1.8,0.1c-0.2,0-0.4-0.1-0.8-0.1c-0.5-0.1-0.8-0.1-1.1-0.1c-0.1-0.1-0.3-0.3-0.5-0.4c-0.3-0.1-0.5-0.1-0.6-0.2
		c-0.1-0.2,0.3-0.5,0.5-0.7c0.9-0.6,2.2-0.4,2.9-0.1c0.9-0.7,0.4-1.7,0.4-2.6c0-0.4-0.2-0.8-0.4-1.2C85.9,56.1,86,55.9,86,55.8z"/>
	<path d="M82.5,57.3c-0.3-0.5-0.8-0.2-1.2-0.3c0-0.4,0.1-0.8,0.7-0.8c0.6,0,1.2-0.1,1.8-0.1c0.8-0.1,0.7,0.4,0.6,0.9
		c-0.4,0.1-0.9,0.2-1.3,0.3C82.9,57.2,82.7,57.2,82.5,57.3z"/>
	<path d="M84.3,56.9c0-0.4-0.1-0.7-0.5-0.9c0.7-0.6,1.5-0.3,2.2-0.3c0,0.1,0,0.2,0,0.3c0,0.5-0.1,0.9-0.6,1.1
		C85,57.3,84.6,57.3,84.3,56.9z"/>
	<path d="M33.1,54.5c-0.1,0.1-0.4,0.6-0.9,0.8c-0.8,0.3-1.4,0-1.5-0.1c0.3-0.1,0.6-0.3,1-0.4C32.2,54.6,32.7,54.5,33.1,54.5z"/>
	<path class="st21" d="M80.5,57.4c-0.3,1.4-1.4,0.6-2.2,0.8C78.6,56.9,79.7,57.6,80.5,57.4z"/>
	<path class="st22" d="M78.2,59.2c0.8,0.1,1.9-0.7,2.3,0.8C79.7,59.8,78.6,60.5,78.2,59.2z"/>
	<path class="st1" d="M55.7,29.7c0.2,0,0.4,0.1,0.6,0.1c0.3,0.5,0.2,1.1,0.2,1.6C55.3,31.3,55.8,30.3,55.7,29.7z"/>
	<path d="M56.5,35.2c0.1,1-0.6,0.9-1.3,0.9C55.3,35.2,55.9,35.2,56.5,35.2z"/>
	<path d="M46.7,41.6c0,0.4,0,0.8,0,1.2c-0.2,0.3-0.5,0.3-0.8,0.1C45.9,42.3,45.7,41.6,46.7,41.6z"/>
	<path d="M45.9,42.9c0.3,0,0.5-0.1,0.8-0.1c0,0.6,0.2,1.3-0.8,1.4C45.9,43.8,45.9,43.4,45.9,42.9z"/>
	<path d="M45.9,45.9c0.4,0,0.8,0.1,0.8,0.6c0,0.5-0.4,0.6-0.8,0.7C45.9,46.7,45.9,46.3,45.9,45.9z"/>
	<path d="M83,60.4c-0.1,0.3-0.3,0.4-0.5,0.5c-0.4-0.1-1,0.1-1.2-0.5c0.4,0,0.8,0,0.9-0.5C82.6,59.8,82.9,60,83,60.4z"/>
	<path d="M87.7,57c-0.5-0.3-0.3-0.8-0.4-1.2C87.9,56,87.7,56.5,87.7,57z"/>
	<path class="st23" d="M218.4,59.1c-0.1-0.1-0.4-0.3-0.7-0.6c-0.3-0.4-0.4-0.7-0.5-1c-0.1-0.4-0.1-0.8-0.1-1.3
		c0-0.5,0.1-0.9,0.2-1.2c0.1-0.2,0.3-0.5,0.6-0.8c0.4-0.5,0.9-0.7,1.2-0.9c0.3-0.1,0.6-0.1,1-0.1c0.4,0,0.7,0,0.9,0.1
		c0.2,0.1,0.5,0.2,0.8,0.4c0.5,0.5,0.7,1,0.7,1.2c0.1,0.5,0.3,1.3,0.1,2.3c-0.1,0.4-0.2,0.8-0.3,1c-0.1,0.2-0.3,0.6-0.8,1
		c-0.5,0.4-1,0.4-1.2,0.4c-0.4,0-0.8-0.1-1.1-0.1C219,59.4,218.7,59.3,218.4,59.1z"/>
	<g>
		<path d="M166.5,63.9c-1-0.8-1.7-1.6-2-2.1c-1.2-1.7-1.3-3.5-1.4-4.2c-0.1-0.6-0.1-1.3,0-2.2c0.1-0.6,0.5-3,2.4-4.6
			c0.5-0.4,1.1-0.8,1.7-1.1c0.7-0.4,1.3-0.7,1.7-0.9c0.7-0.2,1.5-0.4,2.6-0.4c1,0,1.9,0.1,2.5,0.2c0.6,0.1,1.3,0.3,2.2,0.7
			c0.7,0.3,1.2,0.7,1.6,1.1c0.3,0.4,0.7,0.8,1,1.2c0.3,0.4,0.6,0.8,0.9,1.2c0.2,0.3,0.4,0.9,0.5,1.6c0.1,0.4,0.1,0.8,0,1.1
			c0,0.9,0,2.4-0.6,4c-0.5,1.2-1.1,2.2-1.6,2.8c-0.1,0.3-0.3,0.6-0.6,0.9c-0.5,0.6-1.1,0.9-1.4,1c-0.4,0.2-0.8,0.4-1.4,0.5
			c-0.6,0.2-1.2,0.2-1.6,0.2c-0.5,0-1.1,0-1.6,0c-0.6,0-1.2-0.1-1.7-0.1c-0.4,0-0.8-0.1-1.2-0.2C167.6,64.5,166.9,64.2,166.5,63.9z"
			/>
		<path class="st23" d="M170,59.5c-0.1-0.1-0.4-0.3-0.7-0.6c-0.3-0.4-0.4-0.7-0.5-1c-0.1-0.4-0.1-0.8-0.1-1.3c0-0.5,0.1-0.9,0.2-1.2
			c0.1-0.2,0.3-0.5,0.6-0.8c0.4-0.5,0.9-0.7,1.2-0.9c0.3-0.1,0.6-0.1,1-0.1c0.4,0,0.7,0,0.9,0.1c0.2,0.1,0.5,0.2,0.8,0.4
			c0.5,0.5,0.7,1,0.7,1.2c0.1,0.5,0.3,1.3,0.1,2.3c-0.1,0.4-0.2,0.8-0.3,1c-0.1,0.2-0.3,0.6-0.8,1c-0.5,0.4-1,0.4-1.2,0.4
			c-0.4,0-0.8-0.1-1.1-0.1C170.7,59.8,170.3,59.7,170,59.5z"/>
	</g>
	<path class="st0" d="M157,55.3c-0.2,0.4-0.6,0.5-0.7,0.6c-0.6,0.2-1.1,0-1.2,0c0-0.3-0.1-0.6-0.1-1c0-0.4,0-0.8,0.1-1.1
		c0.1-0.1,0.4-0.3,0.8-0.3c0.5,0,0.8,0.2,0.9,0.3c0.1,0.1,0.2,0.2,0.2,0.2c0.1,0.1,0.2,0.3,0.2,0.6C157.2,54.9,157.1,55.2,157,55.3z
		"/>
	<path class="st24" d="M123.7,55c0.2,0.6,0.5,1.3,0.7,2.1c0.2,0.7,0.2,1.3,0.3,1.8c-0.2,0.1-0.5,0.3-1,0.3c-0.4,0-0.7-0.1-0.9-0.2
		c0-0.5,0.1-1.1,0.2-1.8C123.1,56.3,123.4,55.6,123.7,55z"/>
	<path class="st0" d="M160.7,75.1c-0.1-0.2-0.2-0.5-0.2-0.9c0-0.3,0-0.5,0.2-1.3c0.2-0.9,0.2-1,0.3-1.3c0.2-0.4,0.5-0.7,0.6-0.9
		c0.3,0,0.7,0.1,0.8,0.4c0.2,0.3,0,0.6-0.3,1.7c-0.4,1.3-0.3,1.7-0.8,2C161.2,75.1,160.9,75.1,160.7,75.1z"/>
	<path class="st0" d="M149.9,76c-0.4,0.1-0.7,0.1-1-0.2c0.1-0.9-0.1-2.1,1.5-2.5C150.5,74.4,150,75.2,149.9,76z"/>
	<path class="st0" d="M157.1,76c-0.4,0.1-0.7,0.1-1-0.2c0.1-0.9-0.1-2.1,1.5-2.5C157.8,74.4,157.2,75.2,157.1,76z"/>
	<path class="st13" d="M180.1,71.5c-0.2-1.2,0.9-1.4,1.3-2c1-0.3,1.7,0,2.5,0.6c-0.5,2.1-1.3,4.3-1.4,6.5c-0.4,0.4-0.8,0.4-1.3,0.1
		c-0.5,0.1-0.3,1.1-1.2,0.7c-1.7-1.2-0.4-2.7-0.4-3.9c0.4-0.7,1-0.6,1.6-0.8c0.5-0.3,0.5-0.8,0.6-1.3
		C181.3,71.5,180.7,72,180.1,71.5z"/>
	<path class="st0" d="M180.1,71.5c0.5,0,1.2,0.2,1.3-0.6c0.1-0.6,0.5-0.6,0.9-0.6c0.4,1.6,0.4,1.8-1,2.4
		C181.6,71.7,180.2,72.2,180.1,71.5z"/>
	<path class="st13" d="M181.3,76.7c0.4,0,0.9-0.1,1.3-0.1c0.1,0.4,0,0.8-0.6,0.9C181.5,77.5,181.4,77.1,181.3,76.7z"/>
	<path class="st0" d="M181.6,76.1c-0.4,0.1-0.7,0.1-1-0.2c0.1-0.9-0.1-2.1,1.5-2.5C182.3,74.4,181.7,75.2,181.6,76.1z"/>
	<path class="st13" d="M198.9,71.1c-0.2-1.2,0.9-1.4,1.3-2c1-0.3,1.7,0,2.5,0.6c-0.5,2.1-1.3,4.3-1.4,6.5c-0.4,0.4-0.8,0.4-1.3,0.1
		c-0.5,0.1-0.3,1.1-1.2,0.7c-1.7-1.2-0.4-2.7-0.4-3.9c0.4-0.7,1-0.6,1.6-0.8c0.5-0.3,0.5-0.8,0.6-1.3
		C200.1,71.2,199.5,71.6,198.9,71.1z"/>
	<path class="st0" d="M198.9,71.1c0.5,0,1.2,0.2,1.3-0.6c0.1-0.6,0.5-0.6,0.9-0.6c0.4,1.6,0.4,1.8-1,2.4
		C200.4,71.3,199,71.8,198.9,71.1z"/>
	<path class="st13" d="M200.1,76.3c0.4,0,0.9-0.1,1.3-0.1c0.1,0.4,0,0.8-0.6,0.9C200.3,77.1,200.2,76.7,200.1,76.3z"/>
	<path class="st0" d="M200.4,75.7c-0.4,0.1-0.7,0.1-1-0.2c0.1-0.9-0.1-2.1,1.5-2.5C201.1,74,200.5,74.9,200.4,75.7z"/>
	<path class="st13" d="M191.3,71.1c-0.2-1.2,0.9-1.4,1.3-2c1-0.3,1.7,0,2.5,0.6c-0.5,2.1-1.3,4.3-1.4,6.5c-0.4,0.4-0.8,0.4-1.3,0.1
		c-0.5,0.1-0.3,1.1-1.2,0.7c-1.7-1.2-0.4-2.7-0.4-3.9c0.4-0.7,1-0.6,1.6-0.8c0.5-0.3,0.5-0.8,0.6-1.3
		C192.5,71.1,191.9,71.6,191.3,71.1z"/>
	<path class="st0" d="M191.3,71.1c0.5,0,1.2,0.2,1.3-0.6c0.1-0.6,0.5-0.6,0.9-0.6c0.4,1.6,0.4,1.8-1,2.4
		C192.8,71.3,191.4,71.8,191.3,71.1z"/>
	<path class="st13" d="M192.5,76.3c0.4,0,0.9-0.1,1.3-0.1c0.1,0.4,0,0.8-0.6,0.9C192.7,77.1,192.6,76.7,192.5,76.3z"/>
	<path class="st0" d="M192.8,75.7c-0.4,0.1-0.7,0.1-1-0.2c0.1-0.9-0.1-2.1,1.5-2.5C193.5,74,192.9,74.8,192.8,75.7z"/>
	<path class="st0" d="M138.5,73.8c0.1-0.4,0.1-0.9,0.3-1.4c0.2-0.7,0.5-1.3,0.8-1.8c0.1,0,0.4-0.1,0.5,0.1c0.2,0.1,0.2,0.4,0.1,0.9
		c0,0.4-0.1,0.9-0.3,1.5c0,0.2-0.1,0.4-0.1,0.7c-0.1,0.3-0.1,0.6-0.2,0.8c0.1,0.5,0,1.1-0.4,1.4c-0.3,0.2-0.6,0.2-0.7,0.2
		c-0.1-0.2-0.2-0.4-0.3-0.6C138,74.7,138.4,74.1,138.5,73.8z"/>
	<path class="st0" d="M144.3,72.9c0,0.2-0.1,0.4-0.2,0.6c-0.1,0.2-0.1,0.4-0.1,0.4c-0.1,0.3-0.2,0.7-0.2,1.5c-0.1,0-0.6,0.1-0.8-0.2
		c-0.1-0.1-0.2-0.3-0.2-0.6c-0.1-0.8-0.2-1.2-0.1-1.4c0.1-0.4,0.2-0.8,0.5-1.4c0.2-0.4,0.3-0.7,0.5-0.9c0.4-0.4,0.8-0.4,1.2,0
		c0,0.1,0,0.2,0,0.3c-0.1,0.1-0.2,0.3-0.3,0.4C144.4,72.3,144.3,72.7,144.3,72.9z"/>
	<path class="st16" d="M145.7,71c0.1,0.4,0,0.7-0.3,0.9C145.3,71.6,145.3,71.2,145.7,71z"/>
	<path class="st25" d="M187.3,73.7c0,0,0.2-0.9,0.5-2c0.1-0.5,0.2-1,0.2-1.3c0.2-0.1,0.9-0.2,1.3,0.2c0.1,0.1,0.2,0.2,0.1,1.4
		c0,0.8,0,1.2-0.2,1.7c-0.1,0.3-0.2,0.6-0.5,1.2c-0.5,1.1-0.6,1.2-0.8,1.2c-0.4,0.1-0.9-0.1-1.1-0.5C186.8,75.3,187,75,187.3,73.7z"
		/>
	<path class="st0" d="M187.9,72c0.1,0.2,0.2,0.7,0,1.3c-0.2,0.6-0.6,0.9-0.8,1c0.1-0.3,0.2-0.7,0.3-1
		C187.6,72.9,187.8,72.5,187.9,72z"/>
	<path class="st0" d="M133.2,73.6c-0.1,0.4-0.2,0.8-0.4,1.3c-0.1,0.3-0.2,0.5-0.3,0.8c0,0-0.1,0.4-0.4,0.5c-0.3,0.1-0.5,0-0.5-0.1
		c-0.4-0.5-0.2-1.1-0.2-1.6c0-0.2,0.1-0.5,0.2-0.8c0.1-0.2,0.2-0.4,0.2-0.5c0.2-0.4,0.3-0.9,0.5-1.3c0.1-0.3,0.2-0.5,0.3-0.8
		c0,0,0.1-0.5,0.5-0.6c0.2-0.1,0.4,0,0.5,0c0.1,0.1,0.4,0.4,0.4,0.8c0,0.2-0.1,0.4-0.1,0.5c-0.1,0.4-0.2,0.8-0.3,1.2
		C133.4,73.3,133.3,73.4,133.2,73.6z"/>
	<path class="st11" d="M173.9,70c1.7-1,1.7-1,3.5-0.2c-0.5,2.5,0.1,5.2-1.9,7.3c-1.1,0.5-1.8,0.2-2.4-0.7
		C172.2,74.2,173,72.1,173.9,70z"/>
	<path class="st7" d="M179.2,67.1c0.2,0,0.4,0.1,0.6,0.1c0,0.6-0.1,1.3-0.1,2c-0.1,1.6-0.4,3.1-0.7,4.4c-0.1,0.7-0.3,1.4-0.6,2.1
		c-0.2,0.5-0.4,1.1-0.6,1.5c-0.3,0.2-0.6,0.2-0.9,0c0-0.1-0.1-0.2-0.1-0.4c-0.1-0.6,0.2-1.1,0.3-1.3c0.2-0.3,0.4-0.9,0.7-2.1
		c0.3-1.1,0.5-2,0.5-2.6c0.1-0.7,0.1-1.4,0.1-1.8c0.1-0.3,0.2-0.7,0.4-1.1C178.9,67.5,179.1,67.2,179.2,67.1z"/>
	<path class="st0" d="M175.9,73.5c-0.1,0.4-0.2,0.8-0.4,1.3c-0.1,0.3-0.2,0.5-0.3,0.8c0,0-0.1,0.4-0.4,0.5c-0.3,0.1-0.5,0-0.5-0.1
		c-0.4-0.5-0.2-1.1-0.2-1.6c0-0.2,0.1-0.5,0.2-0.8c0.1-0.2,0.2-0.4,0.2-0.5c0.2-0.4,0.3-0.9,0.5-1.3c0.1-0.3,0.2-0.5,0.3-0.8
		c0,0,0.1-0.5,0.5-0.6c0.2-0.1,0.4,0,0.5,0c0.1,0.1,0.4,0.4,0.4,0.8c0,0.2-0.1,0.4-0.1,0.5c-0.1,0.4-0.2,0.8-0.3,1.2
		C176.1,73.1,176,73.3,175.9,73.5z"/>
	<path class="st0" d="M121,73.6c0.6,0.4,0.4,0.6-0.1,0.9c-0.3,0-0.6,0-0.8,0c0,0.2,0,0.9-0.7,1.5c-0.3,0.3-0.6,0.4-0.8,0.4
		c-0.1-0.2-0.3-0.6-0.3-1.2c0.1-0.7,0.4-1.1,0.5-1.2c0.2-0.1,0.5-0.3,0.8-0.4C120.3,73.5,120.8,73.5,121,73.6z"/>
	<path class="st0" d="M120.5,71.5c0,0.1,0,0.6-0.5,1c-0.2,0.1-0.4,0.2-0.5,0.2c-0.1-0.2-0.2-0.4-0.2-0.8c0-0.8,0.5-1.3,0.6-1.4
		c0.3-0.1,0.6-0.1,0.7,0C120.8,70.8,120.8,71.2,120.5,71.5z"/>
	<path class="st7" d="M216.4,74.2c0.2,1.2-1.1,1.5-1.1,2.4c-0.7,0.2-1.4,0.2-2.2,0c-0.5-2.5,0.2-4.9,0.8-7.3
		c0.9-0.5,1.9-0.3,2.9-0.2c0.8,1.2,0.8,2.5,0.1,3.7c-0.6,0.9-2,0.1-2.6,1.7c0.9-0.8,1.4-1.4,2.2-0.9C216.5,73.8,216.5,74,216.4,74.2
		z"/>
	<path class="st14" d="M219.8,75.9c-0.7,1.7-1.9,0.6-2.8,0.7c-0.4-0.9-0.2-1.7-0.2-2.4c0.4-1.3,0.3-2.7,1.2-3.9
		c0-0.4,0.1-0.8,0.6-1.1c0.7-0.3,1.4-0.2,2.1-0.1c0.6,0.3,0.7,0.7,0.7,1.2c-0.1,0.6-0.1,1.3-0.5,1.9c-0.9,0.2-1.5,0.1-1.4-1.1
		c0-0.1,0-0.1,0.1-0.2c-0.2,0-0.1,0.2-0.2,0.3c-0.3,0.5-0.4,1-0.4,1.5c0,0.6-0.1,1.1-0.3,1.7c0.4-0.3,0.5-0.8,1.2-0.7
		C220.8,74.4,220.8,75.1,219.8,75.9z"/>
	<path class="st0" d="M219.8,75.9c0.1-0.7,0.8-1.4-0.1-2.1c-0.1,0.2-0.3,0.5-0.5,0.8c-0.2,0.5-0.2,0.8-0.4,0.8
		c-0.1,0.1-0.3,0-0.8-0.4c0-0.3,0.1-0.7,0.1-1c0.1-0.3,0.1-0.6,0.2-0.9c0-0.4,0.1-0.9,0.2-1.4c0.1-0.3,0.2-0.5,0.2-0.8
		c0.1-0.3,0.2-0.7,0.4-1c0.6-0.1,0.8-0.1,0.8,0c0.1,0.1-0.2,0.4-0.3,0.8c-0.1,0.3-0.1,0.7,0,0.9c0.3,0.3,0.5,0.3,0.8,0.2
		c0.1-0.2,0.2-0.5,0.3-0.8c0.1-0.3,0.1-0.6,0.2-0.9c-0.1-0.5-0.1-0.7,0-0.8c0.1,0,0.3,0.2,0.6,0.8c-0.2,1-0.3,2.1-0.5,3.1
		c-0.2,1-0.4,2-0.6,2.9c0,0.2,0,0.4,0,0.4C220.5,76.8,220.3,76.5,219.8,75.9z"/>
	<path class="st0" d="M216.3,72.9c0.6,0.4,0.4,0.6-0.1,0.9c-0.3,0-0.6,0-0.8,0c0,0.2,0,0.9-0.7,1.5c-0.3,0.3-0.6,0.4-0.8,0.4
		c-0.1-0.2-0.3-0.6-0.3-1.2c0.1-0.7,0.4-1.1,0.5-1.2c0.2-0.1,0.5-0.3,0.8-0.4C215.6,72.8,216.1,72.8,216.3,72.9z"/>
	<path class="st0" d="M215.8,70.8c0,0.1,0,0.6-0.5,1c-0.2,0.1-0.4,0.2-0.5,0.2c-0.1-0.2-0.2-0.4-0.2-0.8c0-0.8,0.5-1.3,0.6-1.4
		c0.3-0.1,0.6-0.1,0.7,0C216.2,70.1,216.2,70.5,215.8,70.8z"/>
	<g>
		<path class="st14" d="M208.2,75.8c-0.7,1.7-1.9,0.6-2.8,0.7c-0.4-0.9-0.2-1.7-0.2-2.4c0.4-1.3,0.3-2.7,1.2-3.9
			c0-0.4,0.1-0.8,0.6-1.1c0.7-0.3,1.4-0.2,2.1-0.1c0.6,0.3,0.7,0.7,0.7,1.2c-0.1,0.6-0.1,1.3-0.5,1.9c-0.9,0.2-1.5,0.1-1.4-1.1
			c0-0.1,0-0.1,0.1-0.2c-0.2,0-0.1,0.2-0.2,0.3c-0.3,0.5-0.4,1-0.4,1.5c0,0.6-0.1,1.1-0.3,1.7c0.4-0.3,0.5-0.8,1.2-0.7
			C209.2,74.2,209.2,75,208.2,75.8z"/>
		<path class="st0" d="M208.2,75.8c0.1-0.7,0.8-1.4-0.1-2.1c-0.1,0.2-0.3,0.5-0.5,0.8c-0.2,0.5-0.2,0.8-0.4,0.8
			c-0.1,0.1-0.3,0-0.8-0.4c0-0.3,0.1-0.7,0.1-1c0.1-0.3,0.1-0.6,0.2-0.9c0-0.4,0.1-0.9,0.2-1.4c0.1-0.3,0.2-0.5,0.2-0.8
			c0.1-0.3,0.2-0.7,0.4-1c0.6-0.1,0.8-0.1,0.8,0c0.1,0.1-0.2,0.4-0.3,0.8c-0.1,0.3-0.1,0.7,0,0.9c0.3,0.3,0.5,0.3,0.8,0.2
			c0.1-0.2,0.2-0.5,0.3-0.8c0.1-0.3,0.1-0.6,0.2-0.9c-0.1-0.5-0.1-0.7,0-0.8c0.1,0,0.3,0.2,0.6,0.8c-0.2,1-0.3,2.1-0.5,3.1
			c-0.2,1-0.4,2-0.6,2.9c0,0.2,0,0.4,0,0.4C208.9,76.6,208.6,76.4,208.2,75.8z"/>
	</g>
	<g>
		<path class="st17" d="M226.7,70.5c0-0.2,0-0.7,0.2-1.1c0.1-0.2,0.2-0.3,0.3-0.4c0.3,0.2,0.6,0.3,0.8,0.3c0.6,0,0.8-0.4,1.3-0.3
			c0,0,0.2,0.1,0.4,0.3c0.1,0.1,0.1,0.1,0.1,0.2c0,0,0,0,0,0.1c-0.1,0.2-0.4,0.3-0.4,0.3c-0.3,0.1-0.6,0.2-0.9,0.3
			c-0.1,0-0.4,0-0.6,0.2c-0.3,0.3-0.3,0.7-0.3,0.7c-0.1,0.1-0.2,0.3-0.2,0.6c-0.1,0.3-0.1,0.5-0.1,0.6c-0.2,1.3-0.4,2.5-0.6,3.8
			c-0.4,0.4-0.8,0.4-1.2,0.2c-0.2-0.3-0.3-0.6-0.2-0.9c0.3-0.5,0.6-1.1,0.5-1.7C225.9,72.5,225.7,71.3,226.7,70.5z"/>
		<path class="st0" d="M225.6,75.5c0,0.2-0.1,0.4-0.1,0.5c0.3,0.3,0.2,0.6,0,0.9c-0.4,0-0.8,0-1.3,0c0-0.2,0-0.5,0-0.8
			c0-0.2,0-0.4,0.1-0.6c0.1-0.3,0.2-0.6,0.4-0.9c0.1-0.1,0.1-0.2,0.2-0.3c0.2-1.4,0.4-2.8,0.6-4.1c0.1-0.4,0.4-0.5,0.8-0.6
			c0.1,0.3,0,0.7,0.4,0.9c-0.1,0.5-0.2,1.1-0.3,1.7c-0.1,0.4-0.1,0.8-0.1,1.2c-0.1,0.4-0.3,0.8-0.4,1.2
			C225.8,74.9,225.7,75.2,225.6,75.5z"/>
		<path class="st17" d="M225.5,76.9c0-0.3,0-0.6,0-0.9c0.4,0,0.8,0,1.2,0C226.8,77.1,226.1,76.9,225.5,76.9z"/>
		<path class="st7" d="M224.7,74.2c0.2,1.2-1.1,1.5-1.1,2.4c-0.7,0.2-1.4,0.2-2.2,0c-0.5-2.5,0.2-4.9,0.8-7.3
			c0.9-0.5,1.9-0.3,2.9-0.2c0.8,1.2,0.8,2.5,0.1,3.7c-0.6,0.9-2,0.1-2.6,1.7c0.9-0.8,1.4-1.4,2.2-0.9
			C224.8,73.9,224.8,74.1,224.7,74.2z"/>
		<path class="st0" d="M224.7,73c0.6,0.4,0.4,0.6-0.1,0.9c-0.3,0-0.6,0-0.8,0c0,0.2,0,0.9-0.7,1.5c-0.3,0.3-0.6,0.4-0.8,0.4
			c-0.1-0.2-0.3-0.6-0.3-1.2c0.1-0.7,0.4-1.1,0.5-1.2c0.2-0.1,0.5-0.3,0.8-0.4C224,72.8,224.4,72.9,224.7,73z"/>
		<path class="st0" d="M224.2,70.9c0,0.1,0,0.6-0.5,1c-0.2,0.1-0.4,0.2-0.5,0.2c-0.1-0.2-0.2-0.4-0.2-0.8c0-0.8,0.5-1.3,0.6-1.4
			c0.3-0.1,0.6-0.1,0.7,0C224.5,70.1,224.5,70.6,224.2,70.9z"/>
	</g>
	<path class="st0" d="M175.3,75.6c-0.1,0.3-0.3,0.5-0.6,0.6c-0.3,0-0.6-0.1-0.7-0.3c-0.1-0.7-0.1-1.7,0.1-2.8
		c0.1-0.7,0.3-1.2,0.4-1.7c0-0.6,0.5-1.1,0.9-1.1c0.5-0.1,0.9,0.4,0.9,0.4c0.3,0.3,0.3,0.8,0.1,1.3c-0.2,0.5-0.4,1.1-0.5,1.6
		C175.7,74.2,175.5,74.9,175.3,75.6z"/>
	<path class="st26" d="M50.1,48c0.2-0.4,0.4-0.9,0.7-1.5c-0.1,0.5-0.1,1.3,0.2,2.1c0.1,0.5,0.3,0.9,0.5,1.2c0,1.3,0.1,2.7,0.2,4.2
		c0.1,1.4,0.3,2.8,0.5,4c-1,0.5-2.2,0.1-3.2,0.3c-1-1.4-1.8-2.6-1.4-4.3c0.4-0.4,0.4-1,0.8-1.4c0.4-0.9,0.8-1.9,0.9-2.9
		C49.6,49.2,49.8,48.6,50.1,48z"/>
	<path class="st27" d="M67.6,54.4c0.4-2.1-0.3-4.3,0.5-6.4c0.4-0.4,0.8-0.4,1.2,0c0.3,1.5,0.6,2.9,1.6,4.2c1.2,1.6,0.7,4.1-0.6,5.2
		c-1.1,0.5-2.3,0.6-3.4-0.1c0-0.5,0-1,0-1.6C67.2,55.4,67.2,54.8,67.6,54.4z"/>
	<path class="st28" d="M83,60.4c-0.3-0.2-0.5-0.3-0.8-0.5c0-0.9-0.2-1.8,0.4-2.6c0.6-0.1,1.1-0.3,1.7-0.4c0.4,0,0.8,0,1.3,0
		c0.4-0.3,0.9-0.3,1.3,0.1c0.2,1.2,0.4,2.4-0.1,3.6C85.5,61.2,84.3,60.2,83,60.4z"/>
	<path class="st1" d="M66.9,57.4c1.1,0,2.3,0,3.4,0.1c0,0.5-0.1,0.8-0.7,0.8c-0.8,0-1.7,0-2.3,0C66.8,57.9,66.8,57.6,66.9,57.4z"/>
	<path class="st1" d="M69.3,48c-0.4,0-0.8,0-1.2,0c-0.1-0.6-0.1-1.2,0.2-2.3C68.3,46.9,69.5,47.1,69.3,48z"/>
	<path d="M86.8,57c-0.4,0-0.8-0.1-1.3-0.1c0-0.4,0.1-0.7,0.5-0.8C86.6,56.1,86.9,56.4,86.8,57z"/>
</g>
</svg>
