<?xml version="1.0" encoding="utf-8"?>
<!-- Generator: Adobe Illustrator 25.2.1, SVG Export Plug-In . SVG Version: 6.00 Build 0)  -->
<!DOCTYPE svg PUBLIC "-//W3C//DTD SVG 1.1//EN" "http://www.w3.org/Graphics/SVG/1.1/DTD/svg11.dtd" [
	<!ENTITY ns_extend "http://ns.adobe.com/Extensibility/1.0/">
	<!ENTITY ns_ai "http://ns.adobe.com/AdobeIllustrator/10.0/">
	<!ENTITY ns_graphs "http://ns.adobe.com/Graphs/1.0/">
	<!ENTITY ns_vars "http://ns.adobe.com/Variables/1.0/">
	<!ENTITY ns_imrep "http://ns.adobe.com/ImageReplacement/1.0/">
	<!ENTITY ns_sfw "http://ns.adobe.com/SaveForWeb/1.0/">
	<!ENTITY ns_custom "http://ns.adobe.com/GenericCustomNamespace/1.0/">
	<!ENTITY ns_adobe_xpath "http://ns.adobe.com/XPath/1.0/">
]>
<svg version="1.1" id="Capa_1" xmlns:x="&ns_extend;" xmlns:i="&ns_ai;" xmlns:graph="&ns_graphs;"
	 xmlns="http://www.w3.org/2000/svg" xmlns:xlink="http://www.w3.org/1999/xlink" x="0px" y="0px" viewBox="0 0 484.5 125"
	 style="enable-background:new 0 0 484.5 125;" xml:space="preserve">
<style type="text/css">
	.st0{fill:url(#SVGID_1_);}
	.st1{fill:url(#SVGID_2_);}
	.st2{fill:url(#SVGID_3_);}
	.st3{fill:#605D5D;}
	.st4{fill:#9B9A9B;}
	.st5{fill:#5E5B5C;}
</style>
<metadata>
	<sfw  xmlns="&ns_sfw;">
		<slices></slices>
		<sliceSourceBounds  bottomLeftOrigin="true" height="101.2" width="470" x="7.2" y="11.9"></sliceSourceBounds>
	</sfw>
</metadata>
<g id="AMVAC">
	<g>
		<g>
			<g>
				<linearGradient id="SVGID_1_" gradientUnits="userSpaceOnUse" x1="46.9629" y1="25.1116" x2="107.7664" y2="25.1116">
					<stop  offset="0.4103" style="stop-color:#1A62AD"/>
					<stop  offset="0.5355" style="stop-color:#1B5DA6"/>
					<stop  offset="0.7154" style="stop-color:#1D4F93"/>
					<stop  offset="0.8337" style="stop-color:#1F4383"/>
				</linearGradient>
				<path class="st0" d="M94.5,21.2c2.5-0.5,5-1,7.6-1.2c1.2-0.1,2.4-0.2,3.7-0.3l1.9-4.2c0.4-0.8-0.2-1.7-1.1-1.7H48.4
					c-0.4,0.6-0.8,1.2-1.2,1.9l9.4,20.8c7.4-4.3,15.2-8,23.2-10.9C84.5,23.8,89.5,22.3,94.5,21.2z"/>
				<linearGradient id="SVGID_2_" gradientUnits="userSpaceOnUse" x1="7.25" y1="47.4359" x2="109.7327" y2="47.4359">
					<stop  offset="0" style="stop-color:#84B228"/>
					<stop  offset="3.218496e-02" style="stop-color:#87B326"/>
					<stop  offset="0.6886" style="stop-color:#C6D10B"/>
					<stop  offset="1" style="stop-color:#DEDD00"/>
				</linearGradient>
				<path class="st1" d="M105.8,19.7c-1.2,0-2.5,0.1-3.7,0.3c-2.5,0.3-5.1,0.7-7.6,1.2c-5,1.1-10,2.6-14.8,4.3
					c-8,2.9-15.7,6.6-23.2,10.9c-1.6,0.9-3.2,1.9-4.8,2.9c-8,5.1-15.6,10.9-22.5,17.6c0.5-2.3,1.1-4.6,1.7-6.8
					c1.9-6.7,4.2-13.4,7.1-19.8c2.9-6.5,6.3-12.7,10.7-18.4c-5.5,4.5-10.5,10-14.9,15.8c-4.4,5.8-8.4,12.1-11.9,18.6
					c-3.5,6.5-6.7,13.3-9.3,20.4c-2,5.3-3.8,10.7-5.3,16.2h21.9c0.3-0.6,0.6-1.1,0.9-1.7C32.3,77,35,73,37.8,69
					c5.6-7.9,12.3-15.1,19.7-21.7c7.4-6.6,15.5-12.4,24.2-17.3c4.4-2.4,8.9-4.6,13.5-6.5c2.3-0.9,4.7-1.7,7.1-2.4
					c1-0.3,2.1-0.5,3.1-0.8c1.1-0.2,2.2-0.4,3.3-0.5c0.3,0,0.7-0.1,1-0.1C108.4,19.6,107.1,19.6,105.8,19.7z"/>
			</g>
			<g>
				<linearGradient id="SVGID_3_" gradientUnits="userSpaceOnUse" x1="46.9629" y1="51.2076" x2="107.7664" y2="51.2076">
					<stop  offset="0.41" style="stop-color:#1A62AD"/>
					<stop  offset="0.5352" style="stop-color:#1B5DA6"/>
					<stop  offset="0.7153" style="stop-color:#1D4F93"/>
					<stop  offset="0.8337" style="stop-color:#1F4383"/>
				</linearGradient>
				<path class="st2" d="M61.9,48.5l14.4,31.9c0.4,0.9,1.8,0.9,2.2,0l26.6-59.2C87.9,26.2,69,42.2,61.9,48.5z"/>
			</g>
		</g>
		<g>
			<path class="st3" d="M153.2,73.9h-25.3l-2.6,8.5h-21.6L128,16.5h25.1l24.3,65.9h-21.6L153.2,73.9z M133,57.3h15l-7.5-23.2
				L133,57.3z"/>
			<path class="st3" d="M239.2,40.8l-14.7,41.6h-8.9l-14.7-41.6v41.6H181V16.5h27.5l11.6,33.6l11.6-33.6h27.5v65.9h-19.9V40.8z"/>
			<path class="st3" d="M263.4,16.5H286l14.2,44.3l14.2-44.3H337l-24.3,65.9h-25.1L263.4,16.5z"/>
			<path class="st3" d="M375.7,73.9h-25.3l-2.6,8.5h-21.6l24.3-65.9h25.1l24.3,65.9h-21.6L375.7,73.9z M355.6,57.3h15l-7.5-23.2
				L355.6,57.3z"/>
			<path class="st3" d="M397,49.5c0-20.3,15.6-34.1,35.7-34.1c17.8,0,26.5,10.1,30.4,19.2l-17.2,8c-1.7-5.1-6.8-9.6-13.2-9.6
				c-9.1,0-15.5,7.3-15.5,16.5c0,9.2,6.4,16.5,15.5,16.5c6.4,0,11.6-4.4,13.2-9.6l17.2,7.9c-3.9,8.8-12.6,19.2-30.4,19.2
				C412.6,83.5,397,69.7,397,49.5z"/>
		</g>
		<g>
			<path class="st4" d="M174.7,106.3H168l-1.1,2.8h-2.2l5.4-13.5h2.5l5.4,13.5h-2.2L174.7,106.3z M168.6,104.5h5.4l-2.7-7.1
				L168.6,104.5z"/>
			<path class="st4" d="M186.2,102.9c0-1.6-0.8-2.1-2.1-2.1c-1.1,0-2.2,0.7-2.7,1.4v7h-1.8v-9.8h1.8v1.4c0.6-0.8,1.9-1.6,3.5-1.6
				c2.1,0,3.1,1.1,3.1,3.2v6.9h-1.8V102.9z"/>
			<path class="st4" d="M204.7,106.3h-6.6l-1.1,2.8h-2.2l5.4-13.5h2.5l5.4,13.5h-2.2L204.7,106.3z M198.6,104.5h5.4l-2.7-7.1
				L198.6,104.5z"/>
			<path class="st4" d="M221.4,102.6c0-1.1-0.5-1.9-1.7-1.9c-1,0-2,0.7-2.4,1.4v7h-1.8v-6.5c0-1.1-0.5-1.9-1.7-1.9
				c-1,0-1.9,0.7-2.4,1.4v7h-1.8v-9.8h1.8v1.4c0.4-0.6,1.7-1.6,3.2-1.6c1.5,0,2.3,0.8,2.6,1.8c0.6-0.9,1.9-1.8,3.3-1.8
				c1.8,0,2.8,1,2.8,3v7.1h-1.8V102.6z"/>
			<path class="st4" d="M230.4,99.1c2.9,0,4.8,2.3,4.8,5.3v0.4h-7.7c0.1,1.7,1.4,3,3.3,3c1,0,2.2-0.4,2.9-1.2l0.8,1.2
				c-1,1-2.3,1.5-3.9,1.5c-2.9,0-5.1-2.1-5.1-5.1C225.6,101.4,227.6,99.1,230.4,99.1z M227.5,103.5h6c0-1.3-0.9-2.9-3-2.9
				C228.5,100.6,227.6,102.2,227.5,103.5z"/>
			<path class="st4" d="M237.5,99.3h1.8v1.5c0.7-1,1.9-1.7,3.2-1.7v1.8c-0.2,0-0.4-0.1-0.6-0.1c-0.9,0-2.1,0.7-2.6,1.4v6.8h-1.8
				V99.3z"/>
			<path class="st4" d="M244,96.6c0-0.6,0.5-1.2,1.2-1.2c0.6,0,1.2,0.5,1.2,1.2s-0.5,1.2-1.2,1.2C244.6,97.7,244,97.2,244,96.6z
				 M244.3,99.3h1.8v9.8h-1.8V99.3z"/>
			<path class="st4" d="M253.4,99.1c1.8,0,3,0.8,3.7,1.7l-1.2,1.1c-0.6-0.8-1.4-1.2-2.4-1.2c-1.9,0-3.2,1.5-3.2,3.5s1.2,3.5,3.2,3.5
				c1,0,1.8-0.4,2.4-1.2l1.2,1.1c-0.7,1-1.8,1.7-3.7,1.7c-3,0-5-2.2-5-5.1C248.4,101.3,250.5,99.1,253.4,99.1z"/>
			<path class="st4" d="M265.1,108c-0.8,0.8-1.9,1.3-3.2,1.3c-1.6,0-3.4-1.1-3.4-3.2c0-2.2,1.8-3.2,3.4-3.2c1.3,0,2.4,0.4,3.2,1.3
				v-1.6c0-1.2-1-1.9-2.4-1.9c-1.1,0-2.1,0.4-2.9,1.3l-0.8-1.3c1.1-1.1,2.4-1.6,4-1.6c2.1,0,3.9,0.9,3.9,3.4v6.6h-1.8V108z
				 M265.1,105.3c-0.5-0.7-1.5-1.1-2.5-1.1c-1.3,0-2.2,0.8-2.2,1.9c0,1.2,0.9,1.9,2.2,1.9c1,0,2-0.4,2.5-1.1V105.3z"/>
			<path class="st4" d="M276.4,102.9c0-1.6-0.8-2.1-2.1-2.1c-1.1,0-2.2,0.7-2.7,1.4v7h-1.8v-9.8h1.8v1.4c0.6-0.8,1.9-1.6,3.5-1.6
				c2.1,0,3.1,1.1,3.1,3.2v6.9h-1.8V102.9z"/>
			<path class="st4" d="M285,95.6h2.3l4.3,11.3l4.3-11.3h2.3l-5.4,13.5h-2.5L285,95.6z"/>
			<path class="st4" d="M304.6,108c-0.8,0.8-1.9,1.3-3.2,1.3c-1.6,0-3.4-1.1-3.4-3.2c0-2.2,1.8-3.2,3.4-3.2c1.3,0,2.4,0.4,3.2,1.3
				v-1.6c0-1.2-1-1.9-2.4-1.9c-1.1,0-2.1,0.4-2.9,1.3l-0.8-1.3c1.1-1.1,2.4-1.6,4-1.6c2.1,0,3.9,0.9,3.9,3.4v6.6h-1.8V108z
				 M304.6,105.3c-0.5-0.7-1.5-1.1-2.5-1.1c-1.3,0-2.2,0.8-2.2,1.9c0,1.2,0.9,1.9,2.2,1.9c1,0,2-0.4,2.5-1.1V105.3z"/>
			<path class="st4" d="M315.9,102.9c0-1.6-0.8-2.1-2.1-2.1c-1.1,0-2.2,0.7-2.7,1.4v7h-1.8v-9.8h1.8v1.4c0.6-0.8,1.9-1.6,3.5-1.6
				c2.1,0,3.1,1.1,3.1,3.2v6.9h-1.8V102.9z"/>
			<path class="st4" d="M321.4,110.3c0.8,0.9,1.8,1.3,3.1,1.3c1.5,0,3-0.7,3-2.8v-1.3c-0.7,1-1.9,1.7-3.2,1.7
				c-2.5,0-4.3-1.9-4.3-5.1c0-3.1,1.8-5,4.3-5c1.3,0,2.4,0.6,3.2,1.7v-1.4h1.8v9.4c0,3.4-2.4,4.3-4.9,4.3c-1.6,0-2.8-0.3-4-1.5
				L321.4,110.3z M327.6,102.2c-0.5-0.8-1.6-1.4-2.7-1.4c-1.8,0-3,1.4-3,3.4c0,2,1.1,3.4,3,3.4c1.1,0,2.2-0.7,2.7-1.5V102.2z"/>
			<path class="st4" d="M338.9,107.8c-0.7,0.8-2,1.6-3.5,1.6c-2.1,0-3.1-1.1-3.1-3.1v-6.9h1.8v6.3c0,1.6,0.8,2.1,2.1,2.1
				c1.1,0,2.2-0.6,2.7-1.4v-7h1.8v9.8h-1.8V107.8z"/>
			<path class="st4" d="M349.6,108c-0.8,0.8-1.9,1.3-3.2,1.3c-1.6,0-3.4-1.1-3.4-3.2c0-2.2,1.8-3.2,3.4-3.2c1.3,0,2.4,0.4,3.2,1.3
				v-1.6c0-1.2-1-1.9-2.4-1.9c-1.1,0-2.1,0.4-2.9,1.3l-0.8-1.3c1.1-1.1,2.4-1.6,4-1.6c2.1,0,3.9,0.9,3.9,3.4v6.6h-1.8V108z
				 M349.6,105.3c-0.5-0.7-1.5-1.1-2.5-1.1c-1.3,0-2.2,0.8-2.2,1.9c0,1.2,0.9,1.9,2.2,1.9c1,0,2-0.4,2.5-1.1V105.3z"/>
			<path class="st4" d="M354.4,99.3h1.8v1.5c0.7-1,1.9-1.7,3.2-1.7v1.8c-0.2,0-0.4-0.1-0.6-0.1c-0.9,0-2.1,0.7-2.6,1.4v6.8h-1.8
				V99.3z"/>
			<path class="st4" d="M368.2,107.7c-0.7,1-1.9,1.6-3.2,1.6c-2.5,0-4.4-1.9-4.4-5.1c0-3.1,1.8-5.1,4.4-5.1c1.3,0,2.4,0.6,3.2,1.7
				v-5.1h1.8v13.5h-1.8V107.7z M368.2,102.2c-0.5-0.8-1.6-1.4-2.7-1.4c-1.8,0-3,1.5-3,3.5c0,2,1.1,3.5,3,3.5c1.1,0,2.2-0.6,2.7-1.4
				V102.2z"/>
			<path class="st4" d="M377.6,102.4c0-4.1,3.1-7,6.9-7c2.6,0,4.3,1.3,5.4,2.9l-1.7,0.9c-0.7-1.1-2-2-3.6-2c-2.7,0-4.8,2.1-4.8,5.2
				c0,3,2.1,5.2,4.8,5.2c1.6,0,2.9-0.8,3.6-2l1.7,0.9c-1.1,1.6-2.7,2.9-5.4,2.9C380.7,109.4,377.6,106.5,377.6,102.4z"/>
			<path class="st4" d="M391.3,104.2c0-2.8,1.9-5.1,4.9-5.1c3.1,0,4.9,2.3,4.9,5.1c0,2.8-1.9,5.1-4.9,5.1
				C393.2,109.4,391.3,107.1,391.3,104.2z M399.2,104.2c0-1.8-1.1-3.5-3-3.5c-1.9,0-3,1.7-3,3.5c0,1.9,1.1,3.5,3,3.5
				C398.2,107.7,399.2,106.1,399.2,104.2z"/>
			<path class="st4" d="M415.3,102.6c0-1.1-0.5-1.9-1.7-1.9c-1,0-2,0.7-2.4,1.4v7h-1.8v-6.5c0-1.1-0.5-1.9-1.7-1.9
				c-1,0-1.9,0.7-2.4,1.4v7h-1.8v-9.8h1.8v1.4c0.4-0.6,1.7-1.6,3.2-1.6c1.5,0,2.3,0.8,2.6,1.8c0.6-0.9,1.9-1.8,3.3-1.8
				c1.8,0,2.8,1,2.8,3v7.1h-1.8V102.6z"/>
			<path class="st4" d="M420,112.8V99.3h1.8v1.4c0.7-1,1.9-1.6,3.2-1.6c2.5,0,4.3,1.9,4.3,5.1c0,3.2-1.8,5.1-4.3,5.1
				c-1.3,0-2.4-0.6-3.2-1.7v5.1H420z M424.6,100.7c-1.1,0-2.2,0.6-2.7,1.4v4.1c0.5,0.8,1.6,1.4,2.7,1.4c1.8,0,2.9-1.5,2.9-3.5
				C427.5,102.2,426.4,100.7,424.6,100.7z"/>
			<path class="st4" d="M437.7,108c-0.8,0.8-1.9,1.3-3.2,1.3c-1.6,0-3.4-1.1-3.4-3.2c0-2.2,1.8-3.2,3.4-3.2c1.3,0,2.4,0.4,3.2,1.3
				v-1.6c0-1.2-1-1.9-2.4-1.9c-1.1,0-2.1,0.4-2.9,1.3l-0.8-1.3c1.1-1.1,2.4-1.6,4-1.6c2.1,0,3.9,0.9,3.9,3.4v6.6h-1.8V108z
				 M437.7,105.3c-0.5-0.7-1.5-1.1-2.5-1.1c-1.3,0-2.2,0.8-2.2,1.9c0,1.2,0.9,1.9,2.2,1.9c1,0,2-0.4,2.5-1.1V105.3z"/>
			<path class="st4" d="M449.1,102.9c0-1.6-0.8-2.1-2.1-2.1c-1.1,0-2.2,0.7-2.7,1.4v7h-1.8v-9.8h1.8v1.4c0.6-0.8,1.9-1.6,3.5-1.6
				c2.1,0,3.1,1.1,3.1,3.2v6.9h-1.8V102.9z"/>
			<path class="st4" d="M454.4,111.5c0.7,0,1.1-0.2,1.4-1l0.6-1.3l-4-9.9h1.9l3.1,7.7l3.1-7.7h2l-4.8,11.6c-0.6,1.5-1.7,2.1-3.1,2.1
				c-0.3,0-0.8-0.1-1.1-0.1l0.3-1.6C453.8,111.4,454.1,111.5,454.4,111.5z"/>
		</g>
	</g>
	<g>
		<path class="st5" d="M466.9,24h-0.9v-6.5h-2.1v-0.9h5.1v0.9h-2.1V24z M476.3,18l-2.5,6.1h-0.3l-2.5-6.1V24h-0.9v-7.3h1.4l2.1,5.3
			l2.1-5.3h1.4V24h-0.9V18z"/>
	</g>
</g>
</svg>
