<?xml version="1.0" encoding="utf-8"?>
<!-- Generator: Adobe Illustrator 25.2.1, SVG Export Plug-In . SVG Version: 6.00 Build 0)  -->
<!DOCTYPE svg PUBLIC "-//W3C//DTD SVG 1.1//EN" "http://www.w3.org/Graphics/SVG/1.1/DTD/svg11.dtd" [
	<!ENTITY ns_extend "http://ns.adobe.com/Extensibility/1.0/">
	<!ENTITY ns_ai "http://ns.adobe.com/AdobeIllustrator/10.0/">
	<!ENTITY ns_graphs "http://ns.adobe.com/Graphs/1.0/">
	<!ENTITY ns_vars "http://ns.adobe.com/Variables/1.0/">
	<!ENTITY ns_imrep "http://ns.adobe.com/ImageReplacement/1.0/">
	<!ENTITY ns_sfw "http://ns.adobe.com/SaveForWeb/1.0/">
	<!ENTITY ns_custom "http://ns.adobe.com/GenericCustomNamespace/1.0/">
	<!ENTITY ns_adobe_xpath "http://ns.adobe.com/XPath/1.0/">
]>
<svg version="1.1" id="Capa_1" xmlns:x="&ns_extend;" xmlns:i="&ns_ai;" xmlns:graph="&ns_graphs;"
	 xmlns="http://www.w3.org/2000/svg" xmlns:xlink="http://www.w3.org/1999/xlink" x="0px" y="0px" viewBox="0 0 3710 3710"
	 style="enable-background:new 0 0 3710 3710;" xml:space="preserve">
<style type="text/css">
	.st0{fill:#FFFFFF;}
	.st1{fill:url(#SVGID_1_);}
	.st2{fill:#BDD0FB;}
	.st3{fill:#91B3FA;}
	.st4{fill:#7D97F4;}
	.st5{fill:url(#SVGID_2_);}
	.st6{fill:url(#SVGID_3_);}
	.st7{clip-path:url(#SVGID_5_);}
	.st8{fill:url(#SVGID_6_);}
	.st9{fill:url(#SVGID_7_);}
	.st10{fill:url(#SVGID_8_);}
	.st11{fill:url(#SVGID_9_);}
	.st12{fill:url(#SVGID_10_);}
	.st13{fill:url(#SVGID_11_);}
	.st14{fill:url(#SVGID_12_);}
	.st15{fill:url(#SVGID_13_);}
	.st16{fill:url(#SVGID_14_);}
	.st17{clip-path:url(#SVGID_16_);}
	.st18{fill:url(#SVGID_17_);}
	.st19{fill:url(#SVGID_18_);}
	.st20{fill:url(#SVGID_19_);}
	.st21{fill:url(#SVGID_20_);}
	.st22{fill:url(#SVGID_21_);}
	.st23{fill:url(#SVGID_22_);}
	.st24{fill:url(#SVGID_23_);}
	.st25{fill:url(#SVGID_24_);}
	.st26{fill:url(#SVGID_25_);}
	.st27{fill:url(#SVGID_26_);}
	.st28{fill:url(#SVGID_27_);}
	.st29{clip-path:url(#SVGID_29_);}
	.st30{fill:url(#SVGID_30_);}
	.st31{fill:url(#SVGID_31_);}
	.st32{fill:url(#SVGID_32_);}
	.st33{fill:url(#SVGID_33_);}
	.st34{fill:url(#SVGID_34_);}
	.st35{fill:url(#SVGID_35_);}
	.st36{fill:url(#SVGID_36_);}
	.st37{fill:url(#SVGID_37_);}
	.st38{fill:url(#SVGID_38_);}
	.st39{fill:url(#SVGID_39_);}
</style>
<metadata>
	<sfw  xmlns="&ns_sfw;">
		<slices></slices>
		<sliceSourceBounds  bottomLeftOrigin="true" height="3710" width="3710" x="0" y="0"></sliceSourceBounds>
	</sfw>
</metadata>
<g id="Background">
	<g>
		<g>
			<rect class="st0" width="3710" height="3710"/>
		</g>
	</g>
</g>
<g id="Illustration">
	<g>
		
			<linearGradient id="SVGID_1_" gradientUnits="userSpaceOnUse" x1="2175.9763" y1="2333.1201" x2="1497.0608" y2="1116.4502" gradientTransform="matrix(1 0 0 -1 0 3710)">
			<stop  offset="0" style="stop-color:#DAE3FE"/>
			<stop  offset="1" style="stop-color:#E9EFFD"/>
		</linearGradient>
		<path class="st1" d="M2915.7,2843.4c-72.6,74.8-137.5,118.8-187.2,151.9c-484.8,323.7-1039,230.4-1210.3,198.5
			c-276.4-51.4-509.8-87.8-710.3-268.9c-455.6-411.6-433.4-1270.2-85.3-1802.1c41.3-63.1,388.9-578.3,944.3-650.9
			c13.6-1.8,23.7-2.8,32.6-3.7c85.9-9.1,618.3-57.1,1052.5,306.6c62.1,52.1,162.1,146,254.9,289.2
			C3345.9,1587.8,3346.9,2398.9,2915.7,2843.4z"/>
		<g>
			
				<rect x="2740.6" y="1803.8" transform="matrix(0.4018 -0.9157 0.9157 0.4018 42.0915 3698.8972)" class="st2" width="223.2" height="26.9"/>
			<g>
				<path class="st3" d="M2688.9,1520.2l5.6,32.7c1.9,11,10.5,19.5,21.5,21.3l26,4.3c7,1.2,13,5.7,16.1,12.2
					c7.8,16.2,17.3,31.2,28.3,44.9c4.5,5.6,6,12.9,4,19.8l-7.4,25.3c-3.1,10.7,0.9,22.2,9.9,28.6l27.1,19.2
					c9.1,6.4,21.2,6.4,30.3-0.1l21.4-15.4c5.8-4.2,13.3-5.1,20-2.8c16.6,5.8,33.9,9.8,51.8,11.8c7.1,0.8,13.4,4.9,16.8,11.1
					l12.7,23.1c5.3,9.8,16.3,15.1,27.2,13.2l32.7-5.6c11-1.9,19.5-10.5,21.3-21.5l4.3-26c1.2-7,5.7-13,12.2-16.1
					c16.2-7.8,31.2-17.3,44.9-28.3c5.6-4.5,12.9-6,19.8-4l25.3,7.4c10.7,3.1,22.2-0.9,28.6-9.9l19.2-27.1c6.4-9.1,6.4-21.2-0.1-30.3
					l-15.4-21.4c-4.2-5.8-5.1-13.3-2.8-20c5.8-16.6,9.8-33.9,11.8-51.8c0.8-7.1,4.9-13.4,11.1-16.8l23.1-12.7
					c9.8-5.3,15.1-16.3,13.2-27.2l-5.6-32.7c-1.9-11-10.5-19.5-21.5-21.3l-26-4.3c-7-1.2-13-5.7-16.1-12.2
					c-7.8-16.2-17.3-31.2-28.3-44.9c-4.5-5.6-6-12.9-4-19.8l7.4-25.3c3.1-10.7-0.9-22.2-9.9-28.6l-27.1-19.2
					c-9.1-6.4-21.2-6.4-30.3,0.1l-21.4,15.4c-5.8,4.2-13.3,5.1-20,2.8c-16.6-5.8-33.9-9.8-51.8-11.8c-7.1-0.8-13.4-4.9-16.8-11.1
					l-12.7-23.1c-5.3-9.8-16.3-15.1-27.2-13.2l-32.7,5.6c-11,1.9-19.5,10.5-21.3,21.5l-4.3,26c-1.2,7-5.7,13-12.2,16.1
					c-16.2,7.8-31.2,17.3-44.9,28.3c-5.6,4.5-12.9,6-19.8,4l-25.3-7.4c-10.7-3.1-22.2,0.9-28.6,9.9l-19.2,27.1
					c-6.4,9.1-6.4,21.2,0.1,30.3l15.4,21.4c4.2,5.8,5.1,13.3,2.8,20c-5.8,16.6-9.8,33.9-11.8,51.8c-0.8,7.1-4.9,13.4-11.1,16.8
					l-23.1,12.7C2692.3,1498.3,2687,1509.3,2688.9,1520.2z M2776.4,1502.4c-7.3-106.5,73.2-198.7,179.7-205.9
					c106.5-7.3,198.7,73.2,205.9,179.7c7.3,106.5-73.2,198.7-179.7,205.9C2875.9,1689.3,2783.7,1608.9,2776.4,1502.4z"/>
			</g>
			
				<rect x="2827" y="901.6" transform="matrix(0.9763 -0.2165 0.2165 0.9763 -167.3189 640.6487)" class="st2" width="26.9" height="364.9"/>
			
				<rect x="2377.4" y="792.4" transform="matrix(0.9939 -0.1104 0.1104 0.9939 -73.6254 281.9039)" class="st2" width="263" height="26.9"/>
			<g>
				<path class="st3" d="M2600.3,748.3l4.1,24.2c1.4,8.1,7.8,14.4,15.9,15.8l19.2,3.2c5.2,0.9,9.6,4.2,11.9,9
					c5.7,12,12.8,23.1,20.9,33.2c3.3,4.1,4.4,9.5,3,14.6l-5.5,18.7c-2.3,7.9,0.6,16.4,7.4,21.1l20,14.2c6.7,4.8,15.7,4.7,22.4-0.1
					l15.9-11.4c4.3-3.1,9.8-3.8,14.8-2c12.3,4.3,25.1,7.3,38.3,8.7c5.2,0.6,9.9,3.6,12.4,8.2l9.4,17.1c3.9,7.2,12,11.1,20.1,9.7
					l24.2-4.1c8.1-1.4,14.4-7.8,15.8-15.9l3.2-19.2c0.9-5.2,4.2-9.6,9-11.9c11.9-5.7,23.1-12.8,33.2-20.9c4.1-3.3,9.6-4.5,14.6-3
					l18.7,5.5c7.9,2.3,16.4-0.7,21.1-7.4l14.2-20c4.8-6.7,4.7-15.7-0.1-22.4l-11.4-15.8c-3.1-4.3-3.8-9.8-2-14.8
					c4.3-12.3,7.3-25.1,8.7-38.3c0.6-5.2,3.6-9.9,8.2-12.4l17.1-9.4c7.2-4,11.1-12,9.7-20.1l-4.1-24.2c-1.4-8.1-7.8-14.4-15.9-15.8
					l-19.2-3.2c-5.2-0.9-9.6-4.2-11.9-9c-5.7-12-12.8-23.1-20.9-33.2c-3.3-4.1-4.4-9.5-3-14.6l5.5-18.7c2.3-7.9-0.6-16.4-7.4-21.1
					l-20-14.2c-6.7-4.8-15.7-4.7-22.4,0.1l-15.9,11.4c-4.3,3.1-9.8,3.8-14.8,2c-12.3-4.3-25.1-7.3-38.3-8.7
					c-5.2-0.6-9.9-3.6-12.4-8.2l-9.4-17.1c-3.9-7.2-12-11.1-20.1-9.7l-24.2,4.1c-8.1,1.4-14.4,7.8-15.8,15.9l-3.2,19.2
					c-0.9,5.2-4.2,9.6-9,11.9c-11.9,5.7-23.1,12.8-33.2,20.9c-4.1,3.3-9.6,4.5-14.6,3l-18.7-5.5c-7.9-2.3-16.4,0.7-21.1,7.4
					l-14.2,20c-4.8,6.7-4.7,15.7,0.1,22.4l11.4,15.8c3.1,4.3,3.8,9.8,2,14.8c-4.3,12.3-7.3,25.1-8.7,38.3c-0.6,5.2-3.6,9.9-8.2,12.4
					l-17.1,9.4C2602.8,732.1,2598.9,740.2,2600.3,748.3z M2665,735.1c-5.4-78.7,54.1-146.9,132.8-152.2
					c78.7-5.4,146.9,54.1,152.2,132.8c5.4,78.7-54.1,146.9-132.8,152.2C2738.5,873.3,2670.3,813.8,2665,735.1z"/>
			</g>
		</g>
		<g>
			
				<rect x="1325" y="746.3" transform="matrix(0.2879 -0.9577 0.9577 0.2879 75.6553 1934.3184)" class="st2" width="26.9" height="340.1"/>
			<g>
				<g>
					<path class="st2" d="M575,682.5l-11.4,39c-3.8,13.1,1.1,27.1,12.2,35l26.3,18.6c7.1,5,11.2,13.3,11.2,22
						c-0.1,22,2.3,43.6,7.1,64.6c1.9,8.5-0.3,17.5-6.2,23.9l-21.7,23.9c-9.2,10.1-10.9,24.8-4.3,36.8l19.5,35.6
						c6.5,11.9,20,18.4,33.4,16.1l31.8-5.5c8.6-1.5,17.3,1.4,23.5,7.7c15.1,15.3,32.1,29,50.7,40.7c7.4,4.7,12.1,12.5,12.5,21.2
						l1.6,32.2c0.7,13.6,9.9,25.3,22.9,29.1l39,11.4c13.1,3.8,27.1-1.1,35-12.2l18.6-26.3c5-7.1,13.3-11.2,22-11.2
						c22,0.1,43.6-2.3,64.6-7.1c8.5-1.9,17.5,0.3,23.9,6.2l23.9,21.7c10.1,9.2,24.8,10.9,36.8,4.3l35.6-19.5
						c11.9-6.6,18.4-19.9,16.1-33.4l-5.4-31.8c-1.5-8.6,1.4-17.3,7.7-23.5c15.3-15.1,29-32.1,40.7-50.7c4.7-7.4,12.5-12.1,21.2-12.5
						l32.2-1.6c13.6-0.7,25.3-9.9,29.1-22.9l11.4-39c3.8-13.1-1.1-27.1-12.2-35l-26.3-18.6c-7.1-5-11.2-13.3-11.2-22
						c0.1-22-2.3-43.6-7.1-64.6c-1.9-8.5,0.3-17.5,6.2-23.9l21.7-23.9c9.2-10.1,10.9-24.8,4.3-36.8l-19.5-35.6
						c-6.6-11.9-19.9-18.4-33.4-16.1l-31.8,5.5c-8.6,1.5-17.3-1.4-23.5-7.7c-15.1-15.3-32.1-29-50.7-40.7
						c-7.4-4.7-12.1-12.5-12.5-21.2l-1.6-32.2c-0.7-13.6-9.9-25.3-22.9-29.1L977,462c-13.1-3.8-27.1,1.1-35,12.2l-18.6,26.3
						c-5,7.1-13.3,11.2-22,11.2c-22-0.1-43.6,2.3-64.6,7.1c-8.5,1.9-17.5-0.3-23.9-6.2L789,490.9c-10.1-9.1-24.8-10.9-36.8-4.4
						l-35.6,19.5c-11.9,6.6-18.4,19.9-16.1,33.4l5.5,31.8c1.5,8.6-1.4,17.3-7.7,23.5c-15.3,15.1-29,32.1-40.7,50.7
						c-4.7,7.4-12.5,12.1-21.2,12.5l-32.2,1.6C590.5,660.2,578.8,669.4,575,682.5z M680.9,709.7c49-121.1,186.9-179.5,307.9-130.5
						c121.1,49,179.5,186.9,130.5,307.9c-49,121.1-186.9,179.5-307.9,130.5C690.3,968.6,631.9,830.8,680.9,709.7z"/>
				</g>
			</g>
		</g>
		<g>
			<path class="st3" d="M895.8,882.5c-3.9-15.2,14.2-26.3,26.2-16.2c121.3,103,416.1,415,375.3,988.1
				c-51.3,719,110.6,972.3,303.9,1122.1c0,0-258.2-62.1-431.6-318.6C744,2027.9,964.8,1152.6,895.8,882.5z"/>
			<path class="st0" d="M995.2,1101.3c18.5,78.8,35.4,158,49.4,237.6c14.4,79.6,26.4,159.5,35.9,239.8
				c9.2,80.3,16.8,160.7,21.1,241.3c4.6,80.6,5.8,161.3,6.6,242.3c1.3,81,2.2,162.6,11.4,244.3c9.1,81.6,28.1,163.4,61.5,239.3
				c8.3,18.9,17.1,37.8,26.8,55.9c9.4,18.3,19.6,36.2,30.2,54c21.3,35.4,44.9,69.4,71,101.4c52.3,64.1,114.3,120.1,181.9,166.8
				c7.1,4.9,16.9,3.1,21.8-4c4.8-7,3.2-16.5-3.6-21.5l-0.1,0c-16.1-11.8-32.1-23.8-47.4-36.5c-7.8-6.2-15.3-12.8-22.9-19.1
				c-7.4-6.7-15-13.1-22.1-20c-29.1-27.1-56.2-56.2-81-87.2c-49.9-61.6-90.9-131-122.9-203.5c-15.6-36.4-28.5-73.9-38.5-112.3
				c-9.9-38.4-16.9-77.6-21.7-117.2c-9.6-79.3-11.1-160.1-13-241c-2-81-4.6-162.4-10.5-243.5c-2.8-40.6-6.4-81.1-10.7-121.5
				c-2-20.2-4.5-40.4-6.8-60.6c-2.6-20.2-5.3-40.3-8.1-60.4c-11.6-80.5-25.6-160.5-42.1-240c-16.9-79.4-35.9-158.4-58-236.5
				c-0.6-2.2-3-3.5-5.2-2.9C996,1096.9,994.7,1099.1,995.2,1101.3z"/>
		</g>
		<g>
			<g>
				<path class="st4" d="M1152.3,2977.4c-6.6,28.1-39.8,40.3-63.3,23.5c-129.6-92.8-472.3-388.1-506-937.3
					c-28.5-463.8-88-712.5-122.8-823.6c-7.4-23.5,19.5-42.7,39.4-28.2C718.8,1372,1392.4,1958.6,1152.3,2977.4z"/>
				<path class="st0" d="M1113.4,2982.1c-0.6,0.5-1.1,0.9-1.8,1.2c-5.4,3-12.3,1.1-15.3-4.4c-3.4-6.2-344.8-623.9-413.5-1267
					c-0.7-6.2,3.8-11.8,10-12.4c6.2-0.7,11.8,3.8,12.4,10C773.4,2348,1112.6,2961.9,1116,2968
					C1118.7,2972.8,1117.5,2978.7,1113.4,2982.1z"/>
			</g>
		</g>
		
			<linearGradient id="SVGID_2_" gradientUnits="userSpaceOnUse" x1="1103.49" y1="1934.645" x2="2607.0798" y2="1934.645" gradientTransform="matrix(1 0 0 -1 0 3710)">
			<stop  offset="0" style="stop-color:#FF928E"/>
			<stop  offset="1" style="stop-color:#FE7062"/>
		</linearGradient>
		<path class="st5" d="M1103.5,2632.8l950.8-1714.8l552.7,1509.8L1103.5,2632.8z M2045.6,1030.8l-855.4,1542.6L2542.8,2389
			L2045.6,1030.8z"/>
		<g>
			<circle class="st0" cx="2624.6" cy="2387.1" r="502"/>
			<g>
				<g>
					
						<linearGradient id="SVGID_3_" gradientUnits="userSpaceOnUse" x1="2994.7124" y1="1869.374" x2="2093.9729" y2="592.2057" gradientTransform="matrix(1 0 0 -1 0 3710)">
						<stop  offset="0" style="stop-color:#E1473D"/>
						<stop  offset="1" style="stop-color:#E9605A"/>
					</linearGradient>
					<path class="st6" d="M1970.2,2312.7l-4.7,75.4c-1.6,25.2,13,48.7,36.4,58.5l55.4,23.1c15,6.2,25.8,19.5,29.2,35.3
						c8.7,39.9,22,78.1,39.2,114.2c7,14.7,6.6,31.8-1.4,45.9l-29.6,52.2c-12.5,22-9.6,49.5,7.1,68.5l49.9,56.6
						c16.7,19,43.7,25.2,67.1,15.6l55.5-22.9c15-6.2,32-4.4,45.7,4.3c33.7,21.6,70,39.5,108.4,53.2c15.3,5.4,27.1,17.8,31.4,33.4
						l15.9,57.8c6.7,24.4,28.2,41.8,53.4,43.4l75.4,4.7c25.2,1.6,48.7-13,58.5-36.4l23.1-55.4c6.2-15,19.5-25.8,35.3-29.2
						c39.9-8.7,78.1-22,114.2-39.2c14.7-7,31.8-6.6,45.9,1.4l52.2,29.6c22,12.5,49.5,9.6,68.5-7.1l56.6-49.9
						c19-16.7,25.2-43.7,15.6-67.1l-22.9-55.5c-6.2-15-4.4-32,4.3-45.7c21.6-33.7,39.5-70,53.2-108.4c5.4-15.3,17.8-27.1,33.4-31.4
						l57.8-16c24.4-6.7,41.8-28.2,43.4-53.4l4.7-75.4c1.6-25.2-13-48.7-36.4-58.4l-55.4-23.1c-15-6.2-25.8-19.5-29.2-35.3
						c-8.7-39.9-22-78.1-39.2-114.2c-7-14.7-6.6-31.8,1.4-45.9l29.6-52.2c12.5-22,9.6-49.5-7.1-68.5l-49.9-56.7
						c-16.7-19-43.7-25.2-67.1-15.6l-55.5,22.8c-15,6.2-32,4.4-45.7-4.3c-33.7-21.6-70-39.5-108.4-53.2
						c-15.3-5.4-27.1-17.8-31.4-33.4l-15.9-57.8c-6.7-24.4-28.2-41.8-53.4-43.4l-75.4-4.7c-25.2-1.6-48.7,13-58.4,36.4l-23.1,55.3
						c-6.2,15-19.5,25.8-35.3,29.2c-39.9,8.7-78.1,22-114.2,39.2c-14.7,7-31.8,6.6-45.9-1.4l-52.2-29.6c-22-12.5-49.5-9.6-68.5,7.1
						l-56.6,49.9c-19,16.7-25.2,43.7-15.6,67.1l22.9,55.5c6.2,15,4.4,32-4.3,45.7c-21.6,33.7-39.5,70-53.2,108.4
						c-5.4,15.3-17.8,27.1-33.4,31.4l-57.8,15.9C1989.2,2266,1971.8,2287.5,1970.2,2312.7z M2173.2,2318.9
						c39.6-239.5,265.8-401.6,505.3-362c239.5,39.6,401.6,265.8,362,505.3s-265.8,401.6-505.3,362
						C2295.7,2784.6,2133.7,2558.4,2173.2,2318.9z"/>
				</g>
			</g>
			<g>
				<g>
					<defs>
						<path id="SVGID_4_" d="M2703.4,2819.5c-184.4,39.1-380.4-40.7-490-179c-44.6-56.3-227.2-252.7-243.2-327.7
							c-55-259.4,307.5-439,566.9-494c259.4-55,549.4,122.6,604.4,382c24.6,115.8-80.4,351.4-132.4,448
							C2944.5,2768.6,2847,2789,2703.4,2819.5z"/>
					</defs>
					<clipPath id="SVGID_5_">
						<use xlink:href="#SVGID_4_"  style="overflow:visible;"/>
					</clipPath>
					<g class="st7">
						
							<linearGradient id="SVGID_6_" gradientUnits="userSpaceOnUse" x1="-1080.6064" y1="1705.9482" x2="-1543.2686" y2="1137.1703" gradientTransform="matrix(-1 0 0 -1 947.3044 3710)">
							<stop  offset="0" style="stop-color:#FEBBBA"/>
							<stop  offset="1" style="stop-color:#FF928E"/>
						</linearGradient>
						<path class="st8" d="M2091.7,2158.4c2.3-6.1,10.8-6.2,13.3-0.3c9.3,22.2,29.8,60.4,64,70.6c1.7,0.5,3.4,1,4.9,1.6
							c0.9-4.6,0.3-9.7-3.9-14.7c-12-14.1,3.5-37.5,3.5-37.5s3.5,18.4,19.1,28.3c13.4,8.5,22.1,30.2,16.1,49.6
							c-9,70.4-23.9,163.9,86.8,217s231.1-155.4,231.1-155.4l-43.1,236c0,0-100.3,95.4-243.2-3.1c-143-98.5-78.7-276.1-78.7-276.1
							S2058.6,2247.1,2091.7,2158.4z"/>
						
							<linearGradient id="SVGID_7_" gradientUnits="userSpaceOnUse" x1="3336.9688" y1="2281.7729" x2="3033.5615" y2="1921.2533" gradientTransform="matrix(0.9875 0.1574 0.1574 -0.9875 -564.642 3540.8557)">
							<stop  offset="0" style="stop-color:#09005D"/>
							<stop  offset="1" style="stop-color:#1A0F91"/>
						</linearGradient>
						<path class="st9" d="M2502.7,1981.8c0,0-46.4-129.4,110.5-113.3c0,0,72.5-21.4,85,48c0,0,51.7,25.4,24.3,90.3
							c0,0,134.9-72.6,212.3,43.9c77.4,116.5,29.2,192-28.1,217.3c0,0,51.3,18.1,35.3,75.7c-16,57.6-126.7,110.6-203.4,52.7
							c0,0-191.1,50.1-204.5-87.6c0,0-97.7-47-17.1-172.4C2597.9,2011,2502.7,1981.8,2502.7,1981.8z"/>
						
							<linearGradient id="SVGID_8_" gradientUnits="userSpaceOnUse" x1="2737.8826" y1="1350.9189" x2="2480.7812" y2="745.9753" gradientTransform="matrix(1 0 0 -1 0 3710)">
							<stop  offset="0" style="stop-color:#4F52FF"/>
							<stop  offset="1" style="stop-color:#4042E2"/>
						</linearGradient>
						<path class="st10" d="M2533.1,2291.4c29.5-13,116.6-41.2,211.3,26.4c16.1,11.5,24.5,30.9,21.7,50.5
							c-12.2,86.8-41.2,342.2,25,442.9c0,0-80,114.1-191.8,44.3c0,0-70.4-192.5-140.9-272.1c-48.7-54.9,37.2-233.9,59.2-277.2
							C2520.9,2299.6,2526.4,2294.4,2533.1,2291.4z"/>
						
							<linearGradient id="SVGID_9_" gradientUnits="userSpaceOnUse" x1="2897.613" y1="1646.1514" x2="2922.3325" y2="1821.6589" gradientTransform="matrix(0.9875 0.1574 0.1574 -0.9875 -564.642 3540.8557)">
							<stop  offset="0" style="stop-color:#FEBBBA"/>
							<stop  offset="1" style="stop-color:#FF928E"/>
						</linearGradient>
						<path class="st11" d="M2596.7,2114c0,0,61.4,122.5,71.9,178.6c0,0-47.2,29.1-99.2-3.4c0,0-21.1-127.4-31.1-149.4L2596.7,2114z
							"/>
						
							<linearGradient id="SVGID_10_" gradientUnits="userSpaceOnUse" x1="2784.3022" y1="2022.2183" x2="3015.4299" y2="1756.4833" gradientTransform="matrix(0.9875 0.1574 0.1574 -0.9875 -564.642 3540.8557)">
							<stop  offset="0" style="stop-color:#FEBBBA"/>
							<stop  offset="1" style="stop-color:#FF928E"/>
						</linearGradient>
						<path class="st12" d="M2511.8,1947.2c0,0-97.7,180.8-20.8,220s146.5-89.2,146.5-89.2s16.1-94.2-16.5-121.4
							C2588.3,1929.4,2511.8,1947.2,2511.8,1947.2z"/>
						
							<linearGradient id="SVGID_11_" gradientUnits="userSpaceOnUse" x1="3191.6533" y1="2404.0679" x2="2888.2446" y2="2043.5463" gradientTransform="matrix(0.9875 0.1574 0.1574 -0.9875 -564.642 3540.8557)">
							<stop  offset="0" style="stop-color:#09005D"/>
							<stop  offset="1" style="stop-color:#1A0F91"/>
						</linearGradient>
						<path class="st13" d="M2561.7,1900.7c0,0-52.8,19.8-57.4,45.3c-4.5,25.6,83.2,37.8,107.1,35.9l31.6,97
							c0,0,44.9-100.6,15.6-151.8C2629.5,1875.9,2561.7,1900.7,2561.7,1900.7z"/>
						
							<linearGradient id="SVGID_12_" gradientUnits="userSpaceOnUse" x1="2842.042" y1="2072.4395" x2="3073.1687" y2="1806.7056" gradientTransform="matrix(0.9875 0.1574 0.1574 -0.9875 -564.642 3540.8557)">
							<stop  offset="0" style="stop-color:#FEBBBA"/>
							<stop  offset="1" style="stop-color:#FF928E"/>
						</linearGradient>
						<path class="st14" d="M2613,2068.7c0,0,39.4-59.2,62.1-26.7c22.7,32.5-33.9,66.2-56.7,51.7L2613,2068.7z"/>
						
							<linearGradient id="SVGID_13_" gradientUnits="userSpaceOnUse" x1="-2024.7435" y1="884.2149" x2="-1110.0342" y2="1930.5077" gradientTransform="matrix(-1 0 0 -1 947.3044 3710)">
							<stop  offset="0" style="stop-color:#FEBBBA"/>
							<stop  offset="1" style="stop-color:#FF928E"/>
						</linearGradient>
						<path class="st15" d="M2758.6,2333c0,0,159.9,102.1,216.5,262c56.6,159.9-188.7,208.5-188.7,208.5s-38.3-33.3-76.5-14.9
							c-38.2,18.4-11.3-65.1,35.4-70.7c46.7-5.7,29.7,34,92-4.2c60.6-37.2,89.1-132.3-92.2-248.2c-10.5-6.7-19.4-15.9-25.4-26.8
							C2677.7,2362.4,2696.4,2306.6,2758.6,2333z"/>
					</g>
				</g>
			</g>
		</g>
		<g>
			<circle class="st0" cx="1288.6" cy="2561.1" r="537.5"/>
			<g>
				
					<linearGradient id="SVGID_14_" gradientUnits="userSpaceOnUse" x1="1545.1621" y1="2263.3555" x2="4792.8926" y2="-613.9776" gradientTransform="matrix(-0.9684 -0.2493 0.2493 -0.9684 4066.2903 4202.2798)">
					<stop  offset="0" style="stop-color:#FF928E"/>
					<stop  offset="1" style="stop-color:#FE7062"/>
				</linearGradient>
				<path class="st16" d="M630.4,2489.4l-4.9,77.9c-1.6,26.1,13.5,50.4,37.6,60.4l57.2,23.8c15.5,6.4,26.6,20.1,30.2,36.5
					c9,41.2,22.7,80.8,40.5,118.1c7.2,15.2,6.8,32.8-1.5,47.4l-30.6,54c-12.9,22.8-10,51.2,7.3,70.8l51.6,58.6
					c17.3,19.6,45.1,26.1,69.3,16.1l57.4-23.6c15.5-6.4,33.1-4.6,47.2,4.5c34.8,22.3,72.4,40.8,112.1,55c15.8,5.6,28,18.4,32.4,34.6
					l16.5,59.8c7,25.2,29.2,43.2,55.2,44.9l77.9,4.9c26.1,1.6,50.4-13.5,60.4-37.6l23.8-57.2c6.4-15.5,20.1-26.6,36.5-30.2
					c41.2-9,80.8-22.7,118.1-40.5c15.2-7.2,32.8-6.8,47.4,1.5l54,30.6c22.8,12.9,51.2,10,70.8-7.3l58.6-51.6
					c19.6-17.3,26.1-45.1,16.1-69.3l-23.6-57.4c-6.4-15.5-4.6-33.1,4.5-47.2c22.3-34.8,40.8-72.4,55-112.1
					c5.6-15.8,18.4-28,34.6-32.4l59.8-16.5c25.2-7,43.2-29.1,44.9-55.2l4.9-77.9c1.6-26.1-13.5-50.4-37.6-60.4l-57.2-23.8
					c-15.5-6.4-26.6-20.1-30.2-36.5c-9-41.2-22.7-80.8-40.5-118.1c-7.2-15.2-6.8-32.8,1.5-47.4l30.6-54c12.9-22.8,10-51.2-7.3-70.8
					l-51.6-58.6c-17.3-19.6-45.1-26.1-69.3-16.1l-57.4,23.6c-15.5,6.4-33.1,4.6-47.2-4.5c-34.8-22.3-72.4-40.8-112.1-55
					c-15.8-5.6-28-18.4-32.4-34.6l-16.5-59.8c-7-25.2-29.2-43.2-55.2-44.9l-77.9-4.9c-26.1-1.6-50.4,13.5-60.4,37.6l-23.8,57.2
					c-6.4,15.5-20.1,26.6-36.5,30.2c-41.2,9-80.8,22.7-118.1,40.5c-15.2,7.2-32.8,6.8-47.4-1.5l-54-30.6
					c-22.8-12.9-51.2-10-70.8,7.3l-58.6,51.6c-19.6,17.3-26.1,45.1-16.1,69.3l23.6,57.4c6.4,15.5,4.6,33.1-4.5,47.2
					c-22.3,34.8-40.8,72.4-55,112.1c-5.6,15.8-18.4,28-34.6,32.4l-59.8,16.5C650,2441.1,632,2463.3,630.4,2489.4z M840.3,2495.8
					c40.9-247.6,274.8-415.1,522.3-374.2s415.2,274.8,374.2,522.4s-274.8,415.1-522.3,374.2C966.9,2977.2,799.4,2743.4,840.3,2495.8
					z"/>
			</g>
			<g>
				<g>
					<defs>
						<path id="SVGID_15_" d="M1388.3,3013.2c-190.7,40.4-393.2-42.1-506.6-185.1c-46.1-58.2-188.9-250.7-205.3-328.2
							c-56.9-268.2,271.7-464.2,539.9-521.1c268.2-56.9,568,126.6,624.9,394.8c25.4,119.7-19.4,367.6-73.2,467.4
							C1701.3,2965,1536.8,2981.7,1388.3,3013.2z"/>
					</defs>
					<clipPath id="SVGID_16_">
						<use xlink:href="#SVGID_15_"  style="overflow:visible;"/>
					</clipPath>
					<g class="st17">
						
							<linearGradient id="SVGID_17_" gradientUnits="userSpaceOnUse" x1="-1233.1829" y1="831.5106" x2="-981.199" y2="831.5106" gradientTransform="matrix(-1 0 0 -1 450.6571 3710)">
							<stop  offset="0" style="stop-color:#A22B25"/>
							<stop  offset="1" style="stop-color:#C0423C"/>
						</linearGradient>
						<path class="st18" d="M1571.6,2807.9c26.4,21.3,58.2,29.4,95.4,10.2l16.9,38.2c0,0-16.9,84.6-101.8,92.2
							c-8.4,0.8-16.8,0.3-25-0.9C1517.7,2886.4,1546.9,2835.6,1571.6,2807.9z"/>
						
							<linearGradient id="SVGID_18_" gradientUnits="userSpaceOnUse" x1="1750.493" y1="1419.6019" x2="1646.3031" y2="1201.1393" gradientTransform="matrix(1 0 0 -1 0 3710)">
							<stop  offset="0" style="stop-color:#4F52FF"/>
							<stop  offset="1" style="stop-color:#4042E2"/>
						</linearGradient>
						<path class="st19" d="M1431.9,2863.2l40.5-241.4c1.6,2.5,34.4,133.9,99.2,186.2c-24.7,27.6-53.9,78.4-14.5,139.8
							C1488.4,2937.1,1431.9,2863.2,1431.9,2863.2z"/>
						
							<linearGradient id="SVGID_19_" gradientUnits="userSpaceOnUse" x1="1182.3029" y1="762.274" x2="1807.5035" y2="2022.7603" gradientTransform="matrix(1 0 0 -1 0 3710)">
							<stop  offset="0" style="stop-color:#4F52FF"/>
							<stop  offset="1" style="stop-color:#4042E2"/>
						</linearGradient>
						<path class="st20" d="M1118.2,2499.7c0,0,149.3-49.8,341.9-22.2c20.1,2.9,72.2,111.4,64.4,186.8
							c-13.1,127.7-82.8,341.9-85.3,342.6c-80.3,21.3-345,3.3-345,3.3L1118.2,2499.7z"/>
						
							<linearGradient id="SVGID_20_" gradientUnits="userSpaceOnUse" x1="3433.7107" y1="1348.7971" x2="3429.9275" y2="1606.0667" gradientTransform="matrix(1 0 0 -1 -2090.2158 3710)">
							<stop  offset="0" style="stop-color:#A22B25"/>
							<stop  offset="1" style="stop-color:#C0423C"/>
						</linearGradient>
						<path class="st21" d="M1265.3,2343l8.3,129.3c0.8,12,8.6,22.2,19.5,25.5c25.2,7.4,72.6,16.4,119.2-2.3
							c8.5-3.4,12.9-13.5,10-22.7l-61.6-197.8L1265.3,2343z"/>
						<g>
							
								<linearGradient id="SVGID_21_" gradientUnits="userSpaceOnUse" x1="-185.0474" y1="23477.0332" x2="-10.2782" y2="23221.5996" gradientTransform="matrix(0.9322 -0.362 -0.362 -0.9322 -12911.4434 8379.5947)">
								<stop  offset="0" style="stop-color:#A22B25"/>
								<stop  offset="1" style="stop-color:#C0423C"/>
							</linearGradient>
							<path class="st22" d="M1351.2,2144.2c0,0,69.4,70,89,113.2s40.3,68.2-7.4,97c-47.7,28.8-100.6,20-141-15
								c0,0-62.9-53.7-65.5-84.6C1223.7,2223.9,1351.2,2144.2,1351.2,2144.2z"/>
							
								<linearGradient id="SVGID_22_" gradientUnits="userSpaceOnUse" x1="15402.4727" y1="705.7848" x2="15606.0693" y2="443.6551" gradientTransform="matrix(0.9322 -0.362 -0.362 -0.9322 -12911.4434 8379.5947)">
								<stop  offset="0" style="stop-color:#09005D"/>
								<stop  offset="1" style="stop-color:#1A0F91"/>
							</linearGradient>
							<path class="st23" d="M1297,2301l6.5-2.5c0,0-47.8-44.3-28.2-62.9c19.7-18.7,105-73.6,112.2-114.2
								c7-39.2-26.1-73.4-56.3-74.9c-1.9-0.1-3.5,1.4-3.8,3.3l-0.6,4.9c-0.4,3.3-4.6,4.5-6.7,1.8c-1.9-2.5-6-1.7-6.6,1.5
								c-2.3,12.2-12.7,34.6-53.9,60.1c-58.6,36.1-90.3,77.9-74.4,121.8c1,2.8-1.3,5.4-4.3,4.9c-5.8-1-13.7,0.5-20.4,12.8
								c-11.7,21.3,10.1,56.3,60.1,72.6c2.4,0.8,3.5,3.6,2,5.6c-5.1,7.1-11.3,21.8,20.8,25.7c32.8,4,48.3-3.9,53.8-7.8
								c1.5-1.1,2-3,1.2-4.6l-17.4-37.7c-0.9-1.9,0-4.2,2-5L1297,2301z"/>
							
								<linearGradient id="SVGID_23_" gradientUnits="userSpaceOnUse" x1="-250.0058" y1="23432.5898" x2="-75.2359" y2="23177.1562" gradientTransform="matrix(0.9322 -0.362 -0.362 -0.9322 -12911.4434 8379.5947)">
								<stop  offset="0" style="stop-color:#A22B25"/>
								<stop  offset="1" style="stop-color:#C0423C"/>
							</linearGradient>
							<path class="st24" d="M1301.7,2308.5c0,0-34.9-48.4-53.1-23.9c-18.3,24.4,35.9,55.4,56.1,49.9L1301.7,2308.5z"/>
						</g>
						<g>
							
								<linearGradient id="SVGID_24_" gradientUnits="userSpaceOnUse" x1="1016.9618" y1="844.2831" x2="1642.1638" y2="2104.7712" gradientTransform="matrix(1 0 0 -1 0 3710)">
								<stop  offset="0" style="stop-color:#4F52FF"/>
								<stop  offset="1" style="stop-color:#4042E2"/>
							</linearGradient>
							<path class="st25" d="M1119.3,2871.6c-8.1-57,51-140.9,75.4-172.7c7-9.1,10.9-20.2,11-31.7c0.7-80.8-33.2-132.6-87.5-167.5
								c0,0-197.2,229.8-147,406.5c5.4,19.1,13.8,35.5,24.5,49.5C1003.5,2889.2,1080.5,2874.7,1119.3,2871.6z"/>
							<path class="st4" d="M1123,2849.6l-7.5-0.9c6.4-55.9,55.4-125,76.2-152.1l6,4.6C1177.3,2727.8,1129.1,2795.5,1123,2849.6z"/>
							
								<linearGradient id="SVGID_25_" gradientUnits="userSpaceOnUse" x1="3188.7534" y1="903.7725" x2="3332.522" y2="525.4346" gradientTransform="matrix(1 0 0 -1 -2090.2158 3710)">
								<stop  offset="0" style="stop-color:#A22B25"/>
								<stop  offset="1" style="stop-color:#C0423C"/>
							</linearGradient>
							<path class="st26" d="M1120.8,2879.5c-0.7-2.6-1.2-5.2-1.6-7.9c-38.8,3.1-115.8,17.6-123.7,84.2
								c88,116.4,330.6,74.4,330.6,74.4v-45.3C1326.2,2984.9,1139.9,2950.3,1120.8,2879.5z"/>
						</g>
						
							<linearGradient id="SVGID_26_" gradientUnits="userSpaceOnUse" x1="3359.5127" y1="980.0593" x2="3513.1863" y2="575.6553" gradientTransform="matrix(1 0 0 -1 -2090.2158 3710)">
							<stop  offset="0" style="stop-color:#A22B25"/>
							<stop  offset="1" style="stop-color:#C0423C"/>
						</linearGradient>
						<path class="st27" d="M1302.9,3030c0,0,13.2-90.5,98.9-54.5c64.4,27,58.2,49.6,58.2,49.6L1302.9,3030z"/>
						<g>
							<path class="st3" d="M1714,2627.3l-43.2,263.1c-0.8,4.6-4.1,8.4-8.5,9.6c-16.4,4.6-58,13.5-98.9-0.5
								c-5.6-1.9-9.7-6.9-10.7-12.8l-45.7-265.2L1714,2627.3z"/>
							<path class="st4" d="M1714,2609.6l-9.8-22c-1-2.1-3-3.6-5.3-3.8c-19.2-1.6-107.4-8.5-165.2-0.5c-3.5,0.5-6.4,2.8-7.8,6
								l-7.7,18.4L1714,2609.6z"/>
							<path class="st3" d="M1721.7,2610.1l1.8,18.1c0.4,4.4-2.8,8.4-7.2,8.7c-33.4,2.3-161.4,9.7-213.4-6.9c-3.7-1.2-5.9-5.2-4.9-9
								l2.4-9.3c1.4-5.2,6-8.8,11.4-8.8l202.7,0.6C1718.3,2603.6,1721.4,2606.4,1721.7,2610.1z"/>
							<path class="st4" d="M1703.4,2691.9c0,0-118.5,19-184.2,0l-1-5.8l-3.5,3.7c-1.7,1.8-2.4,4.3-2,6.7l19.3,105
								c0,0,83,19.9,157.8,1.3l18.7-106.3c0.6-2.9-0.1-6-1.9-8.3l-2.1-2.8L1703.4,2691.9z"/>
							<path class="st0" d="M1626.4,2807c-1.2,0-2.2-1.1-2.2-2.3l1.8-96c0-1.2,1.1-2.3,2.3-2.2c1.2,0,2.2,1.1,2.2,2.3l-1.8,96
								C1628.7,2806,1627.7,2807,1626.4,2807L1626.4,2807z M1603.7,2806.7c-1.2,0-2.2-1.1-2.2-2.3l1.8-94.9c0-1.2,1.1-2.3,2.3-2.2
								c1.2,0,2.2,1.1,2.2,2.3l-1.8,94.9C1606,2805.8,1605,2806.7,1603.7,2806.7L1603.7,2806.7z M1649.2,2805.7
								c-1.2,0-2.2-1.1-2.2-2.3l1.8-96.2c0-1.2,1-2.4,2.3-2.2c1.2,0,2.2,1.1,2.2,2.3l-1.8,96.2
								C1651.4,2804.7,1650.4,2805.7,1649.2,2805.7L1649.2,2805.7z M1576.8,2805.1c-1.2,0-2.2-1.1-2.2-2.3l1.7-93.5
								c0-1.2,1.1-2,2.3-2.2c1.2,0,2.2,1.1,2.2,2.3l-1.7,93.5C1579,2804.1,1578,2805.1,1576.8,2805.1L1576.8,2805.1z M1667,2803.5
								c-1.2,0-2.2-1.1-2.2-2.3l2.1-95.8c0-1.2,0.9-2.2,2.3-2.2c1.2,0,2.2,1.1,2.2,2.3l-2.1,95.8
								C1669.3,2802.6,1668.3,2803.5,1667,2803.5L1667,2803.5z M1550.8,2799.7l-6.8-92.8c-0.1-1.2,0.8-2.3,2.1-2.4
								c1.3-0.1,2.3,0.8,2.4,2.1l6.8,92.8c0.1,1.2-0.8,2.3-2.1,2.4c-0.1,0-0.1,0-0.2,0C1551.8,2801.8,1550.8,2800.9,1550.8,2799.7z
								 M1680.3,2801.1c-1.2-0.1-2.2-1.2-2.1-2.4l8.1-95.8c0.1-1.2,1.2-2.1,2.4-2.1c1.2,0.1,2.2,1.2,2.1,2.4l-8.1,95.8
								c-0.1,1.2-1.1,2.1-2.2,2.1C1680.5,2801.1,1680.4,2801.1,1680.3,2801.1z M1533.1,2796.6l-11.7-93.9c-0.2-1.2,0.7-2.4,1.9-2.5
								c1.2-0.2,2.4,0.7,2.5,2l11.7,93.9c0.2,1.2-0.7,2.4-1.9,2.5c-0.1,0-0.2,0-0.3,0C1534.2,2798.5,1533.2,2797.7,1533.1,2796.6z"
								/>
						</g>
						
							<linearGradient id="SVGID_27_" gradientUnits="userSpaceOnUse" x1="-1266.2969" y1="902.9073" x2="-1190.0092" y2="902.9073" gradientTransform="matrix(-1 0 0 -1 450.6571 3710)">
							<stop  offset="0" style="stop-color:#A22B25"/>
							<stop  offset="1" style="stop-color:#C0423C"/>
						</linearGradient>
						<path class="st28" d="M1708.6,2753.6c0,0-36.5-22.5-60.7-5.5c-23,16.2,14.5,113.9,28,123.5
							C1689.5,2881.1,1735.6,2805.3,1708.6,2753.6z"/>
					</g>
				</g>
			</g>
		</g>
		<g>
			<circle class="st0" cx="1940.9" cy="1102.3" r="502"/>
			<g>
				<g>
					<path class="st4" d="M2518.8,972.2l-56.3-15.5c-15.2-4.2-27.3-15.7-32.6-30.6c-13.3-37.5-30.8-72.8-51.8-105.6
						c-8.5-13.3-10.2-29.9-4.2-44.5l22.3-54.1c9.4-22.8,3.3-49-15.2-65.3l-55.2-48.7c-18.5-16.3-45.3-19.1-66.7-6.9l-50.9,28.8
						c-13.8,7.8-30.4,8.2-44.7,1.4c-35.2-16.8-72.5-29.6-111.3-38.2c-15.4-3.4-28.3-13.9-34.4-28.5l-22.5-53.9
						c-9.5-22.8-32.3-37-56.9-35.4l-73.4,4.6c-24.6,1.5-45.5,18.5-52.1,42.3l-15.5,56.3c-4.2,15.2-15.7,27.3-30.6,32.6
						c-37.4,13.3-72.8,30.8-105.6,51.8c-13.3,8.5-29.9,10.2-44.5,4.2l-54.1-22.3c-22.8-9.4-49-3.3-65.3,15.2l-48.7,55.2
						c-16.3,18.5-19.1,45.3-6.9,66.7l28.8,50.8c7.8,13.8,8.2,30.4,1.4,44.7c-16.8,35.2-29.6,72.5-38.2,111.3
						c-3.4,15.4-13.9,28.3-28.5,34.4l-53.9,22.5c-22.7,9.5-37,32.3-35.4,56.9l4.6,73.4c1.6,24.6,18.5,45.5,42.3,52.1l56.3,15.5
						c15.2,4.2,27.3,15.7,32.6,30.6c13.3,37.4,30.8,72.8,51.8,105.6c8.5,13.3,10.2,29.9,4.2,44.5l-22.3,54.1
						c-9.4,22.8-3.3,49,15.2,65.3l55.2,48.7c18.5,16.3,45.3,19.1,66.7,6.9l50.8-28.8c13.8-7.8,30.4-8.2,44.7-1.4
						c35.2,16.8,72.4,29.6,111.3,38.2c15.4,3.4,28.3,13.9,34.4,28.5l22.5,53.9c9.5,22.8,32.3,37,56.9,35.4l73.4-4.6
						c24.6-1.6,45.5-18.5,52.1-42.3l15.5-56.3c4.2-15.2,15.7-27.3,30.6-32.6c37.4-13.3,72.8-30.8,105.6-51.8
						c13.3-8.5,29.9-10.2,44.5-4.2l54.1,22.3c22.8,9.4,49,3.3,65.3-15.2l48.6-55.2c16.3-18.5,19.1-45.3,6.9-66.7l-28.9-50.8
						c-7.8-13.8-8.2-30.4-1.4-44.7c16.8-35.2,29.6-72.4,38.1-111.3c3.4-15.4,13.9-28.3,28.5-34.4l53.9-22.5
						c22.8-9.5,37-32.3,35.4-56.9l-4.6-73.4C2559.5,999.6,2542.6,978.7,2518.8,972.2z M2010.7,1522.4
						c-233.3,38.5-453.6-119.3-492.2-352.6s119.3-453.6,352.6-492.2s453.6,119.3,492.2,352.6
						C2401.8,1263.5,2244,1483.9,2010.7,1522.4z"/>
				</g>
			</g>
			<g>
				<g>
					<defs>
						<path id="SVGID_28_" d="M1688.6,1507.9c176.8,34.4,909.8,36.5,1016.6-98.2c43.4-54.8-306.1-197.1-290.6-270.2
							c53.6-252.7-104.4-452-357.1-505.6c-252.7-53.6-514.8,54.6-568.3,307.3c-23.9,112.8-50.7,320.3,0,414.4
							C1552.1,1472.3,1548.2,1480.6,1688.6,1507.9z"/>
					</defs>
					<clipPath id="SVGID_29_">
						<use xlink:href="#SVGID_28_"  style="overflow:visible;"/>
					</clipPath>
					<g class="st29">
						
							<linearGradient id="SVGID_30_" gradientUnits="userSpaceOnUse" x1="2493.5171" y1="2664.0095" x2="1895.2665" y2="2274.1384" gradientTransform="matrix(1 0 0 -1 0 3710)">
							<stop  offset="0" style="stop-color:#FF928E"/>
							<stop  offset="1" style="stop-color:#FE7062"/>
						</linearGradient>
						<path class="st30" d="M1998.4,1018.1c0,0,185,334.6,450.1,358.8l14.1,39.9c0,0-365.3,71.3-552.4-229.6L1998.4,1018.1z"/>
						
							<linearGradient id="SVGID_31_" gradientUnits="userSpaceOnUse" x1="5704.3628" y1="1911.2975" x2="5923.333" y2="1911.2975" gradientTransform="matrix(0.996 -8.990000e-02 -8.990000e-02 -0.996 -3067.8374 3821.5249)">
							<stop  offset="0" style="stop-color:#FEBBBA"/>
							<stop  offset="1" style="stop-color:#FF928E"/>
						</linearGradient>
						<path class="st31" d="M2443.2,1400.1c-8.2-16.7,3.4-36.8,22-37.1c0.9,0,1.9,0,2.8,0c31.2,1.2,62.8-3.6,74.5-11.6
							c3.9-2.7,9.4-1.9,11.9,2.1c3.2,5.2,0.7,14.1-28.9,26.9c0,0,65.4,25.5,118.1,0.5c51.4-24.4-22.8,104.8-179,42.8
							c-7.9-3.1-14.2-9.1-18-16.7L2443.2,1400.1z"/>
						
							<linearGradient id="SVGID_32_" gradientUnits="userSpaceOnUse" x1="2391.0483" y1="2821.2463" x2="1792.7983" y2="2431.3755" gradientTransform="matrix(1 0 0 -1 0 3710)">
							<stop  offset="0" style="stop-color:#FF928E"/>
							<stop  offset="1" style="stop-color:#FE7062"/>
						</linearGradient>
						<path class="st32" d="M1937.3,1563.2c0,0,171.5-469.9,36.5-576.6c0,0-202.4-32.7-349.5,23.2l16.8,430.9
							C1641,1440.6,1749,1630.5,1937.3,1563.2z"/>
						
							<linearGradient id="SVGID_33_" gradientUnits="userSpaceOnUse" x1="-2853.0515" y1="2807.4016" x2="-2669.2146" y2="2807.4016" gradientTransform="matrix(-1 0 0 -1 -919.3416 3710)">
							<stop  offset="0" style="stop-color:#FEBBBA"/>
							<stop  offset="1" style="stop-color:#FF928E"/>
						</linearGradient>
						<path class="st33" d="M1933.7,887.2c0,0-26.3,63.9-33,114.1c-2,14.7-13.4,26.3-28,28.8c-31.4,5.2-83.5,8.1-115.2-20.8
							c-7-6.4-9.4-16.5-6.2-25.5c13.1-36.5,80.9-188.7,117.9-212L1933.7,887.2z"/>
						<g>
							
								<linearGradient id="SVGID_34_" gradientUnits="userSpaceOnUse" x1="-2856.6416" y1="2277.647" x2="-2487.8716" y2="2277.647" gradientTransform="matrix(-1 0 0 -1 -919.3416 3710)">
								<stop  offset="0" style="stop-color:#FEBBBA"/>
								<stop  offset="1" style="stop-color:#FF928E"/>
							</linearGradient>
							<path class="st34" d="M1666.1,1356.8c0,0.3,0,0.6,0,0.8c-0.6,79.5,106.9,87.1,106.9,87.1s30.7-51.1,70.2-52.8
								c39.4-1.7,94.2,62.6,94.2,62.6l-87.5,14c0,0-166.9,100.1-281.3-18.8C1588.7,1375.6,1636.9,1359.4,1666.1,1356.8z"/>
							
								<linearGradient id="SVGID_35_" gradientUnits="userSpaceOnUse" x1="2310.123" y1="2945.4226" x2="1711.8717" y2="2555.551" gradientTransform="matrix(1 0 0 -1 0 3710)">
								<stop  offset="0" style="stop-color:#FF928E"/>
								<stop  offset="1" style="stop-color:#FE7062"/>
							</linearGradient>
							<path class="st35" d="M1624.2,1009.7c108.4,38.4,92.7,123.6,92.7,123.6s-50,143.8-50.9,223.5c-29.1,2.7-77.3,18.8-97.6,92.9
								c-2.7-2.8-5.4-5.7-8.1-8.8C1423.8,1282.5,1624.2,1009.7,1624.2,1009.7z"/>
							
								<linearGradient id="SVGID_36_" gradientUnits="userSpaceOnUse" x1="-2676.1182" y1="2475.0483" x2="-2191.2058" y2="2340.1162" gradientTransform="matrix(-1 0 0 -1 -919.3416 3710)">
								<stop  offset="0" style="stop-color:#E1473D"/>
								<stop  offset="1" style="stop-color:#E9605A"/>
							</linearGradient>
							<path class="st36" d="M1666.1,1361c2.3,0,4.2-1.9,4.2-4.2c0.7-62,31.6-163.6,44.8-204.5c0.7-2.2-0.5-4.6-2.7-5.3
								c-2.2-0.7-4.6,0.5-5.3,2.7c-13.4,41.2-44.5,143.9-45.2,207C1661.8,1359.1,1663.7,1361,1666.1,1361L1666.1,1361L1666.1,1361z"
								/>
						</g>
						<g>
							
								<linearGradient id="SVGID_37_" gradientUnits="userSpaceOnUse" x1="17194.3379" y1="2982.377" x2="16953.2051" y2="2663.3787" gradientTransform="matrix(1 0 0 -1 -15189.3906 3710)">
								<stop  offset="0" style="stop-color:#FEBBBA"/>
								<stop  offset="1" style="stop-color:#FF928E"/>
							</linearGradient>
							<path class="st37" d="M2052.3,726.2c0,3.2-71,201-71,201l-112.1-42.9l39.4-197.5C1908.6,686.8,2052.3,673,2052.3,726.2z"/>
							
								<linearGradient id="SVGID_38_" gradientUnits="userSpaceOnUse" x1="-2845.8298" y1="3149.0811" x2="-2979.7673" y2="2491.949" gradientTransform="matrix(-1 0 0 -1 -919.3416 3710)">
								<stop  offset="0" style="stop-color:#09005D"/>
								<stop  offset="1" style="stop-color:#1A0F91"/>
							</linearGradient>
							<path class="st38" d="M1928.3,734.9l-28.9,102.3c-0.4,1.3-0.6,2.6-0.6,4c0,8.3,2.1,37.1,31.3,33.2
								c26.6-3.5,50.8-6.4,66.3,0.9c6.9,3.3,10.2,11.2,7.7,18.5c-6.5,18-21.8,58.2-40.4,91.1c-3.8,6.7-12.1,9.3-19.1,6.1
								c-21.1-9.6-64.9-31-96.1-56.5c-4.2-3.5-6.3-8.9-5.3-14.3c4.9-26.2,19.6-105.8,20.2-128.6c0.6-21.4-23.4-37.8-34-43.9
								c-3.5-2-5.9-5.3-6.9-9.2c-3.3-13.8-6.1-45,33.7-51.9c8.3-1.4,13.8-9.4,12.1-17.7c-3.4-16.5-2.3-40.8,29-49.7
								c31.8-9.1,51.8,10.1,62,24.8c4.1,5.9,11.8,7.9,18.4,4.9c3.8-1.7,8.3-1.8,13.2,2.4c6.6,5.5,16.6,3.8,21.4-3.3
								c9.3-13.7,26.1-27.3,54.7-18.1c50.6,16.4,48.2,74.8,29.7,106.5c-18.6,31.7-72.5,10.9-98-10.2c-19.4-16-48.9-6.4-62-0.9
								C1932.6,727,1929.5,730.6,1928.3,734.9z"/>
							
								<linearGradient id="SVGID_39_" gradientUnits="userSpaceOnUse" x1="16850.9102" y1="2733.2908" x2="17038.4883" y2="2925.7412" gradientTransform="matrix(1 0 0 -1 -15189.3906 3710)">
								<stop  offset="0" style="stop-color:#FEBBBA"/>
								<stop  offset="1" style="stop-color:#FF928E"/>
							</linearGradient>
							<path class="st39" d="M1858.9,829.7c0,0,24.3-57.4,4.5-75.2c-19.8-17.8-47.5-11.7-46.6,32.7
								C1818,842.2,1858.9,829.7,1858.9,829.7z"/>
						</g>
					</g>
				</g>
			</g>
		</g>
	</g>
</g>
</svg>
