<?xml version="1.0" encoding="utf-8"?>
<!-- Generator: Adobe Illustrator 25.2.1, SVG Export Plug-In . SVG Version: 6.00 Build 0)  -->
<!DOCTYPE svg PUBLIC "-//W3C//DTD SVG 1.1//EN" "http://www.w3.org/Graphics/SVG/1.1/DTD/svg11.dtd" [
	<!ENTITY ns_extend "http://ns.adobe.com/Extensibility/1.0/">
	<!ENTITY ns_ai "http://ns.adobe.com/AdobeIllustrator/10.0/">
	<!ENTITY ns_graphs "http://ns.adobe.com/Graphs/1.0/">
	<!ENTITY ns_vars "http://ns.adobe.com/Variables/1.0/">
	<!ENTITY ns_imrep "http://ns.adobe.com/ImageReplacement/1.0/">
	<!ENTITY ns_sfw "http://ns.adobe.com/SaveForWeb/1.0/">
	<!ENTITY ns_custom "http://ns.adobe.com/GenericCustomNamespace/1.0/">
	<!ENTITY ns_adobe_xpath "http://ns.adobe.com/XPath/1.0/">
]>
<svg version="1.1" id="Capa_1" xmlns:x="&ns_extend;" xmlns:i="&ns_ai;" xmlns:graph="&ns_graphs;"
	 xmlns="http://www.w3.org/2000/svg" xmlns:xlink="http://www.w3.org/1999/xlink" x="0px" y="0px" viewBox="0 0 240.9 125"
	 style="enable-background:new 0 0 240.9 125;" xml:space="preserve">
<style type="text/css">
	.st0{fill:#338936;}
	.st1{fill:#3D7448;}
	.st2{fill:#407236;}
	.st3{fill:#546A47;}
	.st4{fill:#FFFFFF;}
	.st5{fill:#527441;}
	.st6{fill:#40AA44;}
	.st7{fill:#7B9974;}
	.st8{fill:#65885E;}
	.st9{fill:#5F985B;}
	.st10{fill:#228037;}
</style>
<metadata>
	<sfw  xmlns="&ns_sfw;">
		<slices></slices>
		<sliceSourceBounds  bottomLeftOrigin="true" height="100" width="219.9" x="10.5" y="12.5"></sliceSourceBounds>
	</sfw>
</metadata>
<g>
	<path class="st0" d="M64.3,73c4.4,11.2,1.5,27.2-8.9,34.3c-4.7,3.2-9.9,5-15.6,5.1c-9.1,0.1-18.1,0-27.2,0.1
		c-1.7,0-2.2-0.5-2.2-2.1c0.1-17.4,0.1-34.8,0-52.2c0-1.7,0.5-2.2,2.2-2.1c8.8,0.1,17.6-0.1,26.4,0.1c7.8,0.2,14.9,2.6,20.5,8.5
		c1.6,1.7,3,3.7,3.7,6C63.5,71.4,63.8,72.3,64.3,73z"/>
	<path class="st0" d="M144.8,56c7.8,0,15.6,0.1,23.3,0c1.7,0,2.4,0.4,2.5,2.2c0.2,2.7,0.5,5.4,1,8.1c0.3,1.6-0.2,1.9-1.6,1.9
		c-5,0-9.9,0.1-14.9-0.1c-2-0.1-2.4,0.6-2.4,2.5c0.1,13.1,0,26.1,0,39.2c0,2.7,0,2.7-2.8,2.7c-3.6,0-7.2,0-10.8,0
		c-2.7,0-2.7,0-2.7-2.8c0-12.9,0-25.8,0-38.7c0-2.8,0-2.8-2.7-2.8c-4.4,0-8.7-0.1-13.1,0c-1.6,0-2.1-0.5-2-2.1
		c0.1-2.6,0.1-5.3,0-7.9c-0.1-1.7,0.5-2.2,2.2-2.1C129,56.1,136.9,56,144.8,56z"/>
	<path class="st0" d="M91.4,100.6c7.6,0,15.2,0.1,22.8-0.1c2.1,0,2.7,0.8,2.8,2.5c0.3,2.6,0.5,5.2,1,7.8c0.2,1.4-0.4,1.6-1.5,1.6
		c-3.8,0-7.5,0-11.3,0c-9.7,0-19.4-0.1-29.2-0.1c-1-0.5-0.8-1.4-0.8-2.3c0-17.1,0-34.1,0-51.2c0-2,0.6-2.6,2.7-2.6
		c3.2,0.1,6.5-0.2,9.7-0.1c2.8,0,3.2,0.4,3.3,3.3c0.1,2.6,0,5.1,0,7.7c0,10.1,0,20.1,0,30.2C91,98.5,90.7,99.6,91.4,100.6z"/>
	<path class="st1" d="M225.2,53.8c0.6,0.1,0.8,0.2,1.1,0.2c0.8,0,1.2,0.3,1.2,1.2c0,0.9-0.6,1-1.2,0.9c-2.6-0.5-4.3,0.9-6.2,2.3
		c-9,6.6-21.7,6.4-30.6-0.2c-0.6-0.5-1.2-0.9-1.7-1.3c-0.4,0-0.4,0.1-0.4,0.3c-0.3,0.8,0.8,2.5-1.2,2.4c-1.8-0.1-0.8-1.6-0.8-2.4
		c0-1.9-0.4-3.4-1.6-4.9c-3.8-5.1-4.9-11-3.8-17c1.3-7.1,5.4-12.6,11.8-16.2c3.2-1.8,6.6-3,10.2-3.3c0.4-1.2-2.2-1.5-0.7-2.8
		c1.5-1.3,2,0.6,2.8,1.2c1,0.8,1.8,1.3,3.1,1.5c6.5,0.7,12,3.2,16.7,7.9c7.4,7.3,8.9,20.5,2.1,29.2C225.8,53,225.6,53.2,225.2,53.8z
		"/>
	<path class="st2" d="M91.4,100.6c-1.6-0.4-1-1.6-1-2.5c0-12.1,0-24.2,0-36.3c0-0.6,0-1.2,0-1.8c-0.1-3.2-0.4-3.5-3.6-3.4
		c-3.2,0-6.4,0.1-9.6,0.1c-0.9,0-1.6,0.4-1.7,1.5c0,0.9,0,1.9,0,2.8c0,16,0,32.1,0,48.1c0,1.1-0.1,2.2,0.5,3.2
		c-0.5,0.1-1,0.1-1.1-0.6c0-0.6,0-1.2,0-1.8c0-17.1,0-34.3,0-51.4c0-1.9,0.3-2.7,2.5-2.6c3.8,0.2,7.7,0.2,11.5,0
		c2-0.1,2.4,0.6,2.4,2.4c-0.1,13.1,0,26.3,0,39.4C91.3,98.7,91.4,99.7,91.4,100.6z"/>
	<path class="st3" d="M64.3,73c-1-0.5-1.1-1.4-1-2.4C64,71.2,64.3,72.1,64.3,73z"/>
	<path class="st4" d="M40.2,68.3c5.4,1.9,8,6,8.8,11.5c0.9,5.8,0.6,11.4-3,16.3c-2.2,3-5.4,4.4-9,4.5c-3.3,0.1-6.7,0-10,0
		c-0.7-0.5-0.4-1.3-0.4-1.9c0-9.4,0-18.9,0-28.3c0-1.7,0.3-2.5,2.2-2.3C32.6,68.3,36.4,67.7,40.2,68.3z"/>
	<path class="st5" d="M40.2,68.3c-3.8,0-7.5,0-11.3-0.2c-1.6-0.1-2.1,0.4-2,2C27,80.3,27,90.4,27,100.5c-1.1-0.5-0.7-1.5-0.7-2.3
		c0-9.4,0-18.7-0.1-28.1c0-1.8,0.4-2.6,2.4-2.5c3.1,0.2,6.3,0,9.4,0C38.8,67.8,39.7,67.5,40.2,68.3z"/>
	<path class="st4" d="M189.5,55.2c0.7-0.9,2.6,0.8,2.5-1.2c-0.1-1.8-1.7-1-2.6-1c-1.9,0.1-2.9-0.7-3.9-2.2
		c-7.2-11-2.9-24.7,8.1-30.7c2.2-1.2,4.6-1.6,7-2.2c0.6-0.1,1.4-0.1,0.5,0.8c-0.6,0.6,0,0.9,0.3,1.2c0.5,0.5,1,0.3,1.3-0.1
		c2.4-3.3,5.5-2.1,8.7-1.6c9.7,1.7,18.7,13.3,16.6,24.2c-0.6,2.9-1.5,5.6-3.3,7.9c-0.3,0.4-0.3,1.1-1.2,0.3c-1-0.9-2.1-0.4-1.8,1
		c0.3,2.5-1.1,3.7-2.8,5c-8.1,5.8-20.4,5.6-28.3-0.4C190.2,56.1,189.5,55.9,189.5,55.2z"/>
	<path class="st6" d="M202.9,24.2c0.3-0.3,0.5-0.6,0.8-1c1-0.7,1.9-0.6,2.8,0c1.2,1.4,2.4,2.9,3.5,4.4c2.3,3.1,2.5,6.6,1.9,10.2
		c-0.2,1.3,0,1.4,1.2,1.1c2.7-0.6,5.5-1,8.2-1.5c0.9-0.2,1.5-0.1,1.3,0.9c-0.9,4.7-0.7,9.8-5.1,13.1c-1.4,1.1-2.8,2.2-4.8,2.1
		c-1.7,0.5-3.5,0.1-5.2,0.2c-1.3-0.1-1.1-1.1-0.9-1.9c0.3-1.4,1-2.6,2.5-2.9c1.2-0.3,2.4-0.2,3.9-0.7c-1.1-0.4-2.5-0.4-2.3-1.8
		c0.3-1.5,1.6-1.6,2.8-1.7c0.9-0.1,1.9,0.1,3-0.2c-2-2.7,0.8-2.7,2.5-4c-4.8,1.5-8.1,3.9-10.8,7.4c-0.5,0.7-0.8,2-2,1.5
		c-1-0.4-0.8-1.6-0.8-2.5c0-1.2,0.1-2.4,0-3.6c-0.2-2.2,0.5-4,2.5-5.6c-0.9-0.4-2-0.2-2.3-1.4c-0.4-2.1,1.1-3.3,2.3-5
		c-3,0.9-2.2-1.5-2.8-2.9c0,1.9-0.5,3.3-2.9,2.6c0.5,1.3,1.5,1.8,2.1,2.6c0.7,1.2,1.2,2.8-0.2,3.3c-2.1,0.8-0.9,1.4-0.4,2.2
		c2.1,2.8,1.4,6.1,1.2,9.2c-0.1,1.5-1.2,1.3-2,0.4c-1.3-1.4-2.5-2.8-3.9-4.1c-2.2-2-4.5-3.7-8.1-4.1c1.6,1.2,4.1,1.2,2.8,3.7
		c-0.1,0.2,0.5,0.3,0.8,0.3c0.8,0,1.5,0,2.3,0c1.2,0.1,2.3,0.3,2.5,1.7c0.3,1.7-1.3,1.3-2.6,2c3.1-0.3,5.6,0.2,6.6,3.2
		c0.3,0.8,0.8,1.9-0.7,2.2c-1.8-0.1-3.5,0.3-5.3-0.3c-4.3-0.5-7-3.1-8.3-6.9c-0.9-2.4-1.2-5.1-1.6-7.7c-0.2-1.2,0-1.8,1.6-1.5
		c3,0.7,6.1,1.1,9.3,1.6c-0.5-3.9-0.8-7.8,1.7-11.2C201.1,26.6,202.4,25.7,202.9,24.2z"/>
	<path class="st7" d="M206.5,23.2c-0.9,0-1.9,0-2.8,0C205,20.9,205,20.9,206.5,23.2z"/>
	<path class="st8" d="M197.5,53.4c2-0.1,4-0.1,6-0.2c0.4-0.2,0.8-0.1,1.1,0.3c0.1,0.2,0,0.4-0.2,0.5c-1.4-0.4-2.8,0.1-4.2,0
		C199.1,53.9,198.2,54.3,197.5,53.4z"/>
	<path class="st8" d="M206.8,53.3c2,0.1,4,0.1,6,0.2c-2.2,1.3-4.6,0.1-6.8,0.6c-0.1-0.1-0.1-0.2-0.2-0.3
		C205.9,53.2,206.3,53.1,206.8,53.3z"/>
	<path class="st9" d="M202.9,24.2c0,1.9-1.3,2.8-2.8,3.6C200.7,26.3,201.8,25.3,202.9,24.2z"/>
	<path class="st8" d="M206,54c-0.6,0.5-1.1,0.5-1.7,0c0.1-0.1,0.1-0.2,0.2-0.3c0.4-0.3,0.9-0.3,1.3,0C205.8,53.9,205.9,53.9,206,54z
		"/>
	<path class="st10" d="M205.8,53.8c-0.4,0-0.9,0-1.3,0c-0.4-0.2-0.7-0.3-1.1-0.5c-1.6-4.3-1.9-4.5-6.2-4.2c-0.8,0.1-1.4-0.1-1.5-0.9
		c-0.1-0.9,0.6-0.9,1.2-0.9c0.3,0,0.5,0,0.8,0c0.5-0.1,1.4,0.2,1.3-0.7c-0.1-0.7-0.5-1.3-1.3-1.3c-1.3,0-2.6,0-3.8,0
		c-0.6,0-1.3,0.3-1.6-0.5c-0.3-0.8,0.4-0.9,1-1.2c1-0.5,0.8-1-0.1-1.3c-0.9-0.4-1.9-0.7-2.8-1.1c-0.3-0.2-0.7-0.6-0.5-1.1
		c0.2-0.5,0.7-0.3,1.1-0.3c3.4,0.3,6.1,2,8.5,4.2c1.7,1.5,3.2,3.2,4.7,5c0.3-4.1,1.3-8.3-2.6-11.5c-0.3-0.3-0.6-0.6-0.2-1.1
		c0.2-0.3,0.6-0.4,0.9-0.2c0.7,0.4,1.4,1.4,2,0c0.5-1,0-2-0.8-2.7c-0.6-0.5-1.2-1-1.7-1.5c-0.4-0.4-1-0.8-0.6-1.5
		c0.5-0.7,1.1-0.7,1.8-0.3c1.4,1,1.7,0.5,1.3-0.9c-0.2-0.6,0.1-1,0.2-1.5c0.1-0.5,0.2-1.1,0.9-1c0.7,0.1,0.7,0.7,0.7,1.2
		c0,0.3,0,0.5,0,0.8c0,1.5-0.3,3.4,2,1.4c0.4-0.3,0.8-0.2,1.1,0.1c0.3,0.5,0,0.8-0.3,1.1c-1,0.9-1.8,1.9-2.4,2.9
		c-0.5,0.8-0.7,1.7-0.1,2.4c0.6,0.7,1.2,0,1.7-0.4c0.3-0.2,0.7-0.3,0.9,0.1c0.2,0.3,0.2,0.6,0,1c-0.1,0.1-0.2,0.3-0.3,0.4
		c-4.2,3-2,7.4-2.3,11.3c2.6-3.5,5.6-6.2,9.4-8.1c1.2-0.6,2.4-0.7,3.6-1.2c0.4-0.2,0.9-0.1,1,0.5c0.1,0.5-0.2,0.7-0.6,0.9
		c-1.2,0.5-2.3,1-3.5,1.6c0.3,0.7,0.9,0.4,1.3,0.6c0.4,0.2,0.8,0.4,0.7,0.9c0,0.6-0.5,0.9-1,1c-1.4,0.1-2.7,0-4.1,0.1
		c-0.8,0-1.7,0.1-1.8,1.1c-0.1,1.2,1,0.8,1.7,0.9c0.6,0.1,1.6-0.2,1.6,0.7c0.1,1-0.9,0.7-1.5,0.9c-0.6,0.1-1.2,0.3-1.7,0.4
		c-3.4,0.5-3.4,0.5-4.4,4C206.5,53.4,206.1,53.6,205.8,53.8z"/>
</g>
</svg>
