<?xml version="1.0" encoding="utf-8"?>
<!-- Generator: Adobe Illustrator 25.2.1, SVG Export Plug-In . SVG Version: 6.00 Build 0)  -->
<!DOCTYPE svg [
	<!ENTITY ns_extend "http://ns.adobe.com/Extensibility/1.0/">
	<!ENTITY ns_ai "http://ns.adobe.com/AdobeIllustrator/10.0/">
	<!ENTITY ns_graphs "http://ns.adobe.com/Graphs/1.0/">
	<!ENTITY ns_vars "http://ns.adobe.com/Variables/1.0/">
	<!ENTITY ns_imrep "http://ns.adobe.com/ImageReplacement/1.0/">
	<!ENTITY ns_sfw "http://ns.adobe.com/SaveForWeb/1.0/">
	<!ENTITY ns_custom "http://ns.adobe.com/GenericCustomNamespace/1.0/">
	<!ENTITY ns_adobe_xpath "http://ns.adobe.com/XPath/1.0/">
]>
<svg version="1.2" baseProfile="tiny" id="Layer_1" xmlns:x="&ns_extend;" xmlns:i="&ns_ai;" xmlns:graph="&ns_graphs;"
	 xmlns="http://www.w3.org/2000/svg" xmlns:xlink="http://www.w3.org/1999/xlink" x="0px" y="0px" viewBox="0 0 451 247.9"
	 overflow="visible" xml:space="preserve">
<metadata>
	<sfw  xmlns="&ns_sfw;">
		<slices></slices>
		<sliceSourceBounds  bottomLeftOrigin="true" height="521.8" width="566.9" x="281.6" y="-692"></sliceSourceBounds>
	</sfw>
</metadata>
<g id="LogoUHI">
	<g>
		<path fill="#1FA84E" d="M200.4,168.9c-4,2.4-7.9,5-11.7,7.7c-0.8,0.6-1.5,1.1-2.3,1.7c-1,0.8-2.1,1.6-3.1,2.4
			c-16.7-13-35.9-23-56.8-29.1v0c-15.1-4.4-31.1-6.8-47.7-6.8c-7.5,0-15,0.5-22.2,1.5C38.9,148.5,22,153.6,6.4,161
			c-2.2,1-4.3,2-6.4,3.2c1.2-1.1,2.5-2.1,3.7-3.2c0.9-0.7,1.7-1.5,2.6-2.2c2.9-2.4,5.9-4.6,8.9-6.7c1.2-0.9,2.4-1.7,3.6-2.5
			c0.9-0.5,1.8-0.9,2.7-1.3c17.8-8.5,37.3-13.9,57.9-15.7c5-0.4,9.9-0.6,15-0.6c10,0,19.8,0.9,29.4,2.5
			c27.1,4.7,51.9,15.8,72.9,31.8C198.1,167,199.3,168,200.4,168.9z"/>
		<path fill="#1FA84E" d="M353.9,167.1c5.6,0,11.2,0.3,16.7,0.9v10.4c-11.1,0.1-22,1.3-32.5,3.5c-13.6,2.8-26.6,7.2-38.8,13
			c-8.5,4-16.6,8.8-24.3,14.2c-3.2,2.2-6.3,4.6-9.4,7.1c-3.3,2.7-6.6,5.5-9.7,8.5c-0.8,0.7-1.6,1.5-2.3,2.2
			c-1.5,1.5-2.9,2.9-4.4,4.4c-5,5.3-9.7,10.8-14,16.7c-0.5-1.3-1.1-2.6-1.7-3.9c-2.7-5.9-5.7-11.6-9.1-17.1c0.6-0.7,1.1-1.3,1.8-2
			l0,0c3.9-4.5,8.2-8.8,12.6-12.9c1.6-1.5,3.2-2.9,4.9-4.4c3.8-3.3,7.8-6.3,11.9-9.2c3.2-2.2,6.4-4.4,9.7-6.4
			c7.5-4.6,15.4-8.6,23.6-12c17.6-7.3,36.7-11.7,56.7-12.7C348.4,167.2,351.1,167.1,353.9,167.1z"/>
		<path fill="#009247" d="M451,197.5c-11.6-6-24-10.8-36.9-14v-5.4c1.1,0.4,2.2,0.8,3.3,1.3c0,0,0.1,0,0.1,0.1
			c6.9,2.7,13.6,6,20,9.6C442.1,191.7,446.6,194.5,451,197.5z"/>
		<path fill="#1FA84E" d="M361.4,161.5c-4.2-1.1-8.4-2.1-12.7-2.8c-1.8-0.3-3.6-0.7-5.5-0.9c0,0,0,0-0.1,0
			c-8.3-1.3-16.8-1.9-25.4-1.9c-7.7,0-15.4,0.5-22.9,1.5c-0.1,0-0.2,0-0.3,0c-7.6,1-14.9,2.6-22.1,4.5c-8.2,2.3-16.2,5.1-23.9,8.6
			c-3.6,1.6-7.2,3.4-10.7,5.2c-4.2,2.2-8.2,4.6-12.2,7.2c-2,1.3-4,2.6-6,4h0c-5.5,3.9-10.8,8.1-15.8,12.7c-1-1.1-2-2.2-3.1-3.2
			c-2.7-2.8-5.6-5.6-8.6-8.2c1-0.8,1.9-1.6,2.9-2.4c4.4-3.5,8.9-6.7,13.6-9.7c2.1-1.4,4.3-2.7,6.5-4c4-2.3,8.1-4.5,12.4-6.4
			c3.2-1.6,6.5-3,9.8-4.3c0.5-0.2,1-0.4,1.5-0.6c7.7-3,15.7-5.4,23.9-7.3c1.4-0.3,2.7-0.6,4.1-0.9c10.8-2.1,21.9-3.3,33.3-3.3
			c7.9,0,15.7,0.6,23.2,1.6c0,0,0.1,0,0.1,0c8.5,1.1,16.8,2.9,24.9,5.3c0,0,0.1,0,0.1,0c0.2,0,0.4,0.1,0.7,0.2
			c0.7,0.2,1.4,0.4,2.1,0.7c0.6,0.2,1.1,0.4,1.6,0.6c0,0,0,0,0,0c0.8,0.3,1.6,0.7,2.5,1C357.5,159.6,359.5,160.5,361.4,161.5z"/>
		<path fill="#1FA84E" d="M359.2,163c-3.7-0.2-7.5-0.4-11.3-0.4h-0.6c-3.5,0-7.1,0.1-10.6,0.4c-0.3,0-0.6,0-0.8,0.1
			c-18,1.2-35.3,5.3-51.3,11.7c-8.1,3.2-15.9,7-23.3,11.4c-3.4,2-6.6,4.1-9.8,6.3c-4.1,2.8-8,5.7-11.8,8.9c-1.7,1.4-3.4,2.9-5.1,4.3
			c-5.1,4.6-9.9,9.5-14.5,14.6c-0.6-0.9-1.2-1.8-1.8-2.7c-2.9-4.3-6.1-8.3-9.4-12.3c0.8-0.7,1.6-1.4,2.4-2.1
			c4.2-3.8,8.6-7.4,13.2-10.8c1.9-1.4,3.8-2.7,5.7-4c3.9-2.7,8-5.2,12.2-7.5c3.4-1.9,6.9-3.7,10.5-5.4c7.7-3.6,15.7-6.7,24-9.1
			c14.3-4.2,29.3-6.6,44.9-6.9c1,0,2.1,0,3.1,0c5.9,0,11.8,0.3,17.6,0.9c1.8,0.2,3.5,0.4,5.3,0.6c2.2,0.3,4.4,0.6,6.6,1h0.3
			C356.2,162.4,357.8,162.7,359.2,163z"/>
		<path fill="#1FA84E" d="M255.7,147.8c-5.5,1.1-11,2.4-16.3,4c-1.2,0.4-2.5,0.8-3.7,1.1c-1.3,0.4-2.7,0.9-4,1.3
			c-10.2-8.4-21.3-15.8-33.3-21.7c-18.2-9.1-38.2-14.9-59.5-16.9c2.3-0.2,4.5-0.4,6.8-0.5c1.6-0.1,3.2-0.1,4.8-0.2
			c1.5,0,2.9-0.1,4.4-0.1c3.4,0,6.7,0.1,10,0.3c0.1,0,0.1,0,0.1,0c11,0.6,21.6,2.3,32,4.9c19.2,4.9,37.1,13.1,53.1,23.9
			C252,145.2,253.9,146.5,255.7,147.8z"/>
		<path fill="#1FA84E" d="M226.1,156.2c-2.7,1.2-7.9,3.5-12.4,5.6c-1,0.5-1.9,0.9-2.7,1.3c-1.4,0.7-2.6,1.3-3.5,1.8
			c-23.4-19.8-52.2-33.4-83.9-38.2c-8.4-1.3-17-2-25.7-2h-0.1c-6.3,0-12.6,0.3-18.7,1.1c2.3-0.6,4.7-1.1,7-1.7
			c0.3-0.1,0.5-0.1,0.8-0.2c4.1-0.9,8.3-1.6,12.6-2.1c3.1-0.4,6.3-0.8,9.5-1l0.7-0.1c4-0.3,8-0.5,12-0.5c16.6,0,32.6,2.4,47.7,6.8v0
			C190.2,133.2,209.4,143.2,226.1,156.2z"/>
	</g>
	<g>
		<path fill="#F49424" d="M77,118.3c-1.1,0.2-2.2,0.4-3.3,0.6v-108h29.9v102.7c-1.9,0.2-3.7,0.4-5.3,0.6c-4.4,0.5-8.8,1.3-13.2,2.2
			l-0.9,0.2C81.9,117.1,79.4,117.7,77,118.3z"/>
		<path fill="#A46C28" d="M187.1,193.8c2.4,2.1,4.6,4.2,6.8,6.5c-11.3,5.3-24.8,8.1-40.4,8.1c-42.2,0-69.4-20.1-77.3-55.9
			c0.9,0,1.8,0,2.7,0c10.1,0,20.1,0.9,29.9,2.8c7.5,16.6,22.9,25.8,44.7,25.8c5.3,0,10.3-0.5,14.9-1.6c3.5,2.3,6.9,4.8,10.2,7.3
			l4.2,3.3L187.1,193.8z"/>
		<path fill="#F49424" d="M233.3,10.9v114.4c-9.6-4.7-19.6-8.6-29.9-11.5V10.9H233.3z"/>
		<g>
			<path fill="#F49424" d="M407.3,0v194.1h-29.9v-86H274.3v35.4c-2.9,0.4-5.9,0.9-8.8,1.5c-0.2,0-0.4,0.1-0.5,0.1l-4.8-3.5
				c-1.9-1.4-3.8-2.7-5.7-4c-3.3-2.2-6.7-4.3-10.1-6.3V0h29.9v80.7h103.1V0H407.3z"/>
		</g>
	</g>
	<g id="margenes_logo" display="none">
		<line display="inline" fill="none" x1="508.9" y1="199.1" x2="451" y2="199.1"/>
		<line display="inline" fill="none" x1="0" y1="164.3" x2="-58" y2="164.3"/>
		<line display="inline" fill="none" x1="273.2" y1="463.3" x2="273.2" y2="405.3"/>
		<line display="inline" fill="none" x1="257.7" y1="-0.6" x2="257.7" y2="-58.6"/>
	</g>
</g>
<g>
</g>
<g>
</g>
<g>
</g>
<g>
</g>
<g>
</g>
<g>
</g>
</svg>
