<?xml version="1.0" encoding="utf-8"?>
<!-- Generator: Adobe Illustrator 25.2.1, SVG Export Plug-In . SVG Version: 6.00 Build 0)  -->
<!DOCTYPE svg PUBLIC "-//W3C//DTD SVG 1.1//EN" "http://www.w3.org/Graphics/SVG/1.1/DTD/svg11.dtd" [
	<!ENTITY ns_extend "http://ns.adobe.com/Extensibility/1.0/">
	<!ENTITY ns_ai "http://ns.adobe.com/AdobeIllustrator/10.0/">
	<!ENTITY ns_graphs "http://ns.adobe.com/Graphs/1.0/">
	<!ENTITY ns_vars "http://ns.adobe.com/Variables/1.0/">
	<!ENTITY ns_imrep "http://ns.adobe.com/ImageReplacement/1.0/">
	<!ENTITY ns_sfw "http://ns.adobe.com/SaveForWeb/1.0/">
	<!ENTITY ns_custom "http://ns.adobe.com/GenericCustomNamespace/1.0/">
	<!ENTITY ns_adobe_xpath "http://ns.adobe.com/XPath/1.0/">
]>
<svg version="1.1" id="Capa_1" xmlns:x="&ns_extend;" xmlns:i="&ns_ai;" xmlns:graph="&ns_graphs;"
	 xmlns="http://www.w3.org/2000/svg" xmlns:xlink="http://www.w3.org/1999/xlink" x="0px" y="0px" viewBox="0 0 320 125"
	 style="enable-background:new 0 0 320 125;" xml:space="preserve">
<style type="text/css">
	.st0{fill:#D6D7DB;}
	.st1{fill:#CECFD4;}
	.st2{fill:#00569E;}
	.st3{fill:#1F1A1B;}
	.st4{fill:#1E120E;}
	.st5{fill:#050506;}
	.st6{fill:#20120E;}
	.st7{fill:#060607;}
	.st8{fill:#070709;}
	.st9{fill:#0B0B0C;}
	.st10{fill:#0D0B0D;}
	.st11{fill:#0E0E11;}
	.st12{fill:#171717;}
	.st13{fill:#DE000A;}
	.st14{fill:#1D1A1D;}
	.st15{fill:#C8C9CE;}
	.st16{fill:#1E1B1E;}
	.st17{fill:#060606;}
	.st18{fill:#0B0B0D;}
	.st19{fill:none;}
	.st20{fill:#FFFFFF;}
	.st21{fill:#A4A2A4;}
	.st22{fill:#9C9A9E;}
	.st23{fill:#8B888B;}
	.st24{fill:#201C20;}
	.st25{fill:#292628;}
	.st26{fill:#3C393D;}
</style>
<metadata>
	<sfw  xmlns="&ns_sfw;">
		<slices></slices>
		<sliceSourceBounds  bottomLeftOrigin="true" height="110" width="301.3" x="808.2" y="494.9"></sliceSourceBounds>
	</sfw>
</metadata>
<g id="fedecop_2_">
	<path class="st0" d="M58,64.4L58,64.4c-0.4,1.1-0.7,2.3-1.1,3.5c-0.7,2.2-1.5,4.3-2.3,6.5c1.7,0,3.2,0,4.7,0
		c2.2-6.1,4.4-12.2,6.7-18.4c-2.7,0-5,0-7.3,0c-2.1,3.8-4.1,7.5-6.2,11.1c-0.1,0-0.2-0.1-0.2-0.1c0.5-3.7,0.9-7.3,1.4-11.1
		c-2.4,0-4.5,0-6.7,0c-2.2,6.1-4.4,12.2-6.7,18.4c1.5,0,2.9,0,4.3,0c1.3-3.6,2.6-7.1,3.9-10.5c0.1,0,0.2,0.1,0.3,0.1
		c-0.5,3.5-0.9,6.9-1.4,10.5c1.6,0,3,0,4.5,0c1.4-2.4,2.8-4.9,4.2-7.3C56.6,66.2,57.3,65.4,58,64.4z M74.5,74.5
		c1.3-3.5,2.5-6.8,3.8-10.4c1.2,3.7,2.2,7,3.3,10.3c1.4,0,2.6,0,3.9,0c2.2-6.1,4.4-12.2,6.7-18.4c-1.7,0-3.1,0-4.5,0
		c-1.2,3.2-2.3,6.3-3.6,9.8c-1.2-3.5-2.2-6.7-3.2-9.7c-1.5,0-2.9,0-4.2,0c-2.2,6.1-4.4,12.2-6.6,18.3C71.6,74.5,72.9,74.5,74.5,74.5
		z M166.3,110.9c1.5-1.5,2.9-2.9,4.4-4.4c0,1.6-0.7,3.2,0.8,4c1.4,0.7,2.5-0.3,3.7-1.3c-0.3,3-2,5.3-2.2,8.2c1.8,0.2,3.1,0,4.3-1.4
		c-0.9-0.1-1.5-0.2-2.4-0.3c0.6-1.8,1.2-3.4,1.5-4.4c3.2-1.5,5.8-2.7,8.3-3.9c-0.2,2.4-0.2,2.4,1,3.2c0.3-0.5,0.6-0.9,0.9-1.4
		c0.6-1.1,1.2-2.2,1.9-3.2c0.6-0.9,1-2,2.7-1.9c0.8,0.1,1.2-0.9,0.8-1.9c-2.8-0.6-3.2,2.2-4.9,3.3c0.3-1.1,0.5-2.2,0.8-3.5
		c-2.7,0-2.1,2.2-2.8,3.3c-0.3,0.2-0.7,0.5-1,0.7c-0.3,0.2-0.7,0.3-1.2,0.5c0.8-2.7,0.8-2.7-0.3-4.6c-1.3,0.7-2.5,1.4-4,2.2
		c0.3-0.8,0.7-1.5,1-2.3c-1.2-0.9-2-0.3-2.4,0.7c-0.4,0.9-0.4,1.8-0.8,2.7c-0.7,1.7-1.8,3.1-3.8,3.7c-0.6-2.4,0.4-4.2,1.6-5.9
		c-0.4-0.3-0.8-0.6-1.3-1.1c-1.6,1.6-3.1,3.2-4.7,4.8c-0.3-1.7,1.9-3.1,0.3-5c-2.2,1.1-3.4,3.4-5.3,4.8c0.2-0.9,0.6-1.8,0.8-2.7
		c0.3-1,0.2-1.9-1.3-2.1c-0.3,0.8-0.6,1.5-0.7,2.2c-0.4,2.8-2.6,3.8-4.8,4.6c-1.3,0.5-1.6,0.1-1.5-1.5c3.2-0.2,4.5-1.6,3.8-4.4
		c-0.6-0.3-1.2-0.6-1.9-1c-1.8,0.5-2.5,1.9-3.3,3.3c-1,1.8-2.6,2.8-4.6,3.9c0.1-2.8,2.2-4.5,2-7c-1.8,0-2.3,1.3-2.7,2.4
		c-0.5,1.1-0.9,2.3-1.1,3.6c-0.1,0.7,0,1.8,0.5,2.1c0.5,0.4,1.5,0.2,2.2,0c1-0.4,1.8-1.1,2.7-1.7c0.8,2,1.8,2.6,3.8,1.9
		c1.3-0.5,2.5-1.2,3.7-1.8c0.2,0.7,0.4,1.3,0.7,2.6c1.7-2,3.1-3.7,4.7-5.5C166.4,107.6,165.1,109,166.3,110.9z M129.7,56
		c-2.2,6.1-4.4,12.2-6.7,18.4c1.7,0,3.2,0,4.8,0c0.8-2.1,1.6-4.3,2.6-6.6c2.3,2.1,0.5,4.6,1.3,6.6c1.6,0,3.2,0,4.8,0
		c0-2.8,0.9-5.5-1-8c2.6-0.9,4.4-2.6,5.1-5.4c0.6-2.7-0.7-4.8-3.5-5C134.7,55.9,132.3,56,129.7,56z M30.3,56
		c-1.1,3.1-2.3,6.1-3.3,9.2c-0.5,1.4-0.9,2.8-1.1,4.2c-0.5,3.2,1.3,5.3,4.5,5.5c3.8,0.2,6.9-1.3,8.4-4.8c2-4.5,3.7-9.2,5.5-14
		c-1.8,0-3.3,0-5,0c-1.2,3.2-2.3,6.5-3.5,9.7c-0.4,1.1-0.9,2.2-1.5,3.2c-0.9,1.3-1.9,1.3-3.5,0.1c0.3-1.1,0.5-2.3,0.9-3.4
		c1.1-3.1,2.2-6.3,3.4-9.5C33.4,56,32,56,30.3,56z M96.3,73.4c2.7,1.8,5.9,2,8.7,0.8c3.6-1.5,6.4-8.2,1.5-11c-0.6-0.3-1-1-1.6-1.7
		c0.6-0.6,1.1-1.4,1.5-1.3c1.5,0.1,2.9,0.5,4.5,0.8c0.4-1.2,0.9-2.6,1.4-4.1c-1.9-1-3.8-1.3-5.7-1.1c-3.2,0.4-5.4,2.1-6.4,5.2
		c-1,3-0.1,5.1,2.6,6.7c0.5,0.3,0.9,1.2,0.9,1.8c-0.1,0.9-1,1.3-1.8,1.1c-1.3-0.3-2.5-0.8-4-1.3C97.4,70.5,96.8,71.9,96.3,73.4z
		 M11.3,73.5c3.1,1.9,6.3,2,9.4,0.2c4.2-2.4,4.5-7.5,0.8-10.5c-0.5-0.4-1-1-1.7-1.7c0.6-0.6,1.1-1.4,1.5-1.4
		c1.5,0.1,2.9,0.5,4.5,0.7c0.4-1.1,0.9-2.6,1.4-4.1c-2.4-1.2-4.7-1.5-7.1-0.8c-3,0.9-4.6,3-5.2,5.9c-0.6,2.6,0.6,4.4,2.8,5.6
		c0.2,0.1,0.4,0.3,0.5,0.4c0.9,0.9,0.5,2.3-0.7,2.5c-0.7,0.1-1.6,0-2.3-0.2c-0.8-0.3-1.5-0.8-2.3-1.3c-0.3,0.7-0.6,1.3-0.8,1.9
		C11.8,71.7,11.6,72.5,11.3,73.5z M126.4,60.5c0.6-1.6,1-2.9,1.6-4.4c-4.6,0-9.1,0-13.6,0c-0.5,1.4-1,2.8-1.6,4.5c1.6,0,2.9,0,4.3,0
		c-1.7,4.8-3.3,9.3-5,13.9c1.7,0,3.2,0,4.9,0c1.7-4.6,3.4-9.3,5.1-14C123.5,60.5,124.9,60.5,126.4,60.5z M62.2,74.4
		c1.8,0,3.3,0,4.9,0c2.2-6.1,4.4-12.2,6.7-18.4c-1.8,0-3.3,0-4.8,0C66.7,62.2,64.5,68.2,62.2,74.4z M93.2,74.5
		c2.2-6.1,4.4-12.2,6.7-18.4c-1.8,0-3.3,0-4.9,0c-2.2,6.1-4.4,12.2-6.7,18.4C90.1,74.5,91.6,74.5,93.2,74.5z M195.9,102
		c-2.4,1-4.5,4.1-4.4,6.4c0.1,1.6,0.9,2.4,2.6,2.3c2.7-0.3,4.7-1.8,6.4-3.9c0.2-0.2,0.2-0.6,0.4-1.3c-2.5,1.2-4,4-7.1,3.3
		c0-0.6-0.1-1.1-0.1-1.6c3.3,0,4.6-1.3,4.2-4.1C197.2,102.8,196.6,102.5,195.9,102z M148.4,103.4c-0.7-1.2-1.7-1.6-3-0.8
		c-0.8,0.5-1.6,1.2-2.2,2c-1.1,1.7,1.1,2.8,1.1,4.5c-1,0.1-2.3-0.5-2.5,1.2c1.3,0.9,2.3,0.8,3.6-0.2c2.4-2-0.6-3.3-0.6-5.3
		C145.9,104.3,147.1,103.9,148.4,103.4z M141.2,98.7c-2.9-0.2-4.2,1.6-2.9,4.2c0.5-0.2,1.3-0.3,1.4-0.6c0.2-0.7,0-1.4-0.1-2.3
		c0.2-0.1,0.4-0.4,0.7-0.6C140.6,99.1,140.9,98.9,141.2,98.7z M141.2,103c0.6-0.3,1.5-0.4,1.5-0.7c0.1-0.7-0.1-1.4-0.2-2.3
		c0.6-0.4,1.2-0.8,1.8-1.3C141.4,98.6,140.3,100.1,141.2,103z M151.4,98c-0.3,2.7-0.2,2.8,1.6,2.8c0-0.8,0.1-1.7,0.1-2.6
		C152.5,98.1,152,98,151.4,98z"/>
	<path class="st1" d="M157.1,16.8c-0.1,0.2-0.3,0.3-0.4,0.5c-0.2,0.3-0.4,0.6-0.6,0.8c-0.1,0.1-0.2,0.3-0.3,0.4
		c-0.2,0.3-0.4,0.6-0.6,0.9c-0.1,0.1-0.2,0.3-0.3,0.4c-0.3,0.6-0.6,1.2-0.9,1.8c-0.1,0.2-0.2,0.4-0.3,0.6c-0.2,0.5-0.4,1.1-0.6,1.6
		c-0.1,0.2-0.2,0.3-0.3,0.5c-0.1,0.3-0.1,0.6-0.2,0.9c-0.1,0.1-0.2,0.3-0.3,0.4c-0.1,0.3-0.1,0.6-0.2,0.9c-0.1,0.2-0.2,0.3-0.3,0.5
		c-0.1,0.4-0.1,0.9-0.2,1.3c-0.1,0.3-0.2,0.6-0.3,0.9c0,0.4-0.1,0.9-0.1,1.3c0,1.7,0,3.5,0,5.2c0.9,4.5,3.5,7.5,7.9,8.8
		c5.1,1.5,10.3,1.1,15.4-0.6c1.3-3.2,2.5-6.5,3.9-10c-1,0.3-1.6,0.5-2.3,0.7c-1.8,0.4-3.7,1-5.6,1.1c-6,0.3-8.6-2.9-6.9-8.7
		c1.9-6.2,7-10.2,13-9.8c2.5,0.2,5,0.7,7.7,1.1c0.3-0.7,0.8-1.8,1.3-2.8c0.1-0.3,0.3-0.6,0.4-0.8c0-0.2,0.1-0.3,0.1-0.5
		c0.1-0.2,0.2-0.3,0.3-0.5c0.1-0.3,0.1-0.5,0.2-0.8c0.1-0.1,0.2-0.3,0.3-0.4c0-0.2,0.1-0.3,0.1-0.5c0.1-0.2,0.2-0.3,0.3-0.5
		c0.2-0.6,0.4-1.1,0.6-1.7c0.1-0.2,0.2-0.3,0.3-0.5c-0.3-0.3-0.6-0.6-0.9-0.9c-0.3-0.1-0.6-0.2-1-0.3c-0.4,0-0.8-0.1-1.2-0.1
		c-0.3-0.1-0.7-0.2-1-0.3c-0.8,0-1.7-0.1-2.5-0.1c-1.8,0-3.5,0-5.3,0c-0.7,0-1.4,0.1-2.2,0.1c-0.4,0.1-0.9,0.2-1.3,0.3
		c-0.4,0-0.8,0.1-1.2,0.1c-0.3,0.1-0.6,0.2-1,0.3c-0.3,0-0.5,0.1-0.8,0.1c-0.2,0.1-0.4,0.2-0.5,0.3c-0.3,0-0.5,0.1-0.8,0.1
		c-0.2,0.1-0.3,0.2-0.5,0.3c-0.3,0.1-0.5,0.1-0.8,0.2c-0.2,0.1-0.4,0.2-0.6,0.3c-0.1,0.1-0.3,0.1-0.4,0.1c-0.2,0.1-0.3,0.2-0.5,0.3
		c-0.1,0-0.3,0.1-0.4,0.1c-0.1,0.1-0.3,0.2-0.4,0.3c-0.2,0-0.3,0.1-0.5,0.1c-0.1,0.1-0.3,0.2-0.4,0.3c-0.1,0.1-0.3,0.1-0.4,0.2
		c-0.2,0.1-0.3,0.2-0.5,0.3c-0.3,0.2-0.6,0.4-0.9,0.5c-0.2,0.1-0.3,0.2-0.5,0.4c-0.4,0.3-0.9,0.6-1.3,1c-0.2,0.1-0.3,0.3-0.5,0.4
		l0,0c-0.1,0.1-0.3,0.3-0.4,0.4l0,0c-0.1,0.1-0.3,0.3-0.4,0.4l0,0c-0.1,0.1-0.3,0.3-0.4,0.4l0,0c-0.1,0.1-0.3,0.3-0.4,0.4l0,0
		c-0.1,0.1-0.3,0.3-0.4,0.4l0,0c-0.1,0.1-0.3,0.3-0.4,0.4c0,0,0,0,0,0C157.3,16.5,157.2,16.7,157.1,16.8L157.1,16.8z"/>
	<path class="st2" d="M188.3,53.4c-5.9-0.1-9.4,2.1-11.4,7.7c-1.4,3.9-2.4,8-3.6,11.9c-0.4,1.3-0.8,2.5-1.2,3.7
		c-2.3,4.1-5.5,7.4-10.2,8.5c-2.7,0.6-5.7,0.5-8.5,0.5c-26.8,0-53.6-0.1-80.4-0.1c-20.1,0-40.2,0-60.3,0c-0.5,0-1,0-1.5,0
		c-2.5-0.1-3.1-1.2-1.7-3.8c0.8,0,1.7,0,2.6,0c35.6,0,71.2,0,106.8,0c12,0,24.1-0.1,36.1-0.1c1.6,0,3.2-0.1,4.8-0.3
		c5-0.7,7.8-3.9,9.1-8.6c0.6-1.9,1.1-3.9,1.7-5.8c0.1-0.1,0.1-0.2,0.1-0.4c0.6-1.9,1.1-3.8,1.8-5.6c1-2.8,2.4-5.3,4.3-7.5
		c2-2.3,4.5-3.7,7.5-4.2c8.7,0,17.3-0.1,26-0.1c27,0,54,0,81,0c0.8,0,1.7-0.2,2.4,0.2c0.6,0.3,1.3,1.1,1.4,1.7
		c0,0.6-0.7,1.5-1.3,1.8c-0.7,0.3-1.7,0.2-2.6,0.2c-33.4,0-66.9,0-100.3,0C190,53.1,189.1,53.3,188.3,53.4z"/>
	<path class="st2" d="M119.7,27.8c-1.1,3.2-2.9,6.1-5,8.8c-0.3,0.3-0.6,0.6-0.9,0.9c-1,0.9-2,1.8-3,2.7c-5.2,3.5-11,4.7-17.1,4.7
		c-4.8,0-9.7,0-14.5,0c-0.3,0-0.6-0.1-1.1-0.2c2.1-5.7,4.2-11.3,6.2-16.8c1.6-4.2,3.3-8.4,4.9-12.7c0.1-0.2,0.2-0.4,0.3-0.5
		c0-0.2,0.1-0.3,0.1-0.5c0.1-0.1,0.2-0.3,0.3-0.4c0.1-0.3,0.1-0.5,0.2-0.8c0.1-0.2,0.2-0.3,0.3-0.5c0.1-0.2,0.1-0.5,0.2-0.7
		c0.1-0.2,0.2-0.4,0.3-0.6c0-0.1,0.1-0.3,0.1-0.4c0.1-0.1,0.2-0.3,0.3-0.4c0.1-0.3,0.1-0.5,0.2-0.8c0.1-0.2,0.2-0.4,0.3-0.6
		C92.1,7.7,93.1,8,93.9,8c5.3,0,10.6,0,15.9,0c0.5,0.1,0.9,0.2,1.4,0.3c0.4,0,0.8,0.1,1.3,0.1c0.3,0.1,0.6,0.2,0.9,0.3
		c0.2,0,0.5,0.1,0.7,0.1c0.2,0.1,0.4,0.2,0.6,0.3c0.1,0.1,0.3,0.1,0.4,0.1c0.2,0.1,0.3,0.2,0.5,0.3c0.1,0,0.3,0.1,0.4,0.1
		c0.1,0.1,0.3,0.2,0.4,0.3c0.1,0.1,0.2,0.2,0.3,0.2c0.2,0.1,0.4,0.3,0.6,0.4l0,0c0.1,0.1,0.3,0.3,0.4,0.4l0,0
		c0.1,0.1,0.3,0.3,0.4,0.4l0,0c0.1,0.1,0.3,0.3,0.4,0.4l0,0c0.1,0.1,0.3,0.3,0.4,0.4l0,0c0.1,0.2,0.3,0.3,0.4,0.5
		c0.1,0.1,0.1,0.3,0.2,0.4c0.1,0.1,0.2,0.3,0.3,0.4c0.2,0.5,0.4,0.9,0.5,1.4c0.1,0.2,0.2,0.4,0.3,0.5c0.1,0.4,0.1,0.8,0.2,1.2
		c0.1,0.4,0.2,0.9,0.3,1.3c0,1,0,2,0,3c-0.1,0.6-0.2,1.2-0.3,1.8c0,0.4-0.1,0.8-0.1,1.2c-0.1,0.2-0.2,0.4-0.2,0.5
		c-0.1,0.4-0.1,0.8-0.2,1.2c-0.1,0.2-0.2,0.4-0.3,0.6c-0.1,0.3-0.1,0.5-0.2,0.8C119.9,27.5,119.8,27.7,119.7,27.8z M92.6,35.9
		c3.1,0.2,5.8,0.3,8.4-0.9c4.9-2.2,8.3-7.8,8.1-13.5c-0.1-2.3-1-3.8-3.3-4.3c-1.9-0.4-3.9-0.4-5.8-0.6
		C97.5,23.2,95.1,29.5,92.6,35.9z"/>
	<path class="st2" d="M60.1,16c0.3-0.8,0.6-1.7,1-2.5c0.1-0.2,0.2-0.4,0.3-0.6c0-0.1,0.1-0.3,0.1-0.4l0,0c0.1-0.1,0.2-0.3,0.3-0.4
		c0.1-0.3,0.1-0.5,0.2-0.8c0.1-0.2,0.2-0.4,0.3-0.5c0-0.2,0.1-0.3,0.1-0.5c0.1-0.1,0.2-0.3,0.3-0.4c0.1-0.3,0.1-0.6,0.2-0.9
		c0.1-0.2,0.2-0.3,0.3-0.5c0.6-0.2,1.2-0.4,1.8-0.4c6.5,0,13,0,19.6,0c0.6,0,1.6-0.5,1.6,0.8C86,9,85.9,9.2,85.8,9.3
		c-0.2,0.6-0.4,1.2-0.6,1.7c-0.1,0.2-0.2,0.3-0.3,0.5c-0.1,0.3-0.1,0.5-0.2,0.8c-0.1,0.2-0.2,0.4-0.3,0.6c0,0.2-0.1,0.3-0.1,0.5
		c-0.1,0.1-0.2,0.3-0.3,0.4c-0.4,1-0.8,2-1.3,3.2c-3.4,0-6.9,0-10.3,0c-0.4,0-0.9,0-1.4,0c-0.6,1.6-1.2,3.3-2,5.2c3.8,0,7.3,0,11,0
		c-1.2,3-2.2,5.8-3.3,8.7c-3.7,0-7.3,0-11,0c-0.6,1.7-1.2,3.3-2,5.2c4.3,0,8.2,0,12.5,0c-1.2,3.1-2.3,5.9-3.3,8.7
		c-7.9,0-15.6,0-23.6,0c0.3-1,0.5-1.7,0.8-2.5c3.2-8.2,6.3-16.4,9.5-24.6C59.8,17.1,59.9,16.5,60.1,16z"/>
	<path class="st2" d="M131.3,11.6c0.1-0.3,0.1-0.5,0.2-0.8c0.1-0.2,0.2-0.4,0.3-0.6c0-0.2,0.1-0.3,0.1-0.5c0.1-0.1,0.2-0.3,0.3-0.4
		c0.1-0.3,0.1-0.6,0.2-0.9c0.1-0.2,0.3-0.3,0.4-0.5c6.9,0,13.7,0,20.6,0c0.8,0,1.5,0.2,2.3,0.3c-0.1,0.2-0.2,0.4-0.3,0.5
		c-0.2,0.6-0.4,1.2-0.6,1.8c-0.1,0.1-0.2,0.3-0.3,0.4c-0.1,0.3-0.1,0.5-0.2,0.8c-0.1,0.2-0.2,0.4-0.3,0.6c0,0.2-0.1,0.3-0.1,0.5
		c-0.1,0.1-0.2,0.3-0.3,0.4c-0.1,0.3-0.1,0.5-0.2,0.8c-0.1,0.2-0.2,0.4-0.3,0.5c-0.1,0.2-0.1,0.5-0.2,0.7c-0.1,0.2-0.2,0.4-0.3,0.6
		c-0.1,0.1-0.1,0.2-0.1,0.4c-0.1,0.2-0.3,0.3-0.4,0.5c-3.8,0-7.7,0.1-11.5,0.1c-0.1,0.1-0.2,0.2-0.3,0.3c0,0.2-0.1,0.3-0.1,0.5
		c-0.1,0.3-0.3,0.6-0.4,0.9c-0.1,0.1-0.1,0.2-0.1,0.4c-0.1,0.2-0.2,0.3-0.3,0.5c-0.1,0.3-0.1,0.5-0.2,0.8c-0.1,0.2-0.2,0.4-0.3,0.6
		c0,0.2-0.1,0.3-0.1,0.5c-0.6,1.1,0.3,0.8,0.8,0.8c3.3,0.1,6.5,0.1,9.8,0.2c0,0.1,0,0.2,0,0.3c-0.1,0.2-0.2,0.3-0.3,0.5
		c-0.1,0.3-0.1,0.5-0.2,0.8c-0.1,0.2-0.2,0.4-0.3,0.6c0,0.1-0.1,0.3-0.1,0.4c-0.1,0.1-0.2,0.3-0.3,0.4c-0.1,0.3-0.1,0.5-0.2,0.8
		c-0.1,0.2-0.2,0.4-0.3,0.5c0,0.2-0.1,0.3-0.1,0.5c-0.1,0.1-0.2,0.3-0.3,0.4c-0.1,0.3-0.1,0.6-0.2,0.8c-0.1,0.2-0.2,0.3-0.3,0.5
		c-0.3,0.6-0.5,1.2-0.9,1.9c-3.6,0-7.1,0-10.9,0c-0.7,1.8-1.3,3.4-2.1,5.4c4.3,0,8.2,0,12.6,0c-1.2,3.1-2.2,5.8-3.4,8.7
		c-1.4,0-2.8,0-4.2,0c-5.3,0-10.5,0-15.8,0c-0.8,0-1.6,0.1-2.4,0.2c-0.3-0.1-0.7-0.2-1.2-0.3c0.8-2.3,1.6-4.5,2.4-6.7
		c1.1-2.9,2.3-5.9,3.4-8.8c0.1-0.1,0.2-0.3,0.3-0.4c0.1-0.3,0.1-0.5,0.2-0.8c0.1-0.2,0.2-0.4,0.3-0.5c0.2-0.6,0.4-1.2,0.6-1.7
		c0.1-0.2,0.2-0.3,0.3-0.5c0.1-0.2,0.1-0.5,0.2-0.7c0.1-0.2,0.2-0.4,0.3-0.6c0-0.1,0.1-0.3,0.1-0.4c0.1-0.1,0.2-0.3,0.3-0.4
		c0.1-0.3,0.1-0.5,0.2-0.8c0.1-0.2,0.2-0.3,0.3-0.5c0.1-0.2,0.1-0.5,0.2-0.7c0.1-0.2,0.2-0.4,0.3-0.6c0.1-0.1,0.1-0.3,0.1-0.4
		c0.1-0.2,0.2-0.3,0.3-0.5c0.1-0.3,0.1-0.5,0.2-0.8c0.1-0.2,0.2-0.4,0.3-0.6c0-0.1,0.1-0.3,0.1-0.4c0.1-0.1,0.2-0.3,0.3-0.4
		c0.1-0.3,0.1-0.5,0.2-0.8c0.1-0.2,0.2-0.4,0.3-0.5c0.1-0.2,0.1-0.5,0.2-0.7c0.1-0.2,0.2-0.4,0.3-0.6c0.1-0.1,0.1-0.2,0.1-0.4
		c0.1-0.2,0.2-0.3,0.3-0.5c0.1-0.3,0.1-0.5,0.2-0.8c0.1-0.2,0.2-0.4,0.3-0.6c0-0.1,0.1-0.3,0.1-0.4
		C131.2,11.9,131.3,11.7,131.3,11.6z"/>
	<path class="st2" d="M57.5,9.8c-0.1,0.1-0.1,0.2-0.1,0.3c-0.1,0.2-0.2,0.4-0.3,0.5c-0.4,1.2-0.9,2.4-1.3,3.6
		c-0.4,0.8-0.7,1.6-1.2,2.6c-3.8,0-7.8,0-11.8,0c-0.8,2.1-1.5,4-2.4,6.4c3.7,0,7,0,10.8,0c-1.2,3.2-2.3,5.9-3.4,8.8
		c-3.6,0-7.1,0-10.8,0c-1.7,4.3-3.3,8.4-5,12.7c-3.6,0-7.2,0-11,0c0.2-0.6,0.3-1.2,0.5-1.8c4.3-11.1,8.6-22.2,12.9-33.3
		C34.7,8.9,34.8,8,35.9,8c6.2,0,12.3,0,18.5,0c0.3,0,0.6,0,0.8,0c0.7,0,1.3,0,2,0.1c0.3,0.1,0.5,0.5,0.7,0.8
		C57.8,9.2,57.7,9.5,57.5,9.8z"/>
	<path class="st3" d="M209.9,55.5c0.1,0.1,0.2,0.2,0.3,0.2c0.2,0.2,0.4,0.3,0.5,0.5c0.1,0.7,0.4,1.4,0.4,2.1c0,7.6,0,15.2,0,22.8
		c0,2.5-0.6,3.1-3.1,3.1c-5.9,0-11.9,0-17.8,0c-0.8,0-1.6,0.1-2.4,0.1c-0.9-0.2-1.7-0.3-2.6-0.5c-0.8-0.9-1.1-2-1-3.2
		c0-7.3,0-14.7,0-22c0-2.5,0.6-3.2,3.3-3.2c4.1-0.1,8.2,0,12.3,0c3.2,0,6.3,0,9.5,0C209.6,55.3,209.7,55.4,209.9,55.5z M191.5,63.1
		c0.5-1.6,0.9-2.9,1.3-4c1.8-2.1,3.5-0.6,5.2,0.1c0.1,0.4,0.1,0.8,0.2,1.3c1.2,0,2.3-0.1,3.4,0c2.5,0.2,4.3,1.1,5.1,3.7
		c0.4,1.3,1,2.6,1.6,3.8c0.5,1,0.2,1.5-0.8,1.9c-0.6-1.2-1.2-2.4-1.8-3.6c0.7,2.4-0.2,4.5-0.8,6.7c-0.7,2.5-0.8,5-0.4,7.7
		c0.5,0,0.9,0.1,1.4,0.1c0.2,0.6,0.3,1.2,0.5,1.7c1.2,0,2.4,0,3.4,0c0-8.6,0-17,0-25.3c-2.3-0.6-22.3-0.6-24,0c0,8.3,0,16.7,0,25.2
		c0.6,0.1,1.2,0.3,1.7,0.3c2.1,0.1,4.3,0.2,6.4,0.1c1,0,2.4,0,2.8-0.6c0.7-1,1.6-2.1,1.4-3.7c-0.4-2.6-0.2-5.2,0.5-7.8
		c0.6-2.1,0.1-2.6-2.3-2.9c0.5,3.3-0.7,6.6,0.7,9.6c-1.3,0.8-2.6,1.5-3.9,2.2c-1.8,1-3.6,1.7-6.1,1c3-1.4,5.5-2.5,8-3.7
		c-0.5-4.5-1-8.8-1.5-13.1C192.8,63.5,192.1,63.3,191.5,63.1z M201.4,75.9c-0.2,0-0.3,0-0.5,0.1c-0.3,1.6-0.8,3.3,0.8,4.8
		C201.6,79.1,201.5,77.5,201.4,75.9z"/>
	<path class="st4" d="M58,64.4c-0.6,0.9-1.3,1.8-1.9,2.8c-1.4,2.4-2.8,4.8-4.2,7.3c-1.5,0-2.9,0-4.5,0c0.5-3.6,0.9-7,1.4-10.5
		c-0.1,0-0.2-0.1-0.3-0.1c-1.3,3.5-2.6,7-3.9,10.5c-1.4,0-2.8,0-4.3,0c2.2-6.2,4.4-12.3,6.7-18.4c2.2,0,4.3,0,6.7,0
		c-0.5,3.8-1,7.4-1.4,11.1c0.1,0,0.2,0.1,0.2,0.1c2-3.7,4.1-7.4,6.2-11.1c2.3,0,4.6,0,7.3,0c-2.2,6.2-4.4,12.2-6.7,18.4
		c-1.5,0-3,0-4.7,0c0.8-2.2,1.6-4.4,2.3-6.5C57.3,66.8,57.6,65.6,58,64.4c0.1-0.2,0.2-0.4,0.3-0.6c-0.1,0-0.2-0.1-0.3-0.1
		C58,63.9,58,64.2,58,64.4z"/>
	<path class="st4" d="M74.5,74.5c-1.5,0-2.9,0-4.5,0c2.2-6.2,4.4-12.2,6.6-18.3c1.4,0,2.8,0,4.2,0c1,3.1,2,6.2,3.2,9.7
		c1.3-3.5,2.4-6.6,3.6-9.8c1.4,0,2.8,0,4.5,0c-2.2,6.2-4.4,12.2-6.7,18.4c-1.3,0-2.5,0-3.9,0c-1-3.3-2.1-6.6-3.3-10.3
		C77,67.7,75.7,71,74.5,74.5z"/>
	<path class="st5" d="M166.3,110.9c-1.2-1.9,0.1-3.4,0-5.1c-1.6,1.8-3,3.4-4.7,5.5c-0.4-1.3-0.5-1.9-0.7-2.6
		c-1.2,0.6-2.4,1.4-3.7,1.8c-2,0.7-2.9,0.2-3.8-1.9c-0.9,0.6-1.7,1.3-2.7,1.7c-0.7,0.3-1.7,0.4-2.2,0c-0.5-0.4-0.6-1.4-0.5-2.1
		c0.2-1.2,0.6-2.4,1.1-3.6c0.5-1.1,0.9-2.4,2.7-2.4c0.1,2.4-2,4.2-2,7c2-1.1,3.6-2.1,4.6-3.9c0.8-1.4,1.6-2.8,3.3-3.3
		c0.7,0.3,1.3,0.7,1.9,1c0.7,2.7-0.6,4.1-3.8,4.4c-0.1,1.6,0.2,2,1.5,1.5c2.2-0.8,4.4-1.8,4.8-4.6c0.1-0.8,0.5-1.5,0.7-2.2
		c1.6,0.2,1.6,1.1,1.3,2.1c-0.3,0.9-0.6,1.7-0.8,2.7c1.9-1.5,3-3.7,5.3-4.8c1.5,1.9-0.6,3.3-0.3,5c1.6-1.6,3.1-3.2,4.7-4.8
		c0.5,0.4,0.9,0.7,1.3,1.1c-1.2,1.8-2.2,3.5-1.6,5.9c2-0.6,3.1-2,3.8-3.7c0.3-0.9,0.4-1.9,0.8-2.7c0.5-1,1.2-1.6,2.4-0.7
		c-0.3,0.8-0.7,1.5-1,2.3c1.4-0.8,2.7-1.5,4-2.2c1.1,1.9,1.1,1.9,0.3,4.6c0.5-0.2,0.9-0.3,1.2-0.5c0.4-0.2,0.7-0.5,1-0.7
		c0.7-1.2,0.2-3.3,2.8-3.3c-0.3,1.3-0.5,2.3-0.8,3.5c1.6-1.1,2.1-3.9,4.9-3.3c0.4,1,0,2-0.8,1.9c-1.6-0.2-2,1-2.7,1.9
		c-0.7,1-1.3,2.1-1.9,3.2c-0.3,0.5-0.6,0.9-0.9,1.4c-1.2-0.9-1.2-0.9-1-3.2c-2.6,1.2-5.2,2.4-8.3,3.9c-0.3,1-0.9,2.6-1.5,4.4
		c0.9,0.1,1.5,0.2,2.4,0.3c-1.2,1.4-2.6,1.6-4.3,1.4c0.2-2.9,1.9-5.2,2.2-8.2c-1.2,1-2.3,2-3.7,1.3c-1.5-0.8-0.7-2.3-0.8-4
		C169.1,108.1,167.8,109.4,166.3,110.9z M177.2,108.9c2.9-0.6,3.8-1.6,4.3-4.8C179.3,105.2,178.1,106.7,177.2,108.9z M156.1,105.5
		c0.1,0.1,0.3,0.3,0.4,0.4c1-0.2,1.7-0.6,1.2-2.2C157.1,104.3,156.6,104.9,156.1,105.5z"/>
	<path class="st6" d="M148.7,56c0.8-0.1,1.6-0.2,2.3-0.3c2.1-0.2,3.8,0.6,5.1,2.1c1.9,5.7,0,10.5-4,14.6c-1.8,1.8-4.2,2.6-6.8,2.5
		c-2.9-0.1-4.7-1.8-5.1-4.7C139.6,65.8,142.3,58.1,148.7,56z M145,67.4c0.5,0.9,0.8,2.1,1.4,2.4c0.7,0.3,1.9-0.1,2.5-0.6
		c1.9-1.8,2.7-4.1,2.7-6.7c0-1.6-1.3-2.3-2.8-1.5c-0.5,0.2-1.1,0.6-1.3,1.1C146.6,63.7,145.9,65.5,145,67.4z"/>
	<path class="st6" d="M129.7,56c2.6,0,5-0.1,7.4,0c2.8,0.2,4.1,2.2,3.5,5c-0.6,2.7-2.4,4.4-5.1,5.4c1.9,2.5,1,5.2,1,8
		c-1.6,0-3.2,0-4.8,0c-0.8-2,1-4.5-1.3-6.6c-0.9,2.4-1.7,4.5-2.6,6.6c-1.6,0-3.1,0-4.8,0C125.3,68.2,127.5,62.1,129.7,56z
		 M131.7,63.4c2.4,0,3.7-0.9,3.6-2.2c-0.1-1.2-0.9-1.4-2.2-1.1C132.7,61.1,132.2,62.2,131.7,63.4z"/>
	<path class="st4" d="M30.3,56c1.7,0,3.1,0,4.8,0c-1.2,3.3-2.3,6.4-3.4,9.5c-0.4,1.1-0.6,2.4-0.9,3.4c1.6,1.2,2.6,1.2,3.5-0.1
		c0.6-1,1.1-2.1,1.5-3.2c1.2-3.2,2.4-6.4,3.5-9.7c1.7,0,3.2,0,5,0c-1.9,4.8-3.5,9.5-5.5,14c-1.6,3.5-4.6,5-8.4,4.8
		c-3.2-0.2-4.9-2.3-4.5-5.5c0.2-1.4,0.6-2.9,1.1-4.2C28,62.2,29.2,59.2,30.3,56z"/>
	<path class="st6" d="M96.3,73.4c0.5-1.4,1.1-2.9,1.5-4.1c1.5,0.5,2.7,1,4,1.3c0.9,0.2,1.7-0.2,1.8-1.1c0-0.6-0.4-1.5-0.9-1.8
		c-2.6-1.6-3.6-3.7-2.6-6.7c1-3.1,3.2-4.8,6.4-5.2c1.9-0.2,3.8,0,5.7,1.1c-0.5,1.5-1,2.9-1.4,4.1c-1.6-0.3-3-0.7-4.5-0.8
		c-0.4,0-0.9,0.8-1.5,1.3c0.6,0.7,1,1.4,1.6,1.7c4.9,2.9,2.1,9.5-1.5,11C102.2,75.3,99,75.2,96.3,73.4z"/>
	<path class="st6" d="M11.3,73.5c0.3-0.9,0.6-1.8,0.9-2.6c0.2-0.6,0.5-1.2,0.8-1.9c0.8,0.5,1.5,1,2.3,1.3c0.7,0.2,1.6,0.4,2.3,0.2
		c1.2-0.2,1.6-1.6,0.7-2.5c-0.1-0.2-0.3-0.3-0.5-0.4c-2.2-1.2-3.4-3-2.8-5.6c0.6-2.9,2.2-5.1,5.2-5.9c2.4-0.7,4.7-0.4,7.1,0.8
		c-0.5,1.5-1,2.9-1.4,4.1c-1.6-0.3-3.1-0.7-4.5-0.7c-0.4,0-0.9,0.8-1.5,1.4c0.7,0.7,1.1,1.2,1.7,1.7c3.7,3,3.4,8.1-0.8,10.5
		C17.6,75.5,14.4,75.4,11.3,73.5z"/>
	<path class="st6" d="M159.7,59.6c3.2-4.1,6.9-5.1,11.6-2.8c-0.5,1.4-1,2.8-1.5,4.2c-1.2-0.4-2.2-0.9-3.3-1c-0.7-0.1-1.6,0.4-2,0.9
		c-0.6,0.8,0.1,1.5,0.7,2c0.6,0.5,1.3,1,1.9,1.5c0,0,0,0,0,0c1.5,2.6,1.2,5.6-0.7,7.9c-0.4,0.4-0.8,0.9-1.2,1.3
		c-3.3,1.6-6.5,1.9-9.9-0.1c0.5-1.5,1.1-3,1.5-4.3c1.5,0.5,2.8,1.1,4.1,1.3c0.5,0.1,1.5-0.5,1.6-1c0.2-0.5-0.4-1.2-0.7-1.9
		c-0.1-0.2-0.4-0.2-0.5-0.3c-2.5-1.8-3-3.1-2.2-6C159.4,60.7,159.6,60.2,159.7,59.6z"/>
	<path class="st4" d="M126.4,60.5c-1.6,0-2.9,0-4.4,0c-1.7,4.7-3.4,9.4-5.1,14c-1.6,0-3.1,0-4.9,0c1.7-4.6,3.3-9.1,5-13.9
		c-1.4,0-2.6,0-4.3,0c0.6-1.7,1.1-3.1,1.6-4.5c4.6,0,9,0,13.6,0C127.4,57.5,127,58.9,126.4,60.5z"/>
	<path class="st4" d="M62.2,74.4c2.3-6.3,4.5-12.3,6.7-18.4c1.6,0,3.1,0,4.8,0c-2.2,6.2-4.4,12.2-6.7,18.4
		C65.5,74.4,64,74.4,62.2,74.4z"/>
	<path class="st4" d="M93.2,74.5c-1.6,0-3.1,0-4.8,0c2.2-6.2,4.4-12.3,6.7-18.4c1.6,0,3.1,0,4.9,0C97.6,62.3,95.4,68.4,93.2,74.5z"
		/>
	<path class="st7" d="M214.8,101.8c0.2,0.3,0.3,0.6,0.4,0.8c-0.5,1.1-1,2-1.5,2.9c0.1,0.1,0.2,0.1,0.3,0.2c0.7-0.7,1.5-1.4,2.2-2
		c0.7-0.6,1.5-1.2,2.3-1.8c0.8,0.2,1.2,0.6,0.8,1.5c-0.4,0.8-0.6,1.6-0.9,2.4c-0.2,0.7-0.4,1.4-0.6,2.2c0,0.4,0.1,0.9,0.1,1.3
		c0.2,0.1,0.3,0.2,0.5,0.3c1.4-1.3,2.8-2.6,4.4-4c0.2,1.8-1.3,2.5-1.9,3.8c-1.3,0.9-2.5,2.4-4.8,1c0.1-1.5,0.2-3.1,0.3-5.2
		c-1.6,1.9-3,3.7-4.7,5.8c-0.3-1.1-0.5-1.7-0.6-2.2c-1.3,0.6-2.6,1.4-4.1,1.9c-2.5,0.7-3.9-0.7-3.2-3.2c0.6-2.3,1.6-4.4,4-5.4
		c0.8,0.4,1.4,0.8,2.1,1.2c0.4,2.9-0.5,3.8-4.1,4.2c0,1.6,0.7,2.1,2.2,1.4c2.3-1.2,4.5-2.6,4.6-5.6
		C213.1,102.4,213.5,101.5,214.8,101.8L214.8,101.8z M206.2,105.5c1.3,0.1,2-0.4,1.6-1.8C207.3,104.3,206.8,104.9,206.2,105.5z"/>
	<path class="st8" d="M195.9,102c0.7,0.4,1.3,0.8,1.9,1.2c0.5,2.8-0.8,4.1-4.2,4.1c0,0.5,0,1,0.1,1.6c3.1,0.7,4.6-2.1,7.1-3.3
		c-0.2,0.7-0.3,1-0.4,1.3c-1.7,2.1-3.6,3.6-6.4,3.9c-1.6,0.2-2.5-0.7-2.6-2.3C191.4,106.1,193.5,103,195.9,102z M194.2,105.5
		c1.4,0.2,2.2-0.2,1.9-2.1C195.3,104.3,194.7,104.9,194.2,105.5z"/>
	<path class="st9" d="M148.4,103.4c-1.4,0.5-2.5,1-3.6,1.4c0,2.1,3,3.4,0.6,5.3c-1.3,1.1-2.3,1.1-3.6,0.2c0.1-1.6,1.5-1.1,2.5-1.2
		c0-1.7-2.2-2.8-1.1-4.5c0.5-0.8,1.3-1.6,2.2-2C146.7,101.8,147.7,102.1,148.4,103.4z"/>
	<path class="st10" d="M141.2,98.7c-0.3,0.2-0.7,0.5-1,0.7c-0.3,0.2-0.5,0.5-0.7,0.6c0.1,0.9,0.3,1.6,0.1,2.3
		c-0.1,0.3-0.9,0.4-1.4,0.6C137,100.3,138.3,98.5,141.2,98.7z"/>
	<path class="st11" d="M141.2,103c-0.9-2.8,0.2-4.4,3.1-4.2c-0.6,0.4-1.3,0.9-1.8,1.3c0.1,0.8,0.4,1.6,0.2,2.3
		C142.7,102.6,141.8,102.7,141.2,103z"/>
	<path class="st12" d="M151.4,98c0.6,0.1,1.1,0.1,1.7,0.2c0,1-0.1,1.8-0.1,2.6C151.2,100.7,151.1,100.7,151.4,98z"/>
	<path class="st2" d="M281.4,44.7c-3.8,0-7.3,0-11.1,0c4.6-12.3,9.1-24.4,13.7-36.7c4.4,0,8.8,0,13.2,0c1.7,0,3.4,0.1,5,0.3
		c6.9,1,8.8,5.7,7.4,11.9c-1.5,6.7-6.9,11.4-14.6,12.4c-3,0.4-6.1,0.4-9.3,0.6C284.3,37,282.9,40.8,281.4,44.7z M289,24.7
		c3.6,0.7,6.1,0.1,7.6-2c1.1-1.4,1.9-3,1-4.9c-0.8-1.7-2.4-1.7-3.9-1.8c-0.5,0-1,0.1-1.6,0.1C291.1,19,290.1,21.8,289,24.7z"/>
	<path class="st13" d="M222.8,35.8c-0.2,0.2-0.4,0.5-0.6,0.7c-0.2,0.2-0.3,0.4-0.5,0.6l0,0c-0.2,0.2-0.3,0.3-0.5,0.5l0,0
		c-0.2,0.2-0.3,0.3-0.5,0.5c-0.4,0.4-0.8,0.7-1.2,1.1c-0.1,0.1-0.2,0.2-0.3,0.3l-0.1,0c-0.1,0.1-0.3,0.3-0.4,0.4l0,0
		c-0.2,0.1-0.3,0.3-0.5,0.4l0,0c-0.2,0.1-0.4,0.3-0.6,0.4c-0.1,0-0.2,0-0.3,0.2c-0.1,0.1-0.3,0.2-0.4,0.3c-0.3,0.2-0.6,0.4-0.9,0.6
		c-0.1,0.1-0.3,0.2-0.4,0.3c-0.3,0.2-0.6,0.3-0.9,0.5c-0.2,0.1-0.4,0.2-0.6,0.3c-0.1,0-0.2,0-0.3,0.1c-0.2,0.1-0.4,0.2-0.6,0.3
		c-0.5,0.2-1.1,0.4-1.6,0.7c-0.1,0.1-0.3,0.2-0.4,0.3c-0.2,0-0.3,0.1-0.5,0.1c-0.2,0.1-0.4,0.2-0.5,0.3c-0.3,0.1-0.5,0.1-0.8,0.2
		c-0.2,0.1-0.4,0.2-0.6,0.3c-0.3,0.1-0.5,0.1-0.8,0.2c-0.3,0.1-0.6,0.2-0.9,0.3c-0.3,0-0.6,0.1-0.9,0.1c-0.3,0.1-0.6,0.2-1,0.3
		c-0.6,0.1-1.1,0.1-1.7,0.2c-0.5,0.1-1,0.2-1.5,0.3c-3-0.1-6.1,0.1-9.2-0.8c1.4-3.4,3.4-6.3,5.7-8.9c3.4-3.7,6.9-7.3,10.4-10.9
		c0.2-0.3,0.5-0.5,0.7-0.8c1.9-1.9,3.8-3.9,5.7-5.8l0,0c0.1-0.1,0.3-0.3,0.4-0.4l0,0c0.1-0.1,0.3-0.3,0.4-0.4l0,0
		c0.1-0.1,0.2-0.2,0.3-0.4c0.1-0.1,0.2-0.2,0.2-0.3c0.3-0.3,0.6-0.7,0.9-1l0,0c0.1-0.2,0.3-0.3,0.4-0.5l0,0c0.1-0.1,0.2-0.3,0.3-0.4
		c0.1-0.1,0.2-0.3,0.3-0.4c0.8-1.1,1.5-2.3,2.3-3.4c3.8,0.9,6.7,4.7,7.1,9.2c0.3,3.1-0.6,5.9-1.6,8.8c-0.1,0.1-0.1,0.2-0.1,0.4
		c-0.1,0.2-0.2,0.3-0.3,0.5c0,0.1-0.1,0.3-0.1,0.4c-0.1,0.2-0.2,0.3-0.3,0.5c-0.1,0.1-0.2,0.2-0.1,0.4c-0.2,0.3-0.4,0.6-0.5,0.9l0,0
		c-0.1,0.2-0.2,0.4-0.4,0.6l0,0c-0.1,0.1-0.2,0.3-0.3,0.4c-0.2,0.3-0.4,0.5-0.6,0.8c-0.1,0.2-0.3,0.4-0.4,0.5c0,0,0,0,0,0
		c-0.1,0.1-0.2,0.3-0.4,0.4l-0.1,0.1C223,35.5,222.9,35.6,222.8,35.8z"/>
	<path class="st13" d="M236.6,43.7c0.1-0.1,0.1-0.3,0.2-0.4c0.1-0.2,0.2-0.3,0.3-0.5c0.1-0.1,0.2-0.2,0.1-0.4
		c0.2-0.3,0.4-0.6,0.5-0.9l0,0c0.1-0.2,0.2-0.4,0.4-0.6l0,0c0.1-0.1,0.2-0.3,0.3-0.4c0.1-0.1,0.2-0.2,0.2-0.3
		c0.1-0.2,0.2-0.4,0.4-0.6c0,0,0,0,0,0c0.1-0.1,0.2-0.3,0.3-0.4c0.1-0.1,0.2-0.3,0.3-0.4c4.5-5.9,9.9-11,15.2-16.2
		c3.7-3.6,7.5-7.2,9.8-12.1c4.2,1.9,6.7,4.9,7.1,9.4c0.5,6.3-2.2,11.4-6.4,15.8c-2.1,2.1-4.6,3.8-6.9,5.7c-0.1,0.1-0.3,0.1-0.4,0.2
		c-0.1,0.1-0.3,0.2-0.4,0.3c-0.1,0.1-0.3,0.1-0.4,0.2c-0.1,0.1-0.3,0.2-0.4,0.3c0,0,0,0,0,0c-0.6,0.3-1.2,0.6-1.9,0.8l-0.2,0
		l-0.2,0.1c-0.2,0.1-0.4,0.2-0.6,0.3c-0.2,0.1-0.5,0.1-0.7,0.2c-0.2,0.1-0.4,0.2-0.6,0.3c-0.2,0.1-0.5,0.1-0.7,0.2
		c-0.3,0.1-0.6,0.2-0.9,0.3c-0.3,0-0.5,0.1-0.8,0.1c-0.3,0.1-0.7,0.2-1,0.3c-0.4,0-0.8,0.1-1.2,0.1c-0.6,0.1-1.2,0.2-1.9,0.3
		c-2,0-4,0-5.9,0c-0.6-0.1-1.3-0.2-1.9-0.3c-0.4,0-0.8-0.1-1.3-0.1c-0.2-0.2-0.3-0.3-0.5-0.5c0.1-0.1,0.1-0.2,0-0.3
		C236.5,44.1,236.6,43.9,236.6,43.7z"/>
	<path class="st13" d="M227.8,31.8c0.1-0.4,0.1-0.9,0.2-1.3c1.7-5.7,4.8-10.5,9.3-14.3c6.4-5.4,13.8-7.9,22.2-6.7
		c0.5,1.4-0.5,2.3-1.1,3.2c-2.5,3-5.1,5.9-7.6,8.8c-3.5,4.2-7.1,8.4-10.5,12.7c-0.8,1-1.4,2.2-2.1,3.3c-0.1,0.1-0.1,0.3-0.2,0.4
		c-0.1,0.1-0.2,0.3-0.3,0.4c-0.1,0.1-0.2,0.2-0.2,0.4c-0.1,0.2-0.2,0.3-0.3,0.5c-0.1,0.1-0.1,0.2-0.1,0.4c-0.1,0.2-0.2,0.3-0.3,0.5
		c-0.1,0.1-0.2,0.2-0.1,0.4c-0.1,0.2-0.2,0.3-0.3,0.5c-0.1,0.1-0.2,0.2-0.1,0.4c-0.1,0.2-0.2,0.3-0.3,0.5c-0.1,0.2-0.1,0.5-0.2,0.7
		c-0.1,0.2-0.2,0.4-0.3,0.6c-0.3,0.3-0.5,0.6-0.8,0.8c-0.2-0.1-0.4-0.2-0.6-0.3c-0.1,0-0.3-0.1-0.4-0.1c-0.1-0.1-0.3-0.2-0.4-0.3
		c-0.1-0.1-0.3-0.1-0.4-0.2c-0.2-0.1-0.3-0.2-0.5-0.3c-0.1-0.1-0.2-0.2-0.3-0.1c-0.2-0.1-0.4-0.3-0.6-0.4l0,0
		c-0.2-0.1-0.3-0.3-0.5-0.4l0,0c-0.1-0.1-0.3-0.3-0.4-0.4l-0.1-0.1c-0.1-0.1-0.3-0.3-0.4-0.4l0,0c-0.1-0.2-0.3-0.3-0.4-0.5l0,0
		c-0.1-0.2-0.3-0.4-0.4-0.5c0-0.1-0.1-0.3-0.2-0.3c-0.1-0.1-0.2-0.3-0.3-0.4c-0.1-0.2-0.1-0.3-0.2-0.5c-0.1-0.2-0.2-0.3-0.3-0.5
		c0-0.2,0-0.3-0.1-0.4c-0.1-0.3-0.2-0.6-0.3-0.9c0-0.3-0.1-0.6-0.1-0.8C227.9,34.8,227.9,33.3,227.8,31.8z"/>
	<path class="st13" d="M197.7,14.2c0.1,0,0.3,0,0.3-0.2c0.2-0.1,0.3-0.2,0.5-0.3c0.2,0,0.3,0,0.4-0.2c0.7-0.4,1.5-0.8,2.2-1.2
		c0.2,0,0.3-0.1,0.5-0.1c0.2-0.1,0.3-0.2,0.5-0.3c0.1,0,0.3-0.1,0.4-0.1c0.2-0.1,0.4-0.2,0.6-0.3c0.3-0.1,0.5-0.1,0.8-0.2
		c0.2-0.1,0.4-0.2,0.5-0.3c0.1,0,0.2,0,0.3-0.1c1-0.2,2.1-0.5,3.1-0.7c0.4-0.1,0.9-0.1,1.3-0.2c2.5,0,4.9,0,7.9,0
		c-0.9,1.7-1.5,2.9-2.1,4c-0.1,0-0.2,0.1-0.1,0.2c-1.4,1.7-2.9,3.4-4.3,5c-7.2,7.7-14.6,15.2-18.5,25.3c-4.5-1.2-7.3-4.8-7.4-9.4
		c-0.1-4.5,1.6-8.4,4.1-12.1c0.5-0.8,1.1-1.6,1.6-2.3c0.1-0.2,0.3-0.3,0.4-0.5l0,0c0.1-0.2,0.3-0.3,0.4-0.5l0,0
		c0.1-0.2,0.3-0.3,0.4-0.5c0,0,0,0,0,0c0.1-0.1,0.3-0.3,0.4-0.4c0,0,0,0,0,0c0.1-0.1,0.3-0.3,0.4-0.4l0,0c0.1-0.1,0.3-0.3,0.4-0.4
		l0,0c0.1-0.1,0.3-0.3,0.4-0.4c0,0,0,0,0,0c0.2-0.1,0.3-0.3,0.5-0.4l0,0c0.2-0.1,0.3-0.3,0.5-0.4l0,0c0.2-0.2,0.4-0.3,0.5-0.5
		c0.3-0.2,0.5-0.4,0.8-0.6c0.1-0.1,0.3-0.2,0.4-0.3c0.3-0.2,0.6-0.4,0.9-0.6c0.1-0.1,0.2-0.2,0.4-0.3l0,0
		C197.3,14.5,197.5,14.4,197.7,14.2z"/>
	<path class="st14" d="M292.8,81.1c0,0.4-0.1,0.8-0.1,1.2c-0.1,0.2-0.2,0.3-0.3,0.5c-0.1,0.1-0.2,0.2-0.2,0.4
		c-0.2,0.2-0.3,0.3-0.5,0.5c-0.2,0-0.3,0-0.4,0.2c-0.2,0.1-0.3,0.2-0.5,0.3c-7.9,0-15.8,0-23.7,0c-0.2-0.1-0.3-0.2-0.5-0.3
		c-1-0.7-0.9-1.7-0.9-2.8c0-7,0-14,0-21c0-0.8,0-1.6-0.1-2.4c0-1.4,0.8-2.1,2.2-2.3c0.8-0.1,1.6-0.2,2.4-0.2c6.1,0,12.2,0,18.2,0
		c0.4,0,0.7,0,1.1,0c2.1,0.3,3.1,1.3,3.1,3.5c0,6.7,0,13.3,0,20C292.7,79.5,292.8,80.3,292.8,81.1z M272.8,65.6
		c0.8-0.5,1.4-0.8,1.9-1.2c0.5-0.3,1.3-0.6,1.5-1.1c1-2,2.8-3.2,4.6-4.2c2.9-1.7,6.5-1.1,8.7,1.3c-2.2,0.2-4.8-1.6-6.3,1.2
		c0.3,2.6,1,4.9,2.8,6.8c1.7,1.8,3.2,3.9,5.3,5.7c0-5.7,0-11.1,0-16.4c0-0.2-0.2-0.4-0.3-0.6c-2.2-0.6-21.8-0.5-23.8,0.1
		c0,3.6,0,7.3,0,11.1c1.3,0.1,2.6,0.1,3.9,0.2c0,1.2,0,2.2,0,3.4c-1.3,0-2.5,0-3.7,0c0,0.2,0,0.3,0,0.5c2.9,0,5.9,0,8.9,0
		c0,1.2,0,2.2,0,3.5c-3,0-5.9,0-8.8,0c0,0.2,0,0.3,0,0.5c1.2,0,2.4,0,3.6,0c0,1.1,0,1.9,0,2.8c-1.4,0.1-2.6,0.2-3.9,0.3
		c0,0.2,0,0.5,0,0.7c3,0,6,0,9,0c0.1,0.9,0.2,1.5,0.3,2.1c0.1,0,0.1,0,0.2,0c0.1-0.8,0.2-1.5,0.3-2.4c1.5,0,2.9,0,4.2,0
		c0.2,0.9,0.3,1.7,0.5,2.5c0.1,0,0.3-0.1,0.4-0.1c0-0.8,0.1-1.6,0.1-2.4c1.6,0,3,0,4.5,0c0.1,1,0.2,1.9,0.3,2.8c0.1,0,0.2,0,0.2,0
		c0.1-0.8,0.2-1.7,0.3-2.5c0.9-0.1,1.7-0.2,2.9-0.3c-0.9-1.5-1.5-2.8-2.3-4c-1.7-2.4-3.7-4.7-5.3-7.3c-1.2-1.9-2.8-2.7-4.9-2.6
		c-0.9,0.8-1.7,1.6-2.7,2.5C274.3,67.6,273.6,66.7,272.8,65.6z"/>
	<path class="st2" d="M187.1,12c0,0.2-0.1,0.3-0.1,0.5c-0.1,0.1-0.2,0.3-0.3,0.4c-0.1,0.3-0.1,0.5-0.2,0.8c-0.1,0.2-0.2,0.3-0.3,0.5
		c0,0.2-0.1,0.3-0.1,0.5c-0.1,0.3-0.3,0.6-0.4,0.8c-0.5,1-1,2.1-1.3,2.8c-2.7-0.4-5.2-0.9-7.7-1.1c-6-0.4-11.1,3.6-13,9.8
		c-1.7,5.8,0.8,9,6.9,8.7c1.9-0.1,3.7-0.7,5.6-1.1c0.7-0.2,1.3-0.4,2.3-0.7c-1.4,3.5-2.7,6.8-3.9,10c-5.2,1.7-10.3,2.1-15.4,0.6
		c-4.4-1.2-7.1-4.3-7.9-8.8c0-1.7,0-3.5,0-5.2c0-0.4,0.1-0.9,0.1-1.3c0.1-0.3,0.2-0.6,0.3-0.9c0.1-0.4,0.1-0.9,0.2-1.3
		c0.1-0.2,0.2-0.3,0.3-0.5c0.1-0.3,0.1-0.6,0.2-0.9c0.1-0.1,0.2-0.3,0.3-0.4c0.1-0.3,0.1-0.6,0.2-0.9c0.1-0.2,0.2-0.3,0.3-0.5
		c0.2-0.5,0.4-1.1,0.6-1.6c0.1-0.2,0.2-0.4,0.3-0.6c0.3-0.6,0.6-1.2,0.9-1.8c0.1-0.1,0.2-0.3,0.3-0.4c0.2-0.3,0.4-0.6,0.6-0.9
		c0.1-0.1,0.2-0.3,0.3-0.4c0.2-0.3,0.4-0.6,0.6-0.8c0.1-0.2,0.3-0.3,0.4-0.5l0,0c0.1-0.2,0.3-0.3,0.4-0.5l0,0
		c0.1-0.1,0.3-0.3,0.4-0.4l0,0c0.1-0.1,0.3-0.3,0.4-0.4l0,0c0.1-0.1,0.3-0.3,0.4-0.4l0,0c0.1-0.1,0.3-0.3,0.4-0.4c0,0,0,0,0,0
		c0.1-0.1,0.3-0.3,0.4-0.4l0,0c0.1-0.1,0.3-0.3,0.4-0.4l0,0c0.2-0.1,0.3-0.3,0.5-0.4c0.4-0.3,0.9-0.6,1.3-1c0.2-0.1,0.3-0.2,0.5-0.4
		c0.3-0.2,0.6-0.4,0.9-0.5c0.2-0.1,0.3-0.2,0.5-0.3c0.1-0.1,0.3-0.1,0.4-0.2c0.1-0.1,0.3-0.2,0.4-0.3c0.2,0,0.3-0.1,0.5-0.1
		c0.1-0.1,0.3-0.2,0.4-0.3c0.1,0,0.3-0.1,0.4-0.1c0.2-0.1,0.3-0.2,0.5-0.3c0.1,0,0.3,0,0.4-0.1c0.2-0.1,0.4-0.2,0.6-0.3
		c0.3-0.1,0.5-0.1,0.8-0.2c0.2-0.1,0.3-0.2,0.5-0.3c0.3,0,0.5-0.1,0.8-0.1c0.2-0.1,0.4-0.2,0.5-0.3c0.3,0,0.5-0.1,0.8-0.1
		c0.3-0.1,0.6-0.2,1-0.3c0.4,0,0.8-0.1,1.2-0.1c0.4-0.1,0.9-0.2,1.3-0.3c0.7,0,1.4-0.1,2.2-0.1c1.8,0,3.5,0,5.3,0
		c0.8,0,1.7,0.1,2.5,0.1c0.3,0.1,0.7,0.2,1,0.3c0.4,0,0.8,0.1,1.2,0.1c0.3,0.1,0.6,0.2,1,0.3c0.3,0.3,0.6,0.6,0.9,0.9
		c-0.1,0.2-0.2,0.3-0.3,0.5c-0.2,0.6-0.4,1.1-0.6,1.7C187.3,11.6,187.2,11.8,187.1,12z"/>
	<path class="st15" d="M181.7,7.5c-1.8,0-3.5,0-5.3,0C178.2,7.5,179.9,7.5,181.7,7.5z"/>
	<path class="st15" d="M151.2,30.5c0,1.7,0,3.5,0,5.2C151.2,34,151.2,32.3,151.2,30.5z"/>
	<path class="st15" d="M227.8,31.8c0,1.5,0,2.9,0,4.4C227.9,34.8,227.9,33.3,227.8,31.8z"/>
	<path class="st0" d="M113.9,37.5c0.3-0.3,0.6-0.6,0.9-0.9c0.1,0.5,0.2,1,0.2,1.5c-0.2,0-0.3,0.1-0.5,0.1
		C114.3,38,114.1,37.8,113.9,37.5z"/>
	<path class="st15" d="M254.7,43.2c0.6-0.3,1.2-0.6,1.9-0.8C256.4,43.6,255.5,43.2,254.7,43.2z"/>
	<path class="st15" d="M245.9,45.4c0.6-0.1,1.2-0.2,1.9-0.3C247.2,45.2,246.5,45.3,245.9,45.4z"/>
	<path class="st15" d="M121,23c0.1-0.6,0.2-1.2,0.3-1.8C121.2,21.8,121.1,22.4,121,23z"/>
	<path class="st15" d="M238.1,45.1c0.6,0.1,1.3,0.2,1.9,0.3C239.4,45.3,238.7,45.2,238.1,45.1z"/>
	<path class="st15" d="M174.3,7.6c-0.4,0.1-0.9,0.2-1.3,0.3C173.4,7.8,173.8,7.7,174.3,7.6z"/>
	<path class="st15" d="M111.2,8.4c-0.5-0.1-0.9-0.2-1.4-0.3C110.3,8.2,110.8,8.3,111.2,8.4z"/>
	<path class="st15" d="M217.9,16.4c-0.3,0.3-0.6,0.7-0.9,1C217.3,17.1,217.6,16.8,217.9,16.4z"/>
	<path class="st15" d="M121.3,18.2c-0.1-0.4-0.2-0.9-0.3-1.3C121.1,17.3,121.2,17.8,121.3,18.2z"/>
	<path class="st15" d="M202.3,46.3c0.5-0.1,1-0.2,1.5-0.3C203.2,46.1,202.7,46.2,202.3,46.3z"/>
	<path class="st0" d="M55.3,8c-0.3,0-0.6,0-0.8,0C54.7,8,55,8,55.3,8z"/>
	<path class="st15" d="M185.2,7.9c-0.3-0.1-0.7-0.2-1-0.3C184.5,7.7,184.9,7.8,185.2,7.9z"/>
	<path class="st15" d="M171.7,8.1c-0.3,0.1-0.6,0.2-1,0.3C171,8.3,171.4,8.2,171.7,8.1z"/>
	<path class="st15" d="M187.4,8.4c-0.3-0.1-0.6-0.2-1-0.3C186.8,8.2,187.1,8.3,187.4,8.4z"/>
	<path class="st15" d="M113.4,8.8c-0.3-0.1-0.6-0.2-0.9-0.3C112.8,8.6,113.1,8.7,113.4,8.8z"/>
	<path class="st15" d="M185.7,15.5c0.1-0.3,0.3-0.6,0.4-0.8C186,14.9,185.9,15.2,185.7,15.5z"/>
	<path class="st15" d="M57.5,9.8c0.1-0.3,0.3-0.6,0.4-0.9C57.8,9.2,57.7,9.5,57.5,9.8z"/>
	<path class="st15" d="M139.9,18.6c0.1-0.3,0.3-0.6,0.4-0.9C140.2,18,140.1,18.3,139.9,18.6z"/>
	<path class="st15" d="M237.8,41.6c-0.2,0.3-0.4,0.6-0.5,0.9C237.4,42.2,237.6,41.9,237.8,41.6z"/>
	<path class="st15" d="M250.8,44.6c0.3-0.1,0.6-0.2,0.9-0.3C251.4,44.3,251.1,44.5,250.8,44.6z"/>
	<path class="st15" d="M228,37.1c0.1,0.3,0.2,0.6,0.3,0.9C228.2,37.7,228.1,37.4,228,37.1z"/>
	<path class="st15" d="M249,45c0.3-0.1,0.7-0.2,1-0.3C249.7,44.8,249.3,44.9,249,45z"/>
	<path class="st15" d="M207.2,45.5c0.3-0.1,0.6-0.2,0.9-0.3C207.8,45.2,207.5,45.4,207.2,45.5z"/>
	<path class="st15" d="M225.2,32.6c0.2-0.3,0.4-0.6,0.5-0.9C225.6,32,225.4,32.3,225.2,32.6z"/>
	<path class="st15" d="M151.6,28.3c-0.1,0.3-0.2,0.6-0.3,0.9C151.4,28.9,151.5,28.6,151.6,28.3z"/>
	<path class="st15" d="M205.4,45.9c0.3-0.1,0.6-0.2,1-0.3C206.1,45.7,205.7,45.8,205.4,45.9z"/>
	<path class="st15" d="M131.8,10.2c-0.1,0.2-0.2,0.4-0.3,0.6C131.6,10.6,131.7,10.4,131.8,10.2z"/>
	<path class="st15" d="M165.4,10.2c-0.1,0.1-0.3,0.2-0.4,0.3C165.1,10.4,165.3,10.3,165.4,10.2z"/>
	<path class="st15" d="M62.2,10.7c-0.1,0.2-0.2,0.4-0.3,0.5C62,11.1,62.1,10.9,62.2,10.7z"/>
	<path class="st15" d="M117.9,11.1c-0.1-0.1-0.3-0.3-0.4-0.4C117.6,10.8,117.7,10.9,117.9,11.1z"/>
	<path class="st15" d="M154.5,11.1c0.1-0.1,0.2-0.3,0.3-0.4C154.7,10.8,154.6,10.9,154.5,11.1z"/>
	<path class="st15" d="M164.5,10.7c-0.1,0.1-0.3,0.2-0.4,0.3C164.3,10.9,164.4,10.8,164.5,10.7z"/>
	<path class="st15" d="M84.9,11.5c0.1-0.2,0.2-0.3,0.3-0.5C85.1,11.2,85,11.4,84.9,11.5z"/>
	<path class="st15" d="M90.9,11.1c-0.1,0.2-0.2,0.4-0.3,0.6C90.7,11.5,90.8,11.3,90.9,11.1z"/>
	<path class="st15" d="M118.3,11.5c-0.1-0.1-0.3-0.3-0.4-0.4C118,11.2,118.2,11.4,118.3,11.5z"/>
	<path class="st15" d="M163.7,11.1c-0.2,0.1-0.3,0.2-0.5,0.3C163.4,11.4,163.6,11.2,163.7,11.1z"/>
	<path class="st15" d="M204.3,11.2c-0.2,0.1-0.4,0.2-0.5,0.3C203.9,11.3,204.1,11.2,204.3,11.2z"/>
	<path class="st15" d="M131.3,11.6c-0.1,0.1-0.2,0.3-0.3,0.4C131.2,11.9,131.3,11.7,131.3,11.6z"/>
	<path class="st15" d="M187.1,12c0.1-0.2,0.2-0.3,0.3-0.5C187.3,11.6,187.2,11.8,187.1,12z"/>
	<path class="st15" d="M203,11.6c-0.2,0.1-0.4,0.2-0.6,0.3C202.6,11.8,202.8,11.7,203,11.6z"/>
	<path class="st15" d="M61.7,12c-0.1,0.1-0.2,0.3-0.3,0.4C61.6,12.3,61.7,12.2,61.7,12z"/>
	<path class="st15" d="M119.2,12.4c-0.1-0.1-0.3-0.3-0.4-0.4C118.9,12.1,119,12.3,119.2,12.4z"/>
	<path class="st15" d="M154.1,12.4c0.1-0.2,0.2-0.4,0.3-0.6C154.3,12.1,154.2,12.2,154.1,12.4z"/>
	<path class="st15" d="M162.4,12c-0.2,0.1-0.3,0.2-0.5,0.4C162.1,12.2,162.2,12.1,162.4,12z"/>
	<path class="st15" d="M202,12c-0.2,0.1-0.3,0.2-0.5,0.3C201.7,12.2,201.9,12.1,202,12z"/>
	<path class="st15" d="M84.5,12.9c0.1-0.2,0.2-0.4,0.3-0.6C84.7,12.5,84.6,12.7,84.5,12.9z"/>
	<path class="st15" d="M90.4,12.5c-0.1,0.2-0.2,0.3-0.3,0.5C90.2,12.8,90.3,12.6,90.4,12.5z"/>
	<path class="st15" d="M119.6,12.9c-0.1-0.2-0.3-0.3-0.4-0.5C119.3,12.6,119.4,12.8,119.6,12.9z"/>
	<path class="st15" d="M131,12.4c-0.1,0.2-0.2,0.4-0.3,0.6C130.8,12.8,130.9,12.6,131,12.4z"/>
	<path class="st15" d="M186.7,12.8c0.1-0.1,0.2-0.3,0.3-0.4C186.9,12.6,186.8,12.7,186.7,12.8z"/>
	<path class="st15" d="M61,12.9c0.1,0,0.2,0,0.3,0c-0.1,0.2-0.2,0.4-0.3,0.6C61.1,13.3,61,13.1,61,12.9z"/>
	<path class="st15" d="M153.7,13.3c0.1-0.1,0.2-0.3,0.3-0.4C153.9,13,153.8,13.2,153.7,13.3z"/>
	<path class="st15" d="M84.1,13.7c0.1-0.1,0.2-0.3,0.3-0.4C84.3,13.5,84.2,13.6,84.1,13.7z"/>
	<path class="st15" d="M120,13.7c-0.1-0.1-0.2-0.3-0.3-0.4C119.9,13.5,120,13.6,120,13.7z"/>
	<path class="st15" d="M160.6,13.3c-0.2,0.1-0.3,0.3-0.5,0.4C160.3,13.6,160.4,13.5,160.6,13.3z"/>
	<path class="st15" d="M89.9,13.8c-0.1,0.1-0.2,0.3-0.3,0.4C89.7,14.1,89.8,13.9,89.9,13.8z"/>
	<path class="st15" d="M130.5,13.8c-0.1,0.2-0.2,0.3-0.3,0.5C130.3,14.1,130.4,13.9,130.5,13.8z"/>
	<path class="st15" d="M160.1,13.7c-0.1,0.1-0.3,0.3-0.4,0.4C159.8,14,160,13.9,160.1,13.7z"/>
	<path class="st15" d="M186.3,14.2c0.1-0.2,0.2-0.3,0.3-0.5C186.4,13.8,186.3,14,186.3,14.2z"/>
	<path class="st15" d="M198.5,13.8c-0.2,0.1-0.3,0.2-0.5,0.3C198.2,14,198.4,13.9,198.5,13.8z"/>
	<path class="st15" d="M153.2,14.6c0.1-0.2,0.2-0.4,0.3-0.5C153.4,14.3,153.3,14.4,153.2,14.6z"/>
	<path class="st15" d="M159.6,14.2c-0.1,0.1-0.3,0.3-0.4,0.4C159.4,14.4,159.5,14.3,159.6,14.2z"/>
	<path class="st15" d="M197.7,14.2c-0.2,0.1-0.4,0.2-0.6,0.4C197.3,14.5,197.5,14.4,197.7,14.2z"/>
	<path class="st15" d="M89.5,14.7c-0.1,0.2-0.2,0.4-0.3,0.5C89.3,15,89.4,14.8,89.5,14.7z"/>
	<path class="st15" d="M130.1,14.6c-0.1,0.2-0.2,0.4-0.3,0.6C129.9,15.1,130,14.9,130.1,14.6z"/>
	<path class="st15" d="M159.2,14.6c-0.1,0.1-0.3,0.3-0.4,0.4C158.9,14.9,159.1,14.8,159.2,14.6z"/>
	<path class="st15" d="M197.1,14.6c-0.1,0.1-0.2,0.2-0.4,0.3C196.8,14.8,197,14.7,197.1,14.6z"/>
	<path class="st15" d="M120.9,15.6c-0.1-0.2-0.2-0.4-0.3-0.5C120.7,15.3,120.8,15.5,120.9,15.6z"/>
	<path class="st15" d="M158.8,15.1c-0.1,0.1-0.3,0.3-0.4,0.4C158.5,15.3,158.6,15.2,158.8,15.1z"/>
	<path class="st15" d="M152.7,16c0.1-0.2,0.2-0.4,0.3-0.6C152.9,15.5,152.8,15.7,152.7,16z"/>
	<path class="st15" d="M158.3,15.5c-0.1,0.1-0.3,0.3-0.4,0.4C158,15.8,158.2,15.6,158.3,15.5z"/>
	<path class="st15" d="M195.8,15.5c-0.1,0.1-0.3,0.2-0.4,0.3C195.5,15.8,195.7,15.6,195.8,15.5z"/>
	<path class="st15" d="M218.6,15.5c-0.1,0.1-0.2,0.3-0.3,0.4C218.4,15.8,218.5,15.7,218.6,15.5z"/>
	<path class="st15" d="M129.6,16c-0.1,0.2-0.2,0.4-0.3,0.5C129.4,16.3,129.5,16.2,129.6,16z"/>
	<path class="st15" d="M157.9,15.9c-0.1,0.1-0.3,0.3-0.4,0.4C157.6,16.2,157.7,16.1,157.9,15.9z"/>
	<path class="st15" d="M218.3,16c-0.1,0.2-0.3,0.3-0.4,0.5C218,16.3,218.1,16.1,218.3,16z"/>
	<path class="st15" d="M152.2,16.8c0.1-0.2,0.3-0.3,0.4-0.5C152.5,16.5,152.4,16.7,152.2,16.8z"/>
	<path class="st15" d="M157.5,16.4c-0.1,0.2-0.3,0.3-0.4,0.5C157.2,16.7,157.3,16.5,157.5,16.4z"/>
	<path class="st15" d="M194.6,16.4c-0.2,0.2-0.4,0.3-0.5,0.5C194.3,16.8,194.4,16.6,194.6,16.4z"/>
	<path class="st15" d="M118.7,11.9c-0.1-0.1-0.3-0.3-0.4-0.4C118.5,11.7,118.6,11.8,118.7,11.9z"/>
	<path class="st15" d="M140.4,17.3c0.1-0.1,0.2-0.2,0.3-0.3C140.6,17.1,140.5,17.2,140.4,17.3z"/>
	<path class="st15" d="M157.1,16.8c-0.1,0.2-0.3,0.3-0.4,0.5C156.8,17.2,156.9,17,157.1,16.8z"/>
	<path class="st15" d="M194.1,16.9c-0.2,0.1-0.3,0.3-0.5,0.4C193.8,17.1,193.9,17,194.1,16.9z"/>
	<path class="st15" d="M129.2,17.3c-0.1,0.1-0.2,0.3-0.3,0.4C129,17.6,129.1,17.4,129.2,17.3z"/>
	<path class="st15" d="M193.6,17.3c-0.2,0.1-0.3,0.3-0.5,0.4C193.3,17.6,193.5,17.4,193.6,17.3z"/>
	<path class="st15" d="M193.2,17.7c-0.1,0.1-0.3,0.3-0.4,0.4C192.9,18,193,17.9,193.2,17.7z"/>
	<path class="st15" d="M216.8,17.7c-0.1,0.1-0.2,0.2-0.3,0.4C216.6,18,216.7,17.9,216.8,17.7z"/>
	<path class="st15" d="M128.8,18.2c-0.1,0.2-0.2,0.4-0.3,0.6C128.6,18.6,128.7,18.4,128.8,18.2z"/>
	<path class="st15" d="M156.1,18.2c-0.1,0.1-0.2,0.3-0.3,0.4C155.8,18.5,155.9,18.3,156.1,18.2z"/>
	<path class="st15" d="M192.7,18.1c-0.1,0.1-0.3,0.3-0.4,0.4C192.4,18.4,192.5,18.3,192.7,18.1z"/>
	<path class="st15" d="M216.5,18.1c-0.1,0.1-0.3,0.3-0.4,0.4C216.2,18.4,216.3,18.3,216.5,18.1z"/>
	<path class="st15" d="M192.2,18.6c-0.1,0.1-0.3,0.3-0.4,0.4C192,18.8,192.1,18.7,192.2,18.6z"/>
	<path class="st15" d="M216.1,18.6c-0.1,0.1-0.3,0.3-0.4,0.4C215.8,18.9,215.9,18.7,216.1,18.6z"/>
	<path class="st15" d="M139.6,19.5c0.1-0.2,0.2-0.3,0.3-0.5C139.8,19.1,139.7,19.3,139.6,19.5z"/>
	<path class="st15" d="M191.8,19c-0.1,0.1-0.3,0.3-0.4,0.4C191.5,19.3,191.7,19.2,191.8,19z"/>
	<path class="st15" d="M128.3,19.5c-0.1,0.2-0.2,0.3-0.3,0.5C128.1,19.8,128.2,19.7,128.3,19.5z"/>
	<path class="st15" d="M155.2,19.5c-0.1,0.1-0.2,0.3-0.3,0.4C155,19.8,155.1,19.6,155.2,19.5z"/>
	<path class="st15" d="M191.4,19.5c-0.1,0.2-0.3,0.3-0.4,0.5C191.1,19.8,191.2,19.6,191.4,19.5z"/>
	<path class="st15" d="M191,19.9c-0.1,0.2-0.3,0.3-0.4,0.5C190.7,20.2,190.8,20.1,191,19.9z"/>
	<path class="st15" d="M127.9,20.4c-0.1,0.2-0.2,0.4-0.3,0.6C127.7,20.8,127.8,20.6,127.9,20.4z"/>
	<path class="st15" d="M139.1,20.8c0.1-0.2,0.2-0.4,0.3-0.6C139.3,20.4,139.2,20.6,139.1,20.8z"/>
	<path class="st15" d="M190.6,20.4c-0.1,0.2-0.3,0.3-0.4,0.5C190.3,20.7,190.4,20.5,190.6,20.4z"/>
	<path class="st15" d="M127.4,21.7c-0.1,0.2-0.2,0.3-0.3,0.5C127.2,22,127.3,21.9,127.4,21.7z"/>
	<path class="st15" d="M153.9,21.7c-0.1,0.2-0.2,0.4-0.3,0.6C153.7,22.1,153.8,21.9,153.9,21.7z"/>
	<path class="st15" d="M149.3,23c0.1-0.2,0.2-0.3,0.3-0.5C149.4,22.7,149.4,22.8,149.3,23z"/>
	<path class="st15" d="M126.9,23c-0.1,0.1-0.2,0.3-0.3,0.4C126.7,23.3,126.8,23.2,126.9,23z"/>
	<path class="st15" d="M126.5,23.9c-0.1,0.2-0.2,0.4-0.3,0.6C126.4,24.3,126.5,24.1,126.5,23.9z"/>
	<path class="st15" d="M148.8,24.3c0.1-0.2,0.2-0.4,0.3-0.6C149,23.9,148.9,24.1,148.8,24.3z"/>
	<path class="st15" d="M152.9,23.9c-0.1,0.2-0.2,0.3-0.3,0.5C152.7,24.2,152.8,24.1,152.9,23.9z"/>
	<path class="st15" d="M120.6,24.7c0.1-0.2,0.2-0.4,0.2-0.5C120.8,24.4,120.7,24.6,120.6,24.7z"/>
	<path class="st15" d="M148.4,25.2c0.1-0.1,0.2-0.3,0.3-0.4C148.6,24.9,148.5,25,148.4,25.2z"/>
	<path class="st15" d="M126.1,25.2c-0.1,0.2-0.2,0.3-0.3,0.5C125.9,25.5,126,25.4,126.1,25.2z"/>
	<path class="st15" d="M237.1,42.8c-0.1,0.2-0.2,0.3-0.3,0.5C236.9,43.2,237,43,237.1,42.8z"/>
	<path class="st15" d="M235.6,43.3c0.1-0.2,0.2-0.4,0.3-0.6C235.8,42.9,235.7,43.1,235.6,43.3z"/>
	<path class="st15" d="M232.4,42.9c0.2,0.1,0.3,0.2,0.5,0.3C232.7,43.1,232.5,43,232.4,42.9z"/>
	<path class="st15" d="M213.3,43.2c0.2-0.1,0.4-0.2,0.6-0.3C213.7,43,213.5,43.1,213.3,43.2z"/>
	<path class="st15" d="M231.5,42.4c0.2,0.1,0.4,0.3,0.6,0.4C231.9,42.6,231.7,42.5,231.5,42.4z"/>
	<path class="st15" d="M214.2,42.8c0.2-0.1,0.4-0.2,0.6-0.3C214.6,42.5,214.4,42.7,214.2,42.8z"/>
	<path class="st15" d="M256.6,42.4c0.1-0.1,0.3-0.2,0.4-0.3C256.9,42.2,256.8,42.3,256.6,42.4z"/>
	<path class="st15" d="M231,42c0.2,0.1,0.3,0.3,0.5,0.4C231.4,42.2,231.2,42.1,231,42z"/>
	<path class="st15" d="M257.5,41.9c0.1-0.1,0.3-0.2,0.4-0.3C257.8,41.7,257.6,41.8,257.5,41.9z"/>
	<path class="st15" d="M236,41.9c0.1-0.2,0.2-0.3,0.3-0.5C236.2,41.6,236.1,41.8,236,41.9z"/>
	<path class="st15" d="M230.6,41.6c0.1,0.1,0.3,0.3,0.4,0.4C230.9,41.8,230.7,41.7,230.6,41.6z"/>
	<path class="st15" d="M215.6,41.9c0.1-0.1,0.3-0.2,0.4-0.3C215.9,41.7,215.8,41.8,215.6,41.9z"/>
	<path class="st15" d="M238.1,41.1c-0.1,0.2-0.2,0.4-0.4,0.6C237.9,41.4,238,41.2,238.1,41.1z"/>
	<path class="st15" d="M230.2,41.1c0.1,0.1,0.3,0.3,0.4,0.4C230.4,41.4,230.3,41.2,230.2,41.1z"/>
	<path class="st15" d="M238.4,40.6c-0.1,0.1-0.2,0.3-0.3,0.4C238.2,40.9,238.3,40.8,238.4,40.6z"/>
	<path class="st15" d="M236.4,41.1c0.1-0.2,0.2-0.3,0.3-0.5C236.6,40.7,236.5,40.9,236.4,41.1z"/>
	<path class="st15" d="M229.7,40.6c0.1,0.2,0.3,0.3,0.4,0.5C230,40.9,229.9,40.8,229.7,40.6z"/>
	<path class="st15" d="M217,41.1c0.1-0.1,0.3-0.2,0.4-0.3C217.2,40.8,217.1,41,217,41.1z"/>
	<path class="st15" d="M229.3,40.1c0.1,0.2,0.3,0.4,0.4,0.5C229.6,40.4,229.5,40.2,229.3,40.1z"/>
	<path class="st15" d="M217.7,40.6c0.2-0.1,0.4-0.3,0.6-0.4C218.1,40.3,217.9,40.4,217.7,40.6z"/>
	<path class="st15" d="M239,39.7c-0.1,0.2-0.2,0.4-0.4,0.6C238.7,40.1,238.8,39.9,239,39.7z"/>
	<path class="st15" d="M236.9,40.2c0.1-0.2,0.2-0.3,0.3-0.5C237.1,39.8,237,40,236.9,40.2z"/>
	<path class="st15" d="M239.3,39.3c-0.1,0.1-0.2,0.3-0.3,0.4C239.1,39.6,239.2,39.4,239.3,39.3z"/>
	<path class="st15" d="M228.9,39.3c0.1,0.1,0.2,0.3,0.3,0.4C229.1,39.6,229,39.4,228.9,39.3z"/>
	<path class="st15" d="M218.7,39.7c0.1-0.1,0.3-0.3,0.4-0.4C219,39.5,218.9,39.6,218.7,39.7z"/>
	<path class="st15" d="M237.3,39.3c0.1-0.2,0.2-0.3,0.3-0.5C237.5,39,237.4,39.1,237.3,39.3z"/>
	<path class="st15" d="M219.2,39.3c0.1-0.1,0.2-0.2,0.3-0.3C219.5,39.1,219.4,39.2,219.2,39.3z"/>
	<path class="st15" d="M228.4,38.4c0.1,0.2,0.2,0.3,0.3,0.5C228.6,38.7,228.5,38.5,228.4,38.4z"/>
	<path class="st15" d="M237.8,38.4c0.1-0.1,0.2-0.3,0.3-0.4C238,38.1,237.9,38.3,237.8,38.4z"/>
	<path class="st15" d="M220.8,37.9c0.2-0.2,0.3-0.3,0.5-0.5C221.2,37.6,221,37.8,220.8,37.9z"/>
	<path class="st15" d="M132.8,8c-0.1,0.2-0.3,0.3-0.4,0.5C132.5,8.4,132.7,8.2,132.8,8z"/>
	<path class="st15" d="M208.9,45c0.2-0.1,0.4-0.2,0.6-0.3C209.3,44.8,209.1,44.9,208.9,45z"/>
	<path class="st15" d="M236.4,44.5c0.2,0.2,0.3,0.3,0.5,0.5C236.7,44.9,236.5,44.7,236.4,44.5z"/>
	<path class="st15" d="M63.1,8.5C63,8.6,62.9,8.8,62.8,9C62.9,8.8,63,8.6,63.1,8.5z"/>
	<path class="st15" d="M155.4,8.9c0.1-0.2,0.2-0.4,0.3-0.5C155.6,8.5,155.5,8.7,155.4,8.9z"/>
	<path class="st15" d="M221.3,37.5c0.2-0.2,0.3-0.3,0.5-0.5C221.6,37.2,221.4,37.3,221.3,37.5z"/>
	<path class="st15" d="M169.9,8.5c-0.2,0.1-0.4,0.2-0.5,0.3C169.6,8.7,169.8,8.6,169.9,8.5z"/>
	<path class="st15" d="M85.8,9.3C85.9,9.2,86,9,86.1,8.8C86,9,85.9,9.2,85.8,9.3z"/>
	<path class="st15" d="M91.7,8.9c-0.1,0.2-0.2,0.4-0.3,0.6C91.6,9.3,91.6,9.1,91.7,8.9z"/>
	<path class="st15" d="M114.7,9.3c-0.2-0.1-0.4-0.2-0.6-0.3C114.4,9.1,114.6,9.2,114.7,9.3z"/>
	<path class="st15" d="M221.7,37.1c0.2-0.2,0.3-0.4,0.5-0.6C222,36.7,221.9,36.9,221.7,37.1z"/>
	<path class="st15" d="M218.2,40.2c0.2-0.1,0.3-0.3,0.5-0.4C218.6,39.9,218.4,40,218.2,40.2z"/>
	<path class="st15" d="M222.8,35.8c0.1-0.1,0.2-0.2,0.3-0.3C223,35.5,222.9,35.6,222.8,35.8z"/>
	<path class="st15" d="M223.2,35.4c0.1-0.1,0.2-0.3,0.4-0.4C223.5,35.1,223.3,35.2,223.2,35.4z"/>
	<path class="st15" d="M223.6,34.9c0.1-0.2,0.3-0.4,0.4-0.5C223.9,34.6,223.7,34.7,223.6,34.9z"/>
	<path class="st15" d="M168.6,8.9c-0.2,0.1-0.3,0.2-0.5,0.3C168.2,9.1,168.4,9,168.6,8.9z"/>
	<path class="st15" d="M224.5,33.6c0.1-0.1,0.2-0.3,0.3-0.4C224.8,33.3,224.7,33.4,224.5,33.6z"/>
	<path class="st15" d="M236.6,43.7c-0.1,0.2-0.2,0.3-0.3,0.5C236.5,44.1,236.6,43.9,236.6,43.7z"/>
	<path class="st15" d="M224.9,33.1c0.1-0.2,0.2-0.4,0.4-0.6C225.1,32.8,225,32.9,224.9,33.1z"/>
	<path class="st15" d="M115.6,9.7c-0.2-0.1-0.3-0.2-0.5-0.3C115.3,9.5,115.5,9.6,115.6,9.7z"/>
	<path class="st15" d="M132.2,9.4c-0.1,0.1-0.2,0.3-0.3,0.4C132,9.6,132.1,9.5,132.2,9.4z"/>
	<path class="st15" d="M225.9,31.4c0.1-0.2,0.2-0.3,0.3-0.5C226.1,31,226,31.2,225.9,31.4z"/>
	<path class="st15" d="M226.3,30.5c0.1-0.2,0.2-0.3,0.3-0.5C226.5,30.2,226.4,30.3,226.3,30.5z"/>
	<path class="st15" d="M234.2,43.8c0.2,0.1,0.4,0.2,0.6,0.3C234.5,44,234.3,43.9,234.2,43.8z"/>
	<path class="st15" d="M167.3,9.4c-0.2,0.1-0.4,0.2-0.6,0.3C166.9,9.6,167.1,9.5,167.3,9.4z"/>
	<path class="st15" d="M188,9.8c0.1-0.2,0.2-0.3,0.3-0.5C188.2,9.4,188.1,9.6,188,9.8z"/>
	<path class="st15" d="M124.7,28.8c-0.1,0.1-0.2,0.3-0.3,0.4C124.5,29,124.6,28.9,124.7,28.8z"/>
	<path class="st15" d="M62.6,9.8c-0.1,0.1-0.2,0.3-0.3,0.4C62.4,10.1,62.5,10,62.6,9.8z"/>
	<path class="st15" d="M116.5,10.1c-0.1-0.1-0.3-0.2-0.4-0.3C116.2,9.9,116.4,10,116.5,10.1z"/>
	<path class="st15" d="M147,28.7c0.1-0.2,0.2-0.3,0.3-0.5C147.2,28.4,147.1,28.5,147,28.7z"/>
	<path class="st15" d="M125.2,27.4c-0.1,0.2-0.2,0.4-0.3,0.5C125,27.8,125.1,27.6,125.2,27.4z"/>
	<path class="st15" d="M119.7,27.8c0.1-0.2,0.2-0.3,0.3-0.5C119.9,27.5,119.8,27.7,119.7,27.8z"/>
	<path class="st15" d="M147.5,27.4c0.1-0.1,0.2-0.3,0.3-0.4C147.7,27.1,147.6,27.3,147.5,27.4z"/>
	<path class="st15" d="M252.5,44.1c0.2-0.1,0.4-0.2,0.6-0.3C252.9,43.9,252.7,44,252.5,44.1z"/>
	<path class="st15" d="M166.3,9.8c-0.2,0.1-0.3,0.2-0.5,0.3C166,10,166.2,9.9,166.3,9.8z"/>
	<path class="st15" d="M152.1,26.6c-0.1,0.2-0.2,0.3-0.3,0.5C151.9,26.9,152,26.7,152.1,26.6z"/>
	<path class="st15" d="M147.9,26.5c0.1-0.2,0.2-0.4,0.3-0.5C148.1,26.2,148,26.3,147.9,26.5z"/>
	<path class="st15" d="M211.3,44.2c0.1-0.1,0.3-0.2,0.4-0.3C211.5,44,211.4,44.1,211.3,44.2z"/>
	<path class="st15" d="M57.2,10.7c0.1-0.2,0.2-0.4,0.3-0.5C57.4,10.3,57.3,10.5,57.2,10.7z"/>
	<path class="st15" d="M210.2,44.5c0.2-0.1,0.4-0.2,0.5-0.3C210.6,44.4,210.4,44.5,210.2,44.5z"/>
	<path class="st15" d="M91.3,10.2c-0.1,0.1-0.2,0.3-0.3,0.4C91.1,10.5,91.2,10.4,91.3,10.2z"/>
	<path class="st15" d="M120.2,26.5c0.1-0.2,0.2-0.4,0.3-0.6C120.3,26.1,120.3,26.3,120.2,26.5z"/>
	<path class="st15" d="M253.8,43.6c0.2-0.1,0.4-0.2,0.6-0.3C254.2,43.4,254,43.5,253.8,43.6z"/>
	<path class="st15" d="M233.3,43.4c0.1,0.1,0.3,0.2,0.4,0.3C233.6,43.6,233.4,43.5,233.3,43.4z"/>
	<path class="st15" d="M117.4,10.7c-0.2-0.1-0.4-0.3-0.6-0.4C117,10.4,117.2,10.5,117.4,10.7z"/>
	<path class="st15" d="M152.5,25.2c-0.1,0.1-0.2,0.3-0.3,0.4C152.3,25.5,152.4,25.4,152.5,25.2z"/>
	<path class="st16" d="M226.9,55.2c7.7,0,15.3,0,23,0c0.3,0.2,0.7,0.3,1,0.5l0,0c0.2,0.1,0.3,0.3,0.5,0.4c0,0,0,0,0,0
		c0.1,0.2,0.3,0.4,0.4,0.5c0,8.4,0.1,16.7,0,25c0,0.8-0.6,1.6-0.9,2.3c-0.2,0.1-0.3,0.2-0.5,0.3c-7.4,0-14.8-0.1-22.2,0
		c-1.4,0-2.4-0.3-2.9-1.7c0-8.5,0-17,0-25.5c0-0.1,0.1-0.3,0.1-0.4c0.1-0.2,0.3-0.3,0.4-0.5c0,0,0,0,0,0c0.1-0.1,0.3-0.3,0.4-0.4
		c0,0,0,0,0,0C226.4,55.5,226.6,55.3,226.9,55.2z M238.1,75.8c0.1-0.1,0.2-0.1,0.3-0.2c-0.1,0-0.2-0.1-0.3-0.1
		C238.2,75.7,238.1,75.8,238.1,75.8c-0.1,0.1-0.2,0.1-0.3,0.1c0,0.1,0.1,0.2,0.1,0.2C238,76.1,238,75.9,238.1,75.8z M245.6,77.2
		c-0.1-0.3-0.2-0.6-0.2-0.7c-1.7,0.3-3.3,0.5-4.5,0.7c-0.3,0.4-0.4,0.6-0.5,0.8c-0.6-0.3-1.3-0.6-2-1c-1.2,1.5-0.5,2.8,0,4.2
		c0.5,1.2,1.5,1.4,2.7,1.4c2.1-0.1,4.3,0,6.4-0.1c1,0,2-0.1,3.1-0.2c0-8.6,0-17,0-25.3c-2.1-0.6-22-0.6-24,0
		c-0.1,0.8-0.2,1.6-0.2,2.5c0,6.7,0,13.3,0,20c0,0.5,0,1,0,1.5c0,0.9,0.4,1.4,1.3,1.5c2.4,0,4.8,0,6.9,0c0.5-3.8,1-7.2,1.5-10.7
		c0,0.7,0.2,1.4,0.1,2.1c-0.3,2.8-0.3,5.6,1.2,8.2c-0.2-2.7-0.4-5.2-0.5-7.7c-0.1-0.9,0.1-1.9,0-2.9c0-0.3-0.5-0.6-0.7-0.8
		c-0.3-0.1-0.6-0.2-0.9-0.3c-2.1-0.4-4.1-0.9-6.2-1.3c-0.4-0.6-0.9-1.2-1.4-1.9c3-0.7,5.6-1.9,8.3-0.1c0.3,0.6,0.6,1.1,0.9,1.8
		c0.5-2.9,0.3-5.6-1.6-7.8c0,0,0,0,0,0c0.7,0.2,1.3,0.5,2,0.7c0.8-2.2,1.3-2.3,7.6-1.4c-0.8,0.8-1.4,1.4-2.1,2
		c-0.1,0-0.2-0.1-0.3-0.1c0.1,0,0.2,0,0.4,0c-1.6,0.1-3.2,0.3-4.7,0.4c0,4,0,7.6,0,11.5c0.5-2.2,2.5-1.7,3.8-2.5
		c-0.4-0.1-0.6-0.2-0.9-0.3c0-0.1,0.1-0.3,0.1-0.4c2.8,0.6,5.6,1.2,8.3,1.8c0.1,0.2,0.1,0.4,0.2,0.5C248.1,74.8,246.9,76,245.6,77.2
		z"/>
	<path class="st5" d="M271.1,102.7c0,0.4,0,0.8,0,1.2c-0.1,0.2-0.2,0.4-0.3,0.6c0,0.2-0.1,0.3-0.1,0.5c-0.1,0.1-0.2,0.3-0.3,0.4
		c-0.1,0.3-0.2,0.6-0.3,0.9c-0.1,0.2-0.2,0.4-0.3,0.6c0.1,0,0.2,0.1,0.2,0.1c0.2-0.3,0.4-0.5,0.6-0.8l0,0c0.1-0.1,0.3-0.3,0.4-0.4
		c0,0,0,0,0,0c0.1-0.1,0.3-0.3,0.4-0.4c0,0,0-0.1,0-0.1c0.1-0.1,0.2-0.2,0.3-0.4c0.9-0.9,1.8-1.8,2.9-2.9c0.5,0.6,0.8,1.1,1.1,1.5
		c-0.1,0.2-0.2,0.3-0.3,0.5c-0.2,0.3-0.4,0.6-0.6,0.9c-0.1,0.1-0.2,0.3-0.3,0.4c-0.1,0.3-0.1,0.5-0.2,0.8c-0.1,0.2-0.2,0.4-0.3,0.6
		c-0.1,0.6-0.2,1.2-0.1,1.7c0,0.2,0.6,0.3,0.9,0.4c0.2-0.1,0.4-0.2,0.5-0.3c0.3-0.2,0.5-0.4,0.8-0.6c0.1-0.1,0.2-0.2,0.4-0.3
		c0,0,0,0,0,0c0.1-0.1,0.2-0.2,0.3-0.4c0.2-0.3,0.4-0.5,0.6-0.8c0.1-0.2,0.2-0.3,0.3-0.5c0-0.3,0.1-0.6,0.1-0.9
		c0.1-0.3,0.2-0.6,0.3-0.9c0-0.3,0.1-0.6,0.1-0.9c0.1-0.1,0.2-0.3,0.3-0.4c0.1-0.1,0.1-0.3,0.2-0.4c0.1-0.2,0.3-0.3,0.4-0.5l0,0
		c0.2-0.1,0.4-0.2,0.6-0.4c0.2,0,0.4,0,0.7,0c0.2,0.1,0.4,0.2,0.6,0.4l0,0c0,0.3,0,0.6,0,0.9c0,0,0,0,0,0c-0.3,0.5-0.6,1-1,1.4
		c0.2,0.1,0.4,0.3,0.5,0.4c0.3-0.5,0.7-0.9,1-1.4c0.2,0,0.3-0.1,0.3-0.2c0.1-0.1,0.3-0.2,0.4-0.3c0,0,0,0,0,0
		c0.2-0.1,0.4-0.2,0.6-0.3c0.6,0.1,1.2,0.3,1.7,0.4c0.1,0.1,0.2,0.3,0.3,0.4c0,0.8-0.1,1.7-0.1,2.5c-0.1,0.3-0.2,0.6-0.3,0.9
		c0.1,0,0.2,0.1,0.2,0.1c0.2-0.2,0.4-0.3,0.6-0.5c0,0,0,0,0,0c0.2-0.1,0.4-0.2,0.5-0.4c0.2,0,0.3,0,0.4-0.2c0.1-0.1,0.3-0.2,0.4-0.3
		l0,0c0.2-0.1,0.4-0.2,0.5-0.4c0.1-0.1,0.3-0.3,0.4-0.4c0.1-0.2,0.2-0.3,0.3-0.5c0.1-0.1,0.2-0.2,0.1-0.3c0.1-0.2,0.2-0.4,0.3-0.6
		c0.2-0.2,0.4-0.4,0.6-0.6c0.2-0.1,0.3-0.2,0.5-0.3c0.2,0,0.3,0,0.4-0.2c0.1-0.1,0.3-0.2,0.4-0.3c0.4,0,0.9,0,1.3,0
		c0.2,0.3,0.3,0.6,0.5,0.9l0,0c0.3,0.3,0.6,0.6,0.9,1c0.4,3.1-0.4,5-2.9,6.2c-0.9,0.5-2.2,0.8-3,0.4c-0.6-0.2-0.8-1.7-1.1-2.6
		c-2.2,1-4.7,2.2-7.8,3.7c-0.3,0.9-0.9,2.5-1.6,4.3c0.9,0.2,1.6,0.3,2.6,0.5c-1.6,1.2-2.9,1.5-4.8,1.2c0.9-2.7,1.7-5.2,2.4-7.5
		c-1.3,0.2-2.6,0.9-3.6,0.6c-1.5-0.6-0.7-2.3-0.9-3.7c-1.8,1-2.4,3.3-5,4c0.2-1.7,0.4-3.2,0.7-5c-1.5,1.8-2.9,3.4-4.4,5.2
		c-0.5-0.7-0.9-1.2-1.2-1.7c-2.8,2.3-3.3,2.2-4.6-0.7c-1.2,0.8-2.4,1.6-3.8,2.6c-0.6-0.9-0.9-1.5-1.3-2.1c-0.8,0.4-1.6,0.9-2.5,1.3
		c-1.1,0.5-2.3,0.7-3.3-0.1c-1-0.8-0.9-1.9-0.6-3c0.1-0.3,0.1-0.6,0.1-0.9c0.1-0.2,0.2-0.3,0.3-0.5c0-0.1,0.1-0.3,0.1-0.4
		c0.1-0.2,0.2-0.3,0.3-0.5c0.1-0.1,0.2-0.2,0.2-0.3c0.1-0.2,0.3-0.4,0.4-0.6c0,0,0,0,0,0c0.2-0.1,0.3-0.3,0.5-0.4
		c0.4-0.3,0.9-0.6,1.3-1c0.2-0.1,0.4-0.2,0.5-0.3c0.1,0,0.3,0,0.4-0.1c0.6,0,1.2,0,1.7,0c0.2,0.2,0.4,0.4,0.6,0.6
		c0,0.4-0.1,0.9-0.1,1.3l0,0c-0.2,0.1-0.3,0.3-0.5,0.4c-0.3,0-0.6,0-0.9,0c-0.3-0.2-0.1-1.2-0.9-0.5c-0.3,0.3-0.6,0.6-0.8,0.9
		c-0.1,0.2-0.2,0.3-0.3,0.5c-0.1,0.1-0.1,0.2-0.1,0.4c-0.1,0.2-0.2,0.3-0.3,0.5c-0.1,0.2-0.1,0.5-0.2,0.7c0,0.5,0,1.1,0,1.6
		c0.6,0.1,1.2,0.1,1.8,0.2c0.2-0.1,0.3-0.2,0.5-0.3c0.1-0.1,0.3-0.1,0.4-0.2c0.1-0.1,0.3-0.2,0.4-0.3c0,0,0,0,0,0
		c0.2-0.1,0.4-0.3,0.6-0.4c0.2,0,0.3-0.1,0.4-0.2c0.1-0.1,0.2-0.2,0.4-0.3l0,0c0.2-0.1,0.3-0.3,0.5-0.4l0,0c0.1-0.1,0.3-0.3,0.4-0.4
		l0,0c0.1-0.2,0.3-0.3,0.4-0.5l0,0c0.1-0.1,0.2-0.3,0.3-0.4c0.2-0.3,0.4-0.6,0.6-0.8c0.1-0.2,0.3-0.3,0.4-0.5l0,0
		c0.1-0.2,0.3-0.3,0.4-0.5c0,0,0,0,0,0c0.1-0.1,0.3-0.3,0.4-0.4c0,0,0,0,0,0c0.2-0.1,0.3-0.3,0.5-0.4c0.4-0.2,0.8-0.4,1.3-0.6
		c0.3,0,0.6,0,0.9,0c0.1,0.1,0.3,0.1,0.4,0.1c0.4,0.2,0.9,0.3,1.3,0.5c0,0.4,0,0.7,0,1.1c-0.1,0.2-0.2,0.4-0.3,0.6
		c0,0.1-0.1,0.3-0.1,0.4c-0.1,0.2-0.2,0.3-0.3,0.5c-0.1,0.4-0.1,0.8-0.2,1.3c0,0.6,0,1.2,0,1.8c0.2,0.1,0.3,0.2,0.5,0.3
		c0.2-0.1,0.4-0.2,0.6-0.3c0.1,0,0.3,0,0.3-0.2c0.1-0.1,0.2-0.2,0.4-0.3c0,0,0,0,0,0c0.1-0.1,0.3-0.3,0.4-0.4l0,0
		c0.1-0.1,0.3-0.3,0.4-0.4l0,0c0.1-0.1,0.2-0.2,0.3-0.4c0-0.1,0.1-0.3,0.1-0.4c0.1-0.3,0.2-0.6,0.3-0.9c0-0.3,0.1-0.5,0.1-0.8
		c0.1-0.3,0.2-0.7,0.3-1c0-0.3,0.1-0.6,0.1-0.8c0.1-0.2,0.2-0.3,0.3-0.5l0.1-0.1c0.3,0,0.6,0,0.9-0.1c0.3,0.5,0.6,0.9,0.9,1.4
		c-0.1,0.2-0.2,0.3-0.3,0.5c-0.1,0.3-0.1,0.5-0.2,0.8c-0.1,0.2-0.2,0.4-0.3,0.6c-0.1,0.3-0.1,0.6-0.2,0.9c-0.1,0.2-0.2,0.5-0.2,0.7
		c0.1,0,0.1,0,0.2,0.1c0.2-0.3,0.4-0.5,0.6-0.8l0,0c0.1-0.1,0.2-0.3,0.4-0.4c0.6-0.7,1.2-1.5,1.9-2.2c0.1-0.2,0.3-0.3,0.4-0.5l0,0
		c0.2-0.1,0.3-0.3,0.5-0.4c0.3-0.2,0.5-0.4,0.8-0.6c0.3,0,0.6,0,0.9,0l0.1,0C270.9,102.4,271,102.6,271.1,102.7z M288.3,108.9
		c2.5-0.3,3.7-2.5,2.6-5C289.5,105.3,288.5,106.8,288.3,108.9z M283.3,104.4c-2.2,0.9-3.6,2.5-3.9,4.5
		C281.9,108.4,282.9,107.2,283.3,104.4z M255.1,108.7c2.7-1.8,3.5-3.2,3.2-4.9C256.6,105,255.7,106.5,255.1,108.7z"/>
	<path class="st17" d="M239.5,104.9c0,0.1-0.1,0.3-0.1,0.4c-0.1,0.3-0.2,0.6-0.4,0.9c0,0.1-0.1,0.3-0.1,0.4
		c-0.1,0.3-0.2,0.6-0.3,0.9c0,0.3,0,0.6,0,0.9c0.2,0,0.5,0,0.7,0c0.3-0.2,0.6-0.4,0.9-0.5c0.1-0.1,0.3-0.2,0.4-0.3l0,0
		c0.2-0.1,0.3-0.3,0.5-0.4c0,0,0,0,0,0c0.1-0.1,0.3-0.3,0.4-0.4l0,0c0.1-0.1,0.3-0.3,0.4-0.4l0,0c0.1-0.1,0.3-0.3,0.4-0.4
		c0,0,0,0,0,0c0.1-0.1,0.3-0.3,0.4-0.4c0,0,0,0,0,0c0.2-0.1,0.4-0.3,0.6-0.4c0.1,0.3,0.3,0.6,0.2,0.8c-1.2,2.3-3.1,4-5.6,4.9
		c-0.3,0.1-0.7-0.1-1.2-0.1c-0.1-0.9-0.2-1.8-0.2-2.7c-1.4,1-2.9,2.1-4.3,3.1c-1.6-1.9-0.8-5.1,1.7-8.6l0.2,0l0.2-0.1
		c0.1,0,0.3,0.1,0.4,0.1c0.1,0.1,0.3,0.3,0.4,0.4c0,0.4,0,0.8,0,1.2c-0.1,0.2-0.2,0.4-0.4,0.6l0,0c-0.1,0.1-0.2,0.3-0.3,0.4
		c-0.1,0.1-0.2,0.2-0.2,0.3c-0.1,0.2-0.2,0.4-0.3,0.5c-0.1,0.1-0.1,0.2-0.1,0.4c-0.1,0.2-0.2,0.3-0.3,0.5c-0.1,0.3-0.1,0.5-0.2,0.8
		c-0.1,0.2-0.1,0.5-0.2,0.7c0.2-0.1,0.4-0.1,0.6-0.2l0,0c0.2-0.1,0.3-0.3,0.5-0.4l0,0c0.1-0.1,0.3-0.3,0.4-0.4l0,0
		c0.1-0.1,0.3-0.3,0.4-0.4l0,0c0.1-0.2,0.3-0.3,0.4-0.5l0,0c0.1-0.1,0.2-0.3,0.3-0.4c0.2-0.3,0.4-0.6,0.6-0.9
		c0.1-0.2,0.2-0.3,0.4-0.5c0.2-0.3,0.4-0.6,0.5-0.8c0.1-0.2,0.2-0.3,0.3-0.5c0.3-0.3,0.7-0.7,1-1c0.3,0,0.6,0,0.9,0.1
		c0.1,0.4,0.2,0.8,0.4,1.3c-0.1,0.2-0.2,0.4-0.3,0.6c-0.1,0.1-0.1,0.2-0.1,0.3C239.7,104.5,239.6,104.7,239.5,104.9z"/>
	<path class="st8" d="M228.1,109.2c-0.6-1.8-2.2-2.9-1.4-4.6c0.4-0.7,1.1-1.4,1.8-1.9c1.4-0.9,2.6-0.7,3.5,0.6
		c-1.2,0.5-2.5,0.9-3.9,1.5c0.4,0.9,0.6,1.5,1,2c0.7,1.1,1.1,2.1,0.1,3.1c-1.1,1.2-2.3,1.3-3.8,0.4
		C225.5,108.7,226.8,109.1,228.1,109.2z"/>
	<path class="st15" d="M225.2,56.9c0,8.5,0,17,0,25.5c-0.1-0.5-0.3-1-0.3-1.4c0-7.5,0-15.1,0-22.6C224.9,57.9,225.1,57.4,225.2,56.9
		z"/>
	<path class="st18" d="M297.6,98.3c0.4,0,0.8,0,1.3,0c0.1,0.2,0.3,0.4,0.4,0.5c-0.1,0.7-0.1,1.4-0.2,2c-0.4,0.5-0.8,0.9-1.1,1.4
		c-0.3,0.2-0.6,0.4-0.9,0.5c-0.5-0.1-1.3,0.4-1.4-0.6l0.1-0.1c0.1-0.1,0.3-0.2,0.4-0.3c0.4-0.4,0.8-0.9,1.2-1.3
		c-0.1-0.1-0.2-0.2-0.3-0.3l-0.1-0.1c0-0.5,0.1-0.9,0.1-1.4l0,0C297.3,98.6,297.4,98.5,297.6,98.3z"/>
	<path class="st18" d="M302.4,98.9c-0.1,0.8-0.3,1.7-0.4,2.5c-0.1,0.2-0.3,0.3-0.4,0.5c-0.5,0.3-1,0.7-1.5,0.8
		c-0.3,0.1-0.8-0.2-1.1-0.4c0.3-0.3,0.6-0.5,0.9-0.8c0.2-0.3,0.5-0.7,0.7-1c-0.1-0.1-0.2-0.2-0.3-0.4l-0.1-0.1c0-0.5,0-0.9,0.1-1.4
		l0,0c0.1-0.1,0.3-0.3,0.4-0.4c0.4,0,0.9,0,1.3,0C302.1,98.5,302.2,98.7,302.4,98.9z"/>
	<path class="st15" d="M295.7,102.3c0.2,1,0.9,0.5,1.4,0.6C295.8,103.4,295.6,103.3,295.7,102.3z"/>
	<path class="st15" d="M252.2,102.2c-0.6,0-1.2,0-1.7,0C251,102.2,251.6,102.2,252.2,102.2z"/>
	<path class="st15" d="M260.1,108.5c0-0.6,0-1.2,0-1.8C260.1,107.2,260.1,107.9,260.1,108.5z"/>
	<path class="st15" d="M261,102.8c-0.4-0.2-0.9-0.3-1.3-0.5C260.1,102.5,260.5,102.6,261,102.8z"/>
	<path class="st15" d="M252.7,104.1c0-0.4,0.1-0.9,0.1-1.3C252.7,103.2,252.7,103.6,252.7,104.1z"/>
	<path class="st15" d="M293.1,103.7c-0.3-0.3-0.6-0.6-0.9-1C292.6,103.1,292.8,103.4,293.1,103.7z"/>
	<path class="st15" d="M250.4,104c0.8-0.8,0.6,0.3,0.9,0.5C251,104.3,250.7,104.2,250.4,104z"/>
	<path class="st15" d="M265.8,106.2c-0.2,0.3-0.4,0.5-0.6,0.8c-0.1,0-0.1,0-0.2-0.1c0.1-0.2,0.2-0.5,0.2-0.7
		C265.5,106.2,265.6,106.2,265.8,106.2z"/>
	<path class="st15" d="M248.6,108.6c0-0.5,0-1.1,0-1.6C248.6,107.5,248.6,108.1,248.6,108.6z"/>
	<path class="st15" d="M234.1,108c-0.2,0.1-0.4,0.1-0.6,0.2c0.1-0.2,0.1-0.5,0.2-0.7C233.8,107.7,234,107.8,234.1,108z"/>
	<path class="st15" d="M297.1,98.8c0,0.5-0.1,0.9-0.1,1.4C297,99.7,297.1,99.2,297.1,98.8z"/>
	<path class="st15" d="M300.2,98.8c0,0.5,0,0.9-0.1,1.4C300.1,99.7,300.2,99.2,300.2,98.8z"/>
	<path class="st0" d="M214.8,101.8c-0.1-0.2-0.1-0.4-0.2-0.6c0.1,0,0.2,0,0.4,0C214.9,101.4,214.8,101.6,214.8,101.8L214.8,101.8z"
		/>
	<path class="st15" d="M292.3,102.8c-0.2-0.3-0.3-0.6-0.5-0.9C292,102.2,292.1,102.5,292.3,102.8z"/>
	<path class="st15" d="M250.8,55.7c-0.3-0.2-0.7-0.3-1-0.5C250.2,55.4,250.5,55.5,250.8,55.7z"/>
	<path class="st15" d="M239.9,102.2c-0.3,0-0.6,0-0.9-0.1C239.3,102.2,239.6,102.2,239.9,102.2z"/>
	<path class="st15" d="M259.2,102.2c-0.3,0-0.6,0-0.9,0C258.7,102.2,259,102.2,259.2,102.2z"/>
	<path class="st15" d="M265.4,102.1c-0.3,0-0.6,0-0.9,0.1C264.8,102.2,265.1,102.2,265.4,102.1z"/>
	<path class="st15" d="M270.7,102.2c-0.3,0-0.6,0-0.9,0C270.1,102.2,270.4,102.2,270.7,102.2z"/>
	<path class="st15" d="M281.3,102.7c0-0.3,0-0.6,0-0.9C281.3,102.1,281.3,102.4,281.3,102.7z"/>
	<path class="st15" d="M264,103.6c-0.1,0.3-0.2,0.7-0.3,1C263.8,104.3,263.9,103.9,264,103.6z"/>
	<path class="st15" d="M239.1,106.2c0.1-0.3,0.2-0.6,0.4-0.9C239.3,105.6,239.2,105.9,239.1,106.2z"/>
	<path class="st15" d="M278.5,104.1c-0.1,0.3-0.2,0.6-0.3,0.9C278.3,104.7,278.4,104.4,278.5,104.1z"/>
	<path class="st15" d="M263.6,105.4c-0.1,0.3-0.2,0.6-0.3,0.9C263.3,106,263.5,105.7,263.6,105.4z"/>
	<path class="st15" d="M238.7,107.6c0.1-0.3,0.2-0.6,0.3-0.9C238.9,107,238.8,107.3,238.7,107.6z"/>
	<path class="st15" d="M239.4,108.4c-0.2,0-0.5,0-0.7,0C238.9,108.4,239.2,108.4,239.4,108.4z"/>
	<path class="st15" d="M226.9,55.2c-0.2,0.1-0.4,0.2-0.7,0.4C226.4,55.5,226.6,55.3,226.9,55.2z"/>
	<path class="st15" d="M210.8,56.1c-0.2-0.2-0.4-0.3-0.5-0.5C210.4,55.8,210.6,55.9,210.8,56.1z"/>
	<path class="st15" d="M226.2,55.6c-0.1,0.1-0.3,0.3-0.4,0.4C225.9,55.9,226.1,55.7,226.2,55.6z"/>
	<path class="st15" d="M251.3,56.1c-0.2-0.1-0.3-0.3-0.5-0.4C251,55.8,251.1,55.9,251.3,56.1z"/>
	<path class="st15" d="M225.7,56c-0.1,0.2-0.3,0.3-0.4,0.5C225.5,56.3,225.6,56.2,225.7,56z"/>
	<path class="st15" d="M251.7,56.6c-0.1-0.2-0.3-0.4-0.4-0.5C251.4,56.2,251.6,56.4,251.7,56.6z"/>
	<path class="st15" d="M209.9,55.5c-0.2-0.1-0.3-0.2-0.5-0.3C209.6,55.3,209.7,55.4,209.9,55.5z"/>
	<path class="st15" d="M292.4,82.9c0.1-0.2,0.2-0.3,0.3-0.5C292.6,82.6,292.5,82.7,292.4,82.9z"/>
	<path class="st15" d="M291.8,83.8c0.2-0.2,0.3-0.3,0.5-0.5C292.1,83.4,291.9,83.6,291.8,83.8z"/>
	<path class="st15" d="M250.4,84.2c0.2-0.1,0.3-0.2,0.5-0.3C250.7,84,250.6,84.1,250.4,84.2z"/>
	<path class="st15" d="M266.8,84c0.2,0.1,0.3,0.2,0.5,0.3C267.1,84.1,266.9,84,266.8,84z"/>
	<path class="st15" d="M290.9,84.2c0.2-0.1,0.3-0.2,0.5-0.3C291.2,84,291.1,84.1,290.9,84.2z"/>
	<path class="st15" d="M297.6,98.3c-0.2,0.1-0.3,0.3-0.5,0.4C297.3,98.6,297.4,98.5,297.6,98.3z"/>
	<path class="st15" d="M299.3,98.9c-0.1-0.2-0.3-0.4-0.4-0.5C299,98.5,299.2,98.7,299.3,98.9z"/>
	<path class="st15" d="M300.6,98.3c-0.1,0.1-0.3,0.3-0.4,0.4C300.3,98.6,300.5,98.5,300.6,98.3z"/>
	<path class="st15" d="M302.4,98.9c-0.1-0.2-0.3-0.4-0.4-0.5C302.1,98.5,302.2,98.7,302.4,98.9z"/>
	<path class="st15" d="M297.1,100.2c0.1,0.1,0.2,0.2,0.3,0.3C297.3,100.4,297.2,100.3,297.1,100.2z"/>
	<path class="st15" d="M300.2,100.2c0.1,0.1,0.2,0.2,0.3,0.4C300.4,100.4,300.3,100.3,300.2,100.2z"/>
	<path class="st15" d="M280.1,101.4c-0.2,0.1-0.4,0.2-0.6,0.4C279.7,101.7,279.9,101.6,280.1,101.4z"/>
	<path class="st15" d="M281.3,101.8c-0.2-0.1-0.4-0.2-0.6-0.4C280.9,101.6,281.1,101.7,281.3,101.8z"/>
	<path class="st15" d="M301.5,101.8c0.1-0.2,0.3-0.3,0.4-0.5C301.8,101.5,301.7,101.7,301.5,101.8z"/>
	<path class="st15" d="M234.6,102.2l-0.2,0.1c0,0-0.2,0-0.2,0C234.3,102.2,234.4,102.2,234.6,102.2z"/>
	<path class="st15" d="M279.5,101.8c-0.1,0.2-0.3,0.3-0.4,0.5C279.2,102.1,279.3,102,279.5,101.8z"/>
	<path class="st15" d="M290.5,101.8c-0.1,0.1-0.3,0.2-0.4,0.3C290.2,102.1,290.4,101.9,290.5,101.8z"/>
	<path class="st15" d="M296.2,101.8c-0.1,0.1-0.3,0.2-0.4,0.3C295.9,102.1,296.1,102,296.2,101.8z"/>
	<path class="st15" d="M235.5,102.7c-0.1-0.1-0.3-0.3-0.4-0.4C235.2,102.4,235.3,102.6,235.5,102.7z"/>
	<path class="st15" d="M250.1,102.3c-0.2,0.1-0.4,0.2-0.5,0.3C249.7,102.5,249.9,102.4,250.1,102.3z"/>
	<path class="st15" d="M264.5,102.3c-0.1,0.2-0.2,0.3-0.3,0.5C264.2,102.6,264.3,102.4,264.5,102.3z"/>
	<path class="st15" d="M271.1,102.7c-0.1-0.2-0.2-0.3-0.4-0.5C270.9,102.4,271,102.6,271.1,102.7z"/>
	<path class="st15" d="M283.2,102.4c-0.2,0.1-0.4,0.2-0.6,0.3C282.8,102.6,283,102.5,283.2,102.4z"/>
	<path class="st15" d="M289.7,102.3c-0.2,0.1-0.3,0.2-0.5,0.3C289.4,102.5,289.6,102.4,289.7,102.3z"/>
	<path class="st15" d="M257.1,102.7c-0.2,0.1-0.3,0.3-0.5,0.4C256.8,103,256.9,102.9,257.1,102.7z"/>
	<path class="st15" d="M269,102.8c-0.2,0.1-0.3,0.3-0.5,0.4C268.7,103,268.8,102.9,269,102.8z"/>
	<path class="st15" d="M278.9,102.7c-0.1,0.1-0.2,0.3-0.3,0.4C278.7,103,278.8,102.9,278.9,102.7z"/>
	<path class="st15" d="M282.6,102.7c-0.1,0.1-0.3,0.2-0.4,0.3C282.3,102.9,282.4,102.8,282.6,102.7z"/>
	<path class="st15" d="M285.2,103.1c-0.1-0.1-0.2-0.3-0.3-0.4C285.1,102.9,285.2,103,285.2,103.1z"/>
	<path class="st15" d="M238,103.2c-0.1,0.2-0.2,0.3-0.3,0.5C237.8,103.5,237.9,103.3,238,103.2z"/>
	<path class="st15" d="M256.6,103.2c-0.1,0.1-0.3,0.3-0.4,0.4C256.3,103.4,256.4,103.3,256.6,103.2z"/>
	<path class="st15" d="M268.5,103.2c-0.1,0.2-0.3,0.3-0.4,0.5C268.2,103.5,268.4,103.3,268.5,103.2z"/>
	<path class="st15" d="M288.7,103.2c-0.1,0.2-0.2,0.4-0.3,0.6C288.5,103.6,288.6,103.4,288.7,103.2z"/>
	<path class="st15" d="M239.9,104c0.1-0.2,0.2-0.4,0.3-0.6C240.1,103.7,240,103.9,239.9,104z"/>
	<path class="st15" d="M248.3,103.6c-0.2,0.1-0.3,0.3-0.5,0.4C248,103.9,248.1,103.8,248.3,103.6z"/>
	<path class="st15" d="M256.2,103.6c-0.1,0.2-0.3,0.3-0.4,0.5C255.9,103.9,256,103.8,256.2,103.6z"/>
	<path class="st15" d="M266,104c0.1-0.2,0.2-0.3,0.3-0.5C266.2,103.7,266.1,103.9,266,104z"/>
	<path class="st15" d="M275.7,104c0.1-0.2,0.2-0.3,0.3-0.5C275.9,103.7,275.8,103.9,275.7,104z"/>
	<path class="st15" d="M235,104.5c0.1-0.2,0.2-0.4,0.4-0.6C235.3,104.1,235.2,104.3,235,104.5z"/>
	<path class="st15" d="M247.8,104.1c-0.1,0.2-0.3,0.4-0.4,0.6C247.5,104.4,247.7,104.2,247.8,104.1z"/>
	<path class="st15" d="M252.2,104.5c0.2-0.1,0.3-0.3,0.5-0.4C252.5,104.2,252.3,104.3,252.2,104.5z"/>
	<path class="st15" d="M260.7,104.5c0.1-0.2,0.2-0.4,0.3-0.6C260.9,104.1,260.8,104.3,260.7,104.5z"/>
	<path class="st15" d="M270.8,104.5c0.1-0.2,0.2-0.4,0.3-0.6C271,104.1,270.9,104.3,270.8,104.5z"/>
	<path class="st15" d="M288.3,104.1c-0.1,0.2-0.2,0.3-0.3,0.5C288,104.4,288.1,104.2,288.3,104.1z"/>
	<path class="st15" d="M234.7,104.9c0.1-0.1,0.2-0.3,0.3-0.4C234.9,104.7,234.8,104.8,234.7,104.9z"/>
	<path class="st15" d="M237.1,104.5c-0.1,0.2-0.2,0.3-0.4,0.5C236.9,104.8,237,104.6,237.1,104.5z"/>
	<path class="st15" d="M239.5,104.9c0.1-0.2,0.2-0.4,0.3-0.6C239.7,104.5,239.6,104.7,239.5,104.9z"/>
	<path class="st15" d="M243.5,105c-0.2,0.1-0.4,0.3-0.6,0.4C243.1,105.2,243.3,105.1,243.5,105z"/>
	<path class="st15" d="M247.2,104.9c-0.1,0.2-0.2,0.3-0.3,0.5C247,105.2,247.1,105.1,247.2,104.9z"/>
	<path class="st15" d="M249.2,105.4c0.1-0.2,0.2-0.3,0.3-0.5C249.4,105.1,249.3,105.2,249.2,105.4z"/>
	<path class="st15" d="M260.3,105.4c0.1-0.2,0.2-0.3,0.3-0.5C260.5,105.1,260.4,105.2,260.3,105.4z"/>
	<path class="st15" d="M265.5,105.4c0.1-0.2,0.2-0.4,0.3-0.6C265.7,105,265.6,105.2,265.5,105.4z"/>
	<path class="st15" d="M270.4,105.4c0.1-0.1,0.2-0.3,0.3-0.4C270.6,105.1,270.5,105.2,270.4,105.4z"/>
	<path class="st15" d="M271.9,104.9c-0.1,0.1-0.2,0.2-0.3,0.4C271.7,105.2,271.8,105.1,271.9,104.9z"/>
	<path class="st15" d="M274.8,105.4c0.1-0.1,0.2-0.3,0.3-0.4C275,105.1,274.9,105.2,274.8,105.4z"/>
	<path class="st15" d="M287.5,105c-0.2,0.1-0.4,0.2-0.5,0.4C287.2,105.2,287.3,105.1,287.5,105z"/>
	<path class="st15" d="M234.2,105.8c0.1-0.2,0.2-0.4,0.3-0.5C234.4,105.4,234.3,105.6,234.2,105.8z"/>
	<path class="st15" d="M243,105.4c-0.1,0.1-0.3,0.3-0.4,0.4C242.7,105.7,242.8,105.5,243,105.4z"/>
	<path class="st15" d="M254.7,105.4c-0.1,0.1-0.2,0.3-0.3,0.4C254.5,105.6,254.6,105.5,254.7,105.4z"/>
	<path class="st15" d="M271.5,105.3c-0.1,0.1-0.3,0.3-0.4,0.4C271.3,105.6,271.4,105.5,271.5,105.3z"/>
	<path class="st15" d="M287,105.4c-0.1,0.1-0.3,0.2-0.4,0.3C286.7,105.6,286.8,105.5,287,105.4z"/>
	<path class="st15" d="M236.2,105.8c-0.1,0.1-0.2,0.3-0.3,0.4C236,106.1,236.1,106,236.2,105.8z"/>
	<path class="st15" d="M242.5,105.8c-0.1,0.1-0.3,0.3-0.4,0.4C242.2,106.1,242.4,106,242.5,105.8z"/>
	<path class="st15" d="M246.8,105.8c-0.1,0.2-0.2,0.3-0.3,0.5C246.6,106.1,246.7,106,246.8,105.8z"/>
	<path class="st15" d="M248.8,106.2c0.1-0.2,0.2-0.3,0.3-0.5C249,105.9,248.9,106.1,248.8,106.2z"/>
	<path class="st15" d="M254.4,105.8c-0.1,0.2-0.3,0.3-0.4,0.5C254.1,106.1,254.2,105.9,254.4,105.8z"/>
	<path class="st15" d="M255.7,104.1c-0.1,0.2-0.3,0.3-0.4,0.5C255.4,104.4,255.6,104.2,255.7,104.1z"/>
	<path class="st15" d="M271.1,105.8c-0.1,0.1-0.3,0.3-0.4,0.4C270.8,106.1,271,105.9,271.1,105.8z"/>
	<path class="st15" d="M278.1,105.8c-0.1,0.2-0.2,0.3-0.3,0.5C277.9,106.2,278,106,278.1,105.8z"/>
	<path class="st15" d="M286.2,105.8c-0.2,0.1-0.4,0.2-0.5,0.4C285.8,106.1,286,106,286.2,105.8z"/>
	<path class="st15" d="M233.8,106.7c0.1-0.2,0.2-0.3,0.3-0.5C234,106.3,233.9,106.5,233.8,106.7z"/>
	<path class="st15" d="M235.9,106.2c-0.1,0.2-0.3,0.3-0.4,0.5C235.6,106.5,235.7,106.4,235.9,106.2z"/>
	<path class="st15" d="M242.1,106.3c-0.1,0.1-0.3,0.3-0.4,0.4C241.8,106.5,241.9,106.4,242.1,106.3z"/>
	<path class="st15" d="M254,106.2c-0.1,0.1-0.3,0.3-0.4,0.4C253.7,106.5,253.8,106.4,254,106.2z"/>
	<path class="st15" d="M274.4,106.7c0.1-0.2,0.2-0.4,0.3-0.6C274.5,106.3,274.4,106.5,274.4,106.7z"/>
	<path class="st15" d="M235.5,106.7c-0.1,0.1-0.3,0.3-0.4,0.4C235.2,107,235.3,106.8,235.5,106.7z"/>
	<path class="st15" d="M241.6,106.7c-0.1,0.1-0.3,0.3-0.4,0.4C241.3,107,241.5,106.8,241.6,106.7z"/>
	<path class="st15" d="M253.5,106.7c-0.2,0.1-0.3,0.3-0.5,0.4C253.2,107,253.4,106.8,253.5,106.7z"/>
	<path class="st15" d="M263.1,106.7c-0.1,0.1-0.2,0.2-0.3,0.4C262.9,106.9,263,106.8,263.1,106.7z"/>
	<path class="st15" d="M235,107.1c-0.1,0.1-0.3,0.3-0.4,0.4C234.7,107.4,234.9,107.3,235,107.1z"/>
	<path class="st15" d="M241.2,107.1c-0.2,0.1-0.3,0.3-0.5,0.4C240.9,107.4,241,107.3,241.2,107.1z"/>
	<path class="st15" d="M253,107.1c-0.1,0.1-0.2,0.2-0.4,0.3C252.8,107.3,252.9,107.2,253,107.1z"/>
	<path class="st15" d="M262.7,107.1c-0.1,0.1-0.3,0.3-0.4,0.4C262.4,107.4,262.6,107.2,262.7,107.1z"/>
	<path class="st15" d="M277.2,107.1c-0.1,0.1-0.2,0.2-0.3,0.4C277,107.4,277.1,107.3,277.2,107.1z"/>
	<path class="st15" d="M234.6,107.6c-0.2,0.1-0.3,0.3-0.5,0.4C234.3,107.8,234.4,107.7,234.6,107.6z"/>
	<path class="st15" d="M240.7,107.6c-0.1,0.1-0.3,0.2-0.4,0.3C240.5,107.8,240.6,107.7,240.7,107.6z"/>
	<path class="st15" d="M252.3,107.6c-0.2,0.1-0.4,0.3-0.6,0.4C251.9,107.9,252.1,107.7,252.3,107.6z"/>
	<path class="st15" d="M262.3,107.5c-0.1,0.1-0.3,0.3-0.4,0.4C262,107.8,262.1,107.7,262.3,107.5z"/>
	<path class="st15" d="M276.8,107.5c-0.1,0.1-0.2,0.2-0.4,0.3C276.6,107.8,276.7,107.7,276.8,107.5z"/>
	<path class="st15" d="M251.7,108c-0.1,0.1-0.3,0.2-0.4,0.3C251.5,108.2,251.6,108.1,251.7,108z"/>
	<path class="st15" d="M261.8,108c-0.1,0.1-0.2,0.2-0.4,0.3C261.6,108.2,261.7,108.1,261.8,108z"/>
	<path class="st15" d="M250.9,108.5c-0.2,0.1-0.3,0.2-0.5,0.3C250.6,108.7,250.8,108.6,250.9,108.5z"/>
	<path class="st15" d="M261.1,108.5c-0.2,0.1-0.4,0.2-0.6,0.3C260.8,108.7,260.9,108.6,261.1,108.5z"/>
	<path class="st15" d="M275.7,108.5c-0.2,0.1-0.4,0.2-0.5,0.3C275.3,108.7,275.5,108.6,275.7,108.5z"/>
	<path class="st15" d="M266.2,105.8c-0.1,0.1-0.2,0.3-0.4,0.4C266,106.1,266.1,105.9,266.2,105.8z"/>
	<path class="st19" d="M92.6,35.9c2.5-6.5,4.9-12.7,7.4-19.2c2,0.2,3.9,0.1,5.8,0.6c2.3,0.5,3.2,2,3.3,4.3
		c0.2,5.7-3.2,11.4-8.1,13.5C98.4,36.2,95.6,36.2,92.6,35.9z"/>
	<path class="st0" d="M58,64.4c0-0.2,0-0.5,0.1-0.7c0.1,0,0.2,0.1,0.3,0.1C58.2,64,58,64.2,58,64.4L58,64.4z"/>
	<path class="st20" d="M177.2,108.9c0.9-2.2,2.1-3.7,4.3-4.8C181,107.3,180.1,108.4,177.2,108.9z"/>
	<path class="st20" d="M156.1,105.5c0.5-0.6,1.1-1.2,1.6-1.8c0.5,1.6-0.3,2-1.2,2.2C156.3,105.8,156.2,105.6,156.1,105.5z"/>
	<path class="st19" d="M145,67.4c0.9-1.9,1.7-3.7,2.5-5.4c0.2-0.5,0.8-0.8,1.3-1.1c1.4-0.7,2.8,0,2.8,1.5c0,2.6-0.8,4.9-2.7,6.7
		c-0.6,0.5-1.8,0.9-2.5,0.6C145.8,69.5,145.5,68.4,145,67.4z"/>
	<path class="st20" d="M194.2,105.5c0.6-0.6,1.1-1.2,1.9-2.1C196.4,105.3,195.5,105.7,194.2,105.5z"/>
	<path class="st19" d="M289,24.7c1.1-3,2.1-5.7,3.1-8.5c0.6-0.1,1.1-0.2,1.6-0.1c1.5,0.1,3.2,0.1,3.9,1.8c0.8,1.8,0.1,3.4-1,4.9
		C295.1,24.8,292.6,25.4,289,24.7z"/>
	<path class="st21" d="M236,72c0-0.4,0-0.7,0-1.1c0.3,0.3,0.7,0.5,0.7,0.8c0.1,0.9,0,1.9,0,2.9c0.2,2.5,0.3,5.1,0.5,7.7
		c-1.6-2.6-1.6-5.4-1.2-8.2C236.1,73.4,236,72.7,236,72z"/>
	<path class="st22" d="M245.6,77.2c-1.6,1.3-3.3,1.8-5.3,0.9c0.1-0.2,0.2-0.4,0.5-0.8c1.2-0.2,2.9-0.5,4.5-0.7
		C245.4,76.7,245.5,76.9,245.6,77.2z"/>
	<path class="st23" d="M235,70.6c-2.3,1.3-4,0.9-6.2-1.3C230.9,69.7,233,70.2,235,70.6z"/>
	<path class="st1" d="M242.5,62.6c-0.1,0-0.2,0-0.4,0C242.3,62.6,242.4,62.6,242.5,62.6L242.5,62.6z"/>
	<path class="st1" d="M238.1,75.9c0-0.1,0-0.2,0-0.3c0.1,0,0.2,0.1,0.3,0.1C238.3,75.7,238.2,75.8,238.1,75.9L238.1,75.9z"/>
	<path class="st1" d="M238.1,75.8c-0.1,0.1-0.1,0.2-0.2,0.3c0-0.1-0.1-0.2-0.1-0.2C237.9,75.9,238,75.9,238.1,75.8L238.1,75.8z"/>
	<path class="st24" d="M277,76.4c3,0,6,0,9.1,0c0,0.9,0,1.8,0,2.8c-3,0-6,0-9.1,0C277,78.3,277,77.4,277,76.4z"/>
	<path class="st25" d="M276.3,76.4c0,1,0,1.8,0,2.8c-1.5,0-3,0-4.5,0c0-0.9,0-1.8,0-2.8C273.2,76.4,274.6,76.4,276.3,76.4z"/>
	<path class="st26" d="M234.2,60.3c-1.5,1.2-3,0.6-4.6-0.1C232.4,58.8,233.4,58.8,234.2,60.3z"/>
	<path class="st16" d="M235,61.3c-0.1-0.1-0.2-0.1-0.3-0.2c0.1-0.1,0.2-0.1,0.2-0.2C234.9,61.1,235,61.2,235,61.3L235,61.3z"/>
</g>
</svg>
