<?xml version="1.0" encoding="utf-8"?>
<!-- Generator: Adobe Illustrator 25.2.1, SVG Export Plug-In . SVG Version: 6.00 Build 0)  -->
<!DOCTYPE svg PUBLIC "-//W3C//DTD SVG 1.1//EN" "http://www.w3.org/Graphics/SVG/1.1/DTD/svg11.dtd" [
	<!ENTITY ns_extend "http://ns.adobe.com/Extensibility/1.0/">
	<!ENTITY ns_ai "http://ns.adobe.com/AdobeIllustrator/10.0/">
	<!ENTITY ns_graphs "http://ns.adobe.com/Graphs/1.0/">
	<!ENTITY ns_vars "http://ns.adobe.com/Variables/1.0/">
	<!ENTITY ns_imrep "http://ns.adobe.com/ImageReplacement/1.0/">
	<!ENTITY ns_sfw "http://ns.adobe.com/SaveForWeb/1.0/">
	<!ENTITY ns_custom "http://ns.adobe.com/GenericCustomNamespace/1.0/">
	<!ENTITY ns_adobe_xpath "http://ns.adobe.com/XPath/1.0/">
]>
<svg version="1.1" id="Capa_1" xmlns:x="&ns_extend;" xmlns:i="&ns_ai;" xmlns:graph="&ns_graphs;"
	 xmlns="http://www.w3.org/2000/svg" xmlns:xlink="http://www.w3.org/1999/xlink" x="0px" y="0px" viewBox="0 0 484.5 125"
	 style="enable-background:new 0 0 484.5 125;" xml:space="preserve">
<style type="text/css">
	.st0{fill:url(#XMLID_2_);}
	.st1{fill:url(#XMLID_3_);}
	.st2{fill:#007934;}
	.st3{fill:#76BC21;}
</style>
<metadata>
	<sfw  xmlns="&ns_sfw;">
		<slices></slices>
		<sliceSourceBounds  bottomLeftOrigin="true" height="103" width="470" x="740.4" y="497.9"></sliceSourceBounds>
	</sfw>
</metadata>
<g id="gleenplants">
	<g id="XMLID_160_">
		<g id="XMLID_933_">
			<linearGradient id="XMLID_2_" gradientUnits="userSpaceOnUse" x1="36.0197" y1="57.3221" x2="91.3432" y2="57.3221">
				<stop  offset="0" style="stop-color:#787878"/>
				<stop  offset="0.5204" style="stop-color:#F7F7F7"/>
				<stop  offset="1" style="stop-color:#787878"/>
			</linearGradient>
			<path id="XMLID_936_" class="st0" d="M36.9,11.6c0,0-0.9,4.7-0.9,12.1C55,36.2,78.4,60,82.1,102.2c0.5,0.3,1.1,0.6,1.6,0.9
				C83.7,103.1,119.3,53.3,36.9,11.6z"/>
			<linearGradient id="XMLID_3_" gradientUnits="userSpaceOnUse" x1="13.9859" y1="71.9612" x2="67.9302" y2="54.6991">
				<stop  offset="0" style="stop-color:#FFEC00"/>
				<stop  offset="0.2891" style="stop-color:#A6C412"/>
				<stop  offset="0.544" style="stop-color:#5FA421"/>
				<stop  offset="0.7544" style="stop-color:#2C8C2C"/>
				<stop  offset="0.9124" style="stop-color:#0C7E32"/>
				<stop  offset="1" style="stop-color:#007934"/>
			</linearGradient>
			<path id="XMLID_935_" class="st1" d="M27.4,58.4c-0.7-3.1-0.7-4.9-0.7-4.9C26.8,55.2,27.1,56.9,27.4,58.4
				c2.3,9.6,11.8,31.3,51,47.7C74,30.2,7.1,11.5,7.1,11.5c0,116.6,71.5,102.4,71.5,102.4S35,98.5,27.4,58.4z"/>
		</g>
		<g id="XMLID_800_">
			<path id="XMLID_931_" class="st2" d="M110.7,56.3v-0.1c0-13.1,9.6-24.1,23.1-24.1c7.8,0,12.6,2.3,17.2,6.3l-5,6.2
				c-3.5-3.1-6.8-5-12.5-5c-8.3,0-14.5,7.5-14.5,16.5v0.1c0,9.6,6.1,16.7,15.2,16.7c4.2,0,8.1-1.4,10.8-3.5v-8.7h-11.4v-7.1h19.1V73
				c-4.4,3.9-10.7,7.3-18.7,7.3C119.9,80.3,110.7,69.9,110.7,56.3z"/>
			<path id="XMLID_928_" class="st2" d="M159.1,44.3h7.7v7.9c2.1-5.3,6-8.9,12-8.6v8.5h-0.4c-6.8,0-11.5,4.6-11.5,13.9v13.4h-7.7
				V44.3z"/>
			<path id="XMLID_925_" class="st2" d="M179.6,62v-0.1c0-10.1,6.8-18.3,16.5-18.3c10.7,0,16.2,8.8,16.2,18.9c0,0.7-0.1,1.5-0.1,2.3
				h-24.8c0.8,5.7,4.7,8.9,9.7,8.9c3.8,0,6.5-1.5,9.1-4.2l4.5,4.2c-3.2,4-7.6,6.6-13.8,6.6C187.1,80.3,179.6,72.9,179.6,62z
				 M204.6,59.5c-0.5-5.2-3.5-9.3-8.6-9.3c-4.7,0-8.1,3.8-8.8,9.3H204.6z"/>
			<path id="XMLID_921_" class="st2" d="M215.4,62v-0.1c0-10.1,6.8-18.3,16.5-18.3c10.7,0,16.2,8.8,16.2,18.9c0,0.7-0.1,1.5-0.1,2.3
				h-24.8c0.8,5.7,4.7,8.9,9.7,8.9c3.8,0,6.5-1.5,9.1-4.2l4.5,4.2c-3.2,4-7.6,6.6-13.8,6.6C222.9,80.3,215.4,72.9,215.4,62z
				 M240.4,59.5c-0.5-5.2-3.5-9.3-8.6-9.3c-4.7,0-8.1,3.8-8.8,9.3H240.4z"/>
			<path id="XMLID_919_" class="st2" d="M253,44.3h7.7v5.5c2.2-3.3,5.3-6.2,10.6-6.2c7.6,0,12,5.3,12,13.5v22.4h-7.7v-20
				c0-5.5-2.6-8.6-7.2-8.6c-4.5,0-7.6,3.3-7.6,8.7v19.9H253V44.3z"/>
			<path id="XMLID_914_" class="st3" d="M289.7,44.3h7.7v5.9c2.5-3.7,6-6.6,11.4-6.6c8,0,15.7,6.6,15.7,18.3V62
				c0,11.7-7.7,18.3-15.7,18.3c-5.6,0-9.1-2.9-11.4-6.2v16.1h-7.7V44.3z M316.8,62v-0.1c0-6.8-4.4-11.3-9.7-11.3s-9.9,4.5-9.9,11.3
				V62c0,6.8,4.6,11.3,9.9,11.3C312.4,73.2,316.8,68.9,316.8,62z"/>
			<path id="XMLID_912_" class="st3" d="M330.1,30.9h7.7v48.6h-7.7V30.9z"/>
			<path id="XMLID_872_" class="st3" d="M365.8,79.5v-4.3c-2.3,2.9-5.8,5.1-10.9,5.1c-6.4,0-12-3.8-12-10.9v-0.1
				c0-7.8,5.8-11.5,13.7-11.5c4.1,0,6.7,0.6,9.3,1.5v-0.7c0-4.9-2.9-7.5-8.3-7.5c-3.8,0-6.6,0.9-9.7,2.2l-2.1-6.5
				c3.7-1.7,7.4-2.9,12.9-2.9c10,0,14.8,5.5,14.8,14.9v20.9H365.8z M366,64.8c-2-0.8-4.7-1.4-7.7-1.4c-4.9,0-7.7,2.1-7.7,5.5V69
				c0,3.3,2.9,5.2,6.5,5.2c5.1,0,9-3,9-7.4V64.8z"/>
			<path id="XMLID_807_" class="st3" d="M379.8,44.3h7.7v5.5c2.2-3.3,5.3-6.2,10.6-6.2c7.6,0,12,5.3,12,13.5v22.4h-7.7v-20
				c0-5.5-2.6-8.6-7.2-8.6c-4.5,0-7.6,3.3-7.6,8.7v19.9h-7.7V44.3z"/>
			<path id="XMLID_804_" class="st3" d="M418.1,69.8V51.3h-4.3v-6.9h4.3v-9.7h7.7v9.7h9.1v6.9h-9.1v17.3c0,3.1,1.5,4.4,4.2,4.4
				c1.7,0,3.3-0.4,4.8-1.2v6.6c-1.9,1.1-4.1,1.8-7,1.8C422.2,80.1,418.1,77.5,418.1,69.8z"/>
			<path id="XMLID_801_" class="st3" d="M437.1,74.9l3.5-5.5c3.6,2.9,7.6,4.3,11.1,4.3c3.3,0,5.2-1.5,5.2-3.8v-0.1
				c0-2.7-3.6-3.7-7.5-4.9c-5-1.5-10.6-3.6-10.6-10.3v-0.1c0-6.7,5.3-10.7,12-10.7c4.2,0,8.8,1.5,12.4,4l-3.1,5.7
				c-3.3-2.1-6.7-3.3-9.5-3.3c-3,0-4.7,1.5-4.7,3.5v0.1c0,2.5,3.6,3.6,7.6,4.9c4.9,1.6,10.5,3.9,10.5,10.3v0.1
				c0,7.4-5.5,11.1-12.5,11.1C446.7,80.2,441.4,78.4,437.1,74.9z"/>
		</g>
		<g id="XMLID_161_">
			<path id="XMLID_798_" class="st2" d="M142.4,101c0-0.3,0.3-0.6,0.6-0.6c0.3,0,0.6,0.3,0.6,0.6v9h5.3c0.3,0,0.5,0.3,0.5,0.6
				c0,0.3-0.2,0.5-0.5,0.5H143c-0.3,0-0.6-0.3-0.6-0.6V101z"/>
			<path id="XMLID_796_" class="st2" d="M154.5,101c0-0.3,0.3-0.6,0.6-0.6c0.3,0,0.6,0.3,0.6,0.6v9.6c0,0.3-0.3,0.6-0.6,0.6
				c-0.3,0-0.6-0.3-0.6-0.6V101z"/>
			<path id="XMLID_779_" class="st2" d="M161.5,101.1c0-0.3,0.3-0.6,0.6-0.6h3c3.2,0,5.4,2.3,5.4,5.3v0c0,3-2.2,5.3-5.4,5.3h-3
				c-0.3,0-0.6-0.3-0.6-0.6V101.1z M165.1,110c2.6,0,4.2-1.8,4.2-4.2v0c0-2.4-1.7-4.2-4.2-4.2h-2.4v8.4H165.1z"/>
			<path id="XMLID_479_" class="st2" d="M175.9,110.5v-9.4c0-0.3,0.3-0.6,0.6-0.6h6.4c0.3,0,0.5,0.2,0.5,0.5c0,0.3-0.2,0.5-0.5,0.5
				H177v3.6h5.1c0.3,0,0.5,0.3,0.5,0.5c0,0.3-0.2,0.5-0.5,0.5H177v3.7h5.8c0.3,0,0.5,0.2,0.5,0.5c0,0.3-0.2,0.5-0.5,0.5h-6.4
				C176.2,111.1,175.9,110.8,175.9,110.5z"/>
			<path id="XMLID_391_" class="st2" d="M188.6,101.1c0-0.3,0.3-0.6,0.6-0.6h3.8c1.3,0,2.3,0.4,2.9,1.1c0.5,0.5,0.8,1.3,0.8,2.1v0
				c0,1.8-1.1,2.8-2.7,3.1l2.5,3.4c0.1,0.1,0.2,0.3,0.2,0.4c0,0.3-0.3,0.6-0.6,0.6c-0.2,0-0.4-0.1-0.5-0.3l-2.9-3.9h-2.9v3.6
				c0,0.3-0.3,0.6-0.6,0.6c-0.3,0-0.6-0.3-0.6-0.6V101.1z M192.9,105.9c1.5,0,2.6-0.8,2.6-2.2v0c0-1.3-1-2.1-2.6-2.1h-3.2v4.3H192.9
				z"/>
			<path id="XMLID_328_" class="st2" d="M201.5,110.3l4.2-9.5c0.1-0.3,0.4-0.5,0.7-0.5h0.1c0.4,0,0.6,0.2,0.7,0.5l4.2,9.4
				c0,0.1,0.1,0.2,0.1,0.3c0,0.3-0.2,0.6-0.6,0.6c-0.3,0-0.5-0.2-0.6-0.4l-1.1-2.5h-5.6l-1.1,2.5c-0.1,0.3-0.3,0.4-0.6,0.4
				c-0.3,0-0.5-0.2-0.5-0.5C201.4,110.5,201.4,110.4,201.5,110.3z M208.7,107.2l-2.4-5.5l-2.4,5.5H208.7z"/>
			<path id="XMLID_259_" class="st2" d="M216.5,101c0-0.3,0.3-0.6,0.6-0.6h0.2c0.3,0,0.4,0.1,0.6,0.4l6.2,8.3v-8
				c0-0.3,0.2-0.6,0.6-0.6c0.3,0,0.6,0.3,0.6,0.6v9.6c0,0.3-0.2,0.6-0.5,0.6h-0.1c-0.2,0-0.4-0.2-0.6-0.4l-6.3-8.4v8.3
				c0,0.3-0.2,0.6-0.6,0.6c-0.3,0-0.6-0.3-0.6-0.6V101z"/>
			<path id="XMLID_252_" class="st2" d="M230.9,101.1c0-0.3,0.3-0.6,0.6-0.6h3c3.2,0,5.4,2.3,5.4,5.3v0c0,3-2.2,5.3-5.4,5.3h-3
				c-0.3,0-0.6-0.3-0.6-0.6V101.1z M234.5,110c2.6,0,4.2-1.8,4.2-4.2v0c0-2.4-1.7-4.2-4.2-4.2h-2.4v8.4H234.5z"/>
			<path id="XMLID_246_" class="st2" d="M244.8,105.8L244.8,105.8c0-3,2.1-5.5,5.2-5.5c3.1,0,5.2,2.5,5.2,5.5v0
				c0,2.9-2.1,5.5-5.2,5.5C246.9,111.3,244.8,108.7,244.8,105.8z M254.1,105.8L254.1,105.8c0-2.5-1.7-4.4-4-4.4s-4,1.9-4,4.4v0
				c0,2.4,1.7,4.4,4,4.4S254.1,108.2,254.1,105.8z"/>
			<path id="XMLID_244_" class="st2" d="M267.9,110.5v-9.4c0-0.3,0.3-0.6,0.6-0.6h6.4c0.3,0,0.5,0.2,0.5,0.5c0,0.3-0.2,0.5-0.5,0.5
				h-5.8v3.6h5.1c0.3,0,0.5,0.3,0.5,0.5c0,0.3-0.2,0.5-0.5,0.5h-5.1v3.7h5.8c0.3,0,0.5,0.2,0.5,0.5c0,0.3-0.2,0.5-0.5,0.5h-6.4
				C268.2,111.1,267.9,110.8,267.9,110.5z"/>
			<path id="XMLID_242_" class="st2" d="M280.6,101c0-0.3,0.3-0.6,0.6-0.6c0.3,0,0.6,0.3,0.6,0.6v9h5.3c0.3,0,0.5,0.3,0.5,0.6
				c0,0.3-0.2,0.5-0.5,0.5h-5.9c-0.3,0-0.6-0.3-0.6-0.6V101z"/>
			<path id="XMLID_240_" class="st2" d="M299.5,105.8L299.5,105.8c0-3,2.2-5.5,5.2-5.5c1.7,0,2.7,0.6,3.7,1.4
				c0.1,0.1,0.2,0.3,0.2,0.5c0,0.3-0.3,0.6-0.6,0.6c-0.2,0-0.3-0.1-0.4-0.1c-0.8-0.7-1.7-1.2-2.9-1.2c-2.3,0-4,1.9-4,4.4v0
				c0,2.5,1.7,4.4,4,4.4c1.3,0,2.2-0.5,3-1.3c0.1-0.1,0.2-0.2,0.4-0.2c0.3,0,0.6,0.3,0.6,0.6c0,0.2-0.1,0.3-0.2,0.4
				c-1,1-2.1,1.6-3.8,1.6C301.6,111.3,299.5,108.9,299.5,105.8z"/>
			<path id="XMLID_237_" class="st2" d="M313.6,101.1c0-0.3,0.3-0.6,0.6-0.6h3.8c1.3,0,2.3,0.4,2.9,1.1c0.5,0.5,0.8,1.3,0.8,2.1v0
				c0,1.8-1.1,2.8-2.7,3.1l2.5,3.4c0.1,0.1,0.2,0.3,0.2,0.4c0,0.3-0.3,0.6-0.6,0.6c-0.2,0-0.4-0.1-0.5-0.3l-2.9-3.9h-2.9v3.6
				c0,0.3-0.3,0.6-0.6,0.6c-0.3,0-0.6-0.3-0.6-0.6V101.1z M317.9,105.9c1.5,0,2.6-0.8,2.6-2.2v0c0-1.3-1-2.1-2.6-2.1h-3.2v4.3H317.9
				z"/>
			<path id="XMLID_235_" class="st2" d="M327.1,110.5v-9.4c0-0.3,0.3-0.6,0.6-0.6h6.4c0.3,0,0.5,0.2,0.5,0.5c0,0.3-0.2,0.5-0.5,0.5
				h-5.8v3.6h5.1c0.3,0,0.5,0.3,0.5,0.5c0,0.3-0.2,0.5-0.5,0.5h-5.1v3.7h5.8c0.3,0,0.5,0.2,0.5,0.5c0,0.3-0.2,0.5-0.5,0.5h-6.4
				C327.4,111.1,327.1,110.8,327.1,110.5z"/>
			<path id="XMLID_233_" class="st2" d="M339.4,105.8L339.4,105.8c0-3,2.2-5.5,5.2-5.5c1.7,0,2.7,0.6,3.7,1.4
				c0.1,0.1,0.2,0.3,0.2,0.5c0,0.3-0.3,0.6-0.6,0.6c-0.2,0-0.3-0.1-0.4-0.1c-0.8-0.7-1.7-1.2-2.9-1.2c-2.3,0-4,1.9-4,4.4v0
				c0,2.5,1.7,4.4,4,4.4c1.3,0,2.2-0.5,3-1.3c0.1-0.1,0.2-0.2,0.4-0.2c0.3,0,0.6,0.3,0.6,0.6c0,0.2-0.1,0.3-0.2,0.4
				c-1,1-2.1,1.6-3.8,1.6C341.5,111.3,339.4,108.9,339.4,105.8z"/>
			<path id="XMLID_229_" class="st2" d="M353.6,101c0-0.3,0.3-0.6,0.6-0.6c0.3,0,0.6,0.3,0.6,0.6v9.6c0,0.3-0.3,0.6-0.6,0.6
				c-0.3,0-0.6-0.3-0.6-0.6V101z"/>
			<path id="XMLID_227_" class="st2" d="M360.7,101c0-0.3,0.3-0.6,0.6-0.6h0.1c0.2,0,0.4,0.1,0.5,0.3l3.7,5.7l3.7-5.7
				c0.1-0.2,0.3-0.3,0.5-0.3h0.1c0.3,0,0.6,0.3,0.6,0.6v9.6c0,0.3-0.3,0.6-0.6,0.6c-0.3,0-0.6-0.3-0.6-0.6v-7.9l-3.3,5
				c-0.1,0.2-0.3,0.3-0.5,0.3s-0.4-0.1-0.5-0.3l-3.3-5v7.9c0,0.3-0.2,0.6-0.6,0.6c-0.3,0-0.6-0.3-0.6-0.6V101z"/>
			<path id="XMLID_224_" class="st2" d="M376.4,101c0-0.3,0.3-0.6,0.6-0.6c0.3,0,0.6,0.3,0.6,0.6v9.6c0,0.3-0.3,0.6-0.6,0.6
				c-0.3,0-0.6-0.3-0.6-0.6V101z"/>
			<path id="XMLID_222_" class="st2" d="M383.5,110.5v-9.4c0-0.3,0.3-0.6,0.6-0.6h6.4c0.3,0,0.5,0.2,0.5,0.5c0,0.3-0.2,0.5-0.5,0.5
				h-5.8v3.6h5.1c0.3,0,0.5,0.3,0.5,0.5c0,0.3-0.2,0.5-0.5,0.5h-5.1v3.7h5.8c0.3,0,0.5,0.2,0.5,0.5c0,0.3-0.2,0.5-0.5,0.5H384
				C383.7,111.1,383.5,110.8,383.5,110.5z"/>
			<path id="XMLID_219_" class="st2" d="M396.2,101c0-0.3,0.3-0.6,0.6-0.6h0.2c0.3,0,0.4,0.1,0.6,0.4l6.2,8.3v-8
				c0-0.3,0.2-0.6,0.6-0.6c0.3,0,0.6,0.3,0.6,0.6v9.6c0,0.3-0.2,0.6-0.5,0.6h-0.1c-0.2,0-0.4-0.2-0.6-0.4l-6.3-8.4v8.3
				c0,0.3-0.2,0.6-0.6,0.6c-0.3,0-0.6-0.3-0.6-0.6V101z"/>
			<path id="XMLID_216_" class="st2" d="M413.4,101.6h-3c-0.3,0-0.5-0.2-0.5-0.5c0-0.3,0.2-0.6,0.5-0.6h7.1c0.3,0,0.5,0.3,0.5,0.6
				c0,0.3-0.2,0.5-0.5,0.5h-3v9c0,0.3-0.3,0.6-0.6,0.6s-0.6-0.3-0.6-0.6V101.6z"/>
			<path id="XMLID_163_" class="st2" d="M421.9,105.8L421.9,105.8c0-3,2.1-5.5,5.2-5.5c3.1,0,5.2,2.5,5.2,5.5v0
				c0,2.9-2.1,5.5-5.2,5.5C424,111.3,421.9,108.7,421.9,105.8z M431.1,105.8L431.1,105.8c0-2.5-1.7-4.4-4-4.4c-2.3,0-4,1.9-4,4.4v0
				c0,2.4,1.7,4.4,4,4.4C429.5,110.2,431.1,108.2,431.1,105.8z"/>
		</g>
	</g>
	<g id="XMLID_126_">
		<path id="XMLID_151_" class="st3" d="M466.4,45.9L466.4,45.9c0-3.1,2.4-5.6,5.4-5.6s5.3,2.5,5.3,5.5v0c0,3-2.4,5.6-5.4,5.6
			C468.7,51.5,466.4,49,466.4,45.9z M476.5,45.9L476.5,45.9c0-2.8-2.1-5-4.8-5c-2.7,0-4.8,2.3-4.8,5v0c0,2.8,2.1,5,4.8,5
			C474.5,50.9,476.5,48.7,476.5,45.9z M469.6,42.8h2.5c0.7,0,1.3,0.2,1.7,0.6c0.3,0.3,0.5,0.7,0.5,1.2v0c0,0.9-0.5,1.5-1.3,1.8
			l1.5,2.2h-1.3l-1.4-2h0h-1.1v2h-1.1V42.8z M472,45.7c0.7,0,1.1-0.4,1.1-0.9v0c0-0.6-0.4-0.9-1.1-0.9h-1.4v1.8H472z"/>
	</g>
</g>
</svg>
