<?xml version="1.0" encoding="utf-8"?>
<!-- Generator: Adobe Illustrator 25.2.1, SVG Export Plug-In . SVG Version: 6.00 Build 0)  -->
<!DOCTYPE svg PUBLIC "-//W3C//DTD SVG 1.1//EN" "http://www.w3.org/Graphics/SVG/1.1/DTD/svg11.dtd" [
	<!ENTITY ns_extend "http://ns.adobe.com/Extensibility/1.0/">
	<!ENTITY ns_ai "http://ns.adobe.com/AdobeIllustrator/10.0/">
	<!ENTITY ns_graphs "http://ns.adobe.com/Graphs/1.0/">
	<!ENTITY ns_vars "http://ns.adobe.com/Variables/1.0/">
	<!ENTITY ns_imrep "http://ns.adobe.com/ImageReplacement/1.0/">
	<!ENTITY ns_sfw "http://ns.adobe.com/SaveForWeb/1.0/">
	<!ENTITY ns_custom "http://ns.adobe.com/GenericCustomNamespace/1.0/">
	<!ENTITY ns_adobe_xpath "http://ns.adobe.com/XPath/1.0/">
]>
<svg version="1.1" id="Capa_1" xmlns:x="&ns_extend;" xmlns:i="&ns_ai;" xmlns:graph="&ns_graphs;"
	 xmlns="http://www.w3.org/2000/svg" xmlns:xlink="http://www.w3.org/1999/xlink" x="0px" y="0px" viewBox="0 0 219.6 52.4"
	 style="enable-background:new 0 0 219.6 52.4;" xml:space="preserve">
<style type="text/css">
	.st0{fill:#02AC4D;}
</style>
<metadata>
	<sfw  xmlns="&ns_sfw;">
		<slices></slices>
		<sliceSourceBounds  bottomLeftOrigin="true" height="52.4" width="219.6" x="78.4" y="319.9"></sliceSourceBounds>
	</sfw>
</metadata>
<path class="st0" d="M219.6,30.9c-4.7,1.9-9.5,3.7-14.4,5.4c-6.5,2.3-13,4.2-19.6,6c-14.3,3.8-28.9,6.6-43.8,8.3
	c-25.7,2.9-52.2,2.4-79-1.8c-1.8-0.3-3.6-0.6-5.4-0.9c-10.2-1.8-20.1-4.1-29.8-6.8c-3-0.9-5.9-1.7-8.8-2.7c-3.7-1.2-7.4-2.4-11-3.7
	l-0.5-0.1c-2.4-0.9-5-1.9-7.4-2.9c6.3,1.5,12.7,2.9,19.2,4l1,0.2c6.1,1.1,12.2,1.9,18.2,2.6c0.5,0.1,1,0.1,1.4,0.1
	c31.2,3.4,62,1.6,91.4-4.6c14.8-3.1,29.3-7.3,43.3-12.6c6.3-2.4,12.5-5,18.6-7.8c7.8-3.5,15.5-7.4,22.9-11.6c1.1-0.7,2.3-1.3,3.5-2"
	/>
</svg>
