<?xml version="1.0" encoding="utf-8"?>
<!-- Generator: Adobe Illustrator 25.2.1, SVG Export Plug-In . SVG Version: 6.00 Build 0)  -->
<!DOCTYPE svg PUBLIC "-//W3C//DTD SVG 1.1//EN" "http://www.w3.org/Graphics/SVG/1.1/DTD/svg11.dtd" [
	<!ENTITY ns_extend "http://ns.adobe.com/Extensibility/1.0/">
	<!ENTITY ns_ai "http://ns.adobe.com/AdobeIllustrator/10.0/">
	<!ENTITY ns_graphs "http://ns.adobe.com/Graphs/1.0/">
	<!ENTITY ns_vars "http://ns.adobe.com/Variables/1.0/">
	<!ENTITY ns_imrep "http://ns.adobe.com/ImageReplacement/1.0/">
	<!ENTITY ns_sfw "http://ns.adobe.com/SaveForWeb/1.0/">
	<!ENTITY ns_custom "http://ns.adobe.com/GenericCustomNamespace/1.0/">
	<!ENTITY ns_adobe_xpath "http://ns.adobe.com/XPath/1.0/">
]>
<svg version="1.1" id="Layer_2" xmlns:x="&ns_extend;" xmlns:i="&ns_ai;" xmlns:graph="&ns_graphs;"
	 xmlns="http://www.w3.org/2000/svg" xmlns:xlink="http://www.w3.org/1999/xlink" x="0px" y="0px" viewBox="0 0 197.1 200.4"
	 style="enable-background:new 0 0 197.1 200.4;" xml:space="preserve">
<style type="text/css">
	.st0{opacity:5.000000e-02;clip-path:url(#SVGID_2_);}
	.st1{fill:#FFFFFF;}
</style>
<metadata>
	<sfw  xmlns="&ns_sfw;">
		<slices></slices>
		<sliceSourceBounds  bottomLeftOrigin="true" height="296.3" width="287" x="311.5" y="5.1"></sliceSourceBounds>
	</sfw>
</metadata>
<g>
	<defs>
		<path id="SVGID_1_" d="M16.2,0h164.8c8.9,0,16.2,11.7,16.2,26.2v146.9c0,14.5-7.2,26.2-16.2,26.2H16.2C7.2,199.3,0,187.6,0,173.1
			V26.2C0,11.7,7.2,0,16.2,0z"/>
	</defs>
	<clipPath id="SVGID_2_">
		<use xlink:href="#SVGID_1_"  style="overflow:visible;"/>
	</clipPath>
	<g id="alogan_transparente_3_" class="st0">
		<path class="st1" d="M131.4,149.9c-2.5,1.5-4.9,3.1-7.3,4.8c-0.5,0.3-1,0.7-1.4,1c-0.6,0.5-1.3,1-1.9,1.5
			c-10.4-8.1-22.3-14.3-35.3-18.1v0c-9.4-2.7-19.3-4.2-29.6-4.2c-4.7,0-9.3,0.3-13.8,0.9c-11,1.4-21.5,4.6-31.2,9.2
			c-1.4,0.6-2.7,1.3-4,2c0.8-0.7,1.5-1.3,2.3-2c0.5-0.5,1.1-0.9,1.6-1.3c1.8-1.5,3.7-2.8,5.5-4.2c0.7-0.5,1.5-1.1,2.3-1.6
			c0.6-0.3,1.1-0.5,1.7-0.8c11.1-5.3,23.2-8.7,36-9.8c3.1-0.3,6.2-0.4,9.3-0.4c6.2,0,12.3,0.5,18.2,1.6c16.8,2.9,32.2,9.8,45.3,19.7
			C130,148.7,130.7,149.3,131.4,149.9z"/>
		<path class="st1" d="M226.7,148.8c3.5,0,7,0.2,10.4,0.5v6.5c-6.9,0.1-13.7,0.8-20.2,2.1c-8.5,1.7-16.5,4.5-24.1,8.1
			c-5.3,2.5-10.3,5.5-15.1,8.8c-2,1.4-3.9,2.8-5.8,4.4c-2.1,1.7-4.1,3.4-6,5.3c-0.5,0.5-1,0.9-1.4,1.4c-0.9,0.9-1.8,1.8-2.7,2.8
			c-3.1,3.3-6,6.7-8.7,10.4c-0.3-0.8-0.7-1.6-1.1-2.4c-1.7-3.7-3.5-7.2-5.6-10.6c0.4-0.4,0.7-0.8,1.1-1.2l0,0c2.4-2.8,5.1-5.5,7.8-8
			c1-0.9,2-1.8,3-2.7c2.4-2,4.8-3.9,7.4-5.7c2-1.4,4-2.7,6-4c4.7-2.9,9.5-5.4,14.7-7.5c10.9-4.5,22.8-7.3,35.2-7.9
			C223.3,148.9,225,148.8,226.7,148.8z"/>
		<path class="st1" d="M287,167.7c-7.2-3.7-14.9-6.7-22.9-8.7v-3.4c0.7,0.3,1.4,0.5,2,0.8c0,0,0.1,0,0.1,0c4.3,1.7,8.4,3.7,12.4,6
			C281.5,164,284.3,165.8,287,167.7z"/>
		<path class="st1" d="M231.4,145.3c-2.6-0.7-5.2-1.3-7.9-1.8c-1.1-0.2-2.3-0.4-3.4-0.6c0,0,0,0,0,0c-5.1-0.8-10.4-1.2-15.8-1.2
			c-4.8,0-9.5,0.3-14.2,0.9c-0.1,0-0.1,0-0.2,0c-4.7,0.6-9.3,1.6-13.7,2.8c-5.1,1.4-10.1,3.2-14.8,5.3c-2.3,1-4.5,2.1-6.7,3.2
			c-2.6,1.4-5.1,2.8-7.6,4.4c-1.3,0.8-2.5,1.6-3.7,2.5h0c-3.4,2.4-6.7,5.1-9.8,7.9c-0.6-0.7-1.3-1.4-1.9-2c-1.7-1.8-3.5-3.5-5.3-5.1
			c0.6-0.5,1.2-1,1.8-1.5c2.7-2.2,5.5-4.2,8.5-6c1.3-0.9,2.7-1.7,4-2.5c2.5-1.4,5.1-2.8,7.7-4c2-1,4-1.8,6.1-2.7
			c0.3-0.1,0.6-0.2,0.9-0.4c4.8-1.9,9.7-3.4,14.8-4.5c0.8-0.2,1.7-0.4,2.6-0.5c6.7-1.3,13.6-2,20.7-2c4.9,0,9.7,0.3,14.4,1
			c0,0,0.1,0,0.1,0c5.3,0.7,10.5,1.8,15.5,3.3c0,0,0,0,0,0c0.1,0,0.3,0.1,0.4,0.1c0.4,0.1,0.9,0.3,1.3,0.4c0.3,0.1,0.7,0.3,1,0.4
			c0,0,0,0,0,0c0.5,0.2,1,0.4,1.5,0.6C229,144.2,230.2,144.7,231.4,145.3z"/>
		<path class="st1" d="M230,146.3c-2.3-0.1-4.7-0.2-7-0.2h-0.4c-2.2,0-4.4,0.1-6.6,0.2c-0.2,0-0.4,0-0.5,0
			c-11.2,0.8-21.9,3.3-31.9,7.3c-5,2-9.8,4.4-14.5,7.1c-2.1,1.2-4.1,2.5-6.1,3.9c-2.5,1.7-5,3.6-7.3,5.5c-1.1,0.9-2.1,1.8-3.1,2.7
			c-3.2,2.9-6.2,5.9-9,9.1c-0.4-0.6-0.7-1.1-1.1-1.7c-1.8-2.6-3.8-5.2-5.8-7.6c0.5-0.4,1-0.9,1.5-1.3c2.6-2.4,5.3-4.6,8.2-6.7
			c1.2-0.9,2.4-1.7,3.6-2.5c2.5-1.7,5-3.2,7.6-4.7c2.1-1.2,4.3-2.3,6.5-3.3c4.8-2.2,9.8-4.1,14.9-5.6c8.9-2.6,18.2-4.1,27.9-4.3
			c0.6,0,1.3,0,1.9,0c3.7,0,7.3,0.2,10.9,0.6c1.1,0.1,2.2,0.2,3.3,0.4c1.4,0.2,2.7,0.4,4.1,0.6h0.2
			C228.2,145.9,229.1,146.1,230,146.3z"/>
		<path class="st1" d="M165.7,136.8c-3.4,0.7-6.8,1.5-10.1,2.5c-0.8,0.2-1.5,0.5-2.3,0.7c-0.8,0.3-1.6,0.5-2.5,0.8
			c-6.3-5.2-13.2-9.8-20.6-13.5c-11.3-5.6-23.7-9.3-36.9-10.5c1.4-0.1,2.8-0.2,4.2-0.3c1,0,2-0.1,3-0.1c0.9,0,1.8,0,2.7,0
			c2.1,0,4.2,0.1,6.2,0.2c0,0,0.1,0,0.1,0c6.8,0.4,13.4,1.4,19.9,3.1c11.9,3,23.1,8.1,33,14.8C163.5,135.2,164.6,136,165.7,136.8z"
			/>
		<path class="st1" d="M147.4,142c-1.7,0.7-4.9,2.2-7.7,3.5c-0.6,0.3-1.2,0.5-1.7,0.8c-0.9,0.4-1.6,0.8-2.2,1.1
			c-14.5-12.3-32.4-20.7-52.1-23.7c-5.2-0.8-10.5-1.2-15.9-1.2h-0.1c-3.9,0-7.8,0.2-11.6,0.7c1.4-0.4,2.9-0.7,4.4-1
			c0.2,0,0.3-0.1,0.5-0.1c2.6-0.5,5.2-1,7.8-1.3c1.9-0.3,3.9-0.5,5.9-0.6l0.5,0c2.5-0.2,5-0.3,7.5-0.3c10.3,0,20.2,1.5,29.6,4.2v0
			C125.1,127.8,137,134,147.4,142z"/>
		<path class="st1" d="M54.8,118.5c-0.7,0.1-1.4,0.2-2,0.4V51.8h18.6v63.7c-1.2,0.1-2.3,0.2-3.3,0.4c-2.7,0.3-5.5,0.8-8.2,1.4
			l-0.5,0.1C57.8,117.8,56.3,118.1,54.8,118.5z"/>
		<path class="st1" d="M123.2,165.4c1.5,1.3,2.9,2.6,4.2,4c-7,3.3-15.4,5-25.1,5c-26.2,0-43.1-12.5-48-34.7c0.5,0,1.1,0,1.7,0
			c6.3,0,12.5,0.6,18.6,1.7c4.6,10.3,14.2,16,27.8,16c3.3,0,6.4-0.3,9.2-1c2.2,1.4,4.3,2.9,6.3,4.6l2.6,2L123.2,165.4z"/>
		<path class="st1" d="M151.9,51.8v71c-6-2.9-12.2-5.3-18.6-7.1V51.8H151.9z"/>
		<g>
			<path class="st1" d="M259.9,45v120.5h-18.6v-53.4h-64v22c-1.8,0.3-3.6,0.6-5.4,0.9c-0.1,0-0.2,0.1-0.3,0.1l-3-2.2
				c-1.2-0.8-2.3-1.7-3.6-2.5c-2-1.4-4.1-2.7-6.3-3.9V45h18.6v50.1h64V45H259.9z"/>
		</g>
		<path class="st1" d="M74.6,222.9c0,6.7-3.6,10.5-9.9,10.5c-6.3,0-9.9-3.8-9.9-10.5v-23.5h-6V223c0,10.1,5.8,15.9,15.9,15.9
			c10.1,0,15.9-5.8,15.9-15.9v-23.5h-6V222.9z"/>
		<path class="st1" d="M106.1,219.8v18.4h5.6v-19.7c0-6.2-3.2-9.4-9.3-9.4c-3.5,0-6.8,1.7-9,3.6v-2.9h-5.6v28.5h5.6v-20.3
			c1.4-1.8,4.2-3.7,7.3-3.7C104.5,214.2,106.1,215.9,106.1,219.8z"/>
		<path class="st1" d="M121.5,206.7c2,0,3.5-1.6,3.5-3.5c0-2-1.6-3.5-3.5-3.5c-1.9,0-3.5,1.6-3.5,3.5
			C118,205.2,119.6,206.7,121.5,206.7z"/>
		<rect x="118.8" y="209.7" class="st1" width="5.6" height="28.5"/>
		<polygon class="st1" points="144.3,238.2 156.2,209.7 150.1,209.7 141.6,230.8 133,209.7 127,209.7 138.8,238.2 		"/>
		<path class="st1" d="M171.8,238.9c4.5,0,8.4-1.5,11.3-4.3l0.4-0.4l-2.8-3.9l-0.6,0.6c-2,2-4.9,3.2-7.9,3.2c-5.5,0-8.5-3.9-9-8H185
			v-1.7c0-9-5.6-15.2-13.7-15.2c-8,0-14,6.4-14,14.9C157.3,232.7,163.2,238.9,171.8,238.9z M171.3,213.9c5.6,0,7.9,4.4,8.2,7.7
			h-16.3C163.6,218.3,166,213.9,171.3,213.9z"/>
		<path class="st1" d="M204.2,214.8l0.8,0.2v-5.9h-0.7c-3.1,0-6,1.3-8.3,3.8v-3.2h-5.6v28.5h5.6v-19.7c1.2-2,4.4-3.8,6.7-3.8
			C203.2,214.7,203.7,214.7,204.2,214.8z"/>
		<path class="st1" d="M218.8,220.9c-3.6-0.8-6.1-1.6-6.1-3.7c0-2.1,2.1-3.4,5.3-3.4c3,0,5.9,1.2,7.6,3.2l0.6,0.7l2.8-4.1l-0.4-0.4
			c-2.7-2.7-6.3-4.1-10.5-4.1c-7.4,0-10.8,4.4-10.8,8.5c0,6.2,5.7,7.5,10.3,8.6c3.6,0.9,6.4,1.8,6.4,4.2c0,2.4-2.1,3.8-5.7,3.8
			c-3.6,0-6.8-1.8-8.4-3.6l-0.6-0.7l-3,4.2l0.4,0.4c2.8,3,6.6,4.5,11.4,4.5c6.9,0,11.3-3.5,11.3-8.9
			C229.5,223.3,223.3,221.9,218.8,220.9z"/>
		<path class="st1" d="M254.6,212.7c-2.3-2.3-5.3-3.6-8.5-3.6c-7.6,0-12.7,6-12.7,14.9c0,8.9,5.1,14.9,12.7,14.9
			c3.2,0,6.2-1.3,8.5-3.6v2.9h5.6v-28.5h-5.6V212.7z M254.6,218.1V230c-1.5,2.2-4.6,3.8-7.4,3.8c-4.9,0-8-3.8-8-9.7
			c0-5.9,3.2-9.8,8-9.8C250.3,214.2,253.3,216.1,254.6,218.1z"/>
		<path class="st1" d="M277.9,232l-0.7,0.8c-0.4,0.4-1.3,0.9-2.3,0.9c-1.8,0-2.1-1.8-2.1-2.8v-31.5h-5.6v32.4c0,4.5,2.4,7,6.7,7
			c2.3,0,4.1-0.6,5.5-1.9l0.3-0.3L277.9,232z"/>
		<polygon class="st1" points="128.4,263.3 107.9,263.3 107.9,247.2 101.8,247.2 101.8,286 107.9,286 107.9,268.8 128.4,268.8 
			128.4,286 134.4,286 134.4,247.2 128.4,247.2 		"/>
		<path class="st1" d="M154.1,256.9c-8.2,0-14.1,6.3-14.1,14.9c0,8.6,5.9,14.9,14.1,14.9s14.1-6.3,14.1-14.9
			C168.2,263.1,162.3,256.9,154.1,256.9z M154.1,262c5.7,0,8.3,5.1,8.3,9.7c0,4.7-2.6,9.8-8.3,9.8c-5.7,0-8.3-5.1-8.3-9.8
			C145.8,267,148.4,262,154.1,262z"/>
		<path class="st1" d="M187.7,256.9c-3.2,0-6.2,1.3-8.5,3.5v-2.9h-5.6v38.8h5.6v-13.2c2.3,2.3,5.2,3.6,8.5,3.6
			c7.6,0,12.7-6,12.7-14.9C200.4,262.7,195.4,256.9,187.7,256.9z M194.6,271.7c0,5.9-3.2,9.8-8,9.8c-2.8,0-5.9-1.7-7.4-3.9v-11.8
			c1.5-2.2,4.6-3.8,7.4-3.8C191.5,262,194.6,265.8,194.6,271.7z"/>
		<path class="st1" d="M218.3,256.9c-8,0-14,6.4-14,14.9c0,8.8,6,14.9,14.5,14.9c4.5,0,8.4-1.5,11.3-4.3l0.4-0.4l-2.8-3.9l-0.6,0.6
			c-2,2-4.9,3.2-7.9,3.2c-5.5,0-8.5-3.9-9-8H232v-1.7C232,263.1,226.4,256.9,218.3,256.9z M218.2,261.7c5.6,0,7.9,4.4,8.2,7.7h-16.3
			C210.6,266,213,261.7,218.2,261.7z"/>
	</g>
</g>
</svg>
