<?xml version="1.0" encoding="utf-8"?>
<!-- Generator: Adobe Illustrator 25.2.1, SVG Export Plug-In . SVG Version: 6.00 Build 0)  -->
<!DOCTYPE svg PUBLIC "-//W3C//DTD SVG 1.1//EN" "http://www.w3.org/Graphics/SVG/1.1/DTD/svg11.dtd" [
	<!ENTITY ns_extend "http://ns.adobe.com/Extensibility/1.0/">
	<!ENTITY ns_ai "http://ns.adobe.com/AdobeIllustrator/10.0/">
	<!ENTITY ns_graphs "http://ns.adobe.com/Graphs/1.0/">
	<!ENTITY ns_vars "http://ns.adobe.com/Variables/1.0/">
	<!ENTITY ns_imrep "http://ns.adobe.com/ImageReplacement/1.0/">
	<!ENTITY ns_sfw "http://ns.adobe.com/SaveForWeb/1.0/">
	<!ENTITY ns_custom "http://ns.adobe.com/GenericCustomNamespace/1.0/">
	<!ENTITY ns_adobe_xpath "http://ns.adobe.com/XPath/1.0/">
]>
<svg version="1.1" id="Capa_1" xmlns:x="&ns_extend;" xmlns:i="&ns_ai;" xmlns:graph="&ns_graphs;"
	 xmlns="http://www.w3.org/2000/svg" xmlns:xlink="http://www.w3.org/1999/xlink" x="0px" y="0px" viewBox="0 0 484.5 125"
	 style="enable-background:new 0 0 484.5 125;" xml:space="preserve">
<style type="text/css">
	.st0{fill:#FE6600;}
	.st1{fill:#FEFDFD;}
	.st2{fill:#FEFEFE;}
</style>
<metadata>
	<sfw  xmlns="&ns_sfw;">
		<slices></slices>
		<sliceSourceBounds  bottomLeftOrigin="true" height="73.2" width="470" x="741.4" y="514.3"></sliceSourceBounds>
	</sfw>
</metadata>
<g id="plymag">
	<path d="M327.3,60.3c-2.8,4.6-5.5,9.3-8.3,13.9c-2.4,4-4.7,7.9-7.1,11.9c-0.3,0.6-0.7,0.9-1.4,0.8c-1.8-0.1-3.6-0.1-5.5,0
		c-1.2,0.1-1.8-0.4-2.3-1.3c-3.6-6-7.3-12-11-17.9c-1.4-2.2-2.7-4.4-4.3-6.6c0,0.4,0,0.9,0,1.3c0,9.8,0,19.7,0,29.5
		c0,1-0.2,1.2-1.2,1.2c-4.7-0.1-9.4,0-14.2,0c-0.8,0-1.1-0.2-1.1-1.1c0-20.2,0-40.4,0-60.7c0-1,0.3-1.1,1.2-1.1
		c4.1,0,8.1,0.1,12.2,0c1,0,1.5,0.3,2,1.1c7.1,11.7,14.2,23.3,21.3,35c0.6-0.6,0.9-1.3,1.3-2c6.6-11.1,13.2-22.1,19.7-33.2
		c0.4-0.7,0.9-1,1.7-1c4.2,0.1,8.4,0,12.5,0c0.7,0,1,0.2,1,0.9c0,20.3,0.1,40.6,0.2,60.9c0,0.8-0.2,1-1,1c-4.8,0-9.5,0-14.3,0
		c-0.9,0-1.1-0.2-1.1-1.1c0-9.8,0-19.7-0.1-29.5c0-0.7,0-1.5,0-2.2C327.5,60.3,327.4,60.3,327.3,60.3z"/>
	<path class="st0" d="M44.6,98.1c-6.2,0-12.4,0-18.6,0c-9.1,0-16.1-5.8-17.7-14.8C8,82.4,8,81.4,8,80.5c0-12.7,0-25.3,0-38
		c0-9.8,7.8-17.6,17.6-17.6c12.7,0,25.3,0,38,0c9.9,0,17.7,7.8,17.7,17.7c0,12.6,0,25.2,0,37.8c0,6.4-2.8,11.5-8.2,15
		c-2.9,1.9-6.2,2.7-9.6,2.7C57.2,98.1,50.9,98.1,44.6,98.1z"/>
	<path d="M463.1,72.3c-3.5,0-6.7,0-9.8,0c-0.8,0-1.1-0.1-1-1c0.1-3.5,0.1-6.9,0-10.4c0-0.8,0.3-1,1.1-1c7.9,0,15.8,0,23.7,0
		c0.8,0,1,0.2,1,1c0,10.5,0,21,0,31.5c0,0.7-0.2,1-0.9,1c-4.1,0-8.2-0.1-12.3,0c-0.9,0-1-0.3-1-1.1c0-1.3,0-2.6,0-4.1
		c-1.4,0.9-2.6,1.9-4,2.6c-7.2,3.9-14.7,3.7-22.1,1.1c-11.3-4-17.3-12.6-19.4-24.1c-1.3-7.2-0.6-14.2,2.9-20.7
		c4.9-9.4,12.8-14.8,23.1-16.6c7.1-1.2,14-0.3,20.5,3c4.3,2.2,7.8,5.3,10.3,9.4c0.3,0.5,0.5,0.8-0.1,1.3c-3.8,2.9-7.6,5.8-11.4,8.8
		c-0.7,0.6-0.9,0.3-1.3-0.3c-3.9-6.6-12.7-9.3-19.2-5.7c-3.1,1.7-5.2,4.4-6.4,7.7c-1.8,4.9-1.9,9.9,0,14.7
		c2.7,6.9,9.2,10.2,16.4,8.7C457,77.4,460.2,75.4,463.1,72.3z"/>
	<path d="M346.8,93.1c2.3-5.3,4.6-10.5,6.9-15.7c6.7-15.3,13.5-30.6,20.2-45.9c0.4-0.9,0.8-1.3,1.9-1.3c5,0.1,10,0,15,0
		c0.8,0,1.3,0.2,1.7,1c7.8,17.6,15.6,35.2,23.4,52.8c1.3,2.9,2.6,5.9,4,8.9c-1.3,0-2.4,0-3.5,0c-4.6,0-9.3,0-13.9,0
		c-0.8,0-1.2-0.3-1.4-1c-1.4-3.5-2.8-6.9-4.1-10.3c-0.3-0.7-0.6-0.9-1.3-0.9c-8.2,0-16.5,0-24.7,0c-0.7,0-1,0.2-1.3,0.8
		c-1.3,3.4-2.8,6.8-4.1,10.2c-0.4,0.9-0.8,1.2-1.8,1.2C358.1,93.1,352.6,93.1,346.8,93.1z"/>
	<path d="M102,61.7c0-10,0-20,0-30c0-0.8,0-1.3,1.1-1.3c10.4,0.1,20.9-0.1,31.3,0.2c3.9,0.1,7.6,0.8,11.3,2.2
		c6,2.3,9.7,6.5,10.9,12.9c0.8,4.2,0.7,8.5-0.5,12.6c-2,6.5-6.7,10-12.9,11.8c-3.8,1.1-7.6,1.4-11.5,1.5c-3.5,0-7,0-10.4,0
		c-1.1,0-1.5,0.2-1.4,1.4c0.1,6.4,0,12.7,0.1,19.1c0,0.9-0.1,1.2-1.1,1.2c-5.2-0.1-10.3-0.1-15.5,0c-0.9,0-1.2-0.2-1.2-1.1
		C102,81.9,102,71.8,102,61.7z"/>
	<path d="M203.2,30.3c2.5,0,4.8,0,7.1,0c3.5,0,7,0,10.6,0c0.9,0,1.3,0.3,1.7,1c4.7,7.9,9.5,15.9,14.3,23.9c0.6-1,1.2-2,1.8-3
		c4.2-7,8.4-14,12.6-21c0.4-0.7,0.8-0.9,1.6-0.9c5,0,10,0,15,0c0.3,0,0.6,0,1.1,0c-2.2,3.8-4.4,7.4-6.5,11c-5.7,9.5-11.3,19-17,28.5
		c-0.4,0.6-0.6,1.2-0.6,2c0,6.8,0,13.6,0,20.3c0,0.9-0.2,1.1-1.1,1.1c-5.2,0-10.4,0-15.7,0c-0.9,0-1.1-0.2-1.1-1.1
		c0-6.9,0-13.7,0-20.6c0-0.8-0.2-1.4-0.6-2.1c-7.5-12.4-14.9-24.9-22.4-37.3C203.9,31.5,203.6,31,203.2,30.3z"/>
	<path d="M164.9,61.7c0-10,0-20.1,0-30.1c0-0.9,0.2-1.2,1.2-1.2c5.2,0.1,10.4,0.1,15.5,0c1,0,1.2,0.3,1.2,1.2
		c0,15.4,0,30.8-0.1,46.2c0,1.2,0.3,1.4,1.4,1.4c9.2,0,18.3,0,27.5-0.1c1.1,0,1.3,0.3,1.3,1.3c-0.1,3.9,0,7.9,0,11.8
		c0,0.7,0,1.1-1,1.1c-15.4,0-30.7,0-46.1,0c-0.9,0-0.9-0.4-0.9-1.1C164.9,81.9,164.9,71.8,164.9,61.7z"/>
	<path class="st1" d="M72.2,61.6c-0.3,15.9-12.8,27.9-28.5,27.5C28.6,88.7,16.6,76,17,60.6C17.4,45.8,30.2,33.7,45.1,34
		C60.5,34.3,72.3,46.9,72.2,61.6z"/>
	<path class="st2" d="M391.2,67.8c-5.4,0-10.7,0-16.1,0c2.7-6.6,5.3-13.2,8.1-20.1C385.9,54.5,388.5,61.1,391.2,67.8z"/>
	<path class="st2" d="M119.8,51.2c0-2.4,0-4.9,0-7.3c0-0.5-0.1-0.9,0.7-0.9c4.3,0.1,8.6-0.3,12.9,0.3c2.8,0.4,5.2,1.3,6.6,4
		c2.8,5.5-0.4,11.3-6.7,12.1c-4.2,0.5-8.4,0.1-12.7,0.2c-0.8,0-0.7-0.5-0.7-1C119.8,56.1,119.8,53.7,119.8,51.2z"/>
	<path class="st0" d="M44.6,54.9c4.1,7.3,10,12.3,18,14.6c1.1,0.3,1.2,0.7,0.6,1.6c-4.2,7.4-10.5,11.4-19,11.2
		c-8.4-0.1-14.5-4.2-18.4-11.6c-0.4-0.8-0.2-0.9,0.6-1.2c7.8-2.3,13.8-7,17.8-14C44.3,55.4,44.5,55.2,44.6,54.9z"/>
	<path class="st0" d="M65.5,61c0,3.3,0,2.7-2.4,1.8c-8.5-3.3-13.5-9.4-14.9-18.4c-0.1-0.8-0.1-1.6-0.2-2.3c-0.1-1,0.3-1,1.1-0.9
		C58.5,43.2,65.2,51.3,65.5,61z"/>
	<path class="st0" d="M23.7,61.3c0.1-9.7,7-18.1,16.3-20.1c1-0.2,1.2,0,1.1,1c-0.3,9.8-6.9,18.4-16.4,21.1c-0.9,0.3-1.2,0.1-1.1-0.8
		C23.8,62,23.7,61.6,23.7,61.3z"/>
</g>
</svg>
