<?xml version="1.0" encoding="utf-8"?>
<!-- Generator: Adobe Illustrator 25.2.1, SVG Export Plug-In . SVG Version: 6.00 Build 0)  -->
<!DOCTYPE svg PUBLIC "-//W3C//DTD SVG 1.1//EN" "http://www.w3.org/Graphics/SVG/1.1/DTD/svg11.dtd" [
	<!ENTITY ns_extend "http://ns.adobe.com/Extensibility/1.0/">
	<!ENTITY ns_ai "http://ns.adobe.com/AdobeIllustrator/10.0/">
	<!ENTITY ns_graphs "http://ns.adobe.com/Graphs/1.0/">
	<!ENTITY ns_vars "http://ns.adobe.com/Variables/1.0/">
	<!ENTITY ns_imrep "http://ns.adobe.com/ImageReplacement/1.0/">
	<!ENTITY ns_sfw "http://ns.adobe.com/SaveForWeb/1.0/">
	<!ENTITY ns_custom "http://ns.adobe.com/GenericCustomNamespace/1.0/">
	<!ENTITY ns_adobe_xpath "http://ns.adobe.com/XPath/1.0/">
]>
<svg version="1.1" id="Capa_1" xmlns:x="&ns_extend;" xmlns:i="&ns_ai;" xmlns:graph="&ns_graphs;"
	 xmlns="http://www.w3.org/2000/svg" xmlns:xlink="http://www.w3.org/1999/xlink" x="0px" y="0px" viewBox="0 0 125.5 125.9"
	 style="enable-background:new 0 0 125.5 125.9;" xml:space="preserve">
<style type="text/css">
	.st0{fill:#02AC4D;}
	.st1{fill:#019247;}
	.st2{fill:#A46C29;}
	.st3{fill:#F89420;}
</style>
<metadata>
	<sfw  xmlns="&ns_sfw;">
		<slices></slices>
		<sliceSourceBounds  bottomLeftOrigin="true" height="119.7" width="120" x="185.1" y="286.5"></sliceSourceBounds>
	</sfw>
</metadata>
<g>
	<g>
		<g>
			<path class="st0" d="M56,48.1c-1.1,0.6-2.1,1.3-3.1,2.1c-0.2,0.1-0.4,0.3-0.6,0.4c-0.3,0.2-0.6,0.4-0.8,0.6
				c-4.4-3.5-9.6-6.1-15.1-7.7v0c-4-1.2-8.3-1.8-12.7-1.8c-2,0-4,0.1-5.9,0.4C13,42.7,8.5,44,4.3,46c-0.6,0.3-1.1,0.5-1.7,0.8
				c0.3-0.3,0.7-0.6,1-0.8c0.2-0.2,0.5-0.4,0.7-0.6c0.8-0.6,1.6-1.2,2.4-1.8c0.3-0.2,0.6-0.5,1-0.7c0.2-0.1,0.5-0.2,0.7-0.3
				c4.7-2.3,9.9-3.7,15.4-4.2c1.3-0.1,2.6-0.2,4-0.2c2.7,0,5.3,0.2,7.8,0.7c7.2,1.3,13.8,4.2,19.4,8.4C55.3,47.6,55.7,47.8,56,48.1z
				"/>
			<path class="st0" d="M96.8,47.6c1.5,0,3,0.1,4.4,0.2v2.8c-3,0-5.9,0.3-8.7,0.9c-3.6,0.7-7.1,1.9-10.3,3.5
				c-2.3,1.1-4.4,2.3-6.5,3.8c-0.9,0.6-1.7,1.2-2.5,1.9c-0.9,0.7-1.8,1.5-2.6,2.3c-0.2,0.2-0.4,0.4-0.6,0.6
				c-0.4,0.4-0.8,0.8-1.2,1.2c-1.3,1.4-2.6,2.9-3.7,4.4c-0.1-0.3-0.3-0.7-0.5-1c-0.7-1.6-1.5-3.1-2.4-4.6c0.2-0.2,0.3-0.4,0.5-0.5
				l0,0c1-1.2,2.2-2.4,3.4-3.4c0.4-0.4,0.9-0.8,1.3-1.2c1-0.9,2.1-1.7,3.2-2.5c0.8-0.6,1.7-1.2,2.6-1.7c2-1.2,4.1-2.3,6.3-3.2
				c4.7-1.9,9.8-3.1,15.1-3.4C95.3,47.6,96.1,47.6,96.8,47.6z"/>
			<path class="st1" d="M122.6,55.7c-3.1-1.6-6.4-2.9-9.8-3.7v-1.4c0.3,0.1,0.6,0.2,0.9,0.3c0,0,0,0,0,0c1.8,0.7,3.6,1.6,5.3,2.6
				C120.3,54.1,121.5,54.9,122.6,55.7z"/>
			<path class="st0" d="M98.8,46.1c-1.1-0.3-2.2-0.5-3.4-0.8c-0.5-0.1-1-0.2-1.5-0.2c0,0,0,0,0,0c-2.2-0.3-4.5-0.5-6.8-0.5
				c-2.1,0-4.1,0.1-6.1,0.4c0,0-0.1,0-0.1,0c-2,0.3-4,0.7-5.9,1.2c-2.2,0.6-4.3,1.4-6.3,2.3c-1,0.4-1.9,0.9-2.9,1.4
				c-1.1,0.6-2.2,1.2-3.2,1.9c-0.5,0.3-1.1,0.7-1.6,1.1h0c-1.5,1-2.9,2.2-4.2,3.4c-0.3-0.3-0.5-0.6-0.8-0.9
				c-0.7-0.8-1.5-1.5-2.3-2.2c0.3-0.2,0.5-0.4,0.8-0.6c1.2-0.9,2.4-1.8,3.6-2.6c0.6-0.4,1.1-0.7,1.7-1.1c1.1-0.6,2.2-1.2,3.3-1.7
				c0.9-0.4,1.7-0.8,2.6-1.1c0.1-0.1,0.3-0.1,0.4-0.2c2.1-0.8,4.2-1.4,6.4-1.9c0.4-0.1,0.7-0.2,1.1-0.2c2.9-0.6,5.8-0.9,8.9-0.9
				c2.1,0,4.2,0.1,6.2,0.4c0,0,0,0,0,0c2.3,0.3,4.5,0.8,6.6,1.4c0,0,0,0,0,0c0.1,0,0.1,0,0.2,0c0.2,0.1,0.4,0.1,0.6,0.2
				c0.1,0.1,0.3,0.1,0.4,0.2c0,0,0,0,0,0c0.2,0.1,0.4,0.2,0.7,0.3C97.8,45.6,98.3,45.8,98.8,46.1z"/>
			<path class="st0" d="M98.2,46.5c-1-0.1-2-0.1-3-0.1h-0.2c-0.9,0-1.9,0-2.8,0.1c-0.1,0-0.2,0-0.2,0c-4.8,0.3-9.4,1.4-13.7,3.1
				c-2.2,0.9-4.2,1.9-6.2,3c-0.9,0.5-1.8,1.1-2.6,1.7c-1.1,0.7-2.1,1.5-3.1,2.4c-0.5,0.4-0.9,0.8-1.3,1.1c-1.4,1.2-2.6,2.5-3.9,3.9
				c-0.2-0.2-0.3-0.5-0.5-0.7c-0.8-1.1-1.6-2.2-2.5-3.3c0.2-0.2,0.4-0.4,0.6-0.6c1.1-1,2.3-2,3.5-2.9c0.5-0.4,1-0.7,1.5-1.1
				c1.1-0.7,2.1-1.4,3.2-2c0.9-0.5,1.8-1,2.8-1.4c2-1,4.2-1.8,6.4-2.4c3.8-1.1,7.8-1.8,11.9-1.8c0.3,0,0.6,0,0.8,0
				c1.6,0,3.1,0.1,4.7,0.2c0.5,0.1,0.9,0.1,1.4,0.2c0.6,0.1,1.2,0.2,1.8,0.3H97C97.4,46.4,97.8,46.4,98.2,46.5z"/>
			<path class="st0" d="M70.7,42.5c-1.5,0.3-2.9,0.6-4.3,1.1c-0.3,0.1-0.7,0.2-1,0.3c-0.4,0.1-0.7,0.2-1.1,0.4
				c-2.7-2.2-5.7-4.2-8.8-5.8c-4.8-2.4-10.2-4-15.8-4.5c0.6-0.1,1.2-0.1,1.8-0.1c0.4,0,0.9,0,1.3,0c0.4,0,0.8,0,1.2,0
				c0.9,0,1.8,0,2.7,0.1c0,0,0,0,0,0c2.9,0.2,5.8,0.6,8.5,1.3c5.1,1.3,9.9,3.5,14.1,6.3C69.7,41.8,70.2,42.1,70.7,42.5z"/>
			<path class="st0" d="M62.8,44.7c-0.7,0.3-2.1,0.9-3.3,1.5c-0.3,0.1-0.5,0.2-0.7,0.3c-0.4,0.2-0.7,0.3-0.9,0.5
				c-6.2-5.3-13.9-8.9-22.3-10.2c-2.2-0.3-4.5-0.5-6.8-0.5h0c-1.7,0-3.3,0.1-5,0.3c0.6-0.2,1.2-0.3,1.9-0.4c0.1,0,0.1,0,0.2,0
				c1.1-0.2,2.2-0.4,3.4-0.6c0.8-0.1,1.7-0.2,2.5-0.3l0.2,0c1.1-0.1,2.1-0.1,3.2-0.1c4.4,0,8.7,0.6,12.7,1.8v0
				C53.2,38.6,58.4,41.2,62.8,44.7z"/>
		</g>
		<g>
			<path class="st1" d="M56,48.1c-1.1,0.6-2.1,1.3-3.1,2.1c-0.2,0.1-0.4,0.3-0.6,0.4c-0.3,0.2-0.6,0.4-0.8,0.6
				c-4.4-3.5-9.6-6.1-15.1-7.7v0c-4-1.2-8.3-1.8-12.7-1.8c-2,0-4,0.1-5.9,0.4C13,42.7,8.5,44,4.3,46c-0.6,0.3-1.1,0.5-1.7,0.8
				c0.3-0.3,0.7-0.6,1-0.8c0.2-0.2,0.5-0.4,0.7-0.6c0,0,0,0,0,0c4.1-2,8.6-3.3,13.4-3.9c1.9-0.3,3.9-0.4,5.9-0.4
				c4.4,0,8.7,0.6,12.7,1.8v0c5.6,1.6,10.7,4.3,15.1,7.7c0.3-0.2,0.5-0.4,0.8-0.6c0.2-0.2,0.4-0.3,0.6-0.4c0.9-0.6,1.8-1.2,2.7-1.8
				C55.7,47.9,55.8,48,56,48.1z"/>
			<path class="st1" d="M101.3,50v0.6c-3,0-5.9,0.3-8.7,0.9c-3.6,0.7-7.1,1.9-10.3,3.5c-2.3,1.1-4.4,2.3-6.5,3.8
				c-0.9,0.6-1.7,1.2-2.5,1.9c-0.9,0.7-1.8,1.5-2.6,2.3c-0.2,0.2-0.4,0.4-0.6,0.6c-0.4,0.4-0.8,0.8-1.2,1.2
				c-1.3,1.4-2.6,2.9-3.7,4.4c-0.1-0.3-0.3-0.7-0.5-1c-0.7-1.6-1.5-3.1-2.4-4.6c0.1-0.1,0.1-0.2,0.2-0.2c0.8,1.4,1.6,2.8,2.2,4.2
				c0.2,0.3,0.3,0.7,0.5,1c1.1-1.6,2.4-3,3.7-4.4c0.4-0.4,0.8-0.8,1.2-1.2c0.2-0.2,0.4-0.4,0.6-0.6c0.8-0.8,1.7-1.5,2.6-2.3
				c0.8-0.7,1.6-1.3,2.5-1.9c2-1.4,4.2-2.7,6.5-3.8c3.2-1.6,6.7-2.7,10.3-3.5C95.4,50.4,98.3,50.1,101.3,50z"/>
			<path class="st1" d="M122.6,55.7c-3.1-1.6-6.4-2.9-9.8-3.7v-0.6c2.1,0.5,4.2,1.2,6.2,2c0,0,0,0,0,0
				C120.3,54.1,121.5,54.9,122.6,55.7z"/>
			<path class="st1" d="M98.8,46.1c-0.2-0.1-0.5-0.1-0.7-0.2c-0.2,0-0.3-0.1-0.5-0.1c0,0,0,0-0.1,0c-0.7-0.2-1.4-0.3-2.2-0.5
				c-0.5-0.1-1-0.2-1.5-0.2c0,0,0,0,0,0c-2.2-0.3-4.5-0.5-6.8-0.5c-2.1,0-4.1,0.1-6.1,0.4c0,0-0.1,0-0.1,0c-2,0.3-4,0.7-5.9,1.2
				c-2.2,0.6-4.3,1.4-6.4,2.3c-1,0.4-1.9,0.9-2.9,1.4c-1.1,0.6-2.2,1.2-3.2,1.9c-0.5,0.3-1.1,0.7-1.6,1.1h0c-1.5,1-2.9,2.2-4.2,3.4
				c-0.3-0.3-0.5-0.6-0.8-0.9c-0.7-0.8-1.5-1.5-2.3-2.2c0.1-0.1,0.2-0.2,0.3-0.3c0.7,0.6,1.3,1.2,1.9,1.9c0.3,0.3,0.6,0.6,0.8,0.9
				c1.3-1.2,2.7-2.3,4.2-3.4h0c0.5-0.4,1-0.7,1.6-1.1c1-0.7,2.1-1.3,3.2-1.9c0.9-0.5,1.9-1,2.9-1.4c2-0.9,4.2-1.7,6.4-2.3
				c1.9-0.5,3.9-0.9,5.9-1.2c0,0,0.1,0,0.1,0c2-0.3,4-0.4,6.1-0.4c2.3,0,4.6,0.2,6.8,0.5c0,0,0,0,0,0c0.5,0.1,1,0.2,1.5,0.2
				c0.1,0,0.3,0.1,0.4,0.1c0,0,0,0,0,0c0.1,0,0.2,0.1,0.3,0.1c0.1,0.1,0.3,0.1,0.4,0.2c0,0,0,0,0,0c0.2,0.1,0.4,0.2,0.7,0.3
				C97.8,45.6,98.3,45.8,98.8,46.1z"/>
			<path class="st1" d="M98.2,46.5c-1-0.1-2-0.1-3-0.1h-0.2c-0.9,0-1.9,0-2.8,0.1c-0.1,0-0.2,0-0.2,0c-4.8,0.3-9.4,1.4-13.6,3.1
				c-2.2,0.9-4.2,1.9-6.2,3c-0.9,0.5-1.8,1.1-2.6,1.7c-1.1,0.7-2.1,1.5-3.1,2.4c-0.5,0.4-0.9,0.8-1.4,1.2c-1.4,1.2-2.6,2.5-3.9,3.9
				c-0.2-0.2-0.3-0.5-0.5-0.7c-0.8-1.1-1.6-2.2-2.5-3.3c0.1-0.1,0.2-0.2,0.3-0.3c0.8,0.9,1.5,1.9,2.2,2.9c0.2,0.2,0.3,0.5,0.5,0.7
				c1.2-1.4,2.5-2.7,3.9-3.9c0.4-0.4,0.9-0.8,1.4-1.2c1-0.8,2.1-1.6,3.1-2.4c0.8-0.6,1.7-1.1,2.6-1.7c2-1.2,4-2.2,6.2-3
				c4.3-1.7,8.9-2.8,13.6-3.1c0.1,0,0.1,0,0.2,0c0.5,0,1-0.1,1.6-0.1c0,0,0,0,0,0c0.5,0,0.9,0.1,1.4,0.2c0.6,0.1,1.2,0.2,1.8,0.3H97
				C97.4,46.4,97.8,46.4,98.2,46.5z"/>
			<path class="st1" d="M70.7,42.5c-1.5,0.3-2.9,0.6-4.3,1.1c-0.3,0.1-0.7,0.2-1,0.3c-0.4,0.1-0.7,0.2-1.1,0.4
				c-2.7-2.2-5.7-4.2-8.8-5.8c-4.8-2.4-10.2-4-15.8-4.5c0.6-0.1,1.2-0.1,1.8-0.1c0.4,0,0.9,0,1.3,0c4.5,0.7,8.8,2.1,12.7,4.1
				c3.2,1.6,6.1,3.5,8.8,5.8c0.4-0.1,0.7-0.2,1.1-0.4c0.3-0.1,0.7-0.2,1-0.3c1.2-0.4,2.5-0.7,3.7-0.9C70.2,42.2,70.5,42.3,70.7,42.5
				z"/>
			<path class="st1" d="M62.8,44.7c-0.7,0.3-2.1,0.9-3.3,1.5c-0.3,0.1-0.5,0.2-0.7,0.3c-0.4,0.2-0.7,0.3-0.9,0.5
				c-6.2-5.3-13.9-8.9-22.3-10.2c-2.2-0.3-4.5-0.5-6.8-0.5h0c-1.7,0-3.4,0.1-5,0.3c0.6-0.2,1.2-0.3,1.9-0.4c0.1,0,0.1,0,0.2,0
				c0.7-0.1,1.3-0.3,2-0.4c0.3,0,0.6,0,0.9,0h0c2.3,0,4.6,0.2,6.8,0.5c8.4,1.3,16.1,4.9,22.3,10.2c0.2-0.1,0.6-0.3,0.9-0.5
				c0.2-0.1,0.5-0.2,0.7-0.3c1-0.5,2-0.9,2.8-1.3C62.5,44.5,62.6,44.6,62.8,44.7z"/>
		</g>
	</g>
	<g>
		<path class="st2" d="M52.4,54.7c0.6,0.6,1.2,1.1,1.8,1.7c-3,1.4-6.6,2.1-10.8,2.1c-11.2,0-18.5-5.3-20.6-14.9c0.2,0,0.5,0,0.7,0
			c2.7,0,5.3,0.2,8,0.7c2,4.4,6.1,6.9,11.9,6.9c1.4,0,2.7-0.1,4-0.4c0.9,0.6,1.8,1.3,2.7,2l1.1,0.9L52.4,54.7z"/>
		<path class="st3" d="M23.1,34.6c-0.3,0.1-0.6,0.1-0.9,0.2V6h8v27.3c-0.5,0.1-1,0.1-1.4,0.2c-1.2,0.1-2.3,0.3-3.5,0.6l-0.2,0
			C24.4,34.3,23.8,34.5,23.1,34.6z"/>
		<path class="st3" d="M64.7,6v30.4c-2.6-1.3-5.2-2.3-8-3.1V6H64.7z"/>
		<g>
			<path class="st3" d="M111,3.1v51.6h-8V31.9H75.6v9.4c-0.8,0.1-1.6,0.3-2.3,0.4c0,0-0.1,0-0.1,0l-1.3-0.9c-0.5-0.4-1-0.7-1.5-1.1
				c-0.9-0.6-1.8-1.2-2.7-1.7V3.1h8v21.5h27.4V3.1H111z"/>
		</g>
	</g>
	<g>
		<path d="M31.6,79.3c0,2.9-1.5,4.5-4.2,4.5s-4.2-1.6-4.2-4.5V69.3h-2.6v10.1c0,4.3,2.5,6.8,6.8,6.8c4.3,0,6.8-2.5,6.8-6.8V69.3
			h-2.6V79.3z"/>
		<path d="M45.1,78v7.9h2.4v-8.4c0-2.6-1.4-4-4-4c-1.5,0-2.9,0.7-3.8,1.6v-1.3h-2.4v12.2h2.4v-8.7c0.6-0.8,1.8-1.6,3.1-1.6
			C44.4,75.6,45.1,76.3,45.1,78z"/>
		<rect x="50.5" y="73.7" width="2.4" height="12.2"/>
		<polygon points="61.5,85.9 66.6,73.7 64,73.7 60.3,82.8 56.6,73.7 54.1,73.7 59.1,85.9 		"/>
		<path d="M73.3,86.2c1.9,0,3.6-0.6,4.8-1.9l0.2-0.2L77,82.5l-0.2,0.2c-0.8,0.9-2.1,1.4-3.4,1.4c-2.4,0-3.6-1.7-3.9-3.4h9.4v-0.7
			c0-3.8-2.4-6.5-5.9-6.5c-3.4,0-6,2.7-6,6.4C67,83.6,69.6,86.2,73.3,86.2z M73,75.5c2.4,0,3.4,1.9,3.5,3.3h-7
			C69.8,77.4,70.8,75.5,73,75.5z"/>
		<path d="M87.1,75.9l0.4,0.1v-2.5h-0.3c-1.3,0-2.6,0.6-3.6,1.6v-1.4h-2.4v12.2h2.4v-8.4c0.5-0.8,1.9-1.6,2.9-1.6
			C86.7,75.8,86.9,75.9,87.1,75.9z"/>
		<path d="M93.4,78.5c-1.5-0.4-2.6-0.7-2.6-1.6c0-0.9,0.9-1.5,2.3-1.5c1.3,0,2.5,0.5,3.2,1.4l0.2,0.3l1.2-1.8l-0.2-0.2
			c-1.2-1.2-2.7-1.8-4.5-1.8c-3.2,0-4.6,1.9-4.6,3.6c0,2.6,2.5,3.2,4.4,3.7c1.6,0.4,2.8,0.8,2.8,1.8c0,1-0.9,1.6-2.4,1.6
			c-1.6,0-2.9-0.8-3.6-1.6l-0.2-0.3l-1.3,1.8l0.2,0.2c1.2,1.3,2.8,1.9,4.9,1.9c3,0,4.9-1.5,4.9-3.8C98,79.5,95.4,78.9,93.4,78.5z"/>
		<path d="M108.8,75c-1-1-2.3-1.5-3.6-1.5c-3.3,0-5.5,2.6-5.5,6.4c0,3.8,2.2,6.4,5.5,6.4c1.4,0,2.7-0.6,3.6-1.5v1.2h2.4V73.7h-2.4
			V75z M108.8,77.3v5.1c-0.7,1-2,1.6-3.2,1.6c-2.1,0-3.4-1.6-3.4-4.2c0-2.5,1.4-4.2,3.4-4.2C106.9,75.6,108.2,76.5,108.8,77.3z"/>
		<path d="M118.7,83.3l-0.3,0.3c-0.2,0.2-0.5,0.4-1,0.4c-0.8,0-0.9-0.8-0.9-1.2V69.3h-2.4v13.9c0,1.9,1,3,2.9,3c1,0,1.7-0.3,2.3-0.8
			l0.1-0.1L118.7,83.3z"/>
		<polygon points="54.7,96.7 45.9,96.7 45.9,89.8 43.3,89.8 43.3,106.4 45.9,106.4 45.9,99 54.7,99 54.7,106.4 57.2,106.4 
			57.2,89.8 54.7,89.8 		"/>
		<path d="M65.7,93.9c-3.5,0-6,2.7-6,6.4c0,3.7,2.5,6.4,6,6.4s6-2.7,6-6.4C71.7,96.6,69.2,93.9,65.7,93.9z M65.7,96.1
			c2.4,0,3.6,2.2,3.6,4.2c0,2-1.1,4.2-3.6,4.2c-2.5,0-3.6-2.2-3.6-4.2C62.1,98.3,63.2,96.1,65.7,96.1z"/>
		<path d="M80.1,93.9c-1.4,0-2.7,0.6-3.6,1.5v-1.2h-2.4v16.6h2.4v-5.7c1,1,2.2,1.5,3.6,1.5c3.3,0,5.5-2.6,5.5-6.4
			C85.5,96.4,83.4,93.9,80.1,93.9z M83.1,100.3c0,2.5-1.4,4.2-3.4,4.2c-1.2,0-2.5-0.7-3.2-1.7v-5.1c0.6-1,1.9-1.6,3.2-1.6
			C81.7,96.1,83.1,97.7,83.1,100.3z"/>
		<path d="M93.2,93.9c-3.4,0-6,2.7-6,6.4c0,3.8,2.6,6.4,6.2,6.4c1.9,0,3.6-0.6,4.8-1.9l0.2-0.2l-1.2-1.7l-0.2,0.2
			c-0.8,0.9-2.1,1.4-3.4,1.4c-2.4,0-3.6-1.7-3.9-3.4h9.4v-0.7C99.1,96.6,96.7,93.9,93.2,93.9z M93.2,96c2.4,0,3.4,1.9,3.5,3.3h-7
			C89.9,97.9,90.9,96,93.2,96z"/>
		<path d="M51.7,72.4c0.8,0,1.5-0.7,1.5-1.5c0-0.8-0.7-1.5-1.5-1.5c-0.8,0-1.5,0.7-1.5,1.5C50.2,71.8,50.9,72.4,51.7,72.4z"/>
	</g>
	<g id="slogan_2_">
		<path d="M21.2,115.7h3c1.2,0,1.9,0.7,1.9,1.7c0,0.8-0.6,1.4-1.2,1.5c0.7,0.1,1.3,0.8,1.3,1.7c0,1.1-0.7,1.8-1.9,1.8h-3.1V115.7z
			 M24.1,118.7c0.8,0,1.2-0.5,1.2-1.1c0-0.6-0.4-1.1-1.2-1.1h-2v2.2H24.1z M24.1,121.7c0.8,0,1.3-0.4,1.3-1.2c0-0.6-0.4-1.2-1.3-1.2
			H22v2.3H24.1z"/>
		<path d="M27.4,122.7v-5.1h0.8v0.8c0.4-0.5,1-0.9,1.7-0.9v0.8c-0.1,0-0.2,0-0.3,0c-0.5,0-1.1,0.4-1.4,0.8v3.6"/>
		<path d="M30.7,116.3c0-0.3,0.2-0.5,0.5-0.5c0.3,0,0.5,0.2,0.5,0.5c0,0.3-0.2,0.5-0.5,0.5C31,116.9,30.7,116.6,30.7,116.3z
			 M30.9,117.7h0.8v5.1h-0.8V117.7z"/>
		<path d="M36.7,119.4c0-0.9-0.5-1.2-1.1-1.2c-0.6,0-1.2,0.4-1.5,0.8v3.7h-0.8v-5.1H34v0.7c0.4-0.4,1-0.9,1.8-0.9
			c1.1,0,1.6,0.5,1.6,1.6v3.6h-0.8V119.4z"/>
		<path d="M42.7,122c-0.4,0.5-1,0.9-1.7,0.9c-1.3,0-2.3-1-2.3-2.7c0-1.6,0.9-2.7,2.3-2.7c0.7,0,1.3,0.3,1.7,0.9v-2.7h0.8v7h-0.8V122
			z M42.7,119.1c-0.3-0.4-0.9-0.8-1.5-0.8c-1,0-1.6,0.8-1.6,2c0,1.1,0.6,1.9,1.6,1.9c0.6,0,1.2-0.4,1.5-0.8V119.1z"/>
		<path d="M48.2,122.2c-0.4,0.5-1,0.7-1.7,0.7c-0.9,0-1.8-0.6-1.8-1.7c0-1.1,0.9-1.7,1.8-1.7c0.7,0,1.3,0.2,1.7,0.7v-0.9
			c0-0.7-0.5-1.1-1.3-1.1c-0.6,0-1.1,0.2-1.6,0.7l-0.4-0.5c0.5-0.6,1.2-0.8,2-0.8c1.1,0,2,0.5,2,1.7v3.5h-0.8V122.2z M48.2,120.7
			c-0.3-0.4-0.8-0.6-1.4-0.6c-0.7,0-1.2,0.5-1.2,1.1c0,0.6,0.5,1.1,1.2,1.1c0.6,0,1.1-0.2,1.4-0.6V120.7z"/>
		<path d="M56.7,119.3c0-0.6-0.3-1-0.9-1c-0.5,0-1.1,0.4-1.3,0.8v3.7h-0.8v-3.4c0-0.6-0.3-1-0.9-1c-0.5,0-1.1,0.4-1.3,0.8v3.7h-0.8
			v-5.1h0.8v0.7c0.2-0.3,0.9-0.9,1.6-0.9c0.8,0,1.2,0.4,1.4,0.9c0.3-0.5,1-0.9,1.7-0.9c0.9,0,1.4,0.5,1.4,1.5v3.7h-0.8V119.3z"/>
		<path d="M58.7,120.2c0-1.5,1-2.7,2.5-2.7c1.5,0,2.5,1.2,2.5,2.7c0,1.5-1,2.7-2.5,2.7C59.7,122.9,58.7,121.7,58.7,120.2z
			 M62.9,120.2c0-1-0.6-1.9-1.7-1.9s-1.7,0.9-1.7,1.9c0,1,0.6,2,1.7,2S62.9,121.2,62.9,120.2z"/>
		<path d="M65,121.5c0.3,0.4,1,0.7,1.7,0.7c0.8,0,1.2-0.3,1.2-0.8c0-0.6-0.6-0.7-1.3-0.9c-0.9-0.2-1.8-0.4-1.8-1.5
			c0-0.8,0.7-1.5,1.9-1.5c0.9,0,1.5,0.3,1.9,0.7l-0.4,0.5c-0.3-0.4-0.9-0.6-1.5-0.6c-0.7,0-1.1,0.3-1.1,0.8c0,0.5,0.6,0.6,1.2,0.8
			c0.9,0.2,1.9,0.5,1.9,1.6c0,0.8-0.7,1.5-2,1.5c-0.8,0-1.5-0.3-2-0.8L65,121.5z"/>
		<path d="M72.6,121.5c0.3,0.4,1,0.7,1.7,0.7c0.8,0,1.2-0.3,1.2-0.8c0-0.6-0.6-0.7-1.3-0.9c-0.9-0.2-1.8-0.4-1.8-1.5
			c0-0.8,0.7-1.5,1.9-1.5c0.9,0,1.5,0.3,1.9,0.7l-0.4,0.5c-0.3-0.4-0.9-0.6-1.5-0.6c-0.7,0-1.1,0.3-1.1,0.8c0,0.5,0.6,0.6,1.2,0.8
			c0.9,0.2,1.9,0.5,1.9,1.6c0,0.8-0.7,1.5-2,1.5c-0.8,0-1.5-0.3-2-0.8L72.6,121.5z"/>
		<path d="M77.2,120.2c0-1.5,1-2.7,2.5-2.7c1.5,0,2.5,1.2,2.5,2.7c0,1.5-1,2.7-2.5,2.7C78.1,122.9,77.2,121.7,77.2,120.2z
			 M81.3,120.2c0-1-0.6-1.9-1.7-1.9c-1.1,0-1.7,0.9-1.7,1.9c0,1,0.6,2,1.7,2C80.7,122.2,81.3,121.2,81.3,120.2z"/>
		<path d="M83.4,115.7h0.8v7h-0.8V115.7z"/>
		<path d="M89.2,122c-0.4,0.4-1,0.8-1.8,0.8c-1.1,0-1.6-0.5-1.6-1.6v-3.6h0.8v3.3c0,0.9,0.5,1.2,1.1,1.2c0.6,0,1.2-0.4,1.5-0.8v-3.7
			H90v5.1h-0.8V122z"/>
		<path d="M93.8,117.5c0.9,0,1.5,0.4,1.9,0.9l-0.5,0.5c-0.3-0.5-0.8-0.7-1.3-0.7c-1.1,0-1.8,0.8-1.8,1.9c0,1.1,0.7,2,1.8,2
			c0.5,0,1-0.2,1.3-0.7l0.5,0.5c-0.4,0.5-0.9,0.9-1.9,0.9c-1.5,0-2.5-1.2-2.5-2.7C91.3,118.7,92.3,117.5,93.8,117.5z"/>
		<path d="M96.6,116.3c0-0.3,0.2-0.5,0.5-0.5c0.3,0,0.5,0.2,0.5,0.5c0,0.3-0.2,0.5-0.5,0.5C96.9,116.9,96.6,116.6,96.6,116.3z
			 M96.8,117.7h0.8v5.1h-0.8V117.7z"/>
		<path d="M98.8,120.2c0-1.5,1-2.7,2.5-2.7s2.5,1.2,2.5,2.7c0,1.5-1,2.7-2.5,2.7S98.8,121.7,98.8,120.2z M103,120.2
			c0-1-0.6-1.9-1.7-1.9s-1.7,0.9-1.7,1.9c0,1,0.6,2,1.7,2S103,121.2,103,120.2z"/>
		<path d="M108.5,119.4c0-0.9-0.5-1.2-1.1-1.2c-0.6,0-1.2,0.4-1.5,0.8v3.7h-0.8v-5.1h0.8v0.7c0.4-0.4,1-0.9,1.8-0.9
			c1.1,0,1.6,0.5,1.6,1.6v3.6h-0.8V119.4z"/>
		<path d="M113.1,117.5c1.5,0,2.4,1.2,2.4,2.7v0.2h-4.1c0.1,1,0.7,1.8,1.8,1.8c0.6,0,1.2-0.2,1.6-0.6l0.4,0.5
			c-0.5,0.5-1.2,0.8-2,0.8c-1.5,0-2.6-1.1-2.6-2.7C110.6,118.7,111.6,117.5,113.1,117.5z M111.4,119.9h3.3c0-0.8-0.5-1.7-1.7-1.7
			C112,118.2,111.5,119.1,111.4,119.9z"/>
		<path d="M116.7,121.5c0.3,0.4,1,0.7,1.7,0.7c0.8,0,1.2-0.3,1.2-0.8c0-0.6-0.6-0.7-1.3-0.9c-0.9-0.2-1.8-0.4-1.8-1.5
			c0-0.8,0.7-1.5,1.9-1.5c0.9,0,1.5,0.3,1.9,0.7l-0.4,0.5c-0.3-0.4-0.9-0.6-1.5-0.6c-0.7,0-1.1,0.3-1.1,0.8c0,0.5,0.6,0.6,1.2,0.8
			c0.9,0.2,1.9,0.5,1.9,1.6c0,0.8-0.7,1.5-2,1.5c-0.8,0-1.5-0.3-2-0.8L116.7,121.5z"/>
		<path d="M122.1,121.7c0.3,0,0.6,0.3,0.6,0.6c0,0.3-0.3,0.6-0.6,0.6c-0.3,0-0.6-0.3-0.6-0.6C121.5,122,121.7,121.7,122.1,121.7z"/>
	</g>
</g>
</svg>
