<?xml version="1.0" encoding="utf-8"?>
<!-- Generator: Adobe Illustrator 25.2.1, SVG Export Plug-In . SVG Version: 6.00 Build 0)  -->
<!DOCTYPE svg PUBLIC "-//W3C//DTD SVG 1.1//EN" "http://www.w3.org/Graphics/SVG/1.1/DTD/svg11.dtd" [
	<!ENTITY ns_extend "http://ns.adobe.com/Extensibility/1.0/">
	<!ENTITY ns_ai "http://ns.adobe.com/AdobeIllustrator/10.0/">
	<!ENTITY ns_graphs "http://ns.adobe.com/Graphs/1.0/">
	<!ENTITY ns_vars "http://ns.adobe.com/Variables/1.0/">
	<!ENTITY ns_imrep "http://ns.adobe.com/ImageReplacement/1.0/">
	<!ENTITY ns_sfw "http://ns.adobe.com/SaveForWeb/1.0/">
	<!ENTITY ns_custom "http://ns.adobe.com/GenericCustomNamespace/1.0/">
	<!ENTITY ns_adobe_xpath "http://ns.adobe.com/XPath/1.0/">
]>
<svg version="1.1" id="Capa_1" xmlns:x="&ns_extend;" xmlns:i="&ns_ai;" xmlns:graph="&ns_graphs;"
	 xmlns="http://www.w3.org/2000/svg" xmlns:xlink="http://www.w3.org/1999/xlink" x="0px" y="0px" viewBox="0 0 159 125"
	 style="enable-background:new 0 0 159 125;" xml:space="preserve">
<style type="text/css">
	.st0{fill:#2E3D96;}
	.st1{fill:#42B648;}
	.st2{fill:#2C3B95;}
	.st3{fill:#2D3C96;}
	.st4{fill:#2E3D97;}
	.st5{fill:#2B3A95;}
	.st6{fill:#2E3C96;}
	.st7{fill:#303F97;}
	.st8{fill:#FFFFFF;}
	.st9{fill:#C5CAE2;}
	.st10{fill:#828BC0;}
	.st11{fill:#FCFCFD;}
	.st12{fill:#FCFDFD;}
	.st13{fill:#F4F4F9;}
	.st14{fill:#FEFEFE;}
	.st15{fill:#D5D8E9;}
	.st16{fill:#D9DCEB;}
	.st17{fill:#D6D9EA;}
	.st18{enable-background:new    ;}
	.st19{fill:none;stroke:#2E3D97;stroke-width:0.5;stroke-miterlimit:10;}
</style>
<metadata>
	<sfw  xmlns="&ns_sfw;">
		<slices></slices>
		<sliceSourceBounds  bottomLeftOrigin="true" height="120.1" width="154" x="3.1" y="1"></sliceSourceBounds>
	</sfw>
</metadata>
<g id="Terramia">
	<path class="st0" d="M102.1,23c1.9,1.7,1.6,3.9,1.8,5.6c0.5,3.6,1.1,7.2,0.9,10.9c-0.5,8.3-3.1,15.6-9,21.5
		c-3.2,3.2-6.9,5.6-10.9,7.7c-5.9,3.2-11.8,6.4-17.8,9.6c-2.5,1.4-4.8,3.2-7.2,5.4c-0.8-3.5-0.7-6.7-0.3-9.8
		c1.2-8.3,5.2-15.3,11.1-21.1c3.1-3,6.4-6,9.5-9.1c2.1-2.2,4-4.6,5.6-7.1c1.1-1.8,2.3-3.7,2.3-6.3c3,2.5,3.2,5.6,2.6,8.7
		c-0.8,3.8-2.5,7.3-5,10.3c-0.3,0.4-0.7,0.7-0.5,1.4c5.3-1.5,8.8-5.3,11.3-9.8C99.6,35.5,101.2,29.6,102.1,23z"/>
	<path class="st1" d="M90.1,45.8c-0.2-2,1.3-3.6,1.6-5.5c1-5.6,0-9.3-4.3-13.3c-0.4,5.1-3.2,9.1-6.3,12.8
		c-3.4,3.9-7.2,7.4-11.1,10.9c3.1-11.5,8.1-22,15.8-31.2c1.1-1.9,2.8-3.2,4.4-4.7c0.4-0.2,0.7-0.5,1.1-0.8c0.1-0.1,0.2-0.2,0.2-0.2
		c0.1-0.1,0,0-0.2,0.2c-0.3,0.3-0.7,0.6-1.1,0.8c-1.7,1.3-2.8,3.4-5.1,4C79.4,23.3,75.1,29,71.2,35c-4.2,6.7-7.1,14-8.6,21.7
		c-0.7,3.8-1.4,7.5-2.8,11.1c-1.8-1-1.4-3.1-1.7-4.6c-0.5-3.6-1.2-7.2-1-10.9c0.7-12.2,5.2-22.8,14.2-31.1
		c6.1-5.6,13.2-9.6,20.9-12.7c4.4-1.7,9-3.1,14.1-4.6c-2.4,3.4-4.2,6.5-4.8,10.2c-0.4,2.6-1.1,5.2-1.2,7.8
		c-0.4,7.4-2.4,14.2-6.6,20.3C92.7,43.6,91.7,45,90.1,45.8L90.1,45.8z"/>
	<path class="st2" d="M118,109.8c-2.3-0.5-4.3,0.6-5.9-1.2c0-4,0-8.1,0-11.8c-0.6-1.5-1.6-1.7-2.5-2.1c-2.5,0.4-3.3,2.1-3.3,4.4
		c0,3.3,0,6.6,0,9.8c-2,1.1-3.8,1.1-5.9,0c0-4.2,0-8.4,0-11.9c-0.7-1.8-1.8-1.9-2.6-2.3c-1.5,0.3-2.6,1.2-3.4,3c0,3.5,0,7.4,0,11.3
		c-2,1.1-3.7,1-5.7,0c0-6.4,0-12.7,0-18.8c1.1-1.3,2.4-0.8,3.6-0.9c0.9,0.7,1.4,1.6,1.6,3.2c0.7-1.9,1.9-2.6,3.5-3.2
		c1,0,2.2,0,3.4,0c1.7,0.5,2.9,1.7,4.3,2.8c0.9-1.6,2.4-2,3.9-2.8c1.2,0,2.4,0,3.6,0c4,1.4,5.6,4.3,5.5,8.4
		C118,101.5,118,105.4,118,109.8z"/>
	<path class="st3" d="M150,108.5c-1.5,1.7-3.1,0.8-4.2,1.1c-1.3-0.4-1.4-1.3-1.9-2c-0.2,0-0.5,0-0.7,0.1c-1.9,1.9-4.1,2.6-6.6,1.9
		c-3.1-0.9-5.7-2.7-6.9-5.8c-2.3-5.7-0.1-11.6,5.8-14.1c1.7-0.7,3.3-0.3,4.8-0.5c1.7,0.5,2.9,1.5,4.2,2.8c0.9-0.6,0-2.1,0.8-2.2
		c1.5-0.9,2.6-0.3,3.8-0.6c0.4,0.6,0.9,1,0.9,1.3C150,96.6,150,102.7,150,108.5z"/>
	<path class="st3" d="M67.5,92.9c0.2-0.1,0.5-0.1,0.6-0.3c2.5-2.9,5.7-3.9,9.7-3.3c1.2,0.4,2.1,1.6,3.3,2.7c0.5-0.8,0.9-1.6,1.5-2.6
		c1.1-0.2,2.4-0.2,3.9,0c0,6.6,0,13,0,19.4c-1.2,1.3-2.7,0.7-3.3,0.7c-1.7-0.3-1.5-1.6-2.6-2c-1,0.8-2.1,1.7-3.5,2.2
		c-6.5,0.1-10.5-3.2-11.2-9.3c-0.2-1.5,0.1-3.1,0.2-4.6c-0.1-1,0.4-1.9,1-2.6C67.2,93.1,67.3,93,67.5,92.9z"/>
	<path class="st2" d="M33.6,101.1c-4.3,0-8.5,0-12.8,0c0.5,2.8,1.3,3.3,3.8,3.5c2,0.2,3.4-1,5-1.6c1.2,0.8,2.1,1.7,2.8,2.9
		c-3.2,4.1-8,5.1-12.5,2.5c-5.1-2.9-6.3-7.9-4.6-12.8c1.8-5.3,6.7-7.4,11.6-6.2C31,90.4,35.3,94.8,33.6,101.1z"/>
	<path class="st3" d="M5.6,96.2c-0.9-0.3-1.5-0.5-2-0.7c-0.7-0.7-0.4-1.6-0.5-2.4c0-0.8,0-1.7,0-2.2c0.5-1.2,1.5-0.7,2.1-1.2
		c0.6-1.2-0.1-2.6,0.5-4c1.5-0.9,3.2-1.7,5.3-1.6c0.8,1.8,0.1,3.6,0.5,5.4c0.9,1,2.3,0.1,3.5,0.8c0,1.6,0,3.1,0,4.5
		c-0.8,1.5-2.3,0.6-3.5,1.3c0,4.2,0,8.4,0,12.7c-1.9,1.2-3.7,1-5.8,0.3C5.6,104.9,5.6,100.6,5.6,96.2z"/>
	<path class="st4" d="M65.3,95.8c-1.8,0.4-2.9-1.8-4.7-1.4c-1.1,0.2-1.8,1.1-2.5,2.1c-0.3,4.2,0.2,8.6-0.2,12.8
		c-3.9,0.6-3.9,0.6-6.2-0.5c0-4.6,0-9.4,0-14.1c0-0.6,0.4-1.5-0.8-1.7c-0.4-0.5-0.4-1,0-1.4c1.3,0,0.5-2,1.8-2.1c0.9,0,1.9,0,2.8,0
		c1.1,0.3,1.1,1.5,2,2.3c0.9-0.8,1.7-1.6,2.6-2.4c1.2,0,2.4,0,4,0c1,1.2,3.6,1,3.6,3.6l0.1-0.1C66.7,93.7,66.5,95.2,65.3,95.8z"/>
	<path class="st3" d="M50.7,91.4c0,0.5,0,1,0,1.4c-0.5,1.1-0.7,2.3-2,2.9C47,96,46,93.5,44,94.5c-1.1,0.5-1.9,1.4-2.6,2.6
		c0,3.8,0,7.7,0,11.6c-1.9,1.4-3.8,1.2-6,0.1c0-6.1,0-12.2,0-18.2c0-0.4,0.5-0.8,0.7-1.1c1.2-0.4,2.2-0.3,3-0.2
		c1.4,0.6,1.2,1.7,1.7,2.7c1-0.9,2-1.8,2.9-2.6C46.5,88.8,48.8,89.4,50.7,91.4z"/>
	<path class="st5" d="M67.5,21.7c0.3,1.2-0.7,1.7-1.3,2.4c-5.3,6.7-8.9,14.2-10.4,22.7c-1.3,7.5-1.2,14.9,0.8,22.3
		c0.1,0.3,0,0.7,0,1.1c-0.3,0.3-0.5,0.3-0.7,0C53.7,65.6,52,61,51.5,56c-0.6-5.5,0.1-10.9,2.2-16C56.7,32.7,61.2,26.5,67.5,21.7
		L67.5,21.7z"/>
	<path class="st6" d="M121,89.7c2.1-0.6,3.8-0.8,5.7,0.2c0,6.2,0,12.5,0,19c-1.8,1.1-3.7,1-5.7,0C121,102.6,121,96.3,121,89.7z"/>
	<path class="st7" d="M121.7,87.5c-0.1-1.9,1.2-3.1,0.6-4.7c2.1-0.6,3.9-0.3,6-0.3c-0.7,1.9-1.3,3.5-2.3,4.9
		C124.5,87.5,123.2,87.5,121.7,87.5z"/>
	<path class="st8" d="M90.9,14.6c-0.8,0.7-1.7,1.5-2.6,2.4s-1.7,1.7-2.5,2.6c-0.1-0.4-0.3-0.7-0.7-0.7c1.3-1.2,2.6-2.4,3.9-3.6
		c0.5-0.5,2.7-2.4,2.9-1.7C91.6,13.9,91.2,14.2,90.9,14.6z"/>
	<path class="st9" d="M65.3,95.8c0.8-0.9,0.8-2.5,2.3-2.9c0,1.2-0.5,2.2-1.5,3C65.8,95.8,65.5,95.8,65.3,95.8z"/>
	<path class="st10" d="M55.9,70.1c0.2,0.1,0.5,0.1,0.7,0c1.1,0.5,0.8,1.2,0.4,2C56.5,71.5,56,70.9,55.9,70.1z"/>
	<path class="st5" d="M67.5,21.7c0.1-0.3,0.1-0.7,0.6-0.5C68.1,21.8,67.8,21.7,67.5,21.7L67.5,21.7z"/>
	<path class="st1" d="M90.2,46c-0.1,0.2-0.2,0.4-0.4,0.6c-0.5-0.5-0.3-0.7,0.2-0.8L90.2,46z"/>
	<path class="st8" d="M90,14.5c0-0.1,0.6-0.7,1.5-1.1c0.7-0.3,1.3-0.3,1.6-0.3c-0.7,0.2-1.1,0.5-1.4,0.8c-0.4,0.4-0.6,0.9-0.9,0.9
		C90.5,14.7,90,14.5,90,14.5z"/>
	<path class="st11" d="M143.4,97.1c0.4,2.4,0.5,4.5-1.6,6.4c-0.8,0.3-1.8,0.6-2.7,1c-2.5-0.2-5.4-2-4.2-7.3
		C137.9,93.4,140,93.4,143.4,97.1z"/>
	<path class="st12" d="M75.8,104.5c-5.7-2.3-6.2-6.1-1.3-10c3-0.8,4.6,1.1,6.1,3.3c0,1.1,0,2.2,0,3.2
		C79.6,102.9,78.1,104.1,75.8,104.5z"/>
	<path class="st13" d="M20.9,96.5c0.7-1.7,2.1-2.1,3.4-2.7c1.5,0.4,3,0.9,3.8,2.7C25.7,96.5,23.4,96.5,20.9,96.5z"/>
	<path class="st14" d="M105.3,116.9c-0.7-0.5-0.5-1.1-0.3-1.6C105.9,115.7,105.2,116.3,105.3,116.9z"/>
	<path class="st15" d="M55.5,115.8c-0.6-1.1-0.8-1.8,0.4-2.4C56.7,114.2,57,114.9,55.5,115.8z"/>
	<path class="st16" d="M68.8,115.2c0.3,0.6,0.4,1.1,0.6,1.5c-0.1,0.1-0.2,0.1-0.2,0.2c-0.1,0-0.2,0.1-0.3,0.1
		c-1-0.4-0.3-1.2-0.5-1.6C68.5,115.1,68.7,115.1,68.8,115.2z"/>
	<path class="st17" d="M89.7,115.6c0.4,0.3,0.7,0.6,1,1C89.6,117,89.6,117,89.7,115.6z"/>
	<path class="st11" d="M49.9,112.9c1.2,1.5,1,2.4-0.2,3.4C49,115.3,49.1,114.4,49.9,112.9z"/>
	<g class="st18">
		<path class="st4" d="M29.6,112.8c-0.4-0.2-0.7-0.3-1.1-0.3c-0.3,0-0.6,0.1-0.8,0.3s-0.3,0.5-0.3,0.8c0,0.2,0.1,0.5,0.2,0.7
			s0.4,0.7,0.9,1.2c0.5,0.6,0.8,1,1.1,1.4c0.2,0.4,0.4,0.9,0.4,1.4c0,0.7-0.2,1.2-0.6,1.6c-0.4,0.4-0.9,0.6-1.6,0.6
			c-0.4,0-0.8-0.1-1.3-0.3v-1.1c0,0,0,0,0,0c0.1,0.1,0.2,0.1,0.4,0.2c0.2,0.1,0.4,0.2,0.7,0.2c0.3,0,0.6-0.1,0.9-0.3
			c0.2-0.2,0.3-0.5,0.3-0.9c0-0.3-0.1-0.5-0.2-0.7s-0.3-0.5-0.6-0.9l-0.8-1c-0.3-0.4-0.5-0.7-0.7-1c-0.1-0.3-0.2-0.7-0.2-1.1
			c0-0.6,0.2-1.2,0.6-1.6c0.4-0.4,0.9-0.6,1.5-0.6c0.4,0,0.8,0.1,1.3,0.3V112.8z"/>
	</g>
	<g class="st18">
		<path class="st4" d="M31.5,111.7h1.2v8.9h-1.2V111.7z"/>
	</g>
	<g class="st18">
		<path class="st4" d="M38,120.6h-3.2v-8.9h3.2v1h-2v2.8h1.8v1h-1.8v3.1h2V120.6z"/>
	</g>
	<g class="st18">
		<path class="st4" d="M46,120.6h-1.1l-0.5-5.7h0l-1.2,5.7h-0.7l-1.1-5.7h0l-0.5,5.7h-1.1l0.9-8.9h1l1.2,6.2h0l1.3-6.2h1L46,120.6z"
			/>
	</g>
	<g class="st18">
		<path class="st4" d="M48.1,111.7h2c1.3,0,1.9,0.8,1.9,2.5c0,0.7-0.1,1.2-0.3,1.6c-0.2,0.4-0.5,0.6-0.8,0.7
			c-0.3,0.1-0.8,0.2-1.5,0.2v3.9h-1.2V111.7z M49.3,115.7c0.5,0,0.9-0.1,1.1-0.3c0.2-0.2,0.3-0.6,0.3-1.2c0-0.6-0.1-1-0.3-1.3
			c-0.2-0.2-0.6-0.3-1.1-0.3V115.7z"/>
	</g>
	<g class="st18">
		<path class="st4" d="M57.6,120.6h-1.2l-1.4-4.2h-0.1v4.2h-1.2v-8.9h1.7c1.4,0,2,0.8,2,2.3c0,0.7-0.1,1.2-0.3,1.6
			c-0.2,0.3-0.5,0.6-1,0.8L57.6,120.6z M54.8,115.6c0.5,0,0.8-0.1,1-0.3c0.2-0.2,0.3-0.6,0.3-1.2c0-0.5-0.1-0.9-0.3-1.1
			c-0.2-0.2-0.5-0.3-1-0.3h-0.1V115.6z"/>
	</g>
	<g class="st18">
		<path class="st4" d="M63,120.6h-3.2v-8.9h3.2v1h-2v2.8h1.8v1h-1.8v3.1h2V120.6z"/>
	</g>
	<g class="st18">
		<path class="st4" d="M71.4,120.6h-1.2l-0.3-1.8H68l-0.3,1.8h-1.1l1.9-8.9h1L71.4,120.6z M69.7,117.9l-0.8-4.2h0l-0.7,4.2H69.7z"/>
		<path class="st4" d="M78.3,112.8c-0.4-0.2-0.7-0.3-1.1-0.3c-0.3,0-0.6,0.1-0.8,0.3s-0.3,0.5-0.3,0.8c0,0.2,0.1,0.5,0.2,0.7
			s0.4,0.7,0.9,1.2c0.5,0.6,0.8,1,1.1,1.4c0.2,0.4,0.4,0.9,0.4,1.4c0,0.7-0.2,1.2-0.6,1.6c-0.4,0.4-0.9,0.6-1.6,0.6
			c-0.4,0-0.8-0.1-1.3-0.3v-1.1c0,0,0,0,0,0c0.1,0.1,0.2,0.1,0.4,0.2c0.2,0.1,0.4,0.2,0.7,0.2c0.3,0,0.6-0.1,0.9-0.3
			c0.2-0.2,0.3-0.5,0.3-0.9c0-0.3-0.1-0.5-0.2-0.7s-0.3-0.5-0.6-0.9l-0.8-1c-0.3-0.4-0.5-0.7-0.7-1c-0.1-0.3-0.2-0.7-0.2-1.1
			c0-0.6,0.2-1.2,0.6-1.6c0.4-0.4,0.9-0.6,1.5-0.6c0.4,0,0.8,0.1,1.3,0.3V112.8z"/>
	</g>
	<g class="st18">
		<path class="st4" d="M84.2,118.5c0,1.5-0.7,2.2-2,2.2c-1.5,0-2.2-0.7-2.2-2.2v-6.8h1.2v6.3c0,0.7,0.1,1.1,0.2,1.4s0.4,0.4,0.8,0.4
			c0.4,0,0.6-0.1,0.7-0.4c0.1-0.3,0.1-0.8,0.1-1.4v-6.2h1.2V118.5z"/>
	</g>
	<g class="st18">
	</g>
	<g class="st18">
		<path class="st4" d="M92.8,120.6h-1.2l-0.3-1.8h-1.9l-0.3,1.8H88l1.9-8.9h1L92.8,120.6z M91.1,117.9l-0.8-4.2h0l-0.7,4.2H91.1z"/>
	</g>
	<g class="st18">
		<path class="st4" d="M97.8,120.6h-3.2v-8.9h1.2v7.9h2V120.6z"/>
	</g>
	<g class="st18">
		<path class="st4" d="M102.9,120.4c-0.4,0.2-0.7,0.3-1.1,0.3c-0.7,0-1.3-0.3-1.9-0.8c-0.5-0.6-0.8-1.7-0.8-3.5
			c0-1.9,0.3-3.2,0.8-3.8c0.5-0.7,1.2-1,1.9-1c0.3,0,0.6,0,1,0.1v1.1c-0.3-0.1-0.5-0.2-0.8-0.2c-0.5,0-0.9,0.2-1.2,0.7
			c-0.3,0.5-0.5,1.4-0.5,2.8c0,0.8,0,1.5,0.1,1.9c0.1,0.5,0.2,0.8,0.5,1.1c0.3,0.3,0.6,0.4,1,0.4c0.2,0,0.5-0.1,0.9-0.2V120.4z"/>
	</g>
	<g class="st18">
		<path class="st4" d="M108.7,120.6h-1.2l-0.3-1.8h-1.9l-0.3,1.8h-1.1l1.9-8.9h1L108.7,120.6z M107,117.9l-0.8-4.2h0l-0.7,4.2H107z"
			/>
		<path class="st4" d="M114.3,120.6h-0.9l-2.3-6.1l0,0v6.1H110v-8.9h1l2.3,6.1l0,0v-6.1h1.1V120.6z"/>
		<path class="st4" d="M119.7,120.4c-0.4,0.2-0.7,0.3-1.1,0.3c-0.7,0-1.3-0.3-1.9-0.8c-0.5-0.6-0.8-1.7-0.8-3.5
			c0-1.9,0.3-3.2,0.8-3.8c0.5-0.7,1.2-1,1.9-1c0.3,0,0.6,0,1,0.1v1.1c-0.3-0.1-0.5-0.2-0.8-0.2c-0.5,0-0.9,0.2-1.2,0.7
			c-0.3,0.5-0.5,1.4-0.5,2.8c0,0.8,0,1.5,0.1,1.9c0.1,0.5,0.2,0.8,0.5,1.1c0.3,0.3,0.6,0.4,1,0.4c0.2,0,0.5-0.1,0.9-0.2V120.4z"/>
	</g>
	<g class="st18">
		<path class="st4" d="M125.4,120.6h-3.2v-8.9h3.2v1h-2v2.8h1.8v1h-1.8v3.1h2V120.6z"/>
	</g>
	<g>
		<circle class="st19" cx="154.2" cy="90.9" r="2.7"/>
		<g class="st18">
			<path class="st4" d="M152.9,89.4h0.8v1.1h1v-1.1h0.8v2.9h-0.8v-1.1h-1v1.1h-0.8V89.4z"/>
		</g>
	</g>
</g>
</svg>
