<?xml version="1.0" encoding="utf-8"?>
<!-- Generator: Adobe Illustrator 25.2.1, SVG Export Plug-In . SVG Version: 6.00 Build 0)  -->
<svg version="1.1" id="Capa_1" xmlns="http://www.w3.org/2000/svg" xmlns:xlink="http://www.w3.org/1999/xlink" x="0px" y="0px"
	 viewBox="0 0 66 59.2" style="enable-background:new 0 0 66 59.2;" xml:space="preserve">
<style type="text/css">
	.st0{fill:#FFFFFF;}
</style>
<g>
	<g>
		<path class="st0" d="M29.5,24.8c-0.6,0.3-1.1,0.7-1.6,1.1c-0.1,0.1-0.2,0.2-0.3,0.2c-0.1,0.1-0.3,0.2-0.4,0.3
			c-2.3-1.8-5-3.2-7.9-4.1l0,0c-2.1-0.6-4.3-0.9-6.6-0.9c-1,0-2.1,0.1-3.1,0.2c-2.5,0.3-4.8,1-7,2.1C2.3,23.8,2,24,1.7,24.1
			c0.2-0.2,0.3-0.3,0.5-0.4c0.1-0.1,0.2-0.2,0.4-0.3c0.4-0.3,0.8-0.6,1.2-0.9c0.2-0.1,0.3-0.2,0.5-0.3c0-0.1,0.2-0.2,0.3-0.2
			c2.5-1.2,5.2-1.9,8.1-2.2c0.7-0.1,1.4-0.1,2.1-0.1c1.4,0,2.8,0.1,4.1,0.4c3.8,0.7,7.2,2.2,10.2,4.4C29.2,24.6,29.3,24.7,29.5,24.8
			z"/>
		<path class="st0" d="M50.9,24.6c0.8,0,1.6,0,2.3,0.1v1.5c-1.5,0-3.1,0.2-4.5,0.5c-1.9,0.4-3.7,1-5.4,1.8c-1.2,0.6-2.3,1.2-3.4,2
			c-0.4,0.3-0.9,0.6-1.3,1c-0.5,0.4-0.9,0.8-1.4,1.2c-0.1,0.1-0.2,0.2-0.3,0.3c-0.2,0.2-0.4,0.4-0.6,0.6c-0.7,0.7-1.3,1.5-1.9,2.3
			c-0.1-0.2-0.2-0.4-0.2-0.5c-0.4-0.8-0.8-1.6-1.3-2.4c0.1-0.1,0.2-0.2,0.2-0.3l0,0c0.5-0.6,1.1-1.2,1.8-1.8
			c0.2-0.2,0.5-0.4,0.7-0.6c0.5-0.5,1.1-0.9,1.7-1.3c0.4-0.3,0.9-0.6,1.4-0.9c1-0.6,2.1-1.2,3.3-1.7c2.4-1,5.1-1.6,7.9-1.8
			C50.1,24.6,50.5,24.6,50.9,24.6z"/>
		<path class="st0" d="M64.4,28.8c-1.6-0.8-3.3-1.5-5.1-2V26c0.2,0.1,0.3,0.1,0.5,0.2l0,0c1,0.4,1.9,0.8,2.8,1.3
			C63.2,28,63.8,28.4,64.4,28.8z"/>
		<path class="st0" d="M51.9,23.8c-0.6-0.2-1.2-0.3-1.8-0.4c-0.3,0-0.5-0.1-0.8-0.1l0,0C48.1,23.1,47,23,45.8,23
			c-1.1,0-2.1,0.1-3.2,0.2l0,0c-1.1,0.1-2.1,0.4-3.1,0.6c-1.1,0.3-2.3,0.7-3.3,1.2c-0.5,0.2-1,0.5-1.5,0.7c-0.6,0.3-1.1,0.6-1.7,1
			c-0.3,0.2-0.6,0.4-0.8,0.6l0,0c-0.8,0.5-1.5,1.1-2.2,1.8c-0.1-0.2-0.3-0.3-0.4-0.5c-0.4-0.4-0.8-0.8-1.2-1.1
			c0.1-0.1,0.3-0.2,0.4-0.3c0.6-0.5,1.2-0.9,1.9-1.4c0.3-0.2,0.6-0.4,0.9-0.6c0.6-0.3,1.1-0.6,1.7-0.9c0.4-0.2,0.9-0.4,1.4-0.6
			c0.1,0,0.1-0.1,0.2-0.1c1.1-0.4,2.2-0.8,3.3-1c0.2,0,0.4-0.1,0.6-0.1c1.5-0.3,3.1-0.5,4.6-0.5c1.1,0,2.2,0.1,3.2,0.2l0,0
			c1.2,0.2,2.3,0.4,3.5,0.7l0,0h0.1c0.1,0,0.2,0.1,0.3,0.1s0.1,0.1,0.2,0.1l0,0c0.1,0,0.2,0.1,0.3,0.1
			C51.4,23.5,51.7,23.7,51.9,23.8z"/>
		<path class="st0" d="M51.6,24c-0.5,0-1-0.1-1.6-0.1l0,0c-0.5,0-1,0-1.5,0.1h-0.1c-2.5,0.2-4.9,0.7-7.2,1.6c-1.1,0.4-2.2,1-3.2,1.6
			c-0.5,0.3-0.9,0.6-1.4,0.9c-0.6,0.4-1.1,0.8-1.6,1.2c-0.2,0.2-0.5,0.4-0.7,0.6c-0.7,0.6-1.4,1.3-2,2c-0.1-0.1-0.2-0.3-0.3-0.4
			c-0.4-0.6-0.8-1.2-1.3-1.7c0.1-0.1,0.2-0.2,0.3-0.3c0.6-0.5,1.2-1,1.8-1.5c0.3-0.2,0.5-0.4,0.8-0.6c0.6-0.4,1.1-0.7,1.7-1
			c0.5-0.3,1-0.5,1.5-0.7c1.1-0.5,2.2-0.9,3.3-1.3c2-0.6,4.1-0.9,6.3-1c0.1,0,0.3,0,0.4,0c0.8,0,1.6,0,2.4,0.1
			c0.2,0,0.5,0.1,0.7,0.1c0.3,0,0.6,0.1,0.9,0.1l0,0C51.2,23.9,51.4,24,51.6,24z"/>
		<path class="st0" d="M37.2,21.9c-0.8,0.1-1.5,0.3-2.3,0.6c-0.2,0.1-0.3,0.1-0.5,0.2s-0.4,0.1-0.6,0.2c-1.4-1.2-3-2.2-4.6-3
			c-2.5-1.3-5.3-2.1-8.3-2.4c0.3,0,0.6-0.1,1-0.1c0.2,0,0.4,0,0.7,0c0.2,0,0.4,0,0.6,0c0.5,0,0.9,0,1.4,0l0,0c1.5,0.1,3,0.3,4.5,0.7
			c2.7,0.7,5.2,1.8,7.4,3.3C36.7,21.5,37,21.7,37.2,21.9z"/>
		<path class="st0" d="M33.1,23.1c-0.4,0.2-1.1,0.5-1.7,0.8c-0.2,0-0.3,0.1-0.4,0.1c-0.2,0.1-0.4,0.2-0.5,0.2
			c-3.3-2.8-7.3-4.7-11.7-5.3c-1.2-0.2-2.4-0.3-3.6-0.3l0,0c-0.9,0-1.8,0-2.6,0.1c0.3-0.1,0.6-0.2,1-0.2h0.1
			c0.6-0.1,1.2-0.2,1.8-0.3c0.4-0.1,0.9-0.1,1.3-0.1h0.1c0.6,0,1.1-0.1,1.7-0.1c2.3,0,4.5,0.3,6.6,0.9l0,0
			C28.1,19.9,30.8,21.3,33.1,23.1z"/>
	</g>
	<g>
		<path class="st0" d="M12.3,17.8c-0.2,0-0.3,0.1-0.5,0.1V2.8H16v14.3c-0.3,0-0.5,0.1-0.7,0.1c-0.6,0.1-1.2,0.2-1.8,0.3h-0.1
			C13,17.6,12.6,17.7,12.3,17.8z"/>
		<path class="st0" d="M27.7,28.3c0.3,0.3,0.6,0.6,1,0.9C27,30,25.1,30.3,23,30.3c-5.9,0-9.7-2.8-10.8-7.8c0.1,0,0.2,0,0.4,0
			c1.4,0,2.8,0.1,4.2,0.4c1,2.3,3.2,3.6,6.2,3.6c0.7,0,1.4-0.1,2.1-0.2c0.5,0.3,1,0.7,1.4,1l0.6,0.5L27.7,28.3z"/>
		<path class="st0" d="M34.1,2.8v15.9c-1.3-0.7-2.7-1.2-4.2-1.6V2.8H34.1z"/>
		<g>
			<path class="st0" d="M58.3,1.3v27.1h-4.2v-12H39.8v4.9c-0.4,0.1-0.8,0.1-1.2,0.2c0,0,0,0-0.1,0L37.8,21c-0.3-0.2-0.5-0.4-0.8-0.6
				c-0.5-0.3-0.9-0.6-1.4-0.9V1.3h4.2v11.2h14.4V1.3H58.3z"/>
		</g>
	</g>
	<g>
		<path class="st0" d="M16.8,41.2c0,1.5-0.8,2.4-2.2,2.4s-2.2-0.9-2.2-2.4V36H11v5.3c0,2.3,1.3,3.6,3.6,3.6s3.6-1.3,3.6-3.6V36h-1.4
			C16.8,36,16.8,41.2,16.8,41.2z"/>
		<path class="st0" d="M23.8,40.5v4.1h1.3v-4.4c0-1.4-0.7-2.1-2.1-2.1c-0.8,0-1.5,0.4-2,0.8v-0.7h-1.3v6.4H21v-4.5
			c0.3-0.4,1-0.8,1.6-0.8C23.5,39.3,23.8,39.6,23.8,40.5z"/>
		<path class="st0" d="M27.3,37.6c0.4,0,0.8-0.4,0.8-0.8c0-0.4-0.4-0.8-0.8-0.8s-0.8,0.4-0.8,0.8C26.5,37.2,26.8,37.6,27.3,37.6z"/>
		<rect x="26.7" y="38.3" class="st0" width="1.3" height="6.4"/>
		<polygon class="st0" points="32.4,44.7 35.1,38.3 33.7,38.3 31.8,43 29.9,38.3 28.5,38.3 31.2,44.7 		"/>
		<path class="st0" d="M38.6,44.8c1,0,1.9-0.3,2.5-1l0.1-0.1l-0.6-0.9L40.4,43c-0.4,0.5-1.1,0.7-1.8,0.7c-1.2,0-1.9-0.9-2-1.8h4.9
			v-0.4c0-2-1.3-3.4-3.1-3.4s-3.1,1.4-3.1,3.3C35.3,43.4,36.6,44.8,38.6,44.8z M38.4,39.2c1.2,0,1.8,1,1.8,1.7h-3.7
			C36.7,40.2,37.3,39.2,38.4,39.2z"/>
		<path class="st0" d="M45.8,39.4H46v-1.3h-0.2c-0.7,0-1.3,0.3-1.9,0.8v-0.7h-1.3v6.4H44v-4.4c0.3-0.4,1-0.9,1.5-0.9
			C45.6,39.4,45.7,39.4,45.8,39.4z"/>
		<path class="st0" d="M49.1,40.8c-0.8-0.2-1.4-0.4-1.4-0.8c0-0.5,0.5-0.8,1.2-0.8s1.3,0.3,1.7,0.7l0.1,0.2l0.6-0.9l0-0.2
			c-0.6-0.6-1.4-0.9-2.4-0.9c-1.7,0-2.4,1-2.4,1.9c0,1.4,1.3,1.7,2.3,1.9c0.8,0.2,1.4,0.4,1.4,0.9s-0.5,0.9-1.3,0.9
			s-1.5-0.4-1.9-0.8l0-0.1l-0.7,0.9l0.1,0.1c0.6,0.7,1.5,1,2.6,1c1.5,0,2.5-0.8,2.5-2C51.5,41.3,50.1,41,49.1,40.8z"/>
		<path class="st0" d="M57.2,38.9c-0.5-0.5-1.2-0.8-1.9-0.8c-1.7,0-2.9,1.3-2.9,3.4c0,2,1.1,3.3,2.9,3.3c0.7,0,1.4-0.3,1.9-0.8v0.6
			h1.3v-6.4h-1.3V38.9z M57.2,40.1v2.7c-0.3,0.5-1,0.8-1.7,0.8c-1.1,0-1.8-0.9-1.8-2.2s0.7-2.2,1.8-2.2
			C56.2,39.3,56.9,39.7,57.2,40.1z"/>
		<path class="st0" d="M62.4,43.3l-0.2,0.2c-0.1,0.1-0.3,0.2-0.5,0.2c-0.4,0-0.5-0.4-0.5-0.6V36H60v7.3c0,1,0.5,1.6,1.5,1.6
			c0.5,0,0.9-0.1,1.2-0.4l0.1-0.1L62.4,43.3z"/>
		<polygon class="st0" points="28.8,50.3 24.2,50.3 24.2,46.7 22.9,46.7 22.9,55.4 24.2,55.4 24.2,51.5 28.8,51.5 28.8,55.4 
			30.2,55.4 30.2,46.7 28.8,46.7 		"/>
		<path class="st0" d="M34.6,48.8c-1.8,0-3.2,1.4-3.2,3.3c0,1.9,1.3,3.4,3.2,3.4s3.2-1.4,3.2-3.4C37.8,50.3,36.4,48.8,34.6,48.8z
			 M34.6,50c1.3,0,1.9,1.1,1.9,2.2c0,1.1-0.6,2.2-1.9,2.2c-1.3,0-1.9-1.1-1.9-2.2C32.7,51.1,33.3,50,34.6,50z"/>
		<path class="st0" d="M42.1,48.8c-0.7,0-1.4,0.3-1.9,0.8V49H39v8.7h1.3v-3c0.5,0.5,1.2,0.8,1.9,0.8c1.7,0,2.9-1.3,2.9-3.4
			C45,50.2,43.9,48.8,42.1,48.8z M43.7,52.2c0,1.3-0.7,2.2-1.8,2.2c-0.6,0-1.3-0.4-1.7-0.9v-2.7c0.3-0.5,1-0.9,1.7-0.9
			C43,50,43.7,50.9,43.7,52.2z"/>
		<path class="st0" d="M49,48.8c-1.8,0-3.1,1.4-3.1,3.3c0,2,1.3,3.4,3.3,3.4c1,0,1.9-0.3,2.5-1l0.1-0.1l-0.6-0.9L51,53.7
			c-0.4,0.5-1.1,0.7-1.8,0.7c-1.2,0-1.9-0.9-2-1.8h4.9v-0.4C52.1,50.3,50.8,48.8,49,48.8z M49,49.9c1.2,0,1.8,1,1.8,1.7h-3.7
			C47.3,50.9,47.8,49.9,49,49.9z"/>
	</g>
</g>
</svg>
