<?xml version="1.0" encoding="utf-8"?>
<!-- Generator: Adobe Illustrator 24.1.1, SVG Export Plug-In . SVG Version: 6.00 Build 0)  -->
<svg version="1.1" id="Layer_1" xmlns="http://www.w3.org/2000/svg" xmlns:xlink="http://www.w3.org/1999/xlink" x="0px" y="0px"
	 viewBox="0 0 1080 933.1" style="enable-background:new 0 0 1080 933.1;" xml:space="preserve">
<style type="text/css">
	._x005B_Default_x005D_{fill:#FFFFFF;stroke:#231F20;stroke-miterlimit:10;}
	.Drop_x0020_Shadow{fill:none;}
	.Round_x0020_Corners_x0020_2_x0020_pt{fill:#FFFFFF;stroke:#231F20;stroke-miterlimit:10;}
	.Live_x0020_Reflect_x0020_X{fill:none;}
	.Bevel_x0020_Soft{fill:url(#SVGID_1_);}
	.Dusk{fill:#FFFFFF;}
	.Foliage_GS{fill:#FFDD00;}
	.Pompadour_GS{fill-rule:evenodd;clip-rule:evenodd;fill:#44ADE2;}
	.st0{fill:#02AC4D;}
	.st1{fill:#019247;}
	.st2{fill:#F89420;}
	.st3{fill:#A46C29;}
</style>
<linearGradient id="SVGID_1_" gradientUnits="userSpaceOnUse" x1="0" y1="-29.7681" x2="0.7071" y2="-29.061">
	<stop  offset="0" style="stop-color:#DEDFE3"/>
	<stop  offset="0.1783" style="stop-color:#DADBDF"/>
	<stop  offset="0.3611" style="stop-color:#CECFD3"/>
	<stop  offset="0.546" style="stop-color:#B9BCBF"/>
	<stop  offset="0.7324" style="stop-color:#9CA0A2"/>
	<stop  offset="0.9181" style="stop-color:#787D7E"/>
	<stop  offset="1" style="stop-color:#656B6C"/>
</linearGradient>
<g>
	<path class="st0" d="M469.7,437c-7.4,4.4-14.5,9.1-21.5,14.2c-1.4,1-2.8,2.1-4.2,3.1c-1.9,1.4-3.8,2.9-5.7,4.3
		c-30.7-23.9-65.9-42.3-104.3-53.4v-0.1c-27.7-8.1-57.1-12.4-87.5-12.4c-13.8,0-27.5,0.9-40.8,2.7c-32.6,4.2-63.7,13.5-92.3,27.1
		c-4,1.9-7.9,3.8-11.7,5.8c2.2-2,4.5-3.9,6.8-5.8c1.6-1.4,3.2-2.7,4.8-4c5.3-4.3,10.8-8.4,16.4-12.3c2.2-1.6,4.4-3.1,6.7-4.6
		c1.7-0.8,3.3-1.6,5-2.4c32.7-15.6,68.6-25.6,106.3-28.9c9.1-0.8,18.3-1.2,27.5-1.2c18.4,0,36.4,1.6,53.9,4.6
		c49.7,8.7,95.3,29.1,133.9,58.3C465.4,433.6,467.5,435.3,469.7,437z"/>
	<path class="st0" d="M751.4,433.8c10.3,0,20.6,0.5,30.6,1.6v19.1c-20.4,0.2-40.4,2.3-59.7,6.3c-25,5.1-48.9,13.2-71.2,23.9
		c-15.6,7.4-30.5,16.2-44.5,26c-5.9,4.1-11.6,8.4-17.2,13c-6.1,4.9-12.1,10.1-17.8,15.5c-1.5,1.3-2.9,2.7-4.3,4.1
		c-2.7,2.7-5.4,5.4-8,8.2c-9.2,9.7-17.8,19.9-25.6,30.7c-1-2.4-2.1-4.8-3.2-7.2c-4.9-10.8-10.5-21.3-16.6-31.4
		c1-1.3,2.1-2.5,3.2-3.7l0,0c7.2-8.3,15-16.2,23.2-23.7c2.9-2.7,5.9-5.4,9-8c7-6,14.3-11.6,21.8-16.9c5.8-4.1,11.8-8.1,17.8-11.7
		c13.8-8.5,28.2-15.9,43.4-22c32.3-13.4,67.4-21.6,104.1-23.3C741.3,433.9,746.4,433.8,751.4,433.8z"/>
	<path class="st1" d="M929.6,489.6c-21.2-11.1-44-19.8-67.7-25.7v-10c2,0.8,4,1.5,6,2.3c0.1,0,0.2,0.1,0.2,0.1
		c12.7,5,24.9,11,36.7,17.7C913.3,478.8,921.6,484,929.6,489.6z"/>
	<path class="st0" d="M765.2,423.4c-7.6-2.1-15.4-3.8-23.3-5.2c-3.4-0.6-6.7-1.2-10.1-1.7c0,0-0.1,0-0.1,0
		c-15.2-2.3-30.8-3.5-46.6-3.5c-14.2,0-28.2,1-42,2.8c-0.2,0-0.4,0.1-0.6,0.1c-13.9,1.9-27.4,4.7-40.6,8.3
		c-15.1,4.1-29.7,9.4-43.8,15.7c-6.7,2.9-13.2,6.2-19.7,9.6c-7.6,4.1-15.1,8.4-22.3,13.1c-3.8,2.3-7.4,4.8-11,7.4h-0.1
		c-10.2,7.2-19.9,15-29.1,23.3c-1.8-2-3.7-4-5.6-5.9c-5-5.2-10.3-10.2-15.7-15.1c1.8-1.5,3.5-2.9,5.4-4.3c8-6.4,16.4-12.3,25.1-17.9
		c3.9-2.5,7.9-5,12-7.3c7.4-4.3,15-8.2,22.7-11.8c5.9-2.9,11.9-5.5,18-7.9c0.9-0.4,1.8-0.7,2.7-1.1c14.2-5.5,28.8-10,43.9-13.4
		c2.5-0.5,5-1.1,7.6-1.6c19.8-3.9,40.3-6,61.2-6c14.5,0,28.7,1,42.7,2.9c0.1,0,0.2,0,0.2,0.1c15.6,2.1,30.9,5.4,45.7,9.8
		c0.1,0,0.1,0,0.1,0.1c0.4,0.1,0.8,0.2,1.2,0.3c1.3,0.4,2.6,0.8,3.9,1.2c1,0.4,2,0.8,3,1.2c0.1,0,0.1,0.1,0.1,0.1
		c1.5,0.6,3,1.3,4.5,1.9C758.1,420,761.7,421.6,765.2,423.4z"/>
	<path class="st0" d="M761.2,426.2c-6.9-0.4-13.8-0.7-20.7-0.7h-1.1c-6.5,0-13,0.2-19.4,0.7c-0.5,0-1.1,0.1-1.5,0.1
		c-33.1,2.2-64.7,9.7-94.2,21.6c-14.8,5.9-29.1,12.9-42.7,21c-6.2,3.6-12.1,7.5-17.9,11.5c-7.4,5.1-14.7,10.5-21.6,16.3
		c-3.1,2.6-6.3,5.3-9.3,7.9c-9.4,8.4-18.2,17.4-26.6,26.8c-1.1-1.7-2.2-3.3-3.4-4.9c-5.4-7.8-11.2-15.3-17.3-22.5
		c1.4-1.3,2.9-2.6,4.3-3.9c7.8-7.1,15.8-13.6,24.3-19.8c3.4-2.6,7-5,10.5-7.3c7.3-5,14.7-9.5,22.4-13.8c6.3-3.5,12.7-6.8,19.3-9.9
		c14.1-6.6,28.8-12.2,44.1-16.7c26.2-7.8,53.8-12.1,82.4-12.6c1.9-0.1,3.8-0.1,5.7-0.1c10.9,0,21.6,0.6,32.2,1.7
		c3.2,0.3,6.5,0.7,9.6,1.1c4.1,0.6,8.1,1.1,12.1,1.8h0.5C755.7,425.1,758.5,425.7,761.2,426.2z"/>
	<path class="st0" d="M571.1,398.3c-10.2,1.9-20.2,4.4-30,7.3c-2.3,0.7-4.5,1.4-6.8,2.1c-2.5,0.8-4.9,1.6-7.3,2.5
		c-18.7-15.5-39.1-28.9-61-39.8c-33.4-16.7-70.2-27.4-109.1-31.1c4.2-0.4,8.3-0.7,12.6-0.9c2.9-0.1,5.9-0.3,8.8-0.3
		c2.7-0.1,5.4-0.1,8.1-0.1c6.2,0,12.3,0.2,18.3,0.5c0.1,0,0.2,0,0.2,0c20.2,1.1,39.7,4.2,58.7,9c35.3,9,68.2,24,97.5,43.8
		C564.4,393.5,567.8,395.8,571.1,398.3z"/>
	<path class="st0" d="M516.8,413.8c-5,2.2-14.6,6.5-22.8,10.3c-1.8,0.8-3.5,1.6-5,2.4c-2.5,1.2-4.8,2.3-6.4,3.2
		c-43-36.4-95.9-61.3-154.1-70.2c-15.4-2.3-31.2-3.6-47.2-3.6h-0.2c-11.6,0-23.1,0.6-34.4,1.9c4.3-1.1,8.6-2.1,12.9-3
		c0.5-0.1,1-0.2,1.5-0.3c7.6-1.6,15.3-2.9,23.1-3.9c5.7-0.8,11.6-1.4,17.4-1.8l1.3-0.1c7.3-0.5,14.7-0.8,22.1-0.8
		c30.4,0,59.8,4.4,87.5,12.5v0C450.9,371.5,486.1,389.9,516.8,413.8z"/>
</g>
<g>
	<path class="st2" d="M243.2,344.2c-2,0.4-4,0.7-6,1.1V147h55v188.4c-3.5,0.4-6.7,0.7-9.8,1.2c-8,1-16.2,2.4-24.2,4.1l-1.6,0.3
		C252.1,342,247.6,343,243.2,344.2z"/>
	<path class="st3" d="M445.3,482.8c4.3,3.8,8.5,7.8,12.6,12c-20.7,9.7-45.5,14.8-74.2,14.8c-77.4,0-127.4-36.8-142-102.6
		c1.6-0.1,3.3-0.1,4.9-0.1c18.5,0,36.9,1.7,55,5.1c13.7,30.5,42,47.3,82.1,47.3c9.8,0,18.9-1,27.3-3c6.4,4.2,12.6,8.7,18.7,13.5
		l7.7,6L445.3,482.8z"/>
	<path class="st2" d="M530.1,147v210c-17.6-8.7-36-15.7-55-21.1V147H530.1z"/>
	<g>
		<path class="st2" d="M849.4,127v356.3h-54.9V325.4H605.4v65c-5.4,0.8-10.8,1.7-16.1,2.8c-0.3,0.1-0.6,0.2-1,0.2l-8.8-6.5
			c-3.4-2.5-6.9-5-10.5-7.3c-6.1-4.1-12.2-8-18.5-11.6V127h54.9v148.1h189.2V127H849.4z"/>
	</g>
</g>
<g>
	<path d="M301.7,652.7c0,19.7-10.7,31-29.3,31c-18.6,0-29.3-11.3-29.3-31v-69.3h-17.8v69.7c0,29.8,17.2,46.9,47.1,46.9
		c29.9,0,47.1-17.2,47.1-47.1v-69.5h-17.8V652.7z"/>
	<path d="M394.9,643.6V698h16.5v-58.2c0-18.2-9.5-27.9-27.6-27.9c-10.3,0-20,4.9-26.5,10.7v-8.7h-16.5V698h16.5v-59.9
		c4.2-5.4,12.5-11.1,21.7-11.1C390.2,627.1,394.9,632,394.9,643.6z"/>
	<path d="M440.3,605c5.8,0,10.5-4.6,10.5-10.3c0-5.8-4.7-10.5-10.5-10.5c-5.6,0-10.3,4.8-10.3,10.5C430,600.4,434.7,605,440.3,605z"
		/>
	<rect x="432.2" y="613.9" width="16.5" height="84.1"/>
	<polygon points="507.8,698 542.8,613.9 524.9,613.9 499.7,676.2 474.4,613.9 456.5,613.9 491.6,698 	"/>
	<path d="M588.9,700c13.3,0,24.8-4.4,33.3-12.9l1.2-1.2l-8.4-11.4l-1.7,1.7c-5.8,6-14.5,9.5-23.3,9.5c-16.4,0-25-11.5-26.6-23.6H628
		v-5.2c0-26.5-16.6-45-40.5-45c-23.6,0-41.5,18.9-41.5,44C546.1,681.9,563.7,700,588.9,700z M587.4,626.2
		c16.4,0,23.3,12.9,24.2,22.7h-48.2C564.7,639.1,571.8,626.2,587.4,626.2z"/>
	<path d="M684.8,629l2.5,0.5v-17.3h-2c-9,0-17.6,3.9-24.7,11.2v-9.5H644V698h16.5v-58.2c3.6-5.8,13.1-11.3,19.7-11.3
		C682,628.6,683.3,628.7,684.8,629z"/>
	<path d="M728.1,646.9c-10.5-2.5-18-4.8-18-10.8c0-6.1,6.2-10.1,15.7-10.1c9,0,17.5,3.6,22.3,9.4l1.7,2.1l8.2-12.2l-1.2-1.2
		c-8-8-18.7-12.2-31.1-12.2c-21.9,0-31.9,13-31.9,25.1c0,18.3,17,22.2,30.6,25.3c10.8,2.7,19,5.2,19,12.3c0,7-6.3,11.2-16.9,11.2
		c-10.7,0-20.2-5.4-24.8-10.7l-1.7-1.9l-8.9,12.4l1.1,1.2c8.3,8.8,19.6,13.2,33.8,13.2c20.4,0,33.5-10.3,33.5-26.2
		C759.7,654.1,741.4,650,728.1,646.9z"/>
	<path d="M833.9,622.6c-6.7-6.8-15.6-10.6-25-10.6c-22.5,0-37.7,17.7-37.7,44.1c0,26.3,15.1,44,37.7,44c9.3,0,18.3-3.9,25-10.5v8.5
		h16.5v-84.1h-16.5V622.6z M833.9,638.6v35.1c-4.5,6.6-13.5,11.2-22,11.2c-14.4,0-23.7-11.3-23.7-28.8c0-17.3,9.5-29,23.7-29
		C821.2,627.1,829.9,632.8,833.9,638.6z"/>
	<path d="M902.7,679.8l-2.2,2.4c-1.2,1.3-3.8,2.7-6.8,2.7c-5.3,0-6.1-5.2-6.1-8.3v-93.2h-16.5v95.9c0,13.4,7,20.8,19.8,20.8
		c6.9,0,12-1.8,16.1-5.7l1-0.9L902.7,679.8z"/>
	<polygon points="460.6,772.3 399.9,772.3 399.9,724.7 382.1,724.7 382.1,839.3 399.9,839.3 399.9,788.6 460.6,788.6 460.6,839.3 
		478.4,839.3 478.4,724.7 460.6,724.7 	"/>
	<path d="M536.7,753.2c-24.1,0-41.6,18.5-41.6,44c0,25.6,17.5,44.1,41.6,44.1c24.1,0,41.6-18.6,41.6-44.1
		C578.3,771.7,560.8,753.2,536.7,753.2z M536.7,768.4c16.8,0,24.5,14.9,24.5,28.8c0,14-7.7,29-24.5,29c-17,0-24.7-15-24.7-29
		C512,783.3,519.7,768.4,536.7,768.4z"/>
	<path d="M636,753.2c-9.4,0-18.4,3.8-25,10.4v-8.4h-16.5v114.6H611v-39.1c6.7,6.9,15.4,10.6,25,10.6c22.5,0,37.7-17.7,37.7-44.1
		C673.6,770.5,658.9,753.2,636,753.2z M656.5,797.2c0,17.3-9.5,29-23.7,29c-8.2,0-17.5-4.9-21.9-11.5v-35
		c4.4-6.6,13.5-11.3,21.9-11.3C647.2,768.4,656.5,779.7,656.5,797.2z"/>
	<path d="M726.5,753.2c-23.6,0-41.5,18.9-41.5,44c0,26,17.6,44.1,42.8,44.1c13.3,0,24.8-4.4,33.3-12.9l1.2-1.2l-8.4-11.4l-1.7,1.7
		c-5.8,6-14.5,9.5-23.3,9.5c-16.4,0-25-11.5-26.6-23.6H767v-5.2C767,771.7,750.3,753.2,726.5,753.2z M726.3,767.5
		c16.4,0,23.3,12.9,24.2,22.7h-48.2C703.7,780.4,710.7,767.5,726.3,767.5z"/>
</g>
</svg>
